<svg width="17" height="16" viewBox="0 0 17 16" fill="none" xmlns="http://www.w3.org/2000/svg">
<path d="M9.65333 2.33977L10.8267 4.68643C10.9867 5.0131 11.4133 5.32643 11.7733 5.38643L13.9 5.73977C15.26 5.96643 15.58 6.9531 14.6 7.92643L12.9467 9.57977C12.6667 9.85977 12.5133 10.3998 12.6 10.7864L13.0733 12.8331C13.4467 14.4531 12.5867 15.0798 11.1533 14.2331L9.16 13.0531C8.8 12.8398 8.20667 12.8398 7.84 13.0531L5.84667 14.2331C4.42 15.0798 3.55333 14.4464 3.92667 12.8331L4.4 10.7864C4.48667 10.3998 4.33333 9.85977 4.05333 9.57977L2.4 7.92643C1.42667 6.9531 1.74 5.96643 3.1 5.73977L5.22667 5.38643C5.58 5.32643 6.00667 5.0131 6.16667 4.68643L7.34 2.33977C7.98 1.06643 9.02 1.06643 9.65333 2.33977Z" fill="#856DA8"/>
</svg>
