<svg width="278" height="278" viewBox="0 0 278 278" fill="none" xmlns="http://www.w3.org/2000/svg">
<path d="M237.015 97.2877C236.497 97.6481 235.979 98.0355 235.461 98.4492C235.381 98.516 235.288 98.5828 235.208 98.6493C233.614 97.6215 230.225 95.5257 228.033 94.164C226.771 93.3896 225.189 93.3763 223.914 94.1371C222.572 94.9381 221.031 95.8592 220.685 96.0597C220.685 96.0597 219.875 96.5402 219.808 96.5801C219.277 96.8873 218.533 97.3279 217.589 97.8752C204.528 105.524 154.62 134.747 154.58 134.76C150.514 137.137 148.003 141.515 147.99 146.241C147.884 173.488 147.764 200.734 147.658 227.981C147.644 230.371 148.907 232.573 150.953 233.775L166.645 242.973L181.846 251.876C186.005 254.32 191.16 254.292 195.32 251.823L264.521 210.626C266.525 209.438 267.761 207.276 267.776 204.939L268.851 73.0314C268.864 70.6419 267.616 68.4125 265.556 67.2111L152.534 1.06331C150.78 0.0353832 148.561 1.29025 148.535 3.33277L148.043 43.5953C148.03 44.5566 148.535 45.451 149.358 45.9315C178.577 63.0593 207.796 80.1735 237.015 97.2877Z" fill="#9B5DE5"/>
<path d="M128.605 231.999C128.645 162.234 128.699 92.4815 128.738 22.7162C114.375 14.4261 108.502 11.0352 97.792 4.84098L90.9621 0.889474C88.9027 -0.298646 86.3648 -0.298646 84.3053 0.902824L75.7084 5.94901L14.666 41.686C10.5868 44.0891 8.07549 48.4809 8.07549 53.2202V125.268V135.12C8.07549 137.524 9.36436 139.753 11.4505 140.928L27.7807 150.192L44.5361 159.711C47.4594 161.366 51.0337 161.313 53.917 159.577L62.6201 154.304C64.6665 153.062 69.7557 149.965 74.5125 147.055C75.6951 146.334 80.4916 143.397 80.4916 143.397L83.3353 141.595C84.4648 140.888 85.1556 139.659 85.1955 138.324C85.2354 136.949 85.2751 135.561 85.3018 134.173C85.355 131.903 85.395 129.661 85.4346 127.431L88.1454 127.378C88.1054 131.783 88.0788 136.175 88.0391 140.58L87.6405 248.887C87.6272 250.849 89.66 252.143 91.4273 251.316C103.306 245.682 115.185 240.036 127.051 234.402C128.008 233.975 128.592 233.027 128.605 231.999Z" fill="#FADD2A"/>
</svg>
