<svg width="150" height="24" viewBox="0 0 150 24" fill="none" xmlns="http://www.w3.org/2000/svg">
<g clip-path="url(#clip0_655_1092)">
<path d="M20.076 9.40801C20.0306 9.43961 19.9851 9.47358 19.9397 9.50986C19.9327 9.51571 19.9245 9.52157 19.9176 9.52741C19.7777 9.43728 19.4806 9.25349 19.2884 9.13408C19.1777 9.06618 19.039 9.06501 18.9271 9.13173C18.8095 9.20197 18.6743 9.28274 18.644 9.30032C18.644 9.30032 18.5729 9.34245 18.5671 9.34596C18.5205 9.3729 18.4553 9.41153 18.3725 9.45953C17.2271 10.1303 12.8507 12.6929 12.8472 12.694C12.4906 12.9024 12.2704 13.2864 12.2692 13.7008C12.2599 16.0901 12.2494 18.4794 12.2401 20.8687C12.239 21.0783 12.3496 21.2714 12.5291 21.3768L13.9052 22.1834L15.2382 22.9641C15.6029 23.1784 16.0549 23.176 16.4197 22.9595L22.4881 19.3469C22.6638 19.2427 22.7722 19.053 22.7735 18.8482L22.8678 7.28093C22.8689 7.0714 22.7594 6.87589 22.5788 6.77054L12.6677 0.969939C12.5139 0.879798 12.3194 0.98984 12.317 1.16895L12.2739 4.69964C12.2727 4.78393 12.317 4.86237 12.3893 4.9045C14.9515 6.40646 17.5138 7.90723 20.076 9.40801Z" fill="#9B5DE5"/>
<path d="M10.5694 21.221C10.573 15.1032 10.5776 8.98649 10.5811 2.86866C9.32154 2.14169 8.80652 1.84434 7.86738 1.30116L7.26846 0.954643C7.08786 0.850455 6.86531 0.850455 6.68471 0.955814L5.93084 1.39832L0.577936 4.53216C0.220221 4.74288 0 5.12801 0 5.54361V11.8616V12.7256C0 12.9363 0.113024 13.1318 0.295958 13.2348L1.72798 14.0472L3.19729 14.8819C3.45363 15.0271 3.76707 15.0224 4.01991 14.8702L4.78311 14.4078C4.96255 14.2989 5.40883 14.0273 5.82597 13.7721C5.92967 13.7089 6.35029 13.4514 6.35029 13.4514L6.59965 13.2933C6.6987 13.2313 6.75927 13.1236 6.76277 13.0065C6.76628 12.8859 6.76976 12.7642 6.77209 12.6424C6.77676 12.4434 6.78026 12.2468 6.78374 12.0513L7.02145 12.0466C7.01795 12.4329 7.01562 12.8181 7.01214 13.2044L6.97718 22.7019C6.97601 22.874 7.15427 22.9874 7.30925 22.915C8.35092 22.4209 9.39262 21.9257 10.4331 21.4317C10.517 21.3943 10.5683 21.3111 10.5694 21.221Z" fill="#FADD2A"/>
<path d="M147.549 18.7549C147.149 18.7549 146.773 18.6589 146.421 18.4669C146.085 18.2588 145.813 17.9868 145.605 17.6508C145.397 17.2987 145.293 16.9227 145.293 16.5226C145.293 16.0906 145.397 15.7065 145.605 15.3705C145.813 15.0344 146.085 14.7704 146.421 14.5784C146.773 14.3704 147.149 14.2664 147.549 14.2664C147.981 14.2664 148.365 14.3704 148.701 14.5784C149.037 14.7704 149.309 15.0344 149.517 15.3705C149.725 15.7065 149.829 16.0906 149.829 16.5226C149.829 16.9227 149.725 17.2987 149.517 17.6508C149.309 17.9868 149.037 18.2588 148.701 18.4669C148.365 18.6589 147.981 18.7549 147.549 18.7549Z" fill="#FADD2A"/>
<path d="M138.106 18.8029C136.938 18.8029 135.914 18.5549 135.034 18.0588C134.154 17.5467 133.474 16.8346 132.994 15.9225C132.513 15.0104 132.273 13.9383 132.273 12.7061C132.273 11.49 132.513 10.4258 132.994 9.51372C133.474 8.58561 134.154 7.86553 135.034 7.35345C135.914 6.82539 136.938 6.56134 138.106 6.56134C139.29 6.56134 140.315 6.82539 141.179 7.35345C142.059 7.88152 142.739 8.6096 143.219 9.53773C143.699 10.4498 143.939 11.498 143.939 12.6821C143.939 12.8581 143.931 13.0342 143.915 13.2102C143.915 13.3702 143.899 13.5062 143.867 13.6182H134.842V11.2659H141.49L141.011 12.3941C141.011 11.402 140.77 10.5939 140.29 9.96978C139.826 9.3457 139.098 9.03365 138.106 9.03365C137.242 9.03365 136.546 9.3057 136.018 9.84978C135.49 10.3778 135.226 11.0899 135.226 11.986V13.2582C135.226 14.2023 135.49 14.9464 136.018 15.4905C136.562 16.0185 137.298 16.2826 138.226 16.2826C139.042 16.2826 139.682 16.1146 140.146 15.7785C140.611 15.4425 141.011 15.0264 141.347 14.5303L143.531 15.7785C143.003 16.7546 142.283 17.5067 141.371 18.0348C140.474 18.5469 139.386 18.8029 138.106 18.8029Z" fill="#FBFFF1"/>
<path d="M126.876 6.56134C127.676 6.56134 128.317 6.69738 128.797 6.9694C129.293 7.24143 129.661 7.60949 129.901 8.07354C130.157 8.5376 130.325 9.06566 130.405 9.65775C130.485 10.2338 130.525 10.8339 130.525 11.458V18.5629H127.38V11.434C127.38 10.7139 127.236 10.2338 126.948 9.99379C126.676 9.75376 126.324 9.63374 125.892 9.63374C125.492 9.63374 125.084 9.71374 124.668 9.87376C124.252 10.0178 123.86 10.2338 123.492 10.5218C123.14 10.7939 122.836 11.1059 122.58 11.458L122.172 9.82577H122.964V18.5629H119.819V6.82539H122.172L122.82 9.08167L121.812 9.03367C122.228 8.55361 122.7 8.12956 123.228 7.76149C123.772 7.39345 124.348 7.10542 124.956 6.8974C125.564 6.67337 126.204 6.56134 126.876 6.56134Z" fill="#FBFFF1"/>
<path d="M111.348 18.8989C110.484 18.8989 109.724 18.7389 109.068 18.4189C108.412 18.0828 107.908 17.6187 107.556 17.0267C107.203 16.4186 107.027 15.7145 107.027 14.9144C107.027 14.1143 107.212 13.4182 107.58 12.8261C107.964 12.2341 108.484 11.778 109.14 11.458C109.796 11.1219 110.54 10.9539 111.372 10.9539C112.508 10.9539 113.428 11.2179 114.133 11.746C114.853 12.2581 115.341 12.9942 115.597 13.9543L114.133 13.7623V10.9299C114.133 10.4818 113.972 10.0818 113.652 9.72975C113.332 9.37771 112.812 9.20169 112.092 9.20169C111.644 9.20169 111.148 9.25768 110.604 9.36971C110.06 9.46572 109.492 9.65775 108.9 9.94579L107.964 7.64149C108.652 7.30544 109.38 7.04141 110.148 6.84938C110.932 6.65735 111.716 6.56134 112.5 6.56134C113.572 6.56134 114.461 6.75337 115.164 7.13742C115.869 7.52147 116.397 8.04953 116.749 8.72163C117.101 9.39372 117.277 10.1618 117.277 11.0259V18.5629H114.781L114.109 16.3306L115.597 15.8985C115.325 16.8427 114.82 17.5787 114.085 18.1068C113.364 18.6349 112.452 18.8989 111.348 18.8989ZM112.212 16.4986C112.788 16.4986 113.252 16.3546 113.604 16.0666C113.956 15.7785 114.133 15.3945 114.133 14.9144C114.133 14.4183 113.956 14.0343 113.604 13.7623C113.252 13.4742 112.788 13.3302 112.212 13.3302C111.636 13.3302 111.172 13.4742 110.82 13.7623C110.468 14.0343 110.292 14.4183 110.292 14.9144C110.292 15.3945 110.468 15.7785 110.82 16.0666C111.172 16.3546 111.636 16.4986 112.212 16.4986Z" fill="#FBFFF1"/>
<path d="M104.487 18.6829C103.959 18.6829 103.471 18.5709 103.023 18.3469C102.591 18.1229 102.239 17.7788 101.967 17.3148C101.711 16.8347 101.583 16.2186 101.583 15.4665V2.21686H104.703V14.3624C104.703 14.9225 104.815 15.2905 105.039 15.4665C105.263 15.6266 105.535 15.7066 105.855 15.7066V18.5149C105.679 18.5789 105.463 18.6189 105.207 18.6349C104.967 18.667 104.727 18.6829 104.487 18.6829Z" fill="#FBFFF1"/>
<path d="M98.8445 18.5629H95.7002V6.82537H98.8445V18.5629ZM95.3641 3.17691C95.3641 2.60084 95.5321 2.13678 95.8683 1.78474C96.2202 1.41669 96.6843 1.23267 97.2603 1.23267C97.8363 1.23267 98.2925 1.41669 98.6286 1.78474C98.9806 2.13678 99.1566 2.60084 99.1566 3.17691C99.1566 3.72099 98.9806 4.16903 98.6286 4.52108C98.2925 4.87313 97.8363 5.04914 97.2603 5.04914C96.6843 5.04914 96.2202 4.87313 95.8683 4.52108C95.5321 4.16903 95.3641 3.72099 95.3641 3.17691Z" fill="#FBFFF1"/>
<path d="M86.2738 18.8509C85.3936 18.8509 84.6894 18.7149 84.1614 18.4429C83.6332 18.1709 83.2253 17.8108 82.9372 17.3628C82.6652 16.8987 82.4812 16.3706 82.3852 15.7786C82.2892 15.1865 82.2411 14.5704 82.2411 13.9303V6.82544H85.3856V13.9543C85.3856 14.6744 85.5376 15.1545 85.8416 15.3945C86.1616 15.6345 86.5376 15.7546 86.9698 15.7546C87.3698 15.7546 87.7698 15.6826 88.17 15.5385C88.57 15.3945 88.946 15.1865 89.298 14.9144C89.666 14.6264 89.9702 14.2984 90.2101 13.9303L90.5942 15.5865H89.8262V6.82544H92.9704V18.5629H90.6182L89.9702 16.3306L90.9782 16.3546C90.5782 16.8187 90.1222 17.2428 89.6101 17.6268C89.1141 18.0109 88.5779 18.3149 88.0019 18.5389C87.4418 18.7469 86.8658 18.8509 86.2738 18.8509Z" fill="#FBFFF1"/>
<path d="M73.3772 18.8509C72.3213 18.8509 71.3851 18.5949 70.5688 18.0828C69.7528 17.5548 69.1127 16.8266 68.6488 15.8985C68.2006 14.9704 67.9766 13.9063 67.9766 12.7061C67.9766 11.49 68.2006 10.4258 68.6488 9.51372C69.0968 8.58561 69.7288 7.86553 70.5448 7.35345C71.3611 6.82539 72.3052 6.56134 73.3772 6.56134C74.4014 6.56134 75.2975 6.81738 76.0655 7.32945C76.8497 7.8255 77.4578 8.5296 77.8898 9.44171C78.3219 10.3538 78.538 11.442 78.538 12.7061C78.538 14.0023 78.3219 15.1064 77.8898 16.0185C77.4578 16.9307 76.8578 17.6348 76.0896 18.1308C75.3215 18.6109 74.4175 18.8509 73.3772 18.8509ZM73.9294 15.9465C74.7455 15.9465 75.4096 15.6505 75.9217 15.0584C76.4336 14.4503 76.6898 13.6663 76.6898 12.7061C76.6898 11.73 76.4336 10.9459 75.9217 10.3538C75.4096 9.74575 74.7455 9.44171 73.9294 9.44171C73.1292 9.44171 72.4651 9.74575 71.9371 10.3538C71.425 10.9619 71.1691 11.746 71.1691 12.7061C71.1691 13.6663 71.425 14.4503 71.9371 15.0584C72.4651 15.6505 73.1292 15.9465 73.9294 15.9465ZM76.5457 23.1234V15.4905H76.7618V9.60973H76.5457L77.3378 6.82539H79.69V23.1234H76.5457Z" fill="#FBFFF1"/>
<path d="M62.9844 6.82539L63.7765 10.0658V18.5629H60.6322V6.82539H62.9844ZM63.1285 11.674L62.5522 11.41V9.00967L62.7683 8.74564C62.9443 8.4576 63.2084 8.14555 63.5604 7.80951C63.9285 7.47348 64.3445 7.18544 64.8086 6.94539C65.2886 6.68936 65.7848 6.56134 66.2967 6.56134C66.5529 6.56134 66.7849 6.57735 66.993 6.60936C67.2009 6.64136 67.3611 6.69738 67.473 6.77738V9.63374H66.7049C65.6648 9.63374 64.8646 9.80176 64.3047 10.1378C63.7445 10.4578 63.3525 10.9699 63.1285 11.674Z" fill="#FBFFF1"/>
<path d="M51.2532 18.8509C50.3732 18.8509 49.6691 18.7149 49.1411 18.4429C48.6129 18.1709 48.205 17.8108 47.9169 17.3628C47.6448 16.8987 47.4609 16.3706 47.3649 15.7786C47.2688 15.1865 47.2208 14.5704 47.2208 13.9303V6.82544H50.3651V13.9543C50.3651 14.6744 50.5173 15.1545 50.8213 15.3945C51.1413 15.6345 51.5173 15.7546 51.9495 15.7546C52.3495 15.7546 52.7495 15.6826 53.1495 15.5385C53.5497 15.3945 53.9257 15.1865 54.2777 14.9144C54.6457 14.6264 54.9497 14.2984 55.1898 13.9303L55.5739 15.5865H54.8058V6.82544H57.9501V18.5629H55.5979L54.9497 16.3306L55.9578 16.3546C55.5578 16.8187 55.1019 17.2428 54.5898 17.6268C54.0937 18.0109 53.5576 18.3149 52.9816 18.5389C52.4215 18.7469 51.8453 18.8509 51.2532 18.8509Z" fill="#FBFFF1"/>
<path d="M28.5947 10.4019C28.5947 9.16973 28.8028 8.0416 29.2189 7.01746C29.635 5.97733 30.2189 5.08122 30.9711 4.32911C31.7231 3.57702 32.6112 2.99295 33.6354 2.5769C34.6755 2.16085 35.8116 1.95282 37.0438 1.95282C38.2599 1.95282 39.3801 2.16085 40.4041 2.5769C41.4284 2.99295 42.3165 3.57702 43.0687 4.32911C43.8207 5.08122 44.4048 5.97733 44.8209 7.01746C45.2367 8.0416 45.4449 9.16973 45.4449 10.4019C45.4449 11.6181 45.2367 12.7462 44.8209 13.7863C44.4048 14.8105 43.8207 15.7066 43.0687 16.4747C42.3165 17.2268 41.4284 17.8108 40.4041 18.2269C39.3801 18.6429 38.2599 18.851 37.0438 18.851C35.8116 18.851 34.6755 18.6429 33.6354 18.2269C32.6112 17.8108 31.7231 17.2268 30.9711 16.4747C30.2189 15.7066 29.635 14.8105 29.2189 13.7863C28.8028 12.7462 28.5947 11.6181 28.5947 10.4019ZM31.8112 10.4019C31.8112 11.458 32.0352 12.3941 32.4832 13.2103C32.9312 14.0103 33.5473 14.6344 34.3314 15.0825C35.1317 15.5305 36.0356 15.7546 37.0438 15.7546C38.0519 15.7546 38.94 15.5305 39.7081 15.0825C40.4922 14.6344 41.1083 14.0103 41.5563 13.2103C42.0044 12.3941 42.2284 11.458 42.2284 10.4019C42.2284 9.32975 42.0044 8.39363 41.5563 7.59354C41.1083 6.77744 40.4922 6.14534 39.7081 5.6973C38.94 5.24924 38.0519 5.02521 37.0438 5.02521C36.0356 5.02521 35.1317 5.25724 34.3314 5.72129C33.5473 6.16935 32.9312 6.79343 32.4832 7.59354C32.0352 8.39363 31.8112 9.32975 31.8112 10.4019Z" fill="#FBFFF1"/>
</g>
<defs>
<clipPath id="clip0_655_1092">
<rect width="150" height="22.2467" fill="white" transform="translate(0 0.876648)"/>
</clipPath>
</defs>
</svg>
