<svg width="100" height="100" viewBox="0 0 100 100" fill="none" xmlns="http://www.w3.org/2000/svg">
<path d="M46.2625 84.4524C59.1102 82.1828 69.7216 80.3047 69.8435 80.2789L70.0651 80.2319L57.9356 65.8043C51.2644 57.8691 45.8061 51.3459 45.8061 51.3083C45.8061 51.2371 58.3308 16.7467 58.4012 16.6239C58.4248 16.583 66.9482 31.2985 79.0626 52.2954C90.4044 71.953 99.7551 88.1608 99.842 88.3127L100 88.5888L61.4515 88.5838L22.9031 88.5789L46.2625 84.4524ZM0 80.0526C0 80.0323 5.71535 70.1109 12.7008 58.0051L25.4016 35.9945L40.2028 23.5732C48.3435 16.7415 55.026 11.1436 55.0528 11.1331C55.0796 11.1232 54.9725 11.3927 54.8149 11.7323C54.6572 12.072 47.4247 27.5848 38.7427 46.2053L22.9573 80.0608L11.4787 80.0751C5.1654 80.0831 0 80.0729 0 80.0526Z" fill="#FAFAFA"/>
<path d="M46.2625 84.4524C59.1102 82.1828 69.7216 80.3047 69.8435 80.2789L70.0651 80.2319L57.9356 65.8043C51.2644 57.8691 45.8061 51.3459 45.8061 51.3083C45.8061 51.2371 58.3308 16.7467 58.4012 16.6239C58.4248 16.583 66.9482 31.2985 79.0626 52.2954C90.4044 71.953 99.7551 88.1608 99.842 88.3127L100 88.5888L61.4515 88.5838L22.9031 88.5789L46.2625 84.4524ZM0 80.0526C0 80.0323 5.71535 70.1109 12.7008 58.0051L25.4016 35.9945L40.2028 23.5732C48.3435 16.7415 55.026 11.1436 55.0528 11.1331C55.0796 11.1232 54.9725 11.3927 54.8149 11.7323C54.6572 12.072 47.4247 27.5848 38.7427 46.2053L22.9573 80.0608L11.4787 80.0751C5.1654 80.0831 0 80.0729 0 80.0526Z" fill="#674992" fill-opacity="0.01"/>
</svg>
