<svg width="100" height="100" viewBox="0 0 100 100" fill="none" xmlns="http://www.w3.org/2000/svg">
<path d="M49.9838 89.6128C39.4032 89.6128 29.4555 85.492 21.9732 78.0103C14.4909 70.5286 10.3707 60.581 10.3707 49.9998C10.3707 39.4186 14.4915 29.4709 21.9732 21.9892C29.4549 14.5075 39.4026 10.3867 49.9838 10.3867C60.565 10.3867 70.5127 14.5075 77.995 21.9892C85.4773 29.4709 89.5968 39.4186 89.5968 49.9998C89.5968 60.581 85.476 70.5286 77.9943 78.011C70.5127 85.4933 60.565 89.6128 49.9838 89.6128Z" fill="#FAFAFA"/>
<path d="M49.9838 89.6128C39.4032 89.6128 29.4555 85.492 21.9732 78.0103C14.4909 70.5286 10.3707 60.581 10.3707 49.9998C10.3707 39.4186 14.4915 29.4709 21.9732 21.9892C29.4549 14.5075 39.4026 10.3867 49.9838 10.3867C60.565 10.3867 70.5127 14.5075 77.995 21.9892C85.4773 29.4709 89.5968 39.4186 89.5968 49.9998C89.5968 60.581 85.476 70.5286 77.9943 78.011C70.5127 85.4933 60.565 89.6128 49.9838 89.6128Z" fill="#674992" fill-opacity="0.01"/>
<path opacity="0.9" d="M49.9832 49.8591H89.5962M49.9832 49.8591L77.9937 21.8492M49.9832 49.8591V10.2461M49.9832 49.8591L21.9733 21.8492M49.9832 49.8591H10.3701M49.9832 49.8591L21.9733 77.8697M49.9832 49.8591V89.4722M49.9832 49.8591L77.9937 77.8697" stroke="#9A5CE4" stroke-opacity="0.1" stroke-width="0.856" stroke-miterlimit="7.976" stroke-linecap="round" stroke-linejoin="round" stroke-dasharray="0.41 0.81"/>
<path opacity="0.9" d="M54.386 49.8613L54.255 48.7959L53.8705 47.7954L53.2551 46.9168L52.4446 46.2132L51.4888 45.7262L50.4448 45.4844L49.3723 45.5038L48.3354 45.782L47.3971 46.3014L46.6132 47.0328L46.0296 47.9329L45.6801 48.9477L45.5861 50.017L45.754 51.0765L46.1729 52.0641L46.8174 52.9207L47.6513 53.5957L48.624 54.0483L49.6764 54.2532L50.7483 54.1974L51.7741 53.8836L52.6936 53.3311L53.4523 52.5724L54.0041 51.6536L54.3179 50.6278L54.386 49.8613Z" stroke="#1F1740" stroke-opacity="0.1" stroke-width="0.856" stroke-miterlimit="199.409" stroke-linecap="square" stroke-linejoin="round" stroke-dasharray="0.41 0.81"/>
<path opacity="0.9" d="M63.1886 49.8611L63.0602 48.024L62.6777 46.222L62.0467 44.4914L61.1824 42.8644L60.0995 41.3737L58.8201 40.0483L57.3689 38.9135L55.7731 37.9927L54.0658 37.3028L52.2774 36.8566L50.4455 36.6641L48.604 36.7283L46.7903 37.0486L45.0382 37.6173L43.3821 38.4252L41.8544 39.4549L40.4855 40.6876L39.3015 42.0993L38.3249 43.6607L37.576 45.344L37.0689 47.1143L36.8121 48.939V50.7818L37.0689 52.6065L37.576 54.3768L38.3249 56.0601L39.3015 57.6216L40.4855 59.0332L41.8544 60.2665L43.3821 61.2963L45.0382 62.1036L46.7903 62.6722L48.6046 62.9926L50.4462 63.0574L52.2774 62.8642L54.0658 62.4187L55.7731 61.7281L57.3689 60.8073L58.8201 59.6726L60.0995 58.3472L61.1824 56.8564L62.0467 55.2288L62.677 53.4988L63.0602 51.6968L63.1886 49.8611Z" stroke="#1F1740" stroke-opacity="0.1" stroke-width="0.856" stroke-miterlimit="199.409" stroke-linecap="square" stroke-linejoin="round" stroke-dasharray="0.41 0.81"/>
<path opacity="0.9" d="M71.9911 49.8615L71.8711 47.5608L71.5112 45.2855L70.9147 43.0613L70.0899 40.9105L69.0439 38.8575L67.7892 36.9265L66.3393 35.1355L64.7104 33.5072L62.9201 32.0573L60.9884 30.8026L58.9361 29.7567L56.7852 28.9312L54.5611 28.3353L52.2851 27.9754L49.9844 27.8555L47.6838 27.9754L45.409 28.3353L43.1849 28.9319L41.0334 29.7567L38.9811 30.8026L37.0494 32.0573L35.259 33.5072L33.6302 35.1355L32.1803 36.9265L30.9255 38.8575L29.8796 40.9105L29.0542 43.0613L28.4582 45.2855L28.0984 47.5608L27.9784 49.8615L28.0984 52.1621L28.4582 54.4375L29.0548 56.6617L29.8796 58.8125L30.9255 60.8655L32.1803 62.7965L33.6302 64.5875L35.259 66.2157L37.0494 67.6656L38.9811 68.9204L41.0334 69.9669L43.1843 70.7918L45.4084 71.3883L47.6844 71.7482L49.9844 71.8682L52.2857 71.7482L54.5604 71.3877L56.7846 70.7918L58.9361 69.9669L60.9884 68.9204L62.9201 67.6656L64.7104 66.2157L66.3393 64.5875L67.7892 62.7965L69.0439 60.8655L70.0899 58.8125L70.9147 56.6617L71.5112 54.4375L71.8711 52.1621L71.9911 49.8615Z" stroke="#1F1740" stroke-opacity="0.1" stroke-width="0.856" stroke-miterlimit="199.409" stroke-linecap="square" stroke-linejoin="round" stroke-dasharray="0.41 0.81"/>
<path opacity="0.9" d="M80.7937 49.8606L80.6251 46.6405L80.1193 43.456L79.2854 40.3409L78.1299 37.3309L76.6664 34.457L74.9098 31.7524L72.8801 29.2455L70.6002 26.965L68.0934 24.9354L65.3888 23.1787L62.5149 21.7159L59.5048 20.561L56.3897 19.7265L53.2046 19.2213L49.9845 19.0527L46.7643 19.2213L43.5805 19.7265L40.4648 20.561L37.4547 21.7159L34.5808 23.1794L31.8768 24.9367L29.3693 26.9663L27.0888 29.2462L25.0592 31.753L23.3032 34.457L21.8397 37.3315L20.6842 40.3416L19.8496 43.4567L19.3451 46.6412L19.1759 49.8613L19.3445 53.0814L19.8496 56.2659L20.6842 59.3817L21.8397 62.3917L23.3032 65.2649L25.0598 67.9696L27.0894 70.4764L29.3693 72.757L31.8762 74.7866L34.5808 76.5432L37.4547 78.0067L40.4648 79.1616L43.5798 79.9968L46.7643 80.5013L49.9845 80.6699L53.2046 80.5013L56.3897 79.9968L59.5048 79.1616L62.5149 78.0067L65.3888 76.5432L68.0927 74.7859L70.6002 72.757L72.8801 70.4764L74.9098 67.9696L76.667 65.2656L78.1299 62.3917L79.2854 59.3817L80.1199 56.2659L80.6244 53.0821L80.7937 49.8606Z" stroke="#1F1740" stroke-opacity="0.1" stroke-width="0.856" stroke-miterlimit="199.409" stroke-linecap="square" stroke-linejoin="round" stroke-dasharray="0.41 0.81"/>
<path d="M50 90.2031C39.2619 90.2031 29.1657 86.0214 21.5725 78.4282C13.9793 70.8349 9.79688 60.7388 9.79688 50C9.79688 39.2612 13.9786 29.1657 21.5719 21.5719C29.1651 13.978 39.2612 9.79688 50 9.79688C60.7388 9.79688 70.8349 13.9786 78.4282 21.5719C86.0214 29.1651 90.2031 39.2612 90.2031 50C90.2031 60.7388 86.0214 70.8349 78.4282 78.4282C70.8349 86.0214 60.7388 90.2031 50 90.2031ZM50 10.977C39.577 10.977 29.7772 15.0362 22.407 22.4064C15.0363 29.7772 10.977 39.5764 10.977 50C10.977 60.4236 15.0362 70.2235 22.4064 77.5936C29.7765 84.9638 39.5764 89.023 50 89.023C60.4236 89.023 70.2235 84.9638 77.5936 77.5936C84.9638 70.2235 89.023 60.4236 89.023 50C89.023 39.5764 84.9638 29.7772 77.5936 22.4064C70.2228 15.0362 60.4236 10.977 50 10.977Z" fill="#9A5CE4" fill-opacity="0.1"/>
<path opacity="0.6" d="M49.9838 49.8602L50.0674 49.8329L50.1511 49.8057L50.2347 49.7785L50.3184 49.7512L50.402 49.724L50.4857 49.6968L50.5693 49.6695L50.653 49.6423L50.7366 49.615L50.8202 49.5878L50.9039 49.5606L50.9875 49.5333L51.0712 49.5061L51.1548 49.4789L51.2385 49.4516L51.3221 49.4244L51.4058 49.3972L51.4894 49.3699L51.5731 49.3427L51.6567 49.3155L51.7404 49.2882L51.824 49.261L51.9077 49.2338L51.9913 49.2065L52.075 49.1793L52.1586 49.1521L52.2423 49.1248L52.3259 49.0976L52.4096 49.0704L52.4932 49.0431L52.5769 49.0159L52.6605 48.9887L52.7442 48.9614L52.8278 48.9342L52.9115 48.907L52.9951 48.8797L53.0788 48.8525L53.1624 48.8253L53.2461 48.798L53.3297 48.7708L53.4134 48.7435L53.497 48.7163L53.5807 48.6891L53.6643 48.6618L53.7479 48.6346L53.8316 48.6074L53.9152 48.5801L53.9989 48.5529L54.0825 48.5257L54.1662 48.4984L54.2498 48.4712L54.3335 48.444L54.4171 48.4167L54.5008 48.3895L54.5844 48.3623L54.6681 48.335L54.7517 48.3078L54.8354 48.2806L54.919 48.2533L55.0027 48.2261L55.0863 48.1989L55.17 48.1716L55.2536 48.1444L55.3373 48.1172L55.4209 48.0899L55.5046 48.0627L55.5882 48.0355L55.6719 48.0082L55.7555 47.981L55.8392 47.9538L55.9228 47.9265L56.0065 47.8993L56.0901 47.872L56.1738 47.8448L56.2574 47.8176L56.341 47.7903L56.4247 47.7631L56.5083 47.7359L56.592 47.7086L56.6756 47.6814L56.7593 47.6542L56.8429 47.6269L56.9266 47.5997L57.0102 47.5725L57.0939 47.5452L57.1775 47.518L57.2612 47.4908L57.3448 47.4635L57.4285 47.4363L57.5121 47.4091L57.5958 47.3818L57.6794 47.3546L57.7631 47.3274L57.8467 47.3001L57.9304 47.2729L58.014 47.2457L58.0977 47.2184L58.1813 47.1912L58.265 47.164L58.3486 47.1367L58.3648 47.1665L58.3733 47.1931L58.3817 47.2197L58.3901 47.2463L58.3985 47.2729L58.407 47.2995L58.4147 47.3261L58.4225 47.3526L58.4297 47.3779L58.4374 47.4045L58.4452 47.4311L58.453 47.4577L58.4608 47.4843L58.4679 47.5109L58.4751 47.5375L58.4822 47.564L58.4893 47.5906L58.4965 47.6172L58.5036 47.6438L58.5107 47.6704L58.5179 47.697L58.5243 47.7236L58.5308 47.7501L58.5373 47.7767L58.5438 47.8033L58.5503 47.8299L58.5568 47.8571L58.5632 47.8844L58.5691 47.9116L58.5749 47.9388L58.5808 47.9661L58.5866 47.9933L58.5924 48.0205L58.5983 48.0478L58.6041 48.075L58.6099 48.1022L58.6158 48.1295L58.621 48.1567L58.6261 48.1839L58.6313 48.2112L58.6365 48.2384L58.6417 48.2656L58.6469 48.2929L58.6514 48.3201L58.656 48.3474L58.6605 48.3746L58.665 48.4018L58.6696 48.4291L58.6741 48.4563L58.6787 48.4835L58.6832 48.5108L58.6877 48.538L58.6916 48.5652L58.6955 48.5925L58.6994 48.6197L58.7033 48.6469L58.7072 48.6742L58.7111 48.7014L58.715 48.7286L58.7182 48.7559L58.7215 48.7831L58.7247 48.8103L58.7279 48.8376L58.7312 48.8648L58.7344 48.892L58.7377 48.9193L58.7409 48.9465L58.7435 48.9737L58.7461 49.001L58.7487 49.0282L58.7513 49.0554L58.7539 49.0827L58.7565 49.1099L58.7591 49.1378L58.761 49.1657L58.763 49.1936L58.7649 49.2214L58.7668 49.2493L58.7688 49.2772L58.7707 49.3051L58.7727 49.333L58.7746 49.3609L58.7759 49.3887L58.7772 49.4166L58.7785 49.4445L58.7798 49.4724L58.7811 49.5003L58.7824 49.5282L58.7837 49.556L58.7844 49.5839L58.785 49.6118L58.7857 49.6397L58.7863 49.6676L58.787 49.6955L58.7876 49.7233L58.7883 49.7512V49.8627H50.0713L49.9838 49.8602Z" fill="#9A5CE4" fill-opacity="0.1"/>
<g opacity="0.6">
<path d="M49.9838 49.8597L50.0765 49.6126L50.1692 49.3656L50.2619 49.1185L50.3547 48.8715L50.4474 48.6244L50.5401 48.3774L50.6329 48.1303L50.7256 47.8833L50.8183 47.6362L50.911 47.3891L51.0038 47.1421L51.0965 46.895L51.1892 46.648L51.2819 46.4009L51.3747 46.1539L51.4674 45.9068L51.5601 45.6598L51.6528 45.4127L51.7456 45.1656L51.8383 44.9186L51.931 44.6715L52.0238 44.4245L52.1165 44.1774L52.2092 43.9304L52.3019 43.6833L52.3947 43.4363L52.4874 43.1892L52.5801 42.9422L52.6728 42.6951L52.7656 42.448L52.8583 42.201L52.951 41.9539L53.0437 41.7069L53.1365 41.4598L53.2292 41.2128L53.3219 40.9657L53.4146 40.7187L53.5074 40.4716L53.6001 40.2246L53.6928 39.9775L53.7856 39.7304L53.8783 39.4834L53.971 39.2363L54.0637 38.9893L54.1565 38.7422L54.2492 38.4952L54.3419 38.2481L54.4346 38.0011L54.5274 37.754L54.6201 37.507L54.7128 37.2599L54.8055 37.0128L54.8983 36.7658L54.991 36.5187L55.0837 36.2717L55.1765 36.0246L55.2692 35.7776L55.3619 35.5305L55.4546 35.2835L55.5474 35.0364L55.6401 34.7894L55.7328 34.5423L55.8255 34.2952L55.9183 34.0482L56.011 33.8011L56.1037 33.5541L56.1964 33.307L56.2892 33.06L56.3819 32.8129L56.4746 32.5659L56.5674 32.3188L56.6601 32.0718L56.7528 31.8247L56.8455 31.5776L56.9383 31.3306L57.031 31.0835L57.1237 30.8365L57.2164 30.5894L57.3092 30.3424L57.4019 30.0953L57.4946 29.8483L57.5873 29.6012L57.6801 29.3541L57.7728 29.1071L57.8655 28.86L57.9583 28.613L58.051 28.3659L58.1437 28.1189L58.2364 27.8718L58.3292 27.6248L58.4219 27.3777L58.5146 27.1307L58.6073 26.8836L58.7001 26.6365L58.7928 26.3895L58.8855 26.1424L58.9782 25.8954L59.0781 25.6289L59.1708 25.3818L59.2636 25.1348L59.3414 25.1639L59.4192 25.1938L59.4963 25.2236L59.5735 25.2534L59.6507 25.2839L59.7278 25.3144L59.805 25.3449L59.8822 25.376L59.9593 25.4071L60.0358 25.4389L60.1124 25.4707L60.1889 25.5024L60.2654 25.5349L60.3419 25.5673L60.4184 25.5997L60.4943 25.6328L60.5702 25.6658L60.646 25.6989L60.7219 25.7326L60.7978 25.7663L60.8736 25.8007L60.9488 25.8351L61.0241 25.8694L61.0993 25.9045L61.1745 25.9395L61.2497 25.9745L61.3249 26.0102L61.3995 26.0458L61.4741 26.0815L61.5486 26.1178L61.6232 26.1541L61.6978 26.1911L61.7724 26.228L61.8463 26.265L61.9202 26.3026L61.9941 26.3402L62.068 26.3778L62.142 26.4161L62.2152 26.4543L62.2885 26.4926L62.3618 26.5315L62.4351 26.5704L62.5083 26.61L62.5816 26.6495L62.6542 26.6891L62.7269 26.7293L62.7995 26.7695L62.8721 26.8097L62.9447 26.8505L63.0167 26.8914L63.0887 26.9322L63.1607 26.9737L63.2326 27.0152L63.3046 27.0567L63.3759 27.0989L63.4473 27.141L63.5186 27.1832L63.5899 27.226L63.6613 27.2688L63.7319 27.3116L63.8026 27.355L63.8733 27.3985L63.944 27.4419L64.014 27.486L64.084 27.5301L64.1541 27.5742L64.2241 27.6189L64.2941 27.6637L64.3635 27.7084L64.4329 27.7538L64.5023 27.7992L64.5717 27.8452L64.641 27.8913L64.7098 27.9373L64.7785 27.984L64.8473 28.0307L64.916 28.0774L64.9841 28.1247L65.0522 28.172L65.1202 28.2194L65.1883 28.2674L65.2558 28.3154L65.3232 28.3633L65.3906 28.4113L65.4581 28.46L65.5255 28.5086L65.5923 28.5572L65.6591 28.6065L65.7259 28.6558L65.7927 28.7051L65.8588 28.755L65.925 28.8049L65.9911 28.8549L66.0572 28.9054L66.1227 28.956L66.1882 29.0066L66.2537 29.0578L66.3192 29.109L66.384 29.1603L66.4489 29.2121L66.2842 29.4183L66.1195 29.6245L65.9548 29.8308L65.7901 30.037L65.6254 30.2432L65.4607 30.4494L65.296 30.6556L65.1313 30.8618L64.9666 31.068L64.8019 31.2742L64.6372 31.4804L64.4725 31.6866L64.3078 31.8928L64.1443 32.1029L63.9796 32.3091L63.8149 32.5153L63.6502 32.7215L63.4855 32.9277L63.3208 33.1339L63.1568 33.3414L62.9921 33.5476L62.8274 33.7538L62.6627 33.96L62.498 34.1662L62.3333 34.3724L62.1686 34.5786L62.0039 34.7848L61.8392 34.991L61.6744 35.1972L61.5097 35.4034L61.345 35.6096L61.1803 35.8158L61.0156 36.022L60.8509 36.2282L60.6862 36.4344L60.5215 36.6406L60.3568 36.8468L60.1921 37.053L60.0274 37.2593L59.8627 37.4655L59.698 37.6717L59.5333 37.8779L59.3686 38.0841L59.2039 38.2903L59.0392 38.4965L58.8745 38.7027L58.7098 38.9089L58.5451 39.1151L58.3804 39.3213L58.2157 39.5275L58.051 39.7337L57.8876 39.949L57.7229 40.1552L57.5582 40.3614L57.3935 40.5676L57.2288 40.7738L57.0641 40.98L56.8994 41.1875L56.7346 41.3937L56.5699 41.5999L56.4052 41.8061L56.2405 42.0123L56.0758 42.2185L55.9111 42.4247L55.7464 42.6309L55.5817 42.8371L55.417 43.0433L55.2523 43.2495L55.0876 43.4557L54.9229 43.6619L54.7582 43.8681L54.5935 44.0743L54.4288 44.2805L54.2641 44.4867L54.0994 44.6929L53.9347 44.8991L53.77 45.1053L53.6053 45.3115L53.4406 45.5178L53.2759 45.724L53.1125 45.9366L52.9478 46.1428L52.7831 46.349L52.6184 46.5553L52.4537 46.7615L52.289 46.9677L52.1243 47.1739L51.9596 47.3801L51.7949 47.5863L51.6301 47.7925L51.4654 47.9987L51.3007 48.2049L51.136 48.4111L50.9713 48.6173L50.8066 48.8235L50.6419 49.0297L50.4772 49.2359L50.3125 49.4421L50.1478 49.6483L49.9838 49.8597Z" fill="#FAFAFA"/>
<path d="M49.9838 49.8597L50.0765 49.6126L50.1692 49.3656L50.2619 49.1185L50.3547 48.8715L50.4474 48.6244L50.5401 48.3774L50.6329 48.1303L50.7256 47.8833L50.8183 47.6362L50.911 47.3891L51.0038 47.1421L51.0965 46.895L51.1892 46.648L51.2819 46.4009L51.3747 46.1539L51.4674 45.9068L51.5601 45.6598L51.6528 45.4127L51.7456 45.1656L51.8383 44.9186L51.931 44.6715L52.0238 44.4245L52.1165 44.1774L52.2092 43.9304L52.3019 43.6833L52.3947 43.4363L52.4874 43.1892L52.5801 42.9422L52.6728 42.6951L52.7656 42.448L52.8583 42.201L52.951 41.9539L53.0437 41.7069L53.1365 41.4598L53.2292 41.2128L53.3219 40.9657L53.4146 40.7187L53.5074 40.4716L53.6001 40.2246L53.6928 39.9775L53.7856 39.7304L53.8783 39.4834L53.971 39.2363L54.0637 38.9893L54.1565 38.7422L54.2492 38.4952L54.3419 38.2481L54.4346 38.0011L54.5274 37.754L54.6201 37.507L54.7128 37.2599L54.8055 37.0128L54.8983 36.7658L54.991 36.5187L55.0837 36.2717L55.1765 36.0246L55.2692 35.7776L55.3619 35.5305L55.4546 35.2835L55.5474 35.0364L55.6401 34.7894L55.7328 34.5423L55.8255 34.2952L55.9183 34.0482L56.011 33.8011L56.1037 33.5541L56.1964 33.307L56.2892 33.06L56.3819 32.8129L56.4746 32.5659L56.5674 32.3188L56.6601 32.0718L56.7528 31.8247L56.8455 31.5776L56.9383 31.3306L57.031 31.0835L57.1237 30.8365L57.2164 30.5894L57.3092 30.3424L57.4019 30.0953L57.4946 29.8483L57.5873 29.6012L57.6801 29.3541L57.7728 29.1071L57.8655 28.86L57.9583 28.613L58.051 28.3659L58.1437 28.1189L58.2364 27.8718L58.3292 27.6248L58.4219 27.3777L58.5146 27.1307L58.6073 26.8836L58.7001 26.6365L58.7928 26.3895L58.8855 26.1424L58.9782 25.8954L59.0781 25.6289L59.1708 25.3818L59.2636 25.1348L59.3414 25.1639L59.4192 25.1938L59.4963 25.2236L59.5735 25.2534L59.6507 25.2839L59.7278 25.3144L59.805 25.3449L59.8822 25.376L59.9593 25.4071L60.0358 25.4389L60.1124 25.4707L60.1889 25.5024L60.2654 25.5349L60.3419 25.5673L60.4184 25.5997L60.4943 25.6328L60.5702 25.6658L60.646 25.6989L60.7219 25.7326L60.7978 25.7663L60.8736 25.8007L60.9488 25.8351L61.0241 25.8694L61.0993 25.9045L61.1745 25.9395L61.2497 25.9745L61.3249 26.0102L61.3995 26.0458L61.4741 26.0815L61.5486 26.1178L61.6232 26.1541L61.6978 26.1911L61.7724 26.228L61.8463 26.265L61.9202 26.3026L61.9941 26.3402L62.068 26.3778L62.142 26.4161L62.2152 26.4543L62.2885 26.4926L62.3618 26.5315L62.4351 26.5704L62.5083 26.61L62.5816 26.6495L62.6542 26.6891L62.7269 26.7293L62.7995 26.7695L62.8721 26.8097L62.9447 26.8505L63.0167 26.8914L63.0887 26.9322L63.1607 26.9737L63.2326 27.0152L63.3046 27.0567L63.3759 27.0989L63.4473 27.141L63.5186 27.1832L63.5899 27.226L63.6613 27.2688L63.7319 27.3116L63.8026 27.355L63.8733 27.3985L63.944 27.4419L64.014 27.486L64.084 27.5301L64.1541 27.5742L64.2241 27.6189L64.2941 27.6637L64.3635 27.7084L64.4329 27.7538L64.5023 27.7992L64.5717 27.8452L64.641 27.8913L64.7098 27.9373L64.7785 27.984L64.8473 28.0307L64.916 28.0774L64.9841 28.1247L65.0522 28.172L65.1202 28.2194L65.1883 28.2674L65.2558 28.3154L65.3232 28.3633L65.3906 28.4113L65.4581 28.46L65.5255 28.5086L65.5923 28.5572L65.6591 28.6065L65.7259 28.6558L65.7927 28.7051L65.8588 28.755L65.925 28.8049L65.9911 28.8549L66.0572 28.9054L66.1227 28.956L66.1882 29.0066L66.2537 29.0578L66.3192 29.109L66.384 29.1603L66.4489 29.2121L66.2842 29.4183L66.1195 29.6245L65.9548 29.8308L65.7901 30.037L65.6254 30.2432L65.4607 30.4494L65.296 30.6556L65.1313 30.8618L64.9666 31.068L64.8019 31.2742L64.6372 31.4804L64.4725 31.6866L64.3078 31.8928L64.1443 32.1029L63.9796 32.3091L63.8149 32.5153L63.6502 32.7215L63.4855 32.9277L63.3208 33.1339L63.1568 33.3414L62.9921 33.5476L62.8274 33.7538L62.6627 33.96L62.498 34.1662L62.3333 34.3724L62.1686 34.5786L62.0039 34.7848L61.8392 34.991L61.6744 35.1972L61.5097 35.4034L61.345 35.6096L61.1803 35.8158L61.0156 36.022L60.8509 36.2282L60.6862 36.4344L60.5215 36.6406L60.3568 36.8468L60.1921 37.053L60.0274 37.2593L59.8627 37.4655L59.698 37.6717L59.5333 37.8779L59.3686 38.0841L59.2039 38.2903L59.0392 38.4965L58.8745 38.7027L58.7098 38.9089L58.5451 39.1151L58.3804 39.3213L58.2157 39.5275L58.051 39.7337L57.8876 39.949L57.7229 40.1552L57.5582 40.3614L57.3935 40.5676L57.2288 40.7738L57.0641 40.98L56.8994 41.1875L56.7346 41.3937L56.5699 41.5999L56.4052 41.8061L56.2405 42.0123L56.0758 42.2185L55.9111 42.4247L55.7464 42.6309L55.5817 42.8371L55.417 43.0433L55.2523 43.2495L55.0876 43.4557L54.9229 43.6619L54.7582 43.8681L54.5935 44.0743L54.4288 44.2805L54.2641 44.4867L54.0994 44.6929L53.9347 44.8991L53.77 45.1053L53.6053 45.3115L53.4406 45.5178L53.2759 45.724L53.1125 45.9366L52.9478 46.1428L52.7831 46.349L52.6184 46.5553L52.4537 46.7615L52.289 46.9677L52.1243 47.1739L51.9596 47.3801L51.7949 47.5863L51.6301 47.7925L51.4654 47.9987L51.3007 48.2049L51.136 48.4111L50.9713 48.6173L50.8066 48.8235L50.6419 49.0297L50.4772 49.2359L50.3125 49.4421L50.1478 49.6483L49.9838 49.8597Z" fill="#674992" fill-opacity="0.01"/>
</g>
<path opacity="0.6" d="M49.9838 49.8602L49.7581 49.5898L49.5324 49.3194L49.3068 49.049L49.0811 48.7786L48.8555 48.5082L48.6298 48.2378L48.4042 47.9674L48.1785 47.697L47.9528 47.4266L47.7272 47.1562L47.5015 46.8858L47.2759 46.6154L47.0502 46.345L46.8246 46.0746L46.5989 45.8042L46.3733 45.5338L46.1476 45.2634L45.9219 44.993L45.6963 44.7226L45.4706 44.4522L45.245 44.1818L45.0193 43.9114L44.7937 43.641L44.568 43.3706L44.3423 43.1002L44.1167 42.8298L43.891 42.5594L43.6654 42.289L43.4397 42.0186L43.2141 41.7482L42.9884 41.4778L42.7628 41.2074L42.5371 40.937L42.3114 40.6666L42.0858 40.3962L41.8601 40.1258L41.6345 39.8554L41.4088 39.585L41.1832 39.3146L40.9575 39.0442L40.7318 38.7738L40.5062 38.5034L40.2805 38.233L40.0549 37.9627L39.8292 37.6923L39.6036 37.4219L39.3779 37.1515L39.1523 36.8811L38.9266 36.6107L38.7009 36.3403L38.4753 36.0699L38.2496 35.7995L38.024 35.5291L37.7983 35.2587L37.5727 34.9883L37.347 34.7179L37.1213 34.4475L36.8957 34.1771L36.67 33.9067L36.4444 33.6363L36.2187 33.3659L35.9931 33.0955L35.7674 32.8251L35.5418 32.5547L35.3161 32.2843L35.0904 32.0139L34.8648 31.7435L34.6391 31.4731L34.4135 31.2027L34.1878 30.9323L33.9622 30.6619L33.7365 30.3915L33.5108 30.1211L33.2852 29.8507L33.0595 29.5803L32.8339 29.3099L32.6082 29.0395L32.3826 28.7691L32.1569 28.4987L31.9313 28.2283L31.7056 27.9579L31.4799 27.6875L31.2543 27.4171L31.0286 27.1467L30.803 26.8763L30.5773 26.6059L30.3517 26.3355L30.126 26.0651L29.9003 25.7947L29.6747 25.5243L29.449 25.2539L29.2234 24.9835L28.9977 24.7131L28.7714 24.4518L28.5458 24.1814L28.3201 23.911L28.0944 23.6406L27.8688 23.3702L27.6431 23.0998L27.4175 22.8294L27.5452 22.7231L27.6736 22.6174L27.802 22.5123L27.931 22.4079L28.0607 22.3042L28.1911 22.2011L28.3214 22.0986L28.4524 21.9968L28.584 21.8957L28.7163 21.7952L28.8486 21.6953L28.9815 21.5961L29.1151 21.4975L29.2487 21.3996L29.3829 21.3023L29.5178 21.2057L29.6533 21.1098L29.7888 21.0144L29.925 20.9198L30.0618 20.8257L30.1986 20.7324L30.3361 20.6396L30.4742 20.5476L30.6123 20.4561L30.7511 20.3654L30.8905 20.2752L31.0299 20.1857L31.17 20.0969L31.3107 20.0087L31.4514 19.9212L31.5928 19.8343L31.7348 19.748L31.8768 19.6624L32.0194 19.5775L32.1621 19.4932L32.3054 19.4096L32.4494 19.3266L32.5933 19.2442L32.7379 19.1625L32.8825 19.0814L33.0278 19.001L33.1737 18.9213L33.3196 18.8422L33.4661 18.7637L33.6127 18.6859L33.7598 18.6094L33.907 18.5335L34.0549 18.4583L34.2027 18.3837L34.3512 18.3098L34.5004 18.2365L34.6495 18.1639L34.7993 18.0919L34.9491 18.0206L35.0995 17.9499L35.25 17.8799L35.401 17.8105L35.5521 17.7424L35.7039 17.675L35.8556 17.6082L36.008 17.5421L36.1604 17.4766L36.3134 17.4117L36.4664 17.3475L36.6201 17.284L36.7738 17.2211L36.9275 17.1595L37.0818 17.0985L37.2361 17.0382L37.3911 16.9786L37.5461 16.9196L37.7017 16.8612L37.8573 16.8035L38.0129 16.7464L38.1692 16.6907L38.3255 16.6355L38.4824 16.5811L38.6393 16.5272L38.7963 16.4741L38.9538 16.4216L39.1114 16.3697L39.2696 16.3191L39.4278 16.2692L39.5861 16.2199L39.7449 16.1713L39.9038 16.1233L40.0627 16.0759L40.2222 16.0292L40.3817 15.9839L40.5412 15.9391L40.7014 15.895L40.8615 15.8516L41.0217 15.8088L41.1825 15.7666L41.3433 15.7258L41.5041 15.6856L41.6656 15.646L41.8271 15.6071L41.9885 15.5689L42.15 15.5312L42.2284 15.8743L42.3069 16.2173L42.3854 16.5603L42.4638 16.9033L42.5423 17.2464L42.6207 17.5894L42.6992 17.9324L42.7777 18.2754L42.8561 18.6185L42.9346 18.9615L43.0131 19.3045L43.0915 19.6475L43.17 19.9906L43.2484 20.3336L43.3269 20.6766L43.4054 21.0196L43.4838 21.3626L43.5623 21.7057L43.6407 22.0487L43.7192 22.3917L43.7977 22.7347L43.8761 23.0778L43.9546 23.4208L44.033 23.7638L44.1115 24.1068L44.19 24.4499L44.2684 24.7929L44.3469 25.1359L44.4253 25.4789L44.5038 25.822L44.5823 26.165L44.6607 26.508L44.7392 26.851L44.8125 27.2031L44.8909 27.5461L44.9694 27.8892L45.0478 28.2322L45.1263 28.5752L45.2048 28.9182L45.2832 29.2613L45.3617 29.6043L45.4402 29.9473L45.5186 30.2903L45.5971 30.6334L45.6755 30.9764L45.754 31.3194L45.8325 31.6624L45.9109 32.0055L45.9894 32.3485L46.0678 32.6915L46.1463 33.0345L46.2248 33.3775L46.3032 33.7206L46.3817 34.0636L46.4601 34.4066L46.5386 34.7496L46.6171 35.0927L46.6955 35.4357L46.774 35.7787L46.8524 36.1217L46.9309 36.4648L47.0094 36.8078L47.0878 37.1508L47.1663 37.4938L47.2448 37.8369L47.3232 38.1799L47.4017 38.5229L47.4801 38.8659L47.5586 39.2089L47.6371 39.552L47.7155 39.895L47.794 40.238L47.8724 40.581L47.9509 40.9241L48.0294 41.2671L48.1078 41.6101L48.1863 41.9531L48.2647 42.2962L48.3432 42.6392L48.4217 42.9822L48.5001 43.3252L48.5786 43.6682L48.6571 44.0113L48.7355 44.3543L48.814 44.6973L48.8924 45.0403L48.9709 45.3834L49.0494 45.7264L49.1278 46.0694L49.2063 46.4124L49.2847 46.7555L49.3632 47.0985L49.4417 47.4415L49.5201 47.7845L49.5986 48.1276L49.677 48.4706L49.7555 48.8136L49.834 49.1566L49.9124 49.4996L49.9838 49.8602Z" fill="#9A5CE4" fill-opacity="0.1"/>
<path opacity="0.6" d="M49.9838 49.8591L49.6803 49.9142L49.3768 49.9693L49.0734 50.0244L48.7699 50.0795L48.4664 50.1347L48.163 50.1898L47.8595 50.2449L47.556 50.3L47.2526 50.3551L46.9523 50.4089L46.6489 50.4641L46.3454 50.5192L46.0419 50.5743L45.7385 50.6294L45.435 50.6845L45.1315 50.7396L44.828 50.7948L44.5246 50.8499L44.2211 50.905L43.9176 50.9601L43.6142 51.0152L43.3146 51.0691L43.0111 51.1242L42.7077 51.1793L42.4042 51.2344L42.102 51.2895L41.7985 51.3446L41.4951 51.3998L41.1916 51.4549L40.8881 51.51L40.5847 51.5651L40.2812 51.6202L39.9777 51.6753L39.6743 51.7305L39.3708 51.7856L39.0673 51.8407L38.7639 51.8958L38.4604 51.9509L38.1569 52.006L37.8535 52.0612L37.55 52.1163L37.2465 52.1714L36.943 52.2265L36.6396 52.2816L36.3361 52.3368L36.0326 52.3919L35.7292 52.447L35.4257 52.5021L35.1222 52.5572L34.8265 52.6097L34.5231 52.6649L34.2196 52.72L33.9161 52.7751L33.6127 52.8302L33.3092 52.8853L33.0057 52.9404L32.7023 52.9956L32.3988 53.0507L32.0953 53.1058L31.7919 53.1609L31.4884 53.216L31.1849 53.2711L30.8815 53.3263L30.578 53.3814L30.2745 53.4365L29.971 53.4916L29.6676 53.5467L29.3641 53.6019L29.0606 53.657L28.7572 53.7121L28.4537 53.7672L28.1502 53.8223L27.8468 53.8774L27.5433 53.9326L27.2398 53.9877L26.9364 54.0428L26.6329 54.0979L26.3294 54.153L26.026 54.2081L25.7225 54.2633L25.419 54.3184L25.1155 54.3735L24.8121 54.4286L24.5086 54.4837L24.2051 54.5388L23.9133 54.5901L23.6099 54.6452L23.3064 54.7003L23.0029 54.7554L22.7008 54.8105L22.3973 54.8657L22.0938 54.9208L21.7904 54.9759L21.4869 55.031L21.1834 55.0861L20.88 55.1412L20.5765 55.1964L20.273 55.2515L19.9695 55.3066L19.6661 55.3617L19.6324 55.1711L19.5993 54.9804L19.5675 54.7891L19.537 54.5979L19.5079 54.4066L19.4832 54.214L19.4566 54.022L19.4313 53.8301L19.4067 53.6382L19.3834 53.4462L19.3613 53.2536L19.3406 53.0611L19.3211 52.8685L19.303 52.6759L19.2861 52.4833L19.2705 52.2901L19.2556 52.0968L19.242 51.9036L19.2297 51.7104L19.2187 51.5171L19.2089 51.3239L19.2005 51.1307L19.1934 50.9374L19.1875 50.7442L19.1823 50.551L19.1785 50.3577L19.1759 50.1638L19.1746 49.97V49.7761L19.1759 49.5822L19.1785 49.3883L19.1817 49.1951L19.1862 49.0018L19.1921 48.8086L19.1992 48.6154L19.2076 48.4221L19.2174 48.2289L19.2284 48.0357L19.2407 47.8424L19.2537 47.6492L19.2679 47.456L19.2835 47.2627L19.3004 47.0701L19.3185 46.8776L19.338 46.685L19.3587 46.4924L19.3808 46.2998L19.4035 46.1079L19.4275 45.9159L19.4527 45.724L19.4793 45.532L19.5072 45.3408L19.5364 45.1495L19.5669 44.9582L19.598 44.7669L19.6304 44.5763L19.6641 44.3856L19.6991 44.195L19.7355 44.005L19.7731 43.815L19.8113 43.625L19.8509 43.4356L19.8917 43.2463L19.9339 43.0576L19.9773 42.8689L20.0221 42.6802L20.0675 42.4922L20.1141 42.3041L20.1621 42.1167L20.2114 41.9293L20.262 41.7426L20.3139 41.5558L20.3664 41.3697L20.4202 41.1836L20.4753 40.9982L20.5317 40.8127L20.5895 40.6279L20.6478 40.4431L20.7075 40.259L20.7684 40.0754L20.8307 39.8919L20.8936 39.7091L20.9578 39.5262L21.0233 39.344L21.09 39.1624L21.1581 38.9809L21.2269 38.8L21.2969 38.6197L21.3682 38.4394L21.4409 38.2598L21.5141 38.0809L21.5887 37.9019L21.6646 37.7236L21.7411 37.5459L21.8189 37.3689L21.898 37.1918L21.9784 37.0155L22.0595 36.8397L22.1418 36.6647L22.2255 36.4902L22.503 36.6238L22.7805 36.7574L23.0581 36.891L23.3356 37.0245L23.6131 37.1581L23.8906 37.2917L24.1682 37.4253L24.4457 37.5589L24.7232 37.6924L25.0008 37.826L25.2783 37.9596L25.5558 38.0932L25.8334 38.2268L26.1109 38.3603L26.3884 38.4939L26.666 38.6275L26.9435 38.7611L27.221 38.8946L27.4986 39.0282L27.7761 39.1618L28.0536 39.2954L28.3311 39.429L28.6087 39.5625L28.8862 39.6961L29.1637 39.8297L29.4413 39.9633L29.7188 40.0968L29.9963 40.2304L30.2739 40.364L30.5514 40.4976L30.8289 40.6312L31.1065 40.7647L31.384 40.8983L31.6615 41.0319L31.9391 41.1655L32.2166 41.299L32.4941 41.4326L32.7716 41.5662L33.0492 41.6998L33.3267 41.8334L33.6042 41.9669L33.8818 42.1005L34.1593 42.2341L34.4368 42.3677L34.7144 42.5013L34.9919 42.6348L35.2694 42.7684L35.547 42.902L35.8245 43.0356L36.102 43.1691L36.3796 43.3027L36.6571 43.4363L36.9346 43.5699L37.2121 43.7035L37.4897 43.837L37.7672 43.9706L38.0447 44.1042L38.3223 44.2378L38.5998 44.3713L38.8773 44.5049L39.1549 44.6385L39.4324 44.7721L39.7099 44.9057L39.9875 45.0392L40.265 45.1728L40.5425 45.3064L40.8201 45.44L41.0976 45.5735L41.3751 45.7071L41.6526 45.8407L41.9302 45.9743L42.2077 46.1079L42.4852 46.2414L42.7628 46.375L43.0403 46.5086L43.3178 46.6422L43.5954 46.7757L43.8729 46.9093L44.1504 47.0429L44.428 47.1765L44.7055 47.3101L44.983 47.4436L45.2606 47.5772L45.5381 47.7108L45.8156 47.8444L46.0931 47.978L46.3707 48.1115L46.6482 48.2451L46.9257 48.3787L47.2033 48.5123L47.4808 48.6458L47.7583 48.7794L48.0359 48.913L48.3134 49.0466L48.5909 49.1802L48.8685 49.3137L49.146 49.4473L49.4235 49.5809L49.7011 49.7145L49.9838 49.8591Z" fill="#9A5CE4" fill-opacity="0.1"/>
<path opacity="0.6" d="M49.9838 49.8594L49.8392 49.9599L49.6946 50.0604L49.55 50.1609L49.4054 50.2614L49.2608 50.3619L49.1162 50.4624L48.9716 50.5629L48.8264 50.6608L48.6818 50.7614L48.5372 50.8619L48.3926 50.9624L48.248 51.0629L48.1034 51.1634L47.9587 51.2639L47.8141 51.3644L47.6695 51.4649L47.5249 51.5654L47.3803 51.6659L47.2357 51.7664L47.0911 51.8669L46.9465 51.9674L46.8019 52.068L46.6573 52.1685L46.5127 52.269L46.3681 52.3695L46.2235 52.47L46.0789 52.5705L45.9343 52.671L45.7897 52.7715L45.6451 52.872L45.5005 52.9725L45.3559 53.073L45.2113 53.1735L45.0667 53.274L44.9221 53.3746L44.7775 53.4751L44.6329 53.5756L44.4883 53.6761L44.3437 53.7766L44.1991 53.8771L44.0545 53.9776L43.9099 54.0781L43.7653 54.1786L43.6207 54.2791L43.4761 54.3796L43.3315 54.4801L43.1869 54.5806L43.0423 54.6812L42.8977 54.7817L42.7531 54.8822L42.6085 54.9827L42.4639 55.0832L42.3193 55.1837L42.1747 55.2842L42.0243 55.373L41.8796 55.4735L41.735 55.5741L41.5904 55.6746L41.4458 55.7751L41.3012 55.8756L41.1566 55.9761L41.012 56.0766L40.8674 56.1771L40.7228 56.2776L40.5782 56.3781L40.4336 56.4786L40.289 56.5791L40.1444 56.6796L39.9998 56.7801L39.8552 56.8807L39.7106 56.9812L39.566 57.0817L39.4214 57.1822L39.2768 57.2827L39.1322 57.3832L38.9876 57.4837L38.843 57.5842L38.6984 57.6847L38.5538 57.7852L38.4092 57.8857L38.2646 57.9862L38.12 58.0868L37.9754 58.1873L37.8308 58.2878L37.6862 58.3883L37.5416 58.4888L37.397 58.5893L37.2524 58.6898L37.1078 58.7903L36.9632 58.8908L36.8186 58.9913L36.674 59.0918L36.5294 59.1923L36.3848 59.2928L36.2402 59.3934L36.0956 59.4939L35.951 59.5944L35.8064 59.6949L35.6566 59.7844L35.512 59.8849L35.4964 59.8622L35.4809 59.8395L35.4653 59.8168L35.4497 59.7941L35.4342 59.7714L35.4186 59.7487L35.4031 59.726L35.3875 59.7033L35.3719 59.6806L35.3564 59.6579L35.3408 59.6352L35.3252 59.6125L35.3097 59.5892L35.2941 59.5658L35.2792 59.5425L35.2643 59.5191L35.2494 59.4958L35.2345 59.4725L35.2195 59.4491L35.2046 59.4258L35.1897 59.4024L35.1748 59.3791L35.1599 59.3557L35.145 59.3324L35.1301 59.3091L35.1151 59.2857L35.1002 59.2624L35.0853 59.239L35.0704 59.2157L35.0555 59.1923L35.0406 59.169L35.0257 59.1456L35.0114 59.1223L34.9971 59.099L34.9829 59.0756L34.9686 59.0523L34.9543 59.0289L34.9401 59.0056L34.9258 58.9822L34.9115 58.9589L34.8973 58.9349L34.883 58.9109L34.8687 58.8869L34.8545 58.8629L34.8402 58.8389L34.8259 58.8149L34.8117 58.791L34.7974 58.767L34.7831 58.743L34.7695 58.719L34.7559 58.695L34.7423 58.671L34.7287 58.647L34.7151 58.623L34.7014 58.599L34.6878 58.575L34.6742 58.551L34.6606 58.527L34.647 58.503L34.6334 58.4791L34.6197 58.4551L34.6061 58.4311L34.5925 58.4071L34.5789 58.3831L34.5653 58.3591L34.5517 58.3351L34.538 58.3111L34.5251 58.2871L34.5121 58.2631L34.4991 58.2391L34.4862 58.2145L34.4732 58.1898L34.4602 58.1652L34.4473 58.1406L34.4343 58.1159L34.4213 58.0913L34.4084 58.0666L34.3954 58.042L34.3824 58.0174L34.3694 57.9927L34.3565 57.9681L34.3435 57.9434L34.3305 57.9188L34.3182 57.8942L34.3059 57.8695L34.2936 57.8449L34.2813 57.8202L34.2689 57.7956L34.2566 57.771L34.2443 57.7463L34.232 57.7217L34.2197 57.697L34.2073 57.6724L34.195 57.6478L34.1827 57.6231L34.1704 57.5985L34.1581 57.5738L34.1457 57.5472L34.1334 57.5226L34.1211 57.498L34.28 57.4215L34.4388 57.3449L34.5977 57.2684L34.7566 57.1919L34.9154 57.1154L35.0743 57.0389L35.2332 56.9624L35.392 56.8858L35.5509 56.8093L35.7098 56.7328L35.8686 56.6563L36.0275 56.5798L36.1864 56.5033L36.3452 56.4268L36.5041 56.3502L36.663 56.2737L36.8218 56.1972L36.9807 56.1207L37.1396 56.0442L37.2984 55.9677L37.4573 55.8911L37.6162 55.8146L37.775 55.7381L37.9339 55.6616L38.0928 55.5851L38.2516 55.5086L38.4105 55.432L38.5694 55.3555L38.7282 55.279L38.8871 55.2025L39.046 55.126L39.2048 55.0495L39.3637 54.973L39.5226 54.8964L39.6814 54.8199L39.8403 54.7434L39.9992 54.6669L40.158 54.5904L40.3169 54.5139L40.4758 54.4373L40.6346 54.3608L40.7935 54.2843L40.9524 54.2078L41.1112 54.1313L41.2701 54.0548L41.429 53.9783L41.5879 53.9017L41.7467 53.8252L41.9056 53.7487L42.0645 53.6722L42.2233 53.5957L42.3822 53.5192L42.5411 53.4426L42.6999 53.3661L42.8588 53.2896L43.0177 53.2131L43.1765 53.1366L43.3354 53.0601L43.4943 52.9835L43.6531 52.907L43.812 52.8305L43.9709 52.754L44.1297 52.6775L44.2886 52.601L44.4475 52.5245L44.6063 52.4479L44.7652 52.3714L44.9241 52.2949L45.0829 52.2184L45.2418 52.1419L45.4007 52.0654L45.5595 51.9888L45.7184 51.9123L45.8773 51.8358L46.0361 51.7593L46.195 51.6828L46.3539 51.6063L46.5127 51.5298L46.6716 51.4532L46.8305 51.3767L46.9893 51.3002L47.1482 51.2237L47.3071 51.1472L47.4659 51.0707L47.6248 50.9941L47.7837 50.9176L47.9425 50.8411L48.1014 50.7646L48.2603 50.6881L48.4191 50.6116L48.578 50.535L48.7369 50.4585L48.8957 50.382L49.0546 50.3055L49.2135 50.229L49.3723 50.1525L49.5312 50.076L49.6901 49.9994L49.8489 49.9229L49.9838 49.8594Z" fill="#9A5CE4" fill-opacity="0.1"/>
<path opacity="0.6" d="M49.9838 49.8594L50.0207 50.0766L50.0577 50.2938L50.0946 50.5111L50.1316 50.7283L50.1686 50.9455L50.2055 51.1627L50.2425 51.38L50.2794 51.5972L50.3164 51.8144L50.3534 52.0316L50.3903 52.2489L50.4273 52.4661L50.4642 52.6833L50.5012 52.9005L50.5382 53.1178L50.5751 53.335L50.6121 53.5522L50.6491 53.7695L50.686 53.9867L50.723 54.2039L50.7599 54.4211L50.7969 54.6384L50.8339 54.8556L50.8708 55.0728L50.9078 55.29L50.9447 55.5073L50.9817 55.7245L51.0187 55.9417L51.0556 56.1589L51.0926 56.3762L51.1295 56.5934L51.1665 56.8106L51.2035 57.0278L51.2404 57.2451L51.2774 57.4623L51.3143 57.6795L51.3513 57.8968L51.3883 58.114L51.4252 58.3312L51.4622 58.5484L51.4992 58.7657L51.5361 58.9829L51.5731 59.2001L51.61 59.4173L51.647 59.6346L51.684 59.8518L51.7209 60.069L51.7579 60.2862L51.7948 60.5035L51.8318 60.7207L51.8688 60.9379L51.9057 61.1552L51.9427 61.3724L51.9796 61.5896L52.0166 61.8068L52.0536 62.0241L52.0905 62.2413L52.1275 62.4585L52.1644 62.6757L52.2014 62.893L52.2384 63.1102L52.2753 63.3274L52.3123 63.5446L52.3493 63.7619L52.3862 63.9791L52.4232 64.1963L52.4601 64.4136L52.4971 64.6308L52.5341 64.848L52.571 65.0652L52.608 65.2825L52.6449 65.4997L52.6819 65.7169L52.7189 65.9341L52.7558 66.1514L52.7928 66.3686L52.8297 66.5858L52.8667 66.803L52.9037 67.0203L52.9406 67.2375L52.9776 67.4547L53.0146 67.672L53.0515 67.8892L53.0885 68.1064L53.1254 68.3236L53.1624 68.5409L53.1994 68.7581L53.2363 68.9753L53.2733 69.1925L53.3102 69.4098L53.3472 69.627L53.3842 69.8442L53.4211 70.0614L53.4581 70.2787L53.495 70.4959L53.532 70.7131L53.569 70.9304L53.6059 71.1476L53.6429 71.3648L53.6798 71.582L53.5949 71.5963L53.5093 71.6106L53.4237 71.6242L53.3381 71.6378L53.2525 71.6508L53.1669 71.6631L53.0813 71.6754L52.9957 71.6871L52.9102 71.6987L52.8246 71.7098L52.739 71.7208L52.6534 71.7312L52.5678 71.7415L52.4822 71.7513L52.3966 71.761L52.311 71.7701L52.2248 71.7792L52.1385 71.7876L52.0523 71.796L51.966 71.8038L51.8798 71.8116L51.7935 71.8187L51.7073 71.8258L51.6211 71.8323L51.5348 71.8388L51.4486 71.8447L51.3623 71.8505L51.2761 71.8557L51.1898 71.8602L51.1036 71.8647L51.0174 71.8693L50.9311 71.8732L50.8449 71.8764L50.7586 71.8797L50.6724 71.8823L50.5862 71.8849L50.4999 71.8868L50.4137 71.8887L50.3274 71.89L50.2412 71.8913L50.1549 71.892L50.0687 71.8926H49.8962L49.81 71.892L49.7237 71.8913L49.6375 71.89L49.5512 71.8887L49.465 71.8868L49.3788 71.8849L49.2925 71.8823L49.1933 71.8518L49.1071 71.8485L49.0208 71.8453L48.9346 71.8414L48.8483 71.8369L48.7614 71.8323L48.6752 71.8271L48.589 71.822L48.5027 71.8161L48.4165 71.8103L48.3302 71.8038L48.244 71.7973L48.1578 71.7902L48.0715 71.783L47.9853 71.7753L47.899 71.7675L47.8128 71.7591L47.7265 71.7506L47.6403 71.7415L47.5547 71.7318L47.4704 71.7221L47.3848 71.7124L47.2992 71.702L47.2136 71.691L47.128 71.6799L47.0424 71.6683L46.9568 71.6566L46.8713 71.6443L46.7857 71.632L46.7001 71.619L46.6145 71.606L46.5289 71.5924L46.4433 71.5788L46.3583 71.5645L46.2734 71.5503L46.1885 71.5353L46.1035 71.5204L46.0186 71.5049L45.9336 71.4893L45.8487 71.4731L45.7637 71.4569L45.6788 71.44L45.5938 71.4232L45.5089 71.4057L45.4246 71.3881L45.3403 71.37L45.256 71.3518L45.1717 71.333L45.0874 71.3142L45.1367 71.0996L45.186 70.885L45.2352 70.6703L45.2845 70.4557L45.3338 70.2411L45.3831 70.0264L45.4324 69.8118L45.4817 69.5972L45.5309 69.3825L45.5802 69.1679L45.6295 68.9533L45.6788 68.7386L45.7281 68.524L45.7773 68.3094L45.8266 68.0947L45.8759 67.8801L45.9252 67.6655L45.9745 67.4508L46.0237 67.2362L46.073 67.0216L46.1223 66.8069L46.1716 66.5923L46.2209 66.3777L46.2702 66.163L46.3194 65.9484L46.3687 65.7338L46.418 65.5191L46.4673 65.3045L46.5166 65.0899L46.5658 64.8752L46.6151 64.6606L46.6644 64.446L46.7137 64.2313L46.763 64.0167L46.8122 63.8021L46.8615 63.5874L46.9108 63.3728L46.9601 63.1582L47.0094 62.9435L47.0587 62.7289L47.1079 62.5143L47.1572 62.2996L47.2065 62.085L47.2558 61.8704L47.3051 61.6557L47.3543 61.4411L47.4036 61.2265L47.4529 61.0119L47.5022 60.7972L47.5515 60.5826L47.6007 60.368L47.65 60.1533L47.6993 59.9387L47.7486 59.7241L47.7979 59.5094L47.8472 59.2948L47.8964 59.0802L47.9457 58.8655L47.995 58.6509L48.0443 58.4363L48.0936 58.2216L48.1428 58.007L48.1921 57.7924L48.2414 57.5777L48.2907 57.3631L48.34 57.1485L48.3892 56.9338L48.4385 56.7192L48.4878 56.5046L48.5371 56.2899L48.5864 56.0753L48.6357 55.8607L48.6849 55.646L48.7342 55.4314L48.7835 55.2168L48.8328 55.0021L48.8821 54.7875L48.9313 54.5729L48.9806 54.3582L49.0299 54.1436L49.0792 53.929L49.1285 53.7143L49.1777 53.4997L49.227 53.2851L49.2763 53.0704L49.3256 52.8558L49.3749 52.6412L49.4242 52.4265L49.4734 52.2119L49.5227 51.9973L49.572 51.7826L49.6213 51.568L49.6706 51.3534L49.7198 51.1387L49.7691 50.9241L49.8184 50.7095L49.8677 50.4948L49.917 50.2802L49.9662 50.0656L49.9838 49.8594Z" fill="#9A5CE4" fill-opacity="0.1"/>
<path opacity="0.6" d="M49.9838 49.8594L50.2613 50.076L50.5388 50.2925L50.8164 50.5091L51.0939 50.7257L51.3714 50.9423L51.649 51.1588L51.9265 51.3754L52.204 51.592L52.4815 51.8086L52.7591 52.0252L53.0366 52.2417L53.3141 52.4583L53.5917 52.6749L53.8692 52.8915L54.15 53.1055L54.4275 53.322L54.705 53.5386L54.9826 53.7552L55.2601 53.9718L55.5376 54.1883L55.8152 54.4049L56.0927 54.6215L56.3702 54.8381L56.6478 55.0547L56.9253 55.2712L57.2028 55.4878L57.4804 55.7044L57.7579 55.921L58.0354 56.1375L58.3129 56.3541L58.5905 56.5707L58.868 56.7873L59.1455 57.0039L59.4231 57.2204L59.7006 57.437L59.9781 57.6536L60.2557 57.8702L60.5332 58.0868L60.8107 58.3033L61.0883 58.5199L61.3658 58.7365L61.6433 58.9531L61.9209 59.1696L62.1984 59.3862L62.4759 59.6028L62.7534 59.8194L63.031 60.036L63.3085 60.2525L63.586 60.4691L63.8636 60.6857L64.1411 60.9023L64.4186 61.1188L64.6962 61.3354L64.9737 61.552L65.2512 61.7686L65.5288 61.9852L65.8063 62.2017L66.0838 62.4183L66.3614 62.6349L66.6389 62.8515L66.9164 63.068L67.1939 63.2846L67.4715 63.5012L67.749 63.7178L68.0265 63.9344L68.3041 64.1509L68.5816 64.3675L68.8591 64.5841L69.1367 64.8007L69.4142 65.0173L69.6917 65.2338L69.9693 65.4504L70.2468 65.667L70.5243 65.8836L70.8019 66.1001L71.0794 66.3167L71.3569 66.5333L71.6344 66.7499L71.912 66.9665L72.1895 67.183L72.467 67.3996L72.7446 67.6162L73.0221 67.8328L73.2996 68.0493L73.5772 68.2659L73.8547 68.4825L74.1322 68.6991L74.4098 68.9157L74.6873 69.1322L74.9648 69.3488L75.2424 69.5654L75.5199 69.782L75.7974 69.9985L76.0749 70.2151L76.3525 70.4317L76.63 70.6483L76.9075 70.8649L77.1851 71.0814L77.4626 71.298L77.7401 71.5146L77.6889 71.5801L77.6377 71.6456L77.5865 71.7104L77.5352 71.7753L77.4834 71.8401L77.4315 71.905L77.3796 71.9698L77.3277 72.0346L77.2752 72.0988L77.2227 72.163L77.1702 72.2272L77.1176 72.2914L77.0645 72.3556L77.0113 72.4192L76.9581 72.4827L76.9049 72.5463L76.8511 72.6098L76.7973 72.6734L76.7435 72.7363L76.6897 72.7992L76.6358 72.862L76.5814 72.9249L76.5269 72.9878L76.4724 73.0501L76.418 73.1123L76.3629 73.1746L76.3077 73.2368L76.2526 73.2991L76.1975 73.3607L76.1424 73.4223L76.0866 73.4839L76.0308 73.5455L75.9751 73.6071L75.9193 73.6681L75.8629 73.729L75.8065 73.79L75.7501 73.8509L75.6937 73.9119L75.6373 73.9722L75.5802 74.0325L75.5231 74.0928L75.4661 74.1531L75.409 74.2134L75.3513 74.273L75.2936 74.3327L75.2359 74.3924L75.1782 74.452L75.1204 74.5117L75.0621 74.5707L75.0037 74.6297L74.9454 74.6887L74.887 74.7477L74.8286 74.8061L74.7696 74.8644L74.7106 74.9228L74.6516 74.9811L74.5926 75.0395L74.533 75.0972L74.4733 75.1549L74.4136 75.2126L74.354 75.2703L74.2943 75.3281L74.234 75.3851L74.1737 75.4422L74.1134 75.4992L74.0531 75.5563L73.9928 75.6127L73.9319 75.6691L73.8709 75.7255L73.81 75.782L73.749 75.8384L73.688 75.8941L73.644 75.9369L73.5823 75.9927L73.5208 76.0485L73.4591 76.1036L73.3975 76.1587L73.3353 76.2138L73.273 76.2689L73.2108 76.3234L73.1485 76.3779L73.0863 76.4323L73.0234 76.4868L72.9605 76.5413L72.8976 76.5951L72.8347 76.6489L72.7718 76.7027L72.7083 76.7566L72.6447 76.8097L72.5812 76.8629L72.5176 76.9161L72.4541 76.9693L72.3899 77.0224L72.3257 77.0749L72.2615 77.1275L72.1973 77.18L72.1331 77.2325L72.0682 77.2844L72.0034 77.3363L71.9386 77.3881L71.7187 77.1126L71.4996 76.8376L71.2798 76.562L71.0599 76.2864L70.8401 76.0109L70.6203 75.7353L70.4005 75.4597L70.1806 75.1841L69.9608 74.9085L69.741 74.6329L69.5212 74.3573L69.3014 74.0818L69.0815 73.8062L68.8617 73.5306L68.6419 73.255L68.4221 72.9794L68.2023 72.7038L67.9824 72.4282L67.7626 72.1527L67.5428 71.8771L67.323 71.6015L67.1032 71.3259L66.8833 71.0503L66.6635 70.7747L66.4437 70.4991L66.2297 70.2307L66.0099 69.9551L65.7901 69.6795L65.5703 69.4039L65.3504 69.1283L65.1306 68.8528L64.9108 68.5772L64.691 68.3016L64.4712 68.026L64.2513 67.7504L64.0315 67.4748L63.8117 67.1992L63.5919 66.9237L63.3721 66.6481L63.1522 66.3725L62.9324 66.0969L62.7126 65.8213L62.4928 65.5457L62.273 65.2701L62.0531 64.9946L61.8333 64.719L61.6135 64.4434L61.3937 64.1678L61.1739 63.8922L60.954 63.6166L60.7342 63.341L60.5144 63.0655L60.2946 62.7899L60.0748 62.5143L59.8549 62.2387L59.6351 61.9631L59.4153 61.6875L59.1955 61.4119L58.9757 61.1364L58.7558 60.8608L58.536 60.5852L58.3162 60.3096L58.0964 60.034L57.8765 59.7584L57.6567 59.4828L57.4369 59.2072L57.2171 58.9317L56.9973 58.6561L56.7774 58.3805L56.5576 58.1049L56.3378 57.8293L56.118 57.5537L55.8982 57.2781L55.6783 57.0026L55.4585 56.727L55.2387 56.4514L55.0189 56.1758L54.7991 55.9002L54.5792 55.6246L54.3594 55.349L54.1396 55.0735L53.9198 54.7979L53.7 54.5223L53.4801 54.2467L53.2603 53.9711L53.0405 53.6955L52.8207 53.4199L52.6009 53.1444L52.381 52.8688L52.1612 52.5932L51.9414 52.3176L51.7216 52.042L51.5018 51.7664L51.2819 51.4908L51.0621 51.2153L50.8423 50.9397L50.6225 50.6641L50.4027 50.3885L50.1828 50.1129L49.9838 49.8594Z" fill="#9A5CE4" fill-opacity="0.1"/>
<path d="M58.787 50.1291L49.9838 50.1285C49.9205 50.1277 49.8594 50.1045 49.8115 50.0631C49.7636 50.0217 49.7319 49.9647 49.722 49.9021C49.712 49.8396 49.7245 49.7755 49.7572 49.7213C49.79 49.6671 49.8408 49.6262 49.9008 49.6058L58.2734 46.8863C58.3069 46.8753 58.3422 46.8711 58.3773 46.8738C58.4124 46.8766 58.4466 46.8862 58.478 46.9022C58.5093 46.9181 58.5373 46.9401 58.5601 46.9669C58.583 46.9936 58.6004 47.0246 58.6113 47.0581C58.9063 47.9646 59.0554 48.9081 59.0548 49.8613C59.0548 49.8965 59.0479 49.9313 59.0344 49.9638C59.0209 49.9963 59.0012 50.0258 58.9763 50.0507C58.9515 50.0755 58.922 50.0953 58.8895 50.1087C58.857 50.1222 58.8222 50.1291 58.787 50.1291ZM51.6769 49.5922H58.5146C58.4925 48.8767 58.38 48.1669 58.18 47.4796L51.6769 49.5922Z" fill="#1F1740" fill-opacity="0.3"/>
<path d="M49.9838 50.1275C49.9405 50.1274 49.898 50.1168 49.8597 50.0967C49.8214 50.0766 49.7886 50.0475 49.7639 50.012C49.7393 49.9765 49.7236 49.9355 49.7182 49.8927C49.7128 49.8498 49.7178 49.8062 49.7328 49.7657L59.0126 25.0414C59.0249 25.0084 59.0435 24.9781 59.0675 24.9523C59.0915 24.9265 59.1204 24.9057 59.1525 24.8912C59.1845 24.8766 59.2191 24.8685 59.2544 24.8673C59.2896 24.8662 59.3246 24.872 59.3576 24.8845C61.9793 25.8664 64.4294 27.2563 66.6175 29.0027C66.673 29.047 66.7088 29.1116 66.7168 29.1822C66.7248 29.2528 66.7045 29.3238 66.6603 29.3794L50.1932 50.0263C50.1681 50.0578 50.1362 50.0832 50.1 50.1007C50.0637 50.1182 50.024 50.1274 49.9838 50.1275ZM59.4198 25.4817L50.83 48.3683L66.0728 29.2556C64.053 27.677 61.8111 26.4054 59.4198 25.4817Z" fill="#1F1740" fill-opacity="0.3"/>
<path d="M49.9838 50.1283C49.9446 50.1283 49.9059 50.1196 49.8704 50.1031C49.8349 50.0865 49.8035 50.0624 49.7782 50.0324L27.212 23.0023C27.1893 22.9753 27.1722 22.9441 27.1616 22.9106C27.151 22.877 27.1472 22.8416 27.1504 22.8065C27.1535 22.7715 27.1635 22.7374 27.1799 22.7062C27.1962 22.675 27.2186 22.6474 27.2457 22.6249C31.5449 19.0378 36.6312 16.5177 42.0897 15.2703C42.1591 15.2546 42.2319 15.2671 42.2921 15.305C42.3523 15.343 42.3949 15.4032 42.4107 15.4726L50.2458 49.8015C50.259 49.8603 50.2522 49.9219 50.2263 49.9763C50.2005 50.0307 50.1571 50.0749 50.1031 50.1018C50.0657 50.1191 50.025 50.1281 49.9838 50.1283ZM27.7956 22.8648L49.4735 48.8308L41.9471 15.8532C36.7572 17.0815 31.9168 19.4798 27.7956 22.8648Z" fill="#1F1740" fill-opacity="0.3"/>
<path d="M19.6687 55.629C19.6061 55.6289 19.5454 55.6069 19.4973 55.5667C19.4492 55.5266 19.4167 55.4708 19.4055 55.4092C18.2299 49 19.1454 42.24 21.9843 36.3743C22.0152 36.3103 22.0703 36.2612 22.1374 36.2377C22.2045 36.2142 22.2782 36.2183 22.3422 36.2491L50.1006 49.6167C50.1519 49.641 50.1942 49.6811 50.2213 49.7311C50.2483 49.7811 50.2588 49.8384 50.2512 49.8947C50.2435 49.951 50.2181 50.0034 50.1787 50.0444C50.1393 50.0853 50.0878 50.1127 50.0318 50.1225L19.7174 55.6244C19.7014 55.6279 19.6851 55.6294 19.6687 55.629ZM22.3507 36.8502C19.6901 42.4774 18.818 48.9177 19.886 55.0499L49.124 49.7438L22.3507 36.8502Z" fill="#1F1740" fill-opacity="0.3"/>
<path d="M35.512 60.1537C35.4686 60.1534 35.4259 60.1428 35.3874 60.1227C35.349 60.1027 35.3159 60.0737 35.2909 60.0382C34.7578 59.2684 34.2858 58.4579 33.8792 57.6144C33.8639 57.5827 33.855 57.5482 33.853 57.5131C33.851 57.4779 33.8559 57.4427 33.8675 57.4094C33.8792 57.3762 33.8972 57.3456 33.9207 57.3193C33.9442 57.2931 33.9726 57.2717 34.0044 57.2564L49.8665 49.6178C49.9275 49.5863 49.9983 49.5794 50.0643 49.5986C50.1303 49.6178 50.1864 49.6616 50.221 49.721C50.2555 49.7804 50.266 49.8508 50.2501 49.9176C50.2342 49.9845 50.1932 50.0427 50.1356 50.0802L35.665 60.1063C35.62 60.1373 35.5666 60.1538 35.512 60.1537ZM34.481 57.6222C34.8082 58.274 35.1757 58.9049 35.5814 59.5111L47.0302 51.5794L34.481 57.6222Z" fill="#1F1740" fill-opacity="0.3"/>
<path d="M49.9935 72.1317C48.3205 72.1317 46.6443 71.9456 45.0264 71.576C44.9571 71.5599 44.897 71.517 44.8592 71.4568C44.8214 71.3965 44.809 71.3237 44.8248 71.2543L49.7218 49.7988C49.7503 49.6743 49.8664 49.5693 49.9909 49.5907C50.0529 49.5922 50.1125 49.6154 50.1593 49.6561C50.2062 49.6968 50.2374 49.7525 50.2477 49.8137L53.934 71.5105C53.9459 71.5806 53.9293 71.6526 53.8881 71.7106C53.8469 71.7686 53.7843 71.8079 53.7142 71.8198C52.4849 72.0281 51.2403 72.1325 49.9935 72.1317ZM45.4077 71.111C48.0015 71.6687 50.7379 71.7465 53.3602 71.3341L49.9448 51.2332L45.4077 71.111Z" fill="#1F1740" fill-opacity="0.3"/>
<path d="M71.938 77.6568C71.8976 77.6569 71.8577 77.6478 71.8213 77.6303C71.7849 77.6128 71.753 77.5873 71.7279 77.5557L49.7737 50.0262C49.7322 49.975 49.7111 49.9103 49.7143 49.8445C49.7176 49.7786 49.745 49.7163 49.7913 49.6694C49.8376 49.6225 49.8996 49.5944 49.9654 49.5903C50.0312 49.5863 50.0962 49.6067 50.1479 49.6476L77.9224 71.2917C77.9785 71.3355 78.015 71.3998 78.0238 71.4705C78.0325 71.5411 78.0128 71.6123 77.9691 71.6685C76.2541 73.8692 74.2855 75.8598 72.104 77.5991C72.0568 77.6366 71.9982 77.657 71.938 77.6568ZM51.6062 51.4638L71.9801 77.0116C73.9753 75.3946 75.7865 73.563 77.3809 71.5498L51.6062 51.4638Z" fill="#1F1740" fill-opacity="0.3"/>
</svg>
