<svg width="100" height="100" viewBox="0 0 100 100" fill="none" xmlns="http://www.w3.org/2000/svg">
<path fill-rule="evenodd" clip-rule="evenodd" d="M15.0004 62.5354H17.3434V53.2532L21.0027 61.3461C21.4172 62.3188 22.0126 62.6792 23.1656 62.6792C24.3185 62.6792 24.8784 62.3184 25.3067 61.3461L28.9477 53.2532V62.5354H31.309V53.2532C31.309 52.3523 30.9482 51.9188 30.1911 51.6845C28.4068 51.144 27.2171 51.6126 26.6765 52.8197L23.09 60.8225L19.6292 52.8197C19.1064 51.6126 17.8985 51.144 16.0964 51.6845C15.3571 51.9188 14.9967 52.3519 14.9967 53.2532L14.9963 62.5354H15.0004ZM33.2594 54.9834H35.6206V60.0844C35.6028 60.3725 35.7107 61.0217 36.9941 61.039C37.6607 61.0572 42.077 61.039 42.1125 61.039V54.947H44.4738V63.2924C44.4738 65.347 41.9287 65.7971 40.7426 65.8157H33.3175V64.2482H40.7616C42.2757 64.0858 42.0956 63.3292 42.0956 63.0767V62.4635H37.1024C34.7771 62.4453 33.2808 61.418 33.2634 60.2464V54.9826L33.2594 54.9834ZM83.9076 49.0712C82.4662 49.0348 81.348 49.1795 80.4108 49.5762C80.1409 49.6852 79.7079 49.6852 79.6723 50.027C79.8165 50.1704 79.8339 50.4051 79.9604 50.6039C80.1765 50.9646 80.5554 51.4506 80.8976 51.7027C81.2765 51.9915 81.6551 52.2796 82.0509 52.5321C82.7539 52.9643 83.5469 53.2168 84.2316 53.6495C84.6283 53.902 85.0246 54.2263 85.4213 54.497C85.6233 54.6412 85.7457 54.8759 85.9982 54.9656V54.9111C85.8722 54.7495 85.8358 54.5152 85.7102 54.3342C85.5296 54.1544 85.3494 53.9916 85.1688 53.8119C84.6465 53.1089 83.9973 52.4957 83.2944 51.9915C82.7175 51.5948 81.4563 51.0543 81.222 50.3878L81.1864 50.3514C81.5823 50.315 82.0509 50.1708 82.4299 50.0626C83.0431 49.901 83.6014 49.9365 84.2316 49.7745C84.5205 49.7018 84.8085 49.6121 85.0973 49.522V49.3604C84.7729 49.036 84.5386 48.6034 84.1965 48.2972C83.2774 47.5042 82.2675 46.7289 81.222 46.0801C80.6633 45.7198 79.9422 45.4851 79.3475 45.1793C79.1306 45.071 78.7707 45.0169 78.6446 44.8367C78.3194 44.4408 78.1396 43.9177 77.9053 43.4486C77.383 42.4573 76.878 41.358 76.4276 40.3126C76.1032 39.6096 75.9044 38.9067 75.5085 38.2579C73.6519 35.1938 71.6328 33.3375 68.5326 31.5168C67.8661 31.1382 67.0731 30.9754 66.23 30.7775L64.8783 30.7048C64.5894 30.5787 64.3014 30.2361 64.0489 30.0737C63.0216 29.425 60.3719 28.0191 59.6144 29.8758C59.1276 31.0473 60.3355 32.2007 60.7456 32.7957C61.0526 33.2102 61.4485 33.6788 61.6654 34.1475C61.7866 34.4537 61.827 34.7785 61.9535 35.1029C62.2415 35.8959 62.5122 36.7794 62.8907 37.5186C63.0927 37.8972 63.3048 38.2943 63.5573 38.6365C63.7015 38.8344 63.954 38.9249 64.0077 39.2493C63.7552 39.61 63.7378 40.1502 63.5936 40.6014C62.9444 42.6383 63.1969 45.1615 64.116 46.657C64.4048 47.1075 65.0855 48.0992 66.009 47.7203C66.8202 47.3959 66.6392 46.3686 66.8735 45.4673C66.9281 45.2512 66.8917 45.107 66.9996 44.9623V44.9987L67.7388 46.4946C68.2975 47.3777 69.2711 48.2972 70.0819 48.9104C70.5142 49.2348 70.8567 49.7939 71.3973 49.9919V49.9373H71.3617C71.2534 49.7757 71.091 49.703 70.9468 49.577C70.6224 49.2526 70.2621 48.8559 70.0096 48.4955C69.2529 47.4864 68.5864 46.3686 67.9913 45.2152C67.7025 44.6565 67.45 44.0437 67.2165 43.485C67.1074 43.2685 67.1074 42.9437 66.9276 42.8362C66.657 43.2321 66.2611 43.5755 66.0619 44.0619C65.7193 44.8367 65.6838 45.7921 65.5578 46.7835C65.485 46.8016 65.5174 46.7835 65.485 46.8198C64.909 46.676 64.7102 46.0805 64.4941 45.5764C63.9536 44.2966 63.8631 42.242 64.3317 40.7638C64.4577 40.3853 64.9991 39.1956 64.7829 38.8352C64.6739 38.4926 64.3143 38.2947 64.1156 38.024C63.8812 37.6814 63.6296 37.2492 63.4672 36.8707C63.0349 35.8607 62.8188 34.7437 62.3498 33.7342C62.1328 33.2656 61.7547 32.7788 61.4481 32.3465C61.1055 31.8597 60.7278 31.5172 60.4571 30.9407C60.3671 30.7427 60.241 30.4179 60.3852 30.2014C60.4208 30.0572 60.4935 30.0035 60.6369 29.9671C60.8712 29.7691 61.5386 30.0212 61.7729 30.1287C62.4395 30.3994 62.9982 30.6514 63.5569 31.0296C63.8093 31.2097 64.08 31.5523 64.4044 31.6428H64.7833C65.3602 31.7688 66.0086 31.6792 66.5487 31.8407C67.5041 32.1478 68.369 32.5978 69.1447 33.085C71.5055 34.5809 73.4527 36.7079 74.768 39.2497C74.9842 39.6642 75.0743 40.0427 75.273 40.4754C75.6519 41.3589 76.1206 42.2597 76.4983 43.1255C76.8772 43.9726 77.2376 44.8383 77.7781 45.5412C78.0487 45.9198 79.1298 46.1177 79.6162 46.3161C79.9769 46.4777 80.5352 46.6231 80.8604 46.821C81.4729 47.1996 82.0857 47.6322 82.6622 48.0467C82.9502 48.2624 83.8519 48.7133 83.9056 49.0728L83.9076 49.0712ZM65.5267 33.4082C65.2776 33.406 65.0294 33.4363 64.7882 33.4983V33.5346H64.8237C64.9679 33.8231 65.2204 34.0214 65.4006 34.2739L65.8155 35.1392L65.851 35.1029C66.1035 34.9227 66.23 34.6342 66.23 34.202C66.1217 34.0759 66.1039 33.9495 66.0138 33.8235C65.9056 33.6433 65.6713 33.5528 65.5267 33.409V33.4082Z" fill="#FAFAFA"/>
<path fill-rule="evenodd" clip-rule="evenodd" d="M15.0004 62.5354H17.3434V53.2532L21.0027 61.3461C21.4172 62.3188 22.0126 62.6792 23.1656 62.6792C24.3185 62.6792 24.8784 62.3184 25.3067 61.3461L28.9477 53.2532V62.5354H31.309V53.2532C31.309 52.3523 30.9482 51.9188 30.1911 51.6845C28.4068 51.144 27.2171 51.6126 26.6765 52.8197L23.09 60.8225L19.6292 52.8197C19.1064 51.6126 17.8985 51.144 16.0964 51.6845C15.3571 51.9188 14.9967 52.3519 14.9967 53.2532L14.9963 62.5354H15.0004ZM33.2594 54.9834H35.6206V60.0844C35.6028 60.3725 35.7107 61.0217 36.9941 61.039C37.6607 61.0572 42.077 61.039 42.1125 61.039V54.947H44.4738V63.2924C44.4738 65.347 41.9287 65.7971 40.7426 65.8157H33.3175V64.2482H40.7616C42.2757 64.0858 42.0956 63.3292 42.0956 63.0767V62.4635H37.1024C34.7771 62.4453 33.2808 61.418 33.2634 60.2464V54.9826L33.2594 54.9834ZM83.9076 49.0712C82.4662 49.0348 81.348 49.1795 80.4108 49.5762C80.1409 49.6852 79.7079 49.6852 79.6723 50.027C79.8165 50.1704 79.8339 50.4051 79.9604 50.6039C80.1765 50.9646 80.5554 51.4506 80.8976 51.7027C81.2765 51.9915 81.6551 52.2796 82.0509 52.5321C82.7539 52.9643 83.5469 53.2168 84.2316 53.6495C84.6283 53.902 85.0246 54.2263 85.4213 54.497C85.6233 54.6412 85.7457 54.8759 85.9982 54.9656V54.9111C85.8722 54.7495 85.8358 54.5152 85.7102 54.3342C85.5296 54.1544 85.3494 53.9916 85.1688 53.8119C84.6465 53.1089 83.9973 52.4957 83.2944 51.9915C82.7175 51.5948 81.4563 51.0543 81.222 50.3878L81.1864 50.3514C81.5823 50.315 82.0509 50.1708 82.4299 50.0626C83.0431 49.901 83.6014 49.9365 84.2316 49.7745C84.5205 49.7018 84.8085 49.6121 85.0973 49.522V49.3604C84.7729 49.036 84.5386 48.6034 84.1965 48.2972C83.2774 47.5042 82.2675 46.7289 81.222 46.0801C80.6633 45.7198 79.9422 45.4851 79.3475 45.1793C79.1306 45.071 78.7707 45.0169 78.6446 44.8367C78.3194 44.4408 78.1396 43.9177 77.9053 43.4486C77.383 42.4573 76.878 41.358 76.4276 40.3126C76.1032 39.6096 75.9044 38.9067 75.5085 38.2579C73.6519 35.1938 71.6328 33.3375 68.5326 31.5168C67.8661 31.1382 67.0731 30.9754 66.23 30.7775L64.8783 30.7048C64.5894 30.5787 64.3014 30.2361 64.0489 30.0737C63.0216 29.425 60.3719 28.0191 59.6144 29.8758C59.1276 31.0473 60.3355 32.2007 60.7456 32.7957C61.0526 33.2102 61.4485 33.6788 61.6654 34.1475C61.7866 34.4537 61.827 34.7785 61.9535 35.1029C62.2415 35.8959 62.5122 36.7794 62.8907 37.5186C63.0927 37.8972 63.3048 38.2943 63.5573 38.6365C63.7015 38.8344 63.954 38.9249 64.0077 39.2493C63.7552 39.61 63.7378 40.1502 63.5936 40.6014C62.9444 42.6383 63.1969 45.1615 64.116 46.657C64.4048 47.1075 65.0855 48.0992 66.009 47.7203C66.8202 47.3959 66.6392 46.3686 66.8735 45.4673C66.9281 45.2512 66.8917 45.107 66.9996 44.9623V44.9987L67.7388 46.4946C68.2975 47.3777 69.2711 48.2972 70.0819 48.9104C70.5142 49.2348 70.8567 49.7939 71.3973 49.9919V49.9373H71.3617C71.2534 49.7757 71.091 49.703 70.9468 49.577C70.6224 49.2526 70.2621 48.8559 70.0096 48.4955C69.2529 47.4864 68.5864 46.3686 67.9913 45.2152C67.7025 44.6565 67.45 44.0437 67.2165 43.485C67.1074 43.2685 67.1074 42.9437 66.9276 42.8362C66.657 43.2321 66.2611 43.5755 66.0619 44.0619C65.7193 44.8367 65.6838 45.7921 65.5578 46.7835C65.485 46.8016 65.5174 46.7835 65.485 46.8198C64.909 46.676 64.7102 46.0805 64.4941 45.5764C63.9536 44.2966 63.8631 42.242 64.3317 40.7638C64.4577 40.3853 64.9991 39.1956 64.7829 38.8352C64.6739 38.4926 64.3143 38.2947 64.1156 38.024C63.8812 37.6814 63.6296 37.2492 63.4672 36.8707C63.0349 35.8607 62.8188 34.7437 62.3498 33.7342C62.1328 33.2656 61.7547 32.7788 61.4481 32.3465C61.1055 31.8597 60.7278 31.5172 60.4571 30.9407C60.3671 30.7427 60.241 30.4179 60.3852 30.2014C60.4208 30.0572 60.4935 30.0035 60.6369 29.9671C60.8712 29.7691 61.5386 30.0212 61.7729 30.1287C62.4395 30.3994 62.9982 30.6514 63.5569 31.0296C63.8093 31.2097 64.08 31.5523 64.4044 31.6428H64.7833C65.3602 31.7688 66.0086 31.6792 66.5487 31.8407C67.5041 32.1478 68.369 32.5978 69.1447 33.085C71.5055 34.5809 73.4527 36.7079 74.768 39.2497C74.9842 39.6642 75.0743 40.0427 75.273 40.4754C75.6519 41.3589 76.1206 42.2597 76.4983 43.1255C76.8772 43.9726 77.2376 44.8383 77.7781 45.5412C78.0487 45.9198 79.1298 46.1177 79.6162 46.3161C79.9769 46.4777 80.5352 46.6231 80.8604 46.821C81.4729 47.1996 82.0857 47.6322 82.6622 48.0467C82.9502 48.2624 83.8519 48.7133 83.9056 49.0728L83.9076 49.0712ZM65.5267 33.4082C65.2776 33.406 65.0294 33.4363 64.7882 33.4983V33.5346H64.8237C64.9679 33.8231 65.2204 34.0214 65.4006 34.2739L65.8155 35.1392L65.851 35.1029C66.1035 34.9227 66.23 34.6342 66.23 34.202C66.1217 34.0759 66.1039 33.9495 66.0138 33.8235C65.9056 33.6433 65.6713 33.5528 65.5267 33.409V33.4082Z" fill="#674992" fill-opacity="0.01"/>
<path fill-rule="evenodd" clip-rule="evenodd" d="M46.2731 62.5356H53.0502C53.8432 62.5356 54.6007 62.374 55.2131 62.0851C56.2404 61.6165 56.7272 60.9863 56.7272 60.157V58.4267C56.7272 57.7602 56.1685 57.1287 55.0515 56.6965C54.4746 56.4804 53.7535 56.3539 53.0506 56.3539H50.2026C49.2472 56.3539 48.7967 56.0651 48.6703 55.4349C48.6525 55.363 48.6525 55.2906 48.6525 55.2187V54.1551C48.6525 54.1005 48.6525 54.029 48.6703 53.9571C48.7963 53.4703 49.0488 53.3439 49.8822 53.2542H56.8213V51.6855H50.2244C49.269 51.6855 48.7644 51.7401 48.3136 51.8843C46.9255 52.3166 46.3127 53.0017 46.3127 54.2088V55.5795C46.3127 56.6419 47.5024 57.544 49.5211 57.7602C49.7372 57.7783 49.9715 57.7783 50.2058 57.7783H52.6394C52.7294 57.7783 52.8191 57.7783 52.891 57.7965C53.6303 57.8684 53.9547 57.9945 54.1708 58.2643C54.3151 58.4085 54.3514 58.535 54.3514 58.6974V60.0669C54.3514 60.2285 54.2431 60.4458 54.027 60.6256C53.8109 60.8053 53.4675 60.9318 53.0171 60.95C52.927 60.95 52.8737 60.9681 52.7828 60.9681H46.2731V62.5356ZM71.3985 59.8144C71.3985 61.4182 72.6104 62.319 75.0221 62.5C75.2564 62.5182 75.4726 62.5356 75.7069 62.5356H81.8352V60.9681H75.6532C74.2825 60.9681 73.7601 60.6256 73.7601 59.7966V51.6855H71.394V59.8148L71.3985 59.8144ZM58.2227 59.8859V54.2989C58.2227 52.8749 59.2319 52.0091 61.1972 51.7393C61.4133 51.7211 61.6295 51.7029 61.8274 51.7029H66.297C66.5313 51.7029 66.7301 51.7211 66.9644 51.7393C68.9289 52.0091 69.9199 52.8745 69.9199 54.2989V59.8859C69.9199 61.0392 69.5058 61.6525 68.5318 62.0674L70.8385 64.1575H68.1173L66.2429 62.4637L64.3499 62.5719H61.8266C61.3643 62.5696 60.904 62.5092 60.4567 62.3922C58.962 61.9769 58.2227 61.1843 58.2227 59.8859ZM60.7637 59.7607C60.7637 59.8326 60.8041 59.9041 60.8183 59.995C60.9443 60.6433 61.5568 61.0041 62.494 61.0041H64.6213L62.675 59.2375H65.3962L67.1082 60.788C67.4334 60.6074 67.6314 60.3549 67.7033 60.0305C67.7215 59.9586 67.7215 59.8689 67.7215 59.7962V54.4427C67.7215 54.3708 67.7215 54.2993 67.7033 54.2266C67.5772 53.6141 66.9648 53.272 66.0453 53.272H62.4944C61.4489 53.272 60.7642 53.7224 60.7642 54.4427L60.7637 59.7607Z" fill="#FAFAFA"/>
<path fill-rule="evenodd" clip-rule="evenodd" d="M46.2731 62.5356H53.0502C53.8432 62.5356 54.6007 62.374 55.2131 62.0851C56.2404 61.6165 56.7272 60.9863 56.7272 60.157V58.4267C56.7272 57.7602 56.1685 57.1287 55.0515 56.6965C54.4746 56.4804 53.7535 56.3539 53.0506 56.3539H50.2026C49.2472 56.3539 48.7967 56.0651 48.6703 55.4349C48.6525 55.363 48.6525 55.2906 48.6525 55.2187V54.1551C48.6525 54.1005 48.6525 54.029 48.6703 53.9571C48.7963 53.4703 49.0488 53.3439 49.8822 53.2542H56.8213V51.6855H50.2244C49.269 51.6855 48.7644 51.7401 48.3136 51.8843C46.9255 52.3166 46.3127 53.0017 46.3127 54.2088V55.5795C46.3127 56.6419 47.5024 57.544 49.5211 57.7602C49.7372 57.7783 49.9715 57.7783 50.2058 57.7783H52.6394C52.7294 57.7783 52.8191 57.7783 52.891 57.7965C53.6303 57.8684 53.9547 57.9945 54.1708 58.2643C54.3151 58.4085 54.3514 58.535 54.3514 58.6974V60.0669C54.3514 60.2285 54.2431 60.4458 54.027 60.6256C53.8109 60.8053 53.4675 60.9318 53.0171 60.95C52.927 60.95 52.8737 60.9681 52.7828 60.9681H46.2731V62.5356ZM71.3985 59.8144C71.3985 61.4182 72.6104 62.319 75.0221 62.5C75.2564 62.5182 75.4726 62.5356 75.7069 62.5356H81.8352V60.9681H75.6532C74.2825 60.9681 73.7601 60.6256 73.7601 59.7966V51.6855H71.394V59.8148L71.3985 59.8144ZM58.2227 59.8859V54.2989C58.2227 52.8749 59.2319 52.0091 61.1972 51.7393C61.4133 51.7211 61.6295 51.7029 61.8274 51.7029H66.297C66.5313 51.7029 66.7301 51.7211 66.9644 51.7393C68.9289 52.0091 69.9199 52.8745 69.9199 54.2989V59.8859C69.9199 61.0392 69.5058 61.6525 68.5318 62.0674L70.8385 64.1575H68.1173L66.2429 62.4637L64.3499 62.5719H61.8266C61.3643 62.5696 60.904 62.5092 60.4567 62.3922C58.962 61.9769 58.2227 61.1843 58.2227 59.8859ZM60.7637 59.7607C60.7637 59.8326 60.8041 59.9041 60.8183 59.995C60.9443 60.6433 61.5568 61.0041 62.494 61.0041H64.6213L62.675 59.2375H65.3962L67.1082 60.788C67.4334 60.6074 67.6314 60.3549 67.7033 60.0305C67.7215 59.9586 67.7215 59.8689 67.7215 59.7962V54.4427C67.7215 54.3708 67.7215 54.2993 67.7033 54.2266C67.5772 53.6141 66.9648 53.272 66.0453 53.272H62.4944C61.4489 53.272 60.7642 53.7224 60.7642 54.4427L60.7637 59.7607Z" fill="#674992" fill-opacity="0.01"/>
</svg>
