<svg width="100" height="100" viewBox="0 0 100 100" fill="none" xmlns="http://www.w3.org/2000/svg">
<g clip-path="url(#clip0_832_10959)">
<path d="M69.2499 64.9316L69.2679 83.2643L52.9998 91.3823V73.0577L69.2499 64.9316ZM88.774 55.1335V73.5302L74.8989 80.4548L74.8888 62.1422L88.774 55.1335ZM69.2259 40.3934L69.2439 58.5337L52.9998 66.6057V48.4593L69.2259 40.3934ZM88.774 30.6754V48.7016L74.8848 55.7623L74.8728 37.5859L88.774 30.6754ZM50.5268 28.5427L65.0467 35.8718L49.9821 43.4371L35.7365 36.2823L50.5268 28.5427ZM30.3299 18.3482L44.1789 25.3388L29.3547 33.0763L15.1311 25.9335L30.3299 18.3482ZM69.9187 18.4543L84.8351 25.9335L71.4947 32.6338L56.9447 25.2947L69.9187 18.4543ZM50.0702 8.5L63.4988 15.2323L50.6229 22.1068L36.7858 15.1282L50.0702 8.5Z" fill="#FAFAFA"/>
<path d="M69.2499 64.9316L69.2679 83.2643L52.9998 91.3823V73.0577L69.2499 64.9316ZM88.774 55.1335V73.5302L74.8989 80.4548L74.8888 62.1422L88.774 55.1335ZM69.2259 40.3934L69.2439 58.5337L52.9998 66.6057V48.4593L69.2259 40.3934ZM88.774 30.6754V48.7016L74.8848 55.7623L74.8728 37.5859L88.774 30.6754ZM50.5268 28.5427L65.0467 35.8718L49.9821 43.4371L35.7365 36.2823L50.5268 28.5427ZM30.3299 18.3482L44.1789 25.3388L29.3547 33.0763L15.1311 25.9335L30.3299 18.3482ZM69.9187 18.4543L84.8351 25.9335L71.4947 32.6338L56.9447 25.2947L69.9187 18.4543ZM50.0702 8.5L63.4988 15.2323L50.6229 22.1068L36.7858 15.1282L50.0702 8.5Z" fill="#674992" fill-opacity="0.01"/>
<path d="M47.2568 48.4588L36.2993 42.95V66.7614C36.2993 66.7614 22.8987 38.2482 21.6572 35.687C21.497 35.3566 20.8382 34.9942 20.67 34.9061C18.267 33.6445 11.2263 30.0781 11.2263 30.0781V72.146L20.9663 77.3525V55.3633C20.9663 55.3633 34.2247 80.8408 34.3589 81.1191C34.493 81.3974 35.8247 84.0828 37.2464 85.0259C39.1408 86.2795 47.2588 91.1615 47.2588 91.1615L47.2568 48.4588Z" fill="#FAFAFA"/>
<path d="M47.2568 48.4588L36.2993 42.95V66.7614C36.2993 66.7614 22.8987 38.2482 21.6572 35.687C21.497 35.3566 20.8382 34.9942 20.67 34.9061C18.267 33.6445 11.2263 30.0781 11.2263 30.0781V72.146L20.9663 77.3525V55.3633C20.9663 55.3633 34.2247 80.8408 34.3589 81.1191C34.493 81.3974 35.8247 84.0828 37.2464 85.0259C39.1408 86.2795 47.2588 91.1615 47.2588 91.1615L47.2568 48.4588Z" fill="#674992" fill-opacity="0.01"/>
</g>
<defs>
<clipPath id="clip0_832_10959">
<rect width="83" height="83" fill="white" transform="translate(8.5 8.5)"/>
</clipPath>
</defs>
</svg>
