<svg width="100" height="100" viewBox="0 0 100 100" fill="none" xmlns="http://www.w3.org/2000/svg">
<path d="M40.0769 18.3398H48.0203V34.8341H40.0769V18.3398ZM40.0769 52.2214H48.0203V68.715H40.0769V52.2214Z" fill="#FAFAFA"/>
<path d="M40.0769 18.3398H48.0203V34.8341H40.0769V18.3398ZM40.0769 52.2214H48.0203V68.715H40.0769V52.2214Z" fill="#674992" fill-opacity="0.01"/>
<path d="M40.0769 39.6484H48.0203V47.4303H40.0769V39.6484Z" fill="white"/>
<path d="M27.3157 31.9004H35.259V86.7271H27.3157V31.9004ZM52.5743 65.8312H60.5176V82.3248H52.5743V65.8312ZM52.5743 31.9198H60.5176V48.4141H52.5743V31.9198Z" fill="#FAFAFA"/>
<path d="M27.3157 31.9004H35.259V86.7271H27.3157V31.9004ZM52.5743 65.8312H60.5176V82.3248H52.5743V65.8312ZM52.5743 31.9198H60.5176V48.4141H52.5743V31.9198Z" fill="#674992" fill-opacity="0.01"/>
<path d="M52.5743 53.2305H60.5177V61.0124H52.5743V53.2305Z" fill="white"/>
<path d="M65.0684 14.0449H73.0117V68.8716H65.0684V14.0449Z" fill="#FAFAFA"/>
<path d="M65.0684 14.0449H73.0117V68.8716H65.0684V14.0449Z" fill="#674992" fill-opacity="0.01"/>
</svg>
