<svg width="74" height="77" viewBox="0 0 74 77" fill="none" xmlns="http://www.w3.org/2000/svg">
<path d="M71.8049 47.0781C62.4349 49.0104 61.7541 45.8363 61.7541 45.8363C71.6525 31.1492 75.7927 12.5066 72.2199 7.94485C62.4803 -4.50515 45.6177 1.3859 45.3356 1.53829L45.2449 1.5545C43.1852 1.14124 41.0912 0.923045 38.9907 0.902819C34.7499 0.837975 31.5336 2.01489 29.089 3.86618C29.089 3.86618 -0.991983 -8.52546 0.408642 19.4514C0.706924 25.404 8.93559 64.5178 18.7594 52.6838C22.3777 48.3328 25.8468 44.6788 25.8468 44.6788C27.5652 45.8233 29.6305 46.4069 31.793 46.1962L31.9616 46.0535C31.9121 46.6139 31.935 47.1784 32.0297 47.733C29.5008 50.5602 30.2465 51.0562 25.1887 52.097C20.0725 53.1507 23.0813 55.0279 25.0395 55.5207C27.4193 56.1173 32.9245 56.9602 36.6466 51.7533L36.4974 52.3466C37.4895 53.1409 38.1834 57.5114 38.0667 61.4734C37.9499 65.4353 37.8721 68.1523 38.6502 70.2791C39.4284 72.406 40.2065 77.185 46.853 75.7909C52.4068 74.601 55.2827 71.5112 55.6879 66.3691C55.9733 62.7119 56.6152 63.2501 56.6606 59.982L57.1793 58.4322C57.7727 53.4716 57.2766 51.8732 60.6971 52.6189L61.5304 52.6935C64.0495 52.807 67.3468 52.2882 69.2792 51.3902C73.4454 49.4578 75.9127 46.2286 71.8049 47.0781Z" fill="#FAFAFA"/>
<path d="M71.8049 47.0781C62.4349 49.0104 61.7541 45.8363 61.7541 45.8363C71.6525 31.1492 75.7927 12.5066 72.2199 7.94485C62.4803 -4.50515 45.6177 1.3859 45.3356 1.53829L45.2449 1.5545C43.1852 1.14124 41.0912 0.923045 38.9907 0.902819C34.7499 0.837975 31.5336 2.01489 29.089 3.86618C29.089 3.86618 -0.991983 -8.52546 0.408642 19.4514C0.706924 25.404 8.93559 64.5178 18.7594 52.6838C22.3777 48.3328 25.8468 44.6788 25.8468 44.6788C27.5652 45.8233 29.6305 46.4069 31.793 46.1962L31.9616 46.0535C31.9121 46.6139 31.935 47.1784 32.0297 47.733C29.5008 50.5602 30.2465 51.0562 25.1887 52.097C20.0725 53.1507 23.0813 55.0279 25.0395 55.5207C27.4193 56.1173 32.9245 56.9602 36.6466 51.7533L36.4974 52.3466C37.4895 53.1409 38.1834 57.5114 38.0667 61.4734C37.9499 65.4353 37.8721 68.1523 38.6502 70.2791C39.4284 72.406 40.2065 77.185 46.853 75.7909C52.4068 74.601 55.2827 71.5112 55.6879 66.3691C55.9733 62.7119 56.6152 63.2501 56.6606 59.982L57.1793 58.4322C57.7727 53.4716 57.2766 51.8732 60.6971 52.6189L61.5304 52.6935C64.0495 52.807 67.3468 52.2882 69.2792 51.3902C73.4454 49.4578 75.9127 46.2286 71.8049 47.0781Z" fill="#674992" fill-opacity="0.01"/>
</svg>
