<svg width="84" height="84" viewBox="0 0 84 84" fill="none" xmlns="http://www.w3.org/2000/svg">
<path d="M41.5057 0.041702C38.0833 0.0576044 34.8149 0.349489 31.9391 0.858363C23.4674 2.35505 21.9292 5.48774 21.9292 11.265V18.8949H41.9491V21.4382H21.9292H14.4159C8.5976 21.4382 3.5029 24.9354 1.90935 31.5881C0.0712039 39.2138 -0.010328 43.9723 1.90935 51.9347C3.33243 57.8615 6.73095 62.0846 12.5493 62.0846H19.4326V52.938C19.4326 46.3301 25.1498 40.5014 31.9391 40.5014H51.9357C57.502 40.5014 61.9456 35.9183 61.9456 30.3282V11.265C61.9456 5.83946 57.3686 1.76386 51.9357 0.858363C48.4965 0.285879 44.9282 0.0257994 41.5057 0.041702ZM30.6791 6.17832C32.7471 6.17832 34.4358 7.89463 34.4358 10.005C34.4358 12.1078 32.7471 13.8083 30.6791 13.8083C28.6038 13.8083 26.9225 12.1078 26.9225 10.005C26.9225 7.89464 28.6038 6.17832 30.6791 6.17832Z" fill="#FAFAFA"/>
<path d="M41.5057 0.041702C38.0833 0.0576044 34.8149 0.349489 31.9391 0.858363C23.4674 2.35505 21.9292 5.48774 21.9292 11.265V18.8949H41.9491V21.4382H21.9292H14.4159C8.5976 21.4382 3.5029 24.9354 1.90935 31.5881C0.0712039 39.2138 -0.010328 43.9723 1.90935 51.9347C3.33243 57.8615 6.73095 62.0846 12.5493 62.0846H19.4326V52.938C19.4326 46.3301 25.1498 40.5014 31.9391 40.5014H51.9357C57.502 40.5014 61.9456 35.9183 61.9456 30.3282V11.265C61.9456 5.83946 57.3686 1.76386 51.9357 0.858363C48.4965 0.285879 44.9282 0.0257994 41.5057 0.041702ZM30.6791 6.17832C32.7471 6.17832 34.4358 7.89463 34.4358 10.005C34.4358 12.1078 32.7471 13.8083 30.6791 13.8083C28.6038 13.8083 26.9225 12.1078 26.9225 10.005C26.9225 7.89464 28.6038 6.17832 30.6791 6.17832Z" fill="#674992" fill-opacity="0.01"/>
<path d="M64.4424 21.4395V30.3294C64.4424 37.2216 58.5991 43.0226 51.9358 43.0226H31.9392C26.4619 43.0226 21.9293 47.7105 21.9293 53.1959V72.2591C21.9293 77.6846 26.6472 80.8758 31.9392 82.4324C38.2764 84.2957 44.3534 84.6325 51.9358 82.4324C56.9759 80.9731 61.9457 78.0363 61.9457 72.2591V64.6291H41.9492V62.0858H61.9457H71.9556C77.774 62.0858 79.9421 58.0274 81.9656 51.9359C84.0557 45.6648 83.9668 39.6341 81.9656 31.5894C80.5276 25.7972 77.7814 21.4395 71.9556 21.4395H64.4424ZM53.1958 69.7158C55.2711 69.7158 56.9524 71.4162 56.9524 73.5191C56.9524 75.6294 55.2711 77.3457 53.1958 77.3457C51.1278 77.3457 49.4391 75.6294 49.4391 73.5191C49.4391 71.4162 51.1278 69.7158 53.1958 69.7158Z" fill="#FAFAFA"/>
<path d="M64.4424 21.4395V30.3294C64.4424 37.2216 58.5991 43.0226 51.9358 43.0226H31.9392C26.4619 43.0226 21.9293 47.7105 21.9293 53.1959V72.2591C21.9293 77.6846 26.6472 80.8758 31.9392 82.4324C38.2764 84.2957 44.3534 84.6325 51.9358 82.4324C56.9759 80.9731 61.9457 78.0363 61.9457 72.2591V64.6291H41.9492V62.0858H61.9457H71.9556C77.774 62.0858 79.9421 58.0274 81.9656 51.9359C84.0557 45.6648 83.9668 39.6341 81.9656 31.5894C80.5276 25.7972 77.7814 21.4395 71.9556 21.4395H64.4424ZM53.1958 69.7158C55.2711 69.7158 56.9524 71.4162 56.9524 73.5191C56.9524 75.6294 55.2711 77.3457 53.1958 77.3457C51.1278 77.3457 49.4391 75.6294 49.4391 73.5191C49.4391 71.4162 51.1278 69.7158 53.1958 69.7158Z" fill="#674992" fill-opacity="0.01"/>
</svg>
