<svg width="100" height="100" viewBox="0 0 100 100" fill="none" xmlns="http://www.w3.org/2000/svg">
<g clip-path="url(#clip0_832_10922)">
<path d="M8.74451 49.9185C8.74451 56.1483 14.8278 61.9639 24.4182 65.242C22.5031 74.8833 24.0752 82.6545 29.3256 85.6824C34.7222 88.7949 42.7622 86.6405 50.3933 79.9697C57.8319 86.371 65.3495 88.8902 70.5954 85.8536C75.9871 82.7323 77.6267 74.4343 75.6587 64.4918C85.6479 61.1893 91.2355 56.2304 91.2355 49.9185C91.2355 43.8332 85.1411 38.5689 75.6798 35.3118C77.7986 24.9585 76.0034 17.376 70.5354 14.223C65.2639 11.1831 57.6587 13.8326 50.1109 20.4013C42.2583 13.4293 34.7284 11.3008 29.2663 14.4626C23.9996 17.5112 22.4969 25.4238 24.4182 35.2434C15.1514 38.4742 8.74451 43.8579 8.74451 49.9185Z" fill="#FAFAFA"/>
<path d="M8.74451 49.9185C8.74451 56.1483 14.8278 61.9639 24.4182 65.242C22.5031 74.8833 24.0752 82.6545 29.3256 85.6824C34.7222 88.7949 42.7622 86.6405 50.3933 79.9697C57.8319 86.371 65.3495 88.8902 70.5954 85.8536C75.9871 82.7323 77.6267 74.4343 75.6587 64.4918C85.6479 61.1893 91.2355 56.2304 91.2355 49.9185C91.2355 43.8332 85.1411 38.5689 75.6798 35.3118C77.7986 24.9585 76.0034 17.376 70.5354 14.223C65.2639 11.1831 57.6587 13.8326 50.1109 20.4013C42.2583 13.4293 34.7284 11.3008 29.2663 14.4626C23.9996 17.5112 22.4969 25.4238 24.4182 35.2434C15.1514 38.4742 8.74451 43.8579 8.74451 49.9185Z" fill="#674992" fill-opacity="0.01"/>
<path d="M73.676 38.5459C72.8963 38.2784 72.1099 38.0306 71.3177 37.8028C71.449 37.2689 71.5705 36.7327 71.6821 36.1943C73.4672 27.5286 72.3 20.5475 68.3141 18.2494C64.4925 16.0454 58.2422 18.3435 51.9297 23.8367C51.3077 24.3792 50.6995 24.9374 50.1057 25.5106C49.708 25.1295 49.3033 24.7557 48.8918 24.3895C42.2761 18.5153 35.6448 16.0402 31.6631 18.3451C27.8451 20.5553 26.7142 27.1184 28.3214 35.3309C28.4813 36.1442 28.6618 36.9533 28.8628 37.7574C27.9245 38.0239 27.0184 38.3079 26.1514 38.6101C18.3954 41.314 13.442 45.5522 13.442 49.948C13.442 54.4883 18.7592 59.0423 26.8381 61.8034C27.4932 62.0262 28.1537 62.2327 28.8191 62.4226C28.6029 63.2889 28.411 64.1611 28.2436 65.0381C26.7113 73.1079 27.908 79.5154 31.716 81.712C35.6491 83.9799 42.2501 81.6488 48.6781 76.0301C49.1862 75.5859 49.6962 75.1148 50.2068 74.621C50.85 75.2416 51.5104 75.8441 52.1871 76.4279C58.4134 81.7856 64.5626 83.9491 68.3673 81.7467C72.2968 79.472 73.5736 72.5885 71.9155 64.2136C71.7891 63.5739 71.6416 62.9206 71.4762 62.2553C71.9398 62.1185 72.3947 61.9771 72.8386 61.83C81.2371 59.0475 86.7012 54.549 86.7012 49.948C86.7012 45.5363 81.5883 41.2696 73.676 38.5459Z" fill="#1F1740" fill-opacity="0.1"/>
<path d="M71.8543 58.8602C71.4539 58.9929 71.0428 59.1209 70.6239 59.2451C69.6966 56.3099 68.4451 53.1887 66.9142 49.9643C68.3754 46.8162 69.5783 43.7351 70.4796 40.8188C71.2289 41.036 71.9564 41.2646 72.6574 41.5061C79.4368 43.8395 83.5719 47.2902 83.5719 49.9488C83.5719 52.7808 79.1054 56.4575 71.8543 58.8602ZM68.8455 64.8223C69.5786 68.5255 69.6833 71.8737 69.1976 74.4912C68.7612 76.843 67.8839 78.411 66.7991 79.039C64.4903 80.3754 59.5528 78.6382 54.2284 74.0564C53.6179 73.5311 53.0029 72.9702 52.3862 72.3769C54.4505 70.1191 56.5135 67.4942 58.5269 64.5795C62.0687 64.2653 65.4146 63.7514 68.449 63.0501C68.5981 63.6532 68.7311 64.2442 68.8455 64.8223ZM38.4176 78.8081C36.162 79.6047 34.3655 79.6274 33.2797 79.0014C30.9687 77.6688 30.0083 72.5235 31.3185 65.6225C31.4743 64.8069 31.6527 63.9958 31.8535 63.1902C34.8541 63.8539 38.1757 64.3314 41.7259 64.6193C43.7526 67.4715 45.8753 70.0931 48.0145 72.3889C47.5598 72.8287 47.0944 73.2572 46.6187 73.6741C43.7763 76.1589 40.928 77.9214 38.4179 78.8081H38.4176ZM27.8503 58.8427C24.2781 57.6217 21.328 56.035 19.3059 54.3037C17.4889 52.7474 16.5714 51.2025 16.5714 49.9488C16.5714 47.2814 20.5486 43.8787 27.1818 41.5661C28.0144 41.2771 28.8552 41.0125 29.7032 40.7727C30.6201 43.7546 31.8227 46.8723 33.2739 50.025C31.8039 53.2247 30.5841 56.392 29.6588 59.4088C29.0514 59.235 28.4484 59.0462 27.8503 58.8427ZM31.3927 34.7306C30.0158 27.6941 30.9301 22.3863 33.2311 21.0544C35.6822 19.6356 41.1015 21.6587 46.8136 26.7305C47.1786 27.0547 47.5453 27.3942 47.9127 27.7453C45.7845 30.0307 43.6813 32.6326 41.6721 35.4682C38.2266 35.7875 34.9284 36.3005 31.8963 36.9875C31.7095 36.2394 31.5416 35.4871 31.3927 34.7306ZM62.9934 42.5336C62.2772 41.2965 61.5345 40.075 60.7657 38.8699C63.1033 39.1649 65.3427 39.5572 67.4455 40.0374C66.8143 42.0609 66.0274 44.1767 65.1008 46.3457C64.4238 45.0611 63.7212 43.7901 62.9934 42.5336ZM50.1067 29.9818C51.5501 31.5455 52.9958 33.2917 54.4178 35.1861C51.5332 35.0498 48.6438 35.0492 45.7592 35.1842C47.1825 33.3073 48.6405 31.5636 50.1067 29.9818ZM37.1373 42.555C36.4186 43.8015 35.7291 45.0647 35.0694 46.3435C34.158 44.1819 33.3783 42.0566 32.7415 40.0043C34.8317 39.5365 37.0607 39.1542 39.3831 38.8641C38.6057 40.0766 37.8569 41.3072 37.1373 42.555ZM39.4499 61.2569C37.0507 60.9891 34.788 60.6263 32.6984 60.1714C33.3452 58.0828 34.1421 55.9118 35.073 53.7039C35.7355 54.9836 36.428 56.2475 37.1499 57.4946C37.8866 58.7668 38.6534 60.0212 39.4499 61.2569ZM50.1932 70.1369C48.7099 68.5362 47.2305 66.766 45.7855 64.8619C47.188 64.917 48.6182 64.9449 50.0716 64.9449C51.565 64.9449 53.0412 64.9115 54.494 64.8466C53.0674 66.7854 51.6269 68.5583 50.1932 70.1369ZM65.1306 53.5914C66.1098 55.8233 66.9352 57.9826 67.5908 60.0359C65.4665 60.5206 63.1733 60.9109 60.7569 61.2008C61.5313 59.9732 62.2811 58.7303 63.006 57.4729C63.7429 56.195 64.4513 54.9008 65.1306 53.5914ZM60.2949 55.9095C59.1852 57.8373 58.013 59.7285 56.7804 61.5801C54.6068 61.7354 52.3606 61.8155 50.0716 61.8155C47.7921 61.8155 45.5744 61.7445 43.4388 61.6061C42.1741 59.7588 40.9798 57.8643 39.8584 55.9267C38.7423 53.9994 37.6997 52.0304 36.733 50.024C37.6972 48.017 38.7366 46.0469 39.849 44.118V44.1187C40.961 42.1894 42.1459 40.303 43.4012 38.4636C45.5799 38.2989 47.8138 38.2127 50.072 38.2127C52.3402 38.2127 54.577 38.2996 56.7551 38.4656C57.9976 40.3021 59.1749 42.1819 60.2849 44.1015C61.4011 46.0261 62.4543 47.9865 63.4431 49.9796C62.4645 51.993 61.4142 53.9709 60.2949 55.9095ZM66.7511 20.9613C69.2041 22.3762 70.1583 28.0815 68.617 35.5635C68.5159 36.0509 68.4061 36.5365 68.2875 37.0199C65.2483 36.3186 61.9478 35.7966 58.4922 35.4724C56.4792 32.606 54.3935 29.9996 52.2997 27.7437C52.8483 27.2147 53.4101 26.6995 53.9843 26.1984C59.3929 21.4914 64.4478 19.633 66.7511 20.9613Z" fill="#FAFAFA"/>
<path d="M71.8543 58.8602C71.4539 58.9929 71.0428 59.1209 70.6239 59.2451C69.6966 56.3099 68.4451 53.1887 66.9142 49.9643C68.3754 46.8162 69.5783 43.7351 70.4796 40.8188C71.2289 41.036 71.9564 41.2646 72.6574 41.5061C79.4368 43.8395 83.5719 47.2902 83.5719 49.9488C83.5719 52.7808 79.1054 56.4575 71.8543 58.8602ZM68.8455 64.8223C69.5786 68.5255 69.6833 71.8737 69.1976 74.4912C68.7612 76.843 67.8839 78.411 66.7991 79.039C64.4903 80.3754 59.5528 78.6382 54.2284 74.0564C53.6179 73.5311 53.0029 72.9702 52.3862 72.3769C54.4505 70.1191 56.5135 67.4942 58.5269 64.5795C62.0687 64.2653 65.4146 63.7514 68.449 63.0501C68.5981 63.6532 68.7311 64.2442 68.8455 64.8223ZM38.4176 78.8081C36.162 79.6047 34.3655 79.6274 33.2797 79.0014C30.9687 77.6688 30.0083 72.5235 31.3185 65.6225C31.4743 64.8069 31.6527 63.9958 31.8535 63.1902C34.8541 63.8539 38.1757 64.3314 41.7259 64.6193C43.7526 67.4715 45.8753 70.0931 48.0145 72.3889C47.5598 72.8287 47.0944 73.2572 46.6187 73.6741C43.7763 76.1589 40.928 77.9214 38.4179 78.8081H38.4176ZM27.8503 58.8427C24.2781 57.6217 21.328 56.035 19.3059 54.3037C17.4889 52.7474 16.5714 51.2025 16.5714 49.9488C16.5714 47.2814 20.5486 43.8787 27.1818 41.5661C28.0144 41.2771 28.8552 41.0125 29.7032 40.7727C30.6201 43.7546 31.8227 46.8723 33.2739 50.025C31.8039 53.2247 30.5841 56.392 29.6588 59.4088C29.0514 59.235 28.4484 59.0462 27.8503 58.8427ZM31.3927 34.7306C30.0158 27.6941 30.9301 22.3863 33.2311 21.0544C35.6822 19.6356 41.1015 21.6587 46.8136 26.7305C47.1786 27.0547 47.5453 27.3942 47.9127 27.7453C45.7845 30.0307 43.6813 32.6326 41.6721 35.4682C38.2266 35.7875 34.9284 36.3005 31.8963 36.9875C31.7095 36.2394 31.5416 35.4871 31.3927 34.7306ZM62.9934 42.5336C62.2772 41.2965 61.5345 40.075 60.7657 38.8699C63.1033 39.1649 65.3427 39.5572 67.4455 40.0374C66.8143 42.0609 66.0274 44.1767 65.1008 46.3457C64.4238 45.0611 63.7212 43.7901 62.9934 42.5336ZM50.1067 29.9818C51.5501 31.5455 52.9958 33.2917 54.4178 35.1861C51.5332 35.0498 48.6438 35.0492 45.7592 35.1842C47.1825 33.3073 48.6405 31.5636 50.1067 29.9818ZM37.1373 42.555C36.4186 43.8015 35.7291 45.0647 35.0694 46.3435C34.158 44.1819 33.3783 42.0566 32.7415 40.0043C34.8317 39.5365 37.0607 39.1542 39.3831 38.8641C38.6057 40.0766 37.8569 41.3072 37.1373 42.555ZM39.4499 61.2569C37.0507 60.9891 34.788 60.6263 32.6984 60.1714C33.3452 58.0828 34.1421 55.9118 35.073 53.7039C35.7355 54.9836 36.428 56.2475 37.1499 57.4946C37.8866 58.7668 38.6534 60.0212 39.4499 61.2569ZM50.1932 70.1369C48.7099 68.5362 47.2305 66.766 45.7855 64.8619C47.188 64.917 48.6182 64.9449 50.0716 64.9449C51.565 64.9449 53.0412 64.9115 54.494 64.8466C53.0674 66.7854 51.6269 68.5583 50.1932 70.1369ZM65.1306 53.5914C66.1098 55.8233 66.9352 57.9826 67.5908 60.0359C65.4665 60.5206 63.1733 60.9109 60.7569 61.2008C61.5313 59.9732 62.2811 58.7303 63.006 57.4729C63.7429 56.195 64.4513 54.9008 65.1306 53.5914ZM60.2949 55.9095C59.1852 57.8373 58.013 59.7285 56.7804 61.5801C54.6068 61.7354 52.3606 61.8155 50.0716 61.8155C47.7921 61.8155 45.5744 61.7445 43.4388 61.6061C42.1741 59.7588 40.9798 57.8643 39.8584 55.9267C38.7423 53.9994 37.6997 52.0304 36.733 50.024C37.6972 48.017 38.7366 46.0469 39.849 44.118V44.1187C40.961 42.1894 42.1459 40.303 43.4012 38.4636C45.5799 38.2989 47.8138 38.2127 50.072 38.2127C52.3402 38.2127 54.577 38.2996 56.7551 38.4656C57.9976 40.3021 59.1749 42.1819 60.2849 44.1015C61.4011 46.0261 62.4543 47.9865 63.4431 49.9796C62.4645 51.993 61.4142 53.9709 60.2949 55.9095ZM66.7511 20.9613C69.2041 22.3762 70.1583 28.0815 68.617 35.5635C68.5159 36.0509 68.4061 36.5365 68.2875 37.0199C65.2483 36.3186 61.9478 35.7966 58.4922 35.4724C56.4792 32.606 54.3935 29.9996 52.2997 27.7437C52.8483 27.2147 53.4101 26.6995 53.9843 26.1984C59.3929 21.4914 64.4478 19.633 66.7511 20.9613Z" fill="#674992" fill-opacity="0.01"/>
<path d="M50.0717 43.4062C53.6848 43.4062 56.6134 46.3352 56.6134 49.948C56.6134 53.5611 53.6848 56.4901 50.0717 56.4901C46.4589 56.4901 43.5299 53.5611 43.5299 49.948C43.5299 46.3352 46.4589 43.4062 50.0717 43.4062Z" fill="#1F1740" fill-opacity="0.1"/>
</g>
<defs>
<clipPath id="clip0_832_10922">
<rect width="83" height="83" fill="white" transform="translate(8.5 8.5)"/>
</clipPath>
</defs>
</svg>
