<svg width="100" height="100" viewBox="0 0 100 100" fill="none" xmlns="http://www.w3.org/2000/svg">
<path d="M76.7032 68.8516C88.9141 56.6485 90.9454 38.8829 81.2344 29.1797C71.5235 19.4766 53.7579 21.5079 41.5469 33.711C29.336 45.9141 32.8672 69.2422 37.0157 73.3829C40.3672 76.7344 64.4922 81.0547 76.7032 68.8516Z" fill="#FAFAFA"/>
<path d="M76.7032 68.8516C88.9141 56.6485 90.9454 38.8829 81.2344 29.1797C71.5235 19.4766 53.7579 21.5079 41.5469 33.711C29.336 45.9141 32.8672 69.2422 37.0157 73.3829C40.3672 76.7344 64.4922 81.0547 76.7032 68.8516Z" fill="#674992" fill-opacity="0.01"/>
<path d="M26.5937 51.2182C19.5078 44.1401 9.19526 42.9604 3.56245 48.5854C-2.07036 54.2182 -0.890676 64.5229 6.19526 71.601C13.2812 78.687 26.8203 76.6323 29.2265 74.2338C31.1718 72.2885 33.6875 58.2963 26.5937 51.2182Z" fill="#FAFAFA"/>
<path d="M26.5937 51.2182C19.5078 44.1401 9.19526 42.9604 3.56245 48.5854C-2.07036 54.2182 -0.890676 64.5229 6.19526 71.601C13.2812 78.687 26.8203 76.6323 29.2265 74.2338C31.1718 72.2885 33.6875 58.2963 26.5937 51.2182Z" fill="#674992" fill-opacity="0.01"/>
<path d="M96.7344 66.9375C96.2812 66.9375 96.0547 66.6641 96.0547 66.1094C96.0547 65.6953 96.3281 64.7891 96.8672 63.4063C97.6562 61.3828 98.0547 59.9297 98.0547 59.0469C98.0547 58.5156 97.8984 58.0703 97.5859 57.7187C97.2734 57.3672 96.8828 57.1875 96.4141 57.1875C95.7266 57.1875 94.9375 57.5078 94.0469 58.1563C93.1562 58.8047 91.9609 59.9688 90.4531 61.6562C90.6719 60.5625 91.1406 59.0625 91.8438 57.1563L88.4766 57.8047C87.7109 59.4609 87.1562 60.9531 86.8125 62.2813C86.6406 62.9297 86.5156 63.6016 86.4297 64.2812C85.375 65.3047 84.6875 65.9219 84.3906 66.1484C84.0859 66.375 83.7656 66.4844 83.4375 66.4844C83.1328 66.4844 82.8906 66.3672 82.7109 66.1406C82.5312 65.9141 82.4453 65.6016 82.4453 65.2188C82.4453 64.8047 82.5234 64.3281 82.6797 63.7891C82.8359 63.25 83.1797 62.2344 83.7188 60.7422L85 57.2109L83.7422 57.2656C82.6016 59.4375 81.2656 60.6094 79.7344 60.7734C80.1484 59.6953 80.3594 58.8672 80.3594 58.2891C80.3594 57.5547 80 57.1875 79.2813 57.1875C78.4297 57.1875 77.7656 57.5859 77.2891 58.3906C76.8047 59.1953 76.5625 59.9531 76.5625 60.6641C76.5625 61.375 76.9609 61.875 77.75 62.2266C77.2344 62.9844 76.6562 63.6953 76.0312 64.3672C75.2891 65.1016 74.7109 65.6641 74.2891 66.0312C73.8594 66.4141 73.4609 66.6016 73.1016 66.6016C72.5391 66.6016 72.2578 66.2031 72.2578 65.4141C72.2578 64.625 72.5703 63.2656 73.1953 61.2344L74.4141 57.1875H73.6406L70.8203 58.75C70.3594 57.6953 69.5547 57.1641 68.4062 57.1641C67.4922 57.1641 66.4453 57.5547 65.2578 58.3281C64.0703 59.1016 63.0938 60.1094 62.3359 61.3672C61.75 62.3359 61.3906 63.3516 61.2578 64.3984C60.1953 65.4609 59.3984 66.1484 58.8672 66.4688C58.3125 66.7969 57.7344 66.9609 57.125 66.9609C55.5703 66.9609 54.6094 66.0625 54.2422 64.2656C58.2969 63.0781 60.3203 61.5313 60.3203 59.625C60.3203 58.9063 60.0625 58.3281 59.5469 57.8828C59.0312 57.4375 58.3437 57.2187 57.4922 57.2187C55.8437 57.2187 54.3438 58.0078 52.9922 59.5859C51.7656 61.0156 51.1016 62.6016 50.9844 64.3438C49.8672 65.4453 49.0234 66.1719 48.4766 66.5234C47.9141 66.8828 47.3828 67.0625 46.8906 67.0625C46.3984 67.0625 46.0078 66.8281 45.7187 66.3594C45.4219 65.8906 45.2734 65.2578 45.2734 64.4531C45.2734 64.0938 45.3125 63.4375 45.3828 62.4766C47.2266 60.4766 48.5781 58.6016 49.4453 56.8438C50.3125 55.0859 50.7422 53.2656 50.7422 51.3906C50.7422 50.7266 50.6563 50.2031 50.4844 49.8125C50.3125 49.4219 50.0937 49.2266 49.8281 49.2266C49.7734 49.2266 49.6875 49.2422 49.5781 49.2813L46.0703 50.5781C44.875 52.8594 43.8516 55.3516 43.0156 58.0625C42.1797 60.7656 41.7578 63.0859 41.7578 65.0156C41.7578 66.3047 42.0547 67.3281 42.6641 68.0938C43.2656 68.8594 44.0625 69.2422 45.0469 69.2422C45.9062 69.2422 46.8047 68.9688 47.75 68.4219C48.6953 67.875 49.7891 67.0234 51.0469 65.875C52.3047 64.7266 51.0469 65.8594 51.0469 65.8594C51.1953 66.7266 51.5547 67.4531 52.1172 68.0469C52.8906 68.8438 53.8984 69.25 55.1484 69.25C56.2734 69.25 57.2969 68.9766 58.2266 68.4297C59.125 67.9062 60.1328 67.0859 61.2578 66C61.3516 66.8125 61.6172 67.5156 62.0625 68.1172C62.6328 68.875 63.3203 69.2578 64.125 69.2578C64.9297 69.2578 65.7578 68.9453 66.5391 68.3203C67.3203 67.6953 68.1641 66.7188 69.0859 65.4063C69 67.9766 69.6875 69.2578 71.1406 69.2578C71.7187 69.2578 72.3281 69.0469 72.9609 68.625C73.5937 68.2031 74.6484 67.2891 76.125 65.8906C77.4062 64.625 78.3438 63.4375 78.9453 62.3281C79.7578 62.1875 80.5 61.9453 81.1797 61.5937C79.7891 63.7734 79.0937 65.5156 79.0937 66.8125C79.0937 67.5156 79.2891 68.1016 79.6719 68.5703C80.0547 69.0391 80.5312 69.2813 81.0938 69.2813C82.3203 69.2813 84.0625 68.1797 86.3125 66C86.3125 66.1719 86.2969 66.3359 86.2969 66.5078C86.2969 67.1172 86.3516 68.0391 86.4453 69.2813L89.5 68.5625C89.5 67.7344 89.5156 67.0781 89.5391 66.5859C89.5859 65.9297 89.6797 65.2109 89.8125 64.4297C89.8984 63.9688 90.1094 63.5313 90.4453 63.1172L91.2188 62.2188C91.5 61.8906 91.7734 61.5938 92.0156 61.3359C92.3047 61.0313 92.5625 60.7734 92.7891 60.5625C93.0469 60.3359 93.2734 60.1484 93.4688 60.0234C93.6797 59.8984 93.8516 59.8281 93.9766 59.8281C94.2031 59.8281 94.3203 59.9766 94.3203 60.2734C94.3203 60.5703 94.1016 61.2578 93.6719 62.3438C92.8594 64.3672 92.4531 65.875 92.4531 66.8594C92.4531 67.5859 92.6406 68.1641 93.0234 68.6016C93.3984 69.0312 93.8984 69.25 94.5156 69.25C96.0312 69.25 97.8594 68.125 99.9844 65.8828V64.2969C98.4766 66.0703 97.3906 66.9609 96.7188 66.9609L96.7344 66.9375ZM45.75 60.4609C46.375 57.4063 47.0156 55.0391 47.6641 53.3438C48.3125 51.6484 48.8125 50.7969 49.1484 50.7969C49.3047 50.7969 49.4375 50.8984 49.5391 51.1094C49.6406 51.3125 49.6875 51.5938 49.6875 51.9297C49.6875 53.0938 49.3281 54.4766 48.5938 56.0938C47.8672 57.7031 46.9141 59.1641 45.75 60.4609ZM54.9609 59.6953C55.5156 58.7656 56.0938 58.3047 56.7031 58.3047C57.3438 58.3047 57.6719 58.75 57.6719 59.6328C57.6719 61.4219 56.4922 62.6406 54.1328 63.3047C54.1328 61.8203 54.4062 60.6172 54.9609 59.6953ZM68.6172 64.2656C67.8047 65.8359 66.9297 66.6172 66.0156 66.6172C65.6406 66.6172 65.3281 66.4609 65.0859 66.1563C64.8437 65.8516 64.7187 65.4453 64.7187 64.9453C64.7187 63.6328 65.1328 62.1875 65.9531 60.625C66.7734 59.0625 67.6484 58.2812 68.5703 58.2812C68.9531 58.2812 69.2656 58.4219 69.4922 58.7188C69.7187 59.0078 69.8359 59.4141 69.8359 59.9297C69.8359 61.2578 69.4297 62.7031 68.6172 64.2734V64.2656Z" fill="#1F1740" fill-opacity="0.7"/>
<path d="M58.9531 50.6875C59.0703 50.8516 59.125 51.0625 59.125 51.3125C59.125 51.5625 59.0547 51.7891 58.9141 52C58.7734 52.2109 58.5703 52.3828 58.2969 52.5C58.0313 52.6172 57.7266 52.6797 57.3906 52.6797C56.8281 52.6797 56.4063 52.5625 56.1094 52.3281C55.8125 52.0938 55.625 51.75 55.5469 51.2891L56.2734 51.1719C56.3125 51.4609 56.4297 51.6875 56.6094 51.8359C56.7969 51.9922 57.0547 52.0703 57.3906 52.0703C57.7266 52.0703 57.9766 52 58.1406 51.8672C58.3047 51.7344 58.3828 51.5703 58.3828 51.3828C58.3828 51.2187 58.3125 51.0859 58.1641 50.9922C58.0625 50.9297 57.8125 50.8437 57.4141 50.7422C56.875 50.6094 56.5078 50.4922 56.2969 50.3906C56.0859 50.2891 55.9297 50.1563 55.8281 49.9766C55.7266 49.7969 55.6641 49.6094 55.6641 49.3984C55.6641 49.2031 55.7109 49.0313 55.7969 48.8672C55.8828 48.7031 56.0078 48.5703 56.1562 48.4609C56.2734 48.375 56.4219 48.3047 56.6172 48.25C56.8125 48.1953 57.0234 48.1641 57.25 48.1641C57.5859 48.1641 57.8828 48.2109 58.1406 48.3125C58.3984 48.4063 58.5859 48.5391 58.7109 48.7109C58.8359 48.875 58.9141 49.1016 58.9609 49.3828L58.2422 49.4766C58.2109 49.2578 58.1172 49.0781 57.9609 48.9531C57.8047 48.8281 57.5859 48.7656 57.2969 48.7656C56.9609 48.7656 56.7187 48.8203 56.5781 48.9297C56.4375 49.0391 56.3594 49.1719 56.3594 49.3203C56.3594 49.4141 56.3906 49.5 56.4453 49.5781C56.5078 49.6563 56.6016 49.7188 56.7266 49.7734C56.7969 49.7969 57.0156 49.8594 57.375 49.9609C57.8906 50.1016 58.25 50.2109 58.4609 50.2969C58.6641 50.3828 58.8281 50.5156 58.9453 50.6797L58.9531 50.6875ZM62.4453 51.8125C62.25 51.9922 62.0156 52.0781 61.7266 52.0781C61.3672 52.0781 61.0781 51.9453 60.8594 51.6875C60.6406 51.4297 60.5234 51 60.5234 50.4219C60.5234 49.8438 60.6406 49.4297 60.8672 49.1719C61.0938 48.9141 61.3984 48.7734 61.7656 48.7734C62.0078 48.7734 62.2188 48.8438 62.3906 48.9922C62.5625 49.1406 62.6797 49.3594 62.75 49.6484L63.4609 49.5391C63.375 49.1016 63.1875 48.7656 62.8906 48.5313C62.5938 48.2969 62.2109 48.1797 61.7422 48.1797C61.3672 48.1797 61.0313 48.2656 60.7109 48.4453C60.3984 48.6172 60.1562 48.8828 60.0078 49.2344C59.8516 49.5859 59.7734 49.9922 59.7734 50.4609C59.7734 51.1797 59.9531 51.7344 60.3125 52.1172C60.6719 52.5 61.1484 52.6953 61.7344 52.6953C62.2031 52.6953 62.6016 52.5547 62.9297 52.2734C63.25 51.9922 63.4531 51.6016 63.5313 51.1094L62.8125 51.0156C62.7578 51.3828 62.6406 51.6484 62.4453 51.8281V51.8125ZM64.1563 52.5781H64.8906V48.2656H64.1563V52.5781ZM64.1563 47.4609H64.8906V46.6172H64.1563V47.4609ZM69.4141 48.2578H68.4688L66.7344 50.0156V46.6172H66V52.5703H66.7344V50.8594L67.25 50.3672L68.6797 52.5703H69.5859L67.7656 49.8594L69.4141 48.2578ZM70.1641 47.4609H70.8984V46.6172H70.1641V47.4609ZM70.1641 52.5781H70.8984V48.2656H70.1641V52.5781ZM73.6094 51.9219C73.4766 51.9375 73.3672 51.9531 73.2891 51.9531C73.1797 51.9531 73.0938 51.9375 73.0391 51.8984C72.9844 51.8594 72.9375 51.8125 72.9141 51.7578C72.8906 51.6953 72.875 51.5625 72.875 51.3594V48.8359H73.6094V48.2656H72.875V46.7578L72.1484 47.1953V48.2656H71.6094V48.8359H72.1484V51.3203C72.1484 51.7578 72.1797 52.0469 72.2344 52.1797C72.2969 52.3203 72.3984 52.4297 72.5391 52.5078C72.6875 52.5938 72.8906 52.6328 73.1562 52.6328C73.3203 52.6328 73.5 52.6094 73.7109 52.5703L73.6016 51.9219H73.6094Z" fill="#1F1740" fill-opacity="0.7"/>
</svg>
