<svg width="100" height="100" viewBox="0 0 100 100" fill="none" xmlns="http://www.w3.org/2000/svg">
<g clip-path="url(#clip0_832_10906)">
<path d="M44.4662 53.1812L55.6712 46.68L66.7374 53.1812L55.6712 59.545L44.4662 53.32V53.1812ZM10.8512 33.9538L55.6712 8.5L89.01 27.4512L77.9437 46.68L55.6725 33.9538L22.0575 53.0438L10.8512 33.9538Z" fill="#FAFAFA"/>
<path d="M44.4662 53.1812L55.6712 46.68L66.7374 53.1812L55.6712 59.545L44.4662 53.32V53.1812ZM10.8512 33.9538L55.6712 8.5L89.01 27.4512L77.9437 46.68L55.6725 33.9538L22.0575 53.0438L10.8512 33.9538Z" fill="#674992" fill-opacity="0.01"/>
<path d="M44.4663 78.6353V65.9091L55.5325 59.5453L66.7375 53.1816V65.9078L55.6713 72.2716V84.9978L44.4663 91.5003V78.6353ZM44.4663 53.1816L33.2613 46.8178L22.0563 53.0428V40.3166L55.6713 21.2266V46.6803L44.4663 53.1816ZM77.805 40.3166V33.9528L89.01 27.4516L89.1488 40.1778L77.9438 46.679L77.805 40.3166Z" fill="#FAFAFA"/>
<path d="M44.4663 78.6353V65.9091L55.5325 59.5453L66.7375 53.1816V65.9078L55.6713 72.2716V84.9978L44.4663 91.5003V78.6353ZM44.4663 53.1816L33.2613 46.8178L22.0563 53.0428V40.3166L55.6713 21.2266V46.6803L44.4663 53.1816ZM77.805 40.3166V33.9528L89.01 27.4516L89.1488 40.1778L77.9438 46.679L77.805 40.3166Z" fill="#674992" fill-opacity="0.01"/>
<path d="M33.2612 84.7216V46.8191L44.3274 40.5941L44.4662 53.1829L55.6712 59.4079V72.2729L44.4662 66.3241V91.5003L33.2612 84.7216ZM16.385 49.7241L10.8512 46.4041V33.9541L22.0562 40.3179V53.0441L16.385 49.7241ZM55.6712 33.9541V21.2266L77.805 33.9528L77.9437 46.679L55.6725 33.9528L55.6712 33.9541Z" fill="#FAFAFA"/>
<path d="M33.2612 84.7216V46.8191L44.3274 40.5941L44.4662 53.1829L55.6712 59.4079V72.2729L44.4662 66.3241V91.5003L33.2612 84.7216ZM16.385 49.7241L10.8512 46.4041V33.9541L22.0562 40.3179V53.0441L16.385 49.7241ZM55.6712 33.9541V21.2266L77.805 33.9528L77.9437 46.679L55.6725 33.9528L55.6712 33.9541Z" fill="#674992" fill-opacity="0.01"/>
</g>
<defs>
<clipPath id="clip0_832_10906">
<rect width="83" height="83" fill="white" transform="translate(8.5 8.5)"/>
</clipPath>
</defs>
</svg>
