<svg width="100" height="101" viewBox="0 0 100 101" fill="none" xmlns="http://www.w3.org/2000/svg">
<path d="M77.1375 28.85L78.075 27.4312L79.7125 28.425L80.4375 28.9438C82.1875 30.2938 85.8688 33.7438 86.6625 39.4688C88.0563 39.2188 89.4625 39.0938 90.8687 39.0938C94.2062 39.0938 96.45 39.8687 97.725 40.5125L98.3812 40.8688L98.8063 41.15L100 42.125L99.5875 43.375C98.9464 45.0886 97.9446 46.6446 96.65 47.9375C94.8375 49.8063 91.65 52.0125 86.5938 52.3L85.4812 52.3313H84.5563C82.2438 58.4375 79.1375 65.3188 73.9187 71.4938C70.8222 75.1631 67.1492 78.3042 63.0438 80.7937C58.1219 83.7138 52.732 85.7607 47.1125 86.8438C43.0875 87.625 39 88.0125 34.9062 88C25.8438 88 17.8438 86.2 12.925 83.05C8.53125 80.2438 5.15625 75.6625 2.8875 69.4438C0.902039 63.7613 -0.0731022 57.7751 0.00625101 51.7563C-0.00403239 50.9846 0.262755 50.2348 0.758171 49.643C1.25359 49.0513 1.94478 48.6568 2.70625 48.5312L3.13125 48.5H69.0062L69.5813 48.4562L70.5125 48.3563C72.1125 48.1437 74.55 47.6688 76.2625 46.6688C74.2125 43.275 73.6312 39.3062 74.5875 35.0812C74.988 33.3189 75.6184 31.6168 76.4625 30.0188L77.1375 28.85ZM18.0625 36.65L18.3125 36.6937C18.4267 36.7365 18.5295 36.8049 18.613 36.8938C18.6964 36.9827 18.7583 37.0896 18.7938 37.2063L18.8313 37.4563V45.675L18.7938 45.9313C18.7576 46.0485 18.6948 46.1559 18.6102 46.2448C18.5257 46.3337 18.4216 46.4018 18.3063 46.4437L18.0625 46.4813H9.2375C9.07302 46.479 8.91351 46.4246 8.78205 46.3257C8.65058 46.2268 8.55399 46.0887 8.50625 45.9313L8.4625 45.6813V37.45L8.50625 37.2C8.54151 37.0816 8.60395 36.973 8.68859 36.8829C8.77322 36.7929 8.87772 36.7238 8.99375 36.6812L9.2375 36.6437L18.0625 36.65ZM30.2312 36.65L30.475 36.6937C30.5903 36.7357 30.6944 36.8038 30.779 36.8927C30.8636 36.9816 30.9264 37.089 30.9625 37.2063L31 37.4563V45.675L30.9562 45.9313C30.9201 46.0485 30.8573 46.1559 30.7727 46.2448C30.6882 46.3337 30.5841 46.4018 30.4688 46.4437L30.225 46.4813H21.4C21.2358 46.4781 21.0767 46.4232 20.9454 46.3245C20.8142 46.2258 20.7173 46.0882 20.6688 45.9313L20.625 45.6875V37.4563C20.6237 37.289 20.674 37.1254 20.7691 36.9879C20.8641 36.8503 20.9993 36.7454 21.1563 36.6875L21.4 36.6437L30.2312 36.65ZM42.5812 36.65L42.825 36.6937C42.9392 36.7365 43.042 36.8049 43.1255 36.8938C43.2089 36.9827 43.2708 37.0896 43.3062 37.2063L43.35 37.4563V45.675L43.3062 45.9313C43.2701 46.0485 43.2073 46.1559 43.1227 46.2448C43.0382 46.3337 42.9341 46.4018 42.8187 46.4437L42.575 46.4813H33.75C33.5855 46.479 33.426 46.4246 33.2945 46.3257C33.1631 46.2268 33.0665 46.0887 33.0187 45.9313L32.9813 45.6813V37.45L33.0187 37.2C33.054 37.0816 33.1164 36.973 33.2011 36.8829C33.2857 36.7929 33.3902 36.7238 33.5062 36.6812L33.75 36.6437L42.5812 36.65ZM54.7812 36.65L55.025 36.6937C55.1403 36.7357 55.2444 36.8038 55.329 36.8927C55.4136 36.9816 55.4764 37.089 55.5125 37.2063L55.5562 37.4563V45.675C55.5576 45.8422 55.5073 46.0058 55.4122 46.1434C55.3171 46.281 55.1819 46.3859 55.025 46.4437L54.775 46.4813H45.9562C45.7918 46.479 45.6323 46.4246 45.5008 46.3257C45.3693 46.2268 45.2727 46.0887 45.225 45.9313L45.1875 45.6813V37.45L45.225 37.2C45.2603 37.0816 45.3227 36.973 45.4073 36.8829C45.492 36.7929 45.5965 36.7238 45.7125 36.6812L45.9625 36.6437H54.7875L54.7812 36.65ZM67.0938 36.65L67.3375 36.6937C67.4529 36.7357 67.5569 36.8038 67.6415 36.8927C67.7261 36.9816 67.7889 37.089 67.825 37.2063L67.8625 37.4563V45.675C67.8638 45.8422 67.8135 46.0058 67.7184 46.1434C67.6234 46.281 67.4882 46.3859 67.3312 46.4437L67.0875 46.4813H58.2625C58.098 46.479 57.9385 46.4246 57.807 46.3257C57.6756 46.2268 57.579 46.0887 57.5312 45.9313L57.4938 45.6813V37.45L57.5312 37.2C57.5665 37.0816 57.629 36.973 57.7136 36.8829C57.7982 36.7929 57.9027 36.7238 58.0187 36.6812L58.2687 36.6437H67.0875L67.0938 36.65ZM30.2188 24.825L30.4688 24.8687C30.5823 24.9108 30.6846 24.9783 30.7681 25.0661C30.8515 25.1538 30.9137 25.2595 30.95 25.375L30.9937 25.6312V33.85C30.9951 34.0172 30.9448 34.1808 30.8497 34.3184C30.7546 34.456 30.6194 34.5609 30.4625 34.6188L30.2188 34.6625H21.4C21.2342 34.6585 21.0739 34.6018 20.9425 34.5007C20.811 34.3996 20.7151 34.2592 20.6688 34.1L20.625 33.85V25.6312C20.625 25.4651 20.6759 25.3029 20.7709 25.1665C20.8658 25.0302 21.0004 24.9263 21.1563 24.8687L21.4 24.825H30.2188ZM42.5687 24.825L42.8187 24.8687C42.9323 24.9108 43.0346 24.9783 43.1181 25.0661C43.2015 25.1538 43.2637 25.2595 43.3 25.375L43.3438 25.6312V33.85C43.3451 34.0172 43.2948 34.1808 43.1997 34.3184C43.1046 34.456 42.9694 34.5609 42.8125 34.6188L42.5687 34.6625H33.75C33.5842 34.6585 33.4239 34.6018 33.2925 34.5007C33.161 34.3996 33.0651 34.2592 33.0187 34.1L32.9813 33.85V25.6312L33.0187 25.3812C33.0549 25.264 33.1177 25.1566 33.2023 25.0677C33.2868 24.9788 33.3909 24.9107 33.5062 24.8687L33.75 24.825H42.5687ZM54.775 24.825C55.1125 24.825 55.4 25.0563 55.5062 25.375L55.55 25.6312V33.85C55.5513 34.0172 55.501 34.1808 55.4059 34.3184C55.3109 34.456 55.1757 34.5609 55.0188 34.6188L54.7687 34.6625H45.9562C45.7904 34.6585 45.6302 34.6018 45.4987 34.5007C45.3673 34.3996 45.2714 34.2592 45.225 34.1L45.1875 33.85V25.6312L45.225 25.3812C45.2611 25.264 45.3239 25.1566 45.4085 25.0677C45.4931 24.9788 45.5972 24.9107 45.7125 24.8687L45.9625 24.825H54.7875H54.775ZM54.775 13C55.1125 13 55.4 13.2313 55.5062 13.55L55.55 13.8V22.025C55.5513 22.1922 55.501 22.3558 55.4059 22.4934C55.3109 22.631 55.1757 22.7359 55.0188 22.7937L54.7687 22.8312H45.9562C45.7918 22.829 45.6323 22.7746 45.5008 22.6757C45.3693 22.5768 45.2727 22.4387 45.225 22.2812L45.1875 22.0312V13.8L45.225 13.55C45.2611 13.4327 45.3239 13.3254 45.4085 13.2364C45.4931 13.1475 45.5972 13.0794 45.7125 13.0375L45.9562 13H54.7812H54.775Z" fill="#9A5CE4" fill-opacity="0.05"/>
</svg>
