<svg width="100" height="101" viewBox="0 0 100 101" fill="none" xmlns="http://www.w3.org/2000/svg">
<path d="M46.2625 84.9524C59.1102 82.6828 69.7216 80.8047 69.8435 80.7789L70.0651 80.7319L57.9356 66.3043C51.2644 58.3691 45.8061 51.8459 45.8061 51.8083C45.8061 51.7371 58.3308 17.2467 58.4012 17.1239C58.4248 17.083 66.9482 31.7985 79.0626 52.7954C90.4044 72.453 99.7551 88.6608 99.842 88.8127L100 89.0888L61.4515 89.0838L22.9031 89.0789L46.2625 84.9524ZM0 80.5526C0 80.5323 5.71535 70.6109 12.7008 58.5051L25.4016 36.4945L40.2028 24.0732C48.3435 17.2415 55.026 11.6436 55.0528 11.6331C55.0796 11.6232 54.9725 11.8927 54.8149 12.2323C54.6572 12.572 47.4247 28.0848 38.7427 46.7053L22.9573 80.5608L11.4787 80.5751C5.1654 80.5831 0 80.5729 0 80.5526Z" fill="#9A5CE4" fill-opacity="0.05"/>
</svg>
