<svg width="84" height="83" viewBox="0 0 84 83" fill="none" xmlns="http://www.w3.org/2000/svg">
<path d="M41.9838 81.1128C31.4032 81.1128 21.4555 76.992 13.9732 69.5103C6.4909 62.0286 2.37073 52.081 2.37073 41.4998C2.37073 30.9186 6.49155 20.9709 13.9732 13.4892C21.4549 6.00754 31.4026 1.88672 41.9838 1.88672C52.565 1.88672 62.5127 6.00754 69.995 13.4892C77.4773 20.9709 81.5968 30.9186 81.5968 41.4998C81.5968 52.081 77.476 62.0286 69.9943 69.511C62.5127 76.9933 52.565 81.1128 41.9838 81.1128Z" fill="#9A5CE4" fill-opacity="0.05"/>
<path opacity="0.9" d="M41.9832 41.3591H81.5962M41.9832 41.3591L69.9937 13.3492M41.9832 41.3591V1.74609M41.9832 41.3591L13.9733 13.3492M41.9832 41.3591H2.37012M41.9832 41.3591L13.9733 69.3697M41.9832 41.3591V80.9722M41.9832 41.3591L69.9937 69.3697" stroke="#9A5CE4" stroke-opacity="0.1" stroke-width="0.856" stroke-miterlimit="7.976" stroke-linecap="round" stroke-linejoin="round" stroke-dasharray="0.41 0.81"/>
<path opacity="0.9" d="M46.3861 41.3613L46.2551 40.2959L45.8706 39.2954L45.2552 38.4168L44.4446 37.7132L43.4888 37.2262L42.4449 36.9844L41.3723 37.0038L40.3355 37.282L39.3972 37.8014L38.6132 38.5328L38.0297 39.4329L37.6801 40.4477L37.5861 41.517L37.7541 42.5765L38.173 43.5641L38.8175 44.4207L39.6514 45.0957L40.624 45.5483L41.6765 45.7532L42.7483 45.6974L43.7742 45.3836L44.6936 44.8311L45.4523 44.0724L46.0041 43.1536L46.318 42.1278L46.3861 41.3613Z" stroke="#1F1740" stroke-opacity="0.1" stroke-width="0.856" stroke-miterlimit="199.409" stroke-linecap="square" stroke-linejoin="round" stroke-dasharray="0.41 0.81"/>
<path opacity="0.9" d="M55.1886 41.3611L55.0602 39.524L54.6777 37.722L54.0467 35.9914L53.1824 34.3644L52.0995 32.8737L50.8201 31.5483L49.3689 30.4135L47.7731 29.4927L46.0658 28.8028L44.2774 28.3566L42.4455 28.1641L40.604 28.2283L38.7903 28.5486L37.0382 29.1173L35.3821 29.9252L33.8544 30.9549L32.4855 32.1876L31.3015 33.5993L30.3249 35.1607L29.576 36.844L29.0689 38.6143L28.8121 40.439V42.2818L29.0689 44.1065L29.576 45.8768L30.3249 47.5601L31.3015 49.1216L32.4855 50.5332L33.8544 51.7665L35.3821 52.7963L37.0382 53.6036L38.7903 54.1722L40.6046 54.4926L42.4462 54.5574L44.2774 54.3642L46.0658 53.9187L47.7731 53.2281L49.3689 52.3073L50.8201 51.1726L52.0995 49.8472L53.1824 48.3564L54.0467 46.7288L54.677 44.9988L55.0602 43.1968L55.1886 41.3611Z" stroke="#1F1740" stroke-opacity="0.1" stroke-width="0.856" stroke-miterlimit="199.409" stroke-linecap="square" stroke-linejoin="round" stroke-dasharray="0.41 0.81"/>
<path opacity="0.9" d="M63.9911 41.3615L63.8712 39.0608L63.5113 36.7855L62.9147 34.5613L62.0899 32.4105L61.044 30.3575L59.7893 28.4265L58.3394 26.6355L56.7105 25.0072L54.9202 23.5573L52.9885 22.3026L50.9362 21.2567L48.7853 20.4312L46.5611 19.8353L44.2851 19.4754L41.9845 19.3555L39.6838 19.4754L37.4091 19.8353L35.185 20.4319L33.0334 21.2567L30.9811 22.3026L29.0494 23.5573L27.2591 25.0072L25.6302 26.6355L24.1803 28.4265L22.9256 30.3575L21.8797 32.4105L21.0542 34.5613L20.4583 36.7855L20.0984 39.0608L19.9785 41.3615L20.0984 43.6621L20.4583 45.9375L21.0549 48.1617L21.8797 50.3125L22.9256 52.3655L24.1803 54.2965L25.6302 56.0875L27.2591 57.7157L29.0494 59.1656L30.9811 60.4204L33.0334 61.4669L35.1843 62.2918L37.4085 62.8883L39.6845 63.2482L41.9845 63.3682L44.2858 63.2482L46.5605 62.8877L48.7846 62.2918L50.9362 61.4669L52.9885 60.4204L54.9202 59.1656L56.7105 57.7157L58.3394 56.0875L59.7893 54.2965L61.044 52.3655L62.0899 50.3125L62.9147 48.1617L63.5113 45.9375L63.8712 43.6621L63.9911 41.3615Z" stroke="#1F1740" stroke-opacity="0.1" stroke-width="0.856" stroke-miterlimit="199.409" stroke-linecap="square" stroke-linejoin="round" stroke-dasharray="0.41 0.81"/>
<path opacity="0.9" d="M72.7937 41.3606L72.6251 38.1405L72.1193 34.956L71.2854 31.8409L70.1299 28.8309L68.6664 25.957L66.9098 23.2524L64.8801 20.7455L62.6002 18.465L60.0934 16.4354L57.3888 14.6787L54.5149 13.2159L51.5048 12.061L48.3897 11.2265L45.2046 10.7213L41.9845 10.5527L38.7643 10.7213L35.5805 11.2265L32.4648 12.061L29.4547 13.2159L26.5808 14.6794L23.8768 16.4367L21.3693 18.4663L19.0888 20.7462L17.0592 23.253L15.3032 25.957L13.8397 28.8315L12.6842 31.8416L11.8496 34.9567L11.3451 38.1412L11.1759 41.3613L11.3445 44.5814L11.8496 47.7659L12.6842 50.8817L13.8397 53.8917L15.3032 56.7649L17.0598 59.4696L19.0894 61.9764L21.3693 64.257L23.8762 66.2866L26.5808 68.0432L29.4547 69.5067L32.4648 70.6616L35.5798 71.4968L38.7643 72.0013L41.9845 72.1699L45.2046 72.0013L48.3897 71.4968L51.5048 70.6616L54.5149 69.5067L57.3888 68.0432L60.0927 66.2859L62.6002 64.257L64.8801 61.9764L66.9098 59.4696L68.667 56.7656L70.1299 53.8917L71.2854 50.8817L72.1199 47.7659L72.6244 44.5821L72.7937 41.3606Z" stroke="#1F1740" stroke-opacity="0.1" stroke-width="0.856" stroke-miterlimit="199.409" stroke-linecap="square" stroke-linejoin="round" stroke-dasharray="0.41 0.81"/>
<path d="M42 81.7031C31.2619 81.7031 21.1657 77.5214 13.5725 69.9282C5.9793 62.3349 1.79688 52.2388 1.79688 41.5C1.79688 30.7612 5.97865 20.6657 13.5719 13.0719C21.1651 5.478 31.2612 1.29688 42 1.29688C52.7388 1.29688 62.8349 5.47865 70.4282 13.0719C78.0214 20.6651 82.2031 30.7612 82.2031 41.5C82.2031 52.2388 78.0214 62.3349 70.4282 69.9282C62.8349 77.5214 52.7388 81.7031 42 81.7031ZM42 2.47703C31.577 2.47703 21.7772 6.53625 14.407 13.9064C7.03625 21.2772 2.97703 31.0764 2.97703 41.5C2.97703 51.9236 7.03625 61.7235 14.4064 69.0936C21.7765 76.4638 31.5764 80.523 42 80.523C52.4236 80.523 62.2235 76.4638 69.5936 69.0936C76.9638 61.7235 81.023 51.9236 81.023 41.5C81.023 31.0764 76.9638 21.2772 69.5936 13.9064C62.2228 6.53625 52.4236 2.47703 42 2.47703Z" fill="#9A5CE4" fill-opacity="0.1"/>
<path opacity="0.6" d="M41.9838 41.3602L42.0674 41.3329L42.1511 41.3057L42.2347 41.2785L42.3184 41.2512L42.402 41.224L42.4857 41.1968L42.5693 41.1695L42.653 41.1423L42.7366 41.115L42.8202 41.0878L42.9039 41.0606L42.9875 41.0333L43.0712 41.0061L43.1548 40.9789L43.2385 40.9516L43.3221 40.9244L43.4058 40.8972L43.4894 40.8699L43.5731 40.8427L43.6567 40.8155L43.7404 40.7882L43.824 40.761L43.9077 40.7338L43.9913 40.7065L44.075 40.6793L44.1586 40.6521L44.2423 40.6248L44.3259 40.5976L44.4096 40.5704L44.4932 40.5431L44.5769 40.5159L44.6605 40.4887L44.7442 40.4614L44.8278 40.4342L44.9115 40.407L44.9951 40.3797L45.0788 40.3525L45.1624 40.3253L45.2461 40.298L45.3297 40.2708L45.4134 40.2435L45.497 40.2163L45.5807 40.1891L45.6643 40.1618L45.7479 40.1346L45.8316 40.1074L45.9152 40.0801L45.9989 40.0529L46.0825 40.0257L46.1662 39.9984L46.2498 39.9712L46.3335 39.944L46.4171 39.9167L46.5008 39.8895L46.5844 39.8623L46.6681 39.835L46.7517 39.8078L46.8354 39.7806L46.919 39.7533L47.0027 39.7261L47.0863 39.6989L47.17 39.6716L47.2536 39.6444L47.3373 39.6172L47.4209 39.5899L47.5046 39.5627L47.5882 39.5355L47.6719 39.5082L47.7555 39.481L47.8392 39.4538L47.9228 39.4265L48.0065 39.3993L48.0901 39.372L48.1738 39.3448L48.2574 39.3176L48.341 39.2903L48.4247 39.2631L48.5083 39.2359L48.592 39.2086L48.6756 39.1814L48.7593 39.1542L48.8429 39.1269L48.9266 39.0997L49.0102 39.0725L49.0939 39.0452L49.1775 39.018L49.2612 38.9908L49.3448 38.9635L49.4285 38.9363L49.5121 38.9091L49.5958 38.8818L49.6794 38.8546L49.7631 38.8274L49.8467 38.8001L49.9304 38.7729L50.014 38.7457L50.0977 38.7184L50.1813 38.6912L50.265 38.664L50.3486 38.6367L50.3648 38.6665L50.3733 38.6931L50.3817 38.7197L50.3901 38.7463L50.3985 38.7729L50.407 38.7995L50.4147 38.8261L50.4225 38.8526L50.4297 38.8779L50.4374 38.9045L50.4452 38.9311L50.453 38.9577L50.4608 38.9843L50.4679 39.0109L50.4751 39.0375L50.4822 39.064L50.4893 39.0906L50.4965 39.1172L50.5036 39.1438L50.5107 39.1704L50.5179 39.197L50.5243 39.2236L50.5308 39.2501L50.5373 39.2767L50.5438 39.3033L50.5503 39.3299L50.5568 39.3571L50.5632 39.3844L50.5691 39.4116L50.5749 39.4388L50.5808 39.4661L50.5866 39.4933L50.5924 39.5205L50.5983 39.5478L50.6041 39.575L50.6099 39.6022L50.6158 39.6295L50.621 39.6567L50.6261 39.6839L50.6313 39.7112L50.6365 39.7384L50.6417 39.7656L50.6469 39.7929L50.6514 39.8201L50.656 39.8474L50.6605 39.8746L50.665 39.9018L50.6696 39.9291L50.6741 39.9563L50.6787 39.9835L50.6832 40.0108L50.6877 40.038L50.6916 40.0652L50.6955 40.0925L50.6994 40.1197L50.7033 40.1469L50.7072 40.1742L50.7111 40.2014L50.715 40.2286L50.7182 40.2559L50.7215 40.2831L50.7247 40.3103L50.7279 40.3376L50.7312 40.3648L50.7344 40.392L50.7377 40.4193L50.7409 40.4465L50.7435 40.4737L50.7461 40.501L50.7487 40.5282L50.7513 40.5554L50.7539 40.5827L50.7565 40.6099L50.7591 40.6378L50.761 40.6657L50.763 40.6936L50.7649 40.7214L50.7668 40.7493L50.7688 40.7772L50.7707 40.8051L50.7727 40.833L50.7746 40.8609L50.7759 40.8887L50.7772 40.9166L50.7785 40.9445L50.7798 40.9724L50.7811 41.0003L50.7824 41.0282L50.7837 41.056L50.7844 41.0839L50.785 41.1118L50.7857 41.1397L50.7863 41.1676L50.787 41.1955L50.7876 41.2233L50.7883 41.2512V41.3627H42.0713L41.9838 41.3602Z" fill="#9A5CE4" fill-opacity="0.1"/>
<path opacity="0.6" d="M41.9838 41.3597L42.0765 41.1126L42.1692 40.8656L42.2619 40.6185L42.3547 40.3715L42.4474 40.1244L42.5401 39.8774L42.6329 39.6303L42.7256 39.3833L42.8183 39.1362L42.911 38.8891L43.0038 38.6421L43.0965 38.395L43.1892 38.148L43.2819 37.9009L43.3747 37.6539L43.4674 37.4068L43.5601 37.1598L43.6528 36.9127L43.7456 36.6656L43.8383 36.4186L43.931 36.1715L44.0238 35.9245L44.1165 35.6774L44.2092 35.4304L44.3019 35.1833L44.3947 34.9363L44.4874 34.6892L44.5801 34.4422L44.6728 34.1951L44.7656 33.948L44.8583 33.701L44.951 33.4539L45.0437 33.2069L45.1365 32.9598L45.2292 32.7128L45.3219 32.4657L45.4146 32.2187L45.5074 31.9716L45.6001 31.7246L45.6928 31.4775L45.7856 31.2304L45.8783 30.9834L45.971 30.7363L46.0637 30.4893L46.1565 30.2422L46.2492 29.9952L46.3419 29.7481L46.4346 29.5011L46.5274 29.254L46.6201 29.007L46.7128 28.7599L46.8055 28.5128L46.8983 28.2658L46.991 28.0187L47.0837 27.7717L47.1765 27.5246L47.2692 27.2776L47.3619 27.0305L47.4546 26.7835L47.5474 26.5364L47.6401 26.2894L47.7328 26.0423L47.8255 25.7952L47.9183 25.5482L48.011 25.3011L48.1037 25.0541L48.1964 24.807L48.2892 24.56L48.3819 24.3129L48.4746 24.0659L48.5674 23.8188L48.6601 23.5718L48.7528 23.3247L48.8455 23.0776L48.9383 22.8306L49.031 22.5835L49.1237 22.3365L49.2164 22.0894L49.3092 21.8424L49.4019 21.5953L49.4946 21.3483L49.5873 21.1012L49.6801 20.8541L49.7728 20.6071L49.8655 20.36L49.9583 20.113L50.051 19.8659L50.1437 19.6189L50.2364 19.3718L50.3292 19.1248L50.4219 18.8777L50.5146 18.6307L50.6073 18.3836L50.7001 18.1365L50.7928 17.8895L50.8855 17.6424L50.9782 17.3954L51.0781 17.1289L51.1708 16.8818L51.2636 16.6348L51.3414 16.6639L51.4192 16.6938L51.4963 16.7236L51.5735 16.7534L51.6507 16.7839L51.7278 16.8144L51.805 16.8449L51.8822 16.876L51.9593 16.9071L52.0358 16.9389L52.1124 16.9707L52.1889 17.0024L52.2654 17.0349L52.3419 17.0673L52.4184 17.0997L52.4943 17.1328L52.5702 17.1658L52.646 17.1989L52.7219 17.2326L52.7978 17.2663L52.8736 17.3007L52.9488 17.3351L53.0241 17.3694L53.0993 17.4045L53.1745 17.4395L53.2497 17.4745L53.3249 17.5102L53.3995 17.5458L53.4741 17.5815L53.5486 17.6178L53.6232 17.6541L53.6978 17.6911L53.7724 17.728L53.8463 17.765L53.9202 17.8026L53.9941 17.8402L54.068 17.8778L54.142 17.9161L54.2152 17.9543L54.2885 17.9926L54.3618 18.0315L54.4351 18.0704L54.5083 18.11L54.5816 18.1495L54.6542 18.1891L54.7269 18.2293L54.7995 18.2695L54.8721 18.3097L54.9447 18.3505L55.0167 18.3914L55.0887 18.4322L55.1607 18.4737L55.2326 18.5152L55.3046 18.5567L55.3759 18.5989L55.4473 18.641L55.5186 18.6832L55.5899 18.726L55.6613 18.7688L55.7319 18.8116L55.8026 18.855L55.8733 18.8985L55.944 18.9419L56.014 18.986L56.084 19.0301L56.1541 19.0742L56.2241 19.1189L56.2941 19.1637L56.3635 19.2084L56.4329 19.2538L56.5023 19.2992L56.5717 19.3452L56.641 19.3913L56.7098 19.4373L56.7785 19.484L56.8473 19.5307L56.916 19.5774L56.9841 19.6247L57.0522 19.672L57.1202 19.7194L57.1883 19.7674L57.2558 19.8154L57.3232 19.8633L57.3906 19.9113L57.4581 19.96L57.5255 20.0086L57.5923 20.0572L57.6591 20.1065L57.7259 20.1558L57.7927 20.2051L57.8588 20.255L57.925 20.3049L57.9911 20.3549L58.0572 20.4054L58.1227 20.456L58.1882 20.5066L58.2537 20.5578L58.3192 20.609L58.384 20.6603L58.4489 20.7121L58.2842 20.9183L58.1195 21.1245L57.9548 21.3308L57.7901 21.537L57.6254 21.7432L57.4607 21.9494L57.296 22.1556L57.1313 22.3618L56.9666 22.568L56.8019 22.7742L56.6372 22.9804L56.4725 23.1866L56.3078 23.3928L56.1443 23.6029L55.9796 23.8091L55.8149 24.0153L55.6502 24.2215L55.4855 24.4277L55.3208 24.6339L55.1568 24.8414L54.9921 25.0476L54.8274 25.2538L54.6627 25.46L54.498 25.6662L54.3333 25.8724L54.1686 26.0786L54.0039 26.2848L53.8392 26.491L53.6744 26.6972L53.5097 26.9034L53.345 27.1096L53.1803 27.3158L53.0156 27.522L52.8509 27.7282L52.6862 27.9344L52.5215 28.1406L52.3568 28.3468L52.1921 28.553L52.0274 28.7593L51.8627 28.9655L51.698 29.1717L51.5333 29.3779L51.3686 29.5841L51.2039 29.7903L51.0392 29.9965L50.8745 30.2027L50.7098 30.4089L50.5451 30.6151L50.3804 30.8213L50.2157 31.0275L50.051 31.2337L49.8876 31.449L49.7229 31.6552L49.5582 31.8614L49.3935 32.0676L49.2288 32.2738L49.0641 32.48L48.8994 32.6875L48.7346 32.8937L48.5699 33.0999L48.4052 33.3061L48.2405 33.5123L48.0758 33.7185L47.9111 33.9247L47.7464 34.1309L47.5817 34.3371L47.417 34.5433L47.2523 34.7495L47.0876 34.9557L46.9229 35.1619L46.7582 35.3681L46.5935 35.5743L46.4288 35.7805L46.2641 35.9867L46.0994 36.1929L45.9347 36.3991L45.77 36.6053L45.6053 36.8115L45.4406 37.0178L45.2759 37.224L45.1125 37.4366L44.9478 37.6428L44.7831 37.849L44.6184 38.0553L44.4537 38.2615L44.289 38.4677L44.1243 38.6739L43.9596 38.8801L43.7949 39.0863L43.6301 39.2925L43.4654 39.4987L43.3007 39.7049L43.136 39.9111L42.9713 40.1173L42.8066 40.3235L42.6419 40.5297L42.4772 40.7359L42.3125 40.9421L42.1478 41.1483L41.9838 41.3597Z" fill="#9A5CE4" fill-opacity="0.05"/>
<path opacity="0.6" d="M41.9838 41.3602L41.7582 41.0898L41.5325 40.8194L41.3068 40.549L41.0812 40.2786L40.8555 40.0082L40.6299 39.7378L40.4042 39.4674L40.1786 39.197L39.9529 38.9266L39.7273 38.6562L39.5016 38.3858L39.2759 38.1154L39.0503 37.845L38.8246 37.5746L38.599 37.3042L38.3733 37.0338L38.1477 36.7634L37.922 36.493L37.6963 36.2226L37.4707 35.9522L37.245 35.6818L37.0194 35.4114L36.7937 35.141L36.5681 34.8706L36.3424 34.6002L36.1168 34.3298L35.8911 34.0594L35.6654 33.789L35.4398 33.5186L35.2141 33.2482L34.9885 32.9778L34.7628 32.7074L34.5372 32.437L34.3115 32.1666L34.0858 31.8962L33.8602 31.6258L33.6345 31.3554L33.4089 31.085L33.1832 30.8146L32.9576 30.5442L32.7319 30.2738L32.5063 30.0034L32.2806 29.733L32.0549 29.4627L31.8293 29.1923L31.6036 28.9219L31.378 28.6515L31.1523 28.3811L30.9267 28.1107L30.701 27.8403L30.4753 27.5699L30.2497 27.2995L30.024 27.0291L29.7984 26.7587L29.5727 26.4883L29.3471 26.2179L29.1214 25.9475L28.8958 25.6771L28.6701 25.4067L28.4444 25.1363L28.2188 24.8659L27.9931 24.5955L27.7675 24.3251L27.5418 24.0547L27.3162 23.7843L27.0905 23.5139L26.8648 23.2435L26.6392 22.9731L26.4135 22.7027L26.1879 22.4323L25.9622 22.1619L25.7366 21.8915L25.5109 21.6211L25.2853 21.3507L25.0596 21.0803L24.8339 20.8099L24.6083 20.5395L24.3826 20.2691L24.157 19.9987L23.9313 19.7283L23.7057 19.4579L23.48 19.1875L23.2543 18.9171L23.0287 18.6467L22.803 18.3763L22.5774 18.1059L22.3517 17.8355L22.1261 17.5651L21.9004 17.2947L21.6748 17.0243L21.4491 16.7539L21.2234 16.4835L20.9978 16.2131L20.7715 15.9518L20.5458 15.6814L20.3202 15.411L20.0945 15.1406L19.8689 14.8702L19.6432 14.5998L19.4175 14.3294L19.5453 14.2231L19.6737 14.1174L19.8021 14.0123L19.9311 13.9079L20.0608 13.8042L20.1911 13.7011L20.3215 13.5986L20.4524 13.4968L20.5841 13.3957L20.7164 13.2952L20.8486 13.1953L20.9816 13.0961L21.1152 12.9975L21.2487 12.8996L21.383 12.8023L21.5178 12.7057L21.6534 12.6098L21.7889 12.5144L21.925 12.4198L22.0619 12.3257L22.1987 12.2324L22.3362 12.1396L22.4743 12.0476L22.6124 11.9561L22.7512 11.8654L22.8906 11.7752L23.03 11.6857L23.17 11.5969L23.3108 11.5087L23.4515 11.4212L23.5928 11.3343L23.7348 11.248L23.8768 11.1624L24.0195 11.0775L24.1622 10.9932L24.3055 10.9096L24.4494 10.8266L24.5934 10.7442L24.738 10.6625L24.8826 10.5814L25.0278 10.501L25.1737 10.4213L25.3196 10.3422L25.4662 10.2637L25.6127 10.1859L25.7599 10.1094L25.9071 10.0335L26.0549 9.9583L26.2028 9.88373L26.3513 9.8098L26.5004 9.73653L26.6496 9.66391L26.7994 9.59193L26.9491 9.5206L27.0996 9.44992L27.25 9.37989L27.4011 9.31051L27.5522 9.24242L27.7039 9.17498L27.8557 9.10819L28.008 9.04205L28.1604 8.97656L28.3135 8.91172L28.4665 8.84752L28.6202 8.78398L28.7738 8.72108L28.9275 8.65948L29.0819 8.59852L29.2362 8.53822L29.3912 8.47856L29.5461 8.41955L29.7018 8.3612L29.8574 8.30348L30.013 8.24642L30.1693 8.19066L30.3256 8.13554L30.4825 8.08107L30.6394 8.02725L30.7963 7.97408L30.9539 7.92155L31.1115 7.86968L31.2697 7.8191L31.4279 7.76917L31.5861 7.71989L31.745 7.67126L31.9039 7.62327L32.0627 7.57594L32.2222 7.52925L32.3818 7.48386L32.5413 7.43912L32.7014 7.39502L32.8616 7.35158L33.0218 7.30878L33.1826 7.26663L33.3434 7.22578L33.5042 7.18558L33.6657 7.14602L33.8271 7.10712L33.9886 7.06886L34.15 7.03125L34.2285 7.37427L34.307 7.7173L34.3854 8.06032L34.4639 8.40334L34.5423 8.74637L34.6208 9.08939L34.6993 9.43241L34.7777 9.77544L34.8562 10.1185L34.9347 10.4615L35.0131 10.8045L35.0916 11.1475L35.17 11.4906L35.2485 11.8336L35.327 12.1766L35.4054 12.5196L35.4839 12.8626L35.5623 13.2057L35.6408 13.5487L35.7193 13.8917L35.7977 14.2347L35.8762 14.5778L35.9546 14.9208L36.0331 15.2638L36.1116 15.6068L36.19 15.9499L36.2685 16.2929L36.3469 16.6359L36.4254 16.9789L36.5039 17.322L36.5823 17.665L36.6608 18.008L36.7393 18.351L36.8125 18.7031L36.891 19.0461L36.9694 19.3892L37.0479 19.7322L37.1264 20.0752L37.2048 20.4182L37.2833 20.7613L37.3618 21.1043L37.4402 21.4473L37.5187 21.7903L37.5971 22.1334L37.6756 22.4764L37.7541 22.8194L37.8325 23.1624L37.911 23.5055L37.9894 23.8485L38.0679 24.1915L38.1464 24.5345L38.2248 24.8775L38.3033 25.2206L38.3817 25.5636L38.4602 25.9066L38.5387 26.2496L38.6171 26.5927L38.6956 26.9357L38.774 27.2787L38.8525 27.6217L38.931 27.9648L39.0094 28.3078L39.0879 28.6508L39.1664 28.9938L39.2448 29.3369L39.3233 29.6799L39.4017 30.0229L39.4802 30.3659L39.5587 30.7089L39.6371 31.052L39.7156 31.395L39.794 31.738L39.8725 32.081L39.951 32.4241L40.0294 32.7671L40.1079 33.1101L40.1863 33.4531L40.2648 33.7962L40.3433 34.1392L40.4217 34.4822L40.5002 34.8252L40.5786 35.1682L40.6571 35.5113L40.7356 35.8543L40.814 36.1973L40.8925 36.5403L40.971 36.8834L41.0494 37.2264L41.1279 37.5694L41.2063 37.9124L41.2848 38.2555L41.3633 38.5985L41.4417 38.9415L41.5202 39.2845L41.5986 39.6276L41.6771 39.9706L41.7556 40.3136L41.834 40.6566L41.9125 40.9996L41.9838 41.3602Z" fill="#9A5CE4" fill-opacity="0.1"/>
<path opacity="0.6" d="M41.9838 41.3591L41.6803 41.4142L41.3768 41.4693L41.0734 41.5244L40.7699 41.5795L40.4664 41.6347L40.163 41.6898L39.8595 41.7449L39.556 41.8L39.2526 41.8551L38.9523 41.9089L38.6489 41.9641L38.3454 42.0192L38.0419 42.0743L37.7385 42.1294L37.435 42.1845L37.1315 42.2396L36.828 42.2948L36.5246 42.3499L36.2211 42.405L35.9176 42.4601L35.6142 42.5152L35.3146 42.5691L35.0111 42.6242L34.7077 42.6793L34.4042 42.7344L34.102 42.7895L33.7985 42.8446L33.4951 42.8998L33.1916 42.9549L32.8881 43.01L32.5847 43.0651L32.2812 43.1202L31.9777 43.1753L31.6743 43.2305L31.3708 43.2856L31.0673 43.3407L30.7639 43.3958L30.4604 43.4509L30.1569 43.506L29.8535 43.5612L29.55 43.6163L29.2465 43.6714L28.943 43.7265L28.6396 43.7816L28.3361 43.8368L28.0326 43.8919L27.7292 43.947L27.4257 44.0021L27.1222 44.0572L26.8265 44.1097L26.5231 44.1649L26.2196 44.22L25.9161 44.2751L25.6127 44.3302L25.3092 44.3853L25.0057 44.4404L24.7023 44.4956L24.3988 44.5507L24.0953 44.6058L23.7919 44.6609L23.4884 44.716L23.1849 44.7711L22.8815 44.8263L22.578 44.8814L22.2745 44.9365L21.971 44.9916L21.6676 45.0467L21.3641 45.1019L21.0606 45.157L20.7572 45.2121L20.4537 45.2672L20.1502 45.3223L19.8468 45.3774L19.5433 45.4326L19.2398 45.4877L18.9364 45.5428L18.6329 45.5979L18.3294 45.653L18.026 45.7081L17.7225 45.7633L17.419 45.8184L17.1155 45.8735L16.8121 45.9286L16.5086 45.9837L16.2051 46.0388L15.9133 46.0901L15.6099 46.1452L15.3064 46.2003L15.0029 46.2554L14.7008 46.3105L14.3973 46.3657L14.0938 46.4208L13.7904 46.4759L13.4869 46.531L13.1834 46.5861L12.88 46.6412L12.5765 46.6964L12.273 46.7515L11.9695 46.8066L11.6661 46.8617L11.6324 46.6711L11.5993 46.4804L11.5675 46.2891L11.537 46.0979L11.5079 45.9066L11.4832 45.714L11.4566 45.522L11.4313 45.3301L11.4067 45.1382L11.3834 44.9462L11.3613 44.7536L11.3406 44.5611L11.3211 44.3685L11.303 44.1759L11.2861 43.9833L11.2705 43.7901L11.2556 43.5968L11.242 43.4036L11.2297 43.2104L11.2187 43.0171L11.2089 42.8239L11.2005 42.6307L11.1934 42.4374L11.1875 42.2442L11.1823 42.051L11.1785 41.8577L11.1759 41.6638L11.1746 41.47V41.2761L11.1759 41.0822L11.1785 40.8883L11.1817 40.6951L11.1862 40.5018L11.1921 40.3086L11.1992 40.1154L11.2076 39.9221L11.2174 39.7289L11.2284 39.5357L11.2407 39.3424L11.2537 39.1492L11.2679 38.956L11.2835 38.7627L11.3004 38.5701L11.3185 38.3776L11.338 38.185L11.3587 37.9924L11.3808 37.7998L11.4035 37.6079L11.4275 37.4159L11.4527 37.224L11.4793 37.032L11.5072 36.8408L11.5364 36.6495L11.5669 36.4582L11.598 36.2669L11.6304 36.0763L11.6641 35.8856L11.6991 35.695L11.7355 35.505L11.7731 35.315L11.8113 35.125L11.8509 34.9356L11.8917 34.7463L11.9339 34.5576L11.9773 34.3689L12.0221 34.1802L12.0675 33.9922L12.1141 33.8041L12.1621 33.6167L12.2114 33.4293L12.262 33.2426L12.3139 33.0558L12.3664 32.8697L12.4202 32.6836L12.4753 32.4982L12.5317 32.3127L12.5895 32.1279L12.6478 31.9431L12.7075 31.759L12.7684 31.5754L12.8307 31.3919L12.8936 31.2091L12.9578 31.0262L13.0233 30.844L13.09 30.6624L13.1581 30.4809L13.2269 30.3L13.2969 30.1197L13.3682 29.9394L13.4409 29.7598L13.5141 29.5809L13.5887 29.4019L13.6646 29.2236L13.7411 29.0459L13.8189 28.8689L13.898 28.6918L13.9784 28.5155L14.0595 28.3397L14.1418 28.1647L14.2255 27.9902L14.503 28.1238L14.7805 28.2574L15.0581 28.391L15.3356 28.5245L15.6131 28.6581L15.8906 28.7917L16.1682 28.9253L16.4457 29.0589L16.7232 29.1924L17.0008 29.326L17.2783 29.4596L17.5558 29.5932L17.8334 29.7268L18.1109 29.8603L18.3884 29.9939L18.666 30.1275L18.9435 30.2611L19.221 30.3946L19.4986 30.5282L19.7761 30.6618L20.0536 30.7954L20.3311 30.929L20.6087 31.0625L20.8862 31.1961L21.1637 31.3297L21.4413 31.4633L21.7188 31.5968L21.9963 31.7304L22.2739 31.864L22.5514 31.9976L22.8289 32.1312L23.1065 32.2647L23.384 32.3983L23.6615 32.5319L23.9391 32.6655L24.2166 32.799L24.4941 32.9326L24.7716 33.0662L25.0492 33.1998L25.3267 33.3334L25.6042 33.4669L25.8818 33.6005L26.1593 33.7341L26.4368 33.8677L26.7144 34.0013L26.9919 34.1348L27.2694 34.2684L27.547 34.402L27.8245 34.5356L28.102 34.6691L28.3796 34.8027L28.6571 34.9363L28.9346 35.0699L29.2121 35.2035L29.4897 35.337L29.7672 35.4706L30.0447 35.6042L30.3223 35.7378L30.5998 35.8713L30.8773 36.0049L31.1549 36.1385L31.4324 36.2721L31.7099 36.4057L31.9875 36.5392L32.265 36.6728L32.5425 36.8064L32.8201 36.94L33.0976 37.0735L33.3751 37.2071L33.6526 37.3407L33.9302 37.4743L34.2077 37.6079L34.4852 37.7414L34.7628 37.875L35.0403 38.0086L35.3178 38.1422L35.5954 38.2757L35.8729 38.4093L36.1504 38.5429L36.428 38.6765L36.7055 38.8101L36.983 38.9436L37.2606 39.0772L37.5381 39.2108L37.8156 39.3444L38.0931 39.478L38.3707 39.6115L38.6482 39.7451L38.9257 39.8787L39.2033 40.0123L39.4808 40.1458L39.7583 40.2794L40.0359 40.413L40.3134 40.5466L40.5909 40.6802L40.8685 40.8137L41.146 40.9473L41.4235 41.0809L41.7011 41.2145L41.9838 41.3591Z" fill="#9A5CE4" fill-opacity="0.1"/>
<path opacity="0.6" d="M41.9838 41.3594L41.8392 41.4599L41.6946 41.5604L41.55 41.6609L41.4054 41.7614L41.2608 41.8619L41.1162 41.9624L40.9716 42.0629L40.8264 42.1608L40.6818 42.2614L40.5372 42.3619L40.3926 42.4624L40.248 42.5629L40.1034 42.6634L39.9587 42.7639L39.8141 42.8644L39.6695 42.9649L39.5249 43.0654L39.3803 43.1659L39.2357 43.2664L39.0911 43.3669L38.9465 43.4674L38.8019 43.568L38.6573 43.6685L38.5127 43.769L38.3681 43.8695L38.2235 43.97L38.0789 44.0705L37.9343 44.171L37.7897 44.2715L37.6451 44.372L37.5005 44.4725L37.3559 44.573L37.2113 44.6735L37.0667 44.774L36.9221 44.8746L36.7775 44.9751L36.6329 45.0756L36.4883 45.1761L36.3437 45.2766L36.1991 45.3771L36.0545 45.4776L35.9099 45.5781L35.7653 45.6786L35.6207 45.7791L35.4761 45.8796L35.3315 45.9801L35.1869 46.0806L35.0423 46.1812L34.8977 46.2817L34.7531 46.3822L34.6085 46.4827L34.4639 46.5832L34.3193 46.6837L34.1747 46.7842L34.0243 46.873L33.8796 46.9735L33.735 47.0741L33.5904 47.1746L33.4458 47.2751L33.3012 47.3756L33.1566 47.4761L33.012 47.5766L32.8674 47.6771L32.7228 47.7776L32.5782 47.8781L32.4336 47.9786L32.289 48.0791L32.1444 48.1796L31.9998 48.2801L31.8552 48.3807L31.7106 48.4812L31.566 48.5817L31.4214 48.6822L31.2768 48.7827L31.1322 48.8832L30.9876 48.9837L30.843 49.0842L30.6984 49.1847L30.5538 49.2852L30.4092 49.3857L30.2646 49.4862L30.12 49.5868L29.9754 49.6873L29.8308 49.7878L29.6862 49.8883L29.5416 49.9888L29.397 50.0893L29.2524 50.1898L29.1078 50.2903L28.9632 50.3908L28.8186 50.4913L28.674 50.5918L28.5294 50.6923L28.3848 50.7928L28.2402 50.8934L28.0956 50.9939L27.951 51.0944L27.8064 51.1949L27.6566 51.2844L27.512 51.3849L27.4964 51.3622L27.4809 51.3395L27.4653 51.3168L27.4497 51.2941L27.4342 51.2714L27.4186 51.2487L27.4031 51.226L27.3875 51.2033L27.3719 51.1806L27.3564 51.1579L27.3408 51.1352L27.3252 51.1125L27.3097 51.0892L27.2941 51.0658L27.2792 51.0425L27.2643 51.0191L27.2494 50.9958L27.2345 50.9725L27.2195 50.9491L27.2046 50.9258L27.1897 50.9024L27.1748 50.8791L27.1599 50.8557L27.145 50.8324L27.1301 50.8091L27.1151 50.7857L27.1002 50.7624L27.0853 50.739L27.0704 50.7157L27.0555 50.6923L27.0406 50.669L27.0257 50.6456L27.0114 50.6223L26.9971 50.599L26.9829 50.5756L26.9686 50.5523L26.9543 50.5289L26.9401 50.5056L26.9258 50.4822L26.9115 50.4589L26.8973 50.4349L26.883 50.4109L26.8687 50.3869L26.8545 50.3629L26.8402 50.3389L26.8259 50.3149L26.8117 50.291L26.7974 50.267L26.7831 50.243L26.7695 50.219L26.7559 50.195L26.7423 50.171L26.7287 50.147L26.7151 50.123L26.7014 50.099L26.6878 50.075L26.6742 50.051L26.6606 50.027L26.647 50.003L26.6334 49.9791L26.6197 49.9551L26.6061 49.9311L26.5925 49.9071L26.5789 49.8831L26.5653 49.8591L26.5517 49.8351L26.538 49.8111L26.5251 49.7871L26.5121 49.7631L26.4991 49.7391L26.4862 49.7145L26.4732 49.6898L26.4602 49.6652L26.4473 49.6406L26.4343 49.6159L26.4213 49.5913L26.4084 49.5666L26.3954 49.542L26.3824 49.5174L26.3694 49.4927L26.3565 49.4681L26.3435 49.4434L26.3305 49.4188L26.3182 49.3942L26.3059 49.3695L26.2936 49.3449L26.2813 49.3202L26.2689 49.2956L26.2566 49.271L26.2443 49.2463L26.232 49.2217L26.2197 49.197L26.2073 49.1724L26.195 49.1478L26.1827 49.1231L26.1704 49.0985L26.1581 49.0738L26.1457 49.0472L26.1334 49.0226L26.1211 48.998L26.28 48.9215L26.4388 48.8449L26.5977 48.7684L26.7566 48.6919L26.9154 48.6154L27.0743 48.5389L27.2332 48.4624L27.392 48.3858L27.5509 48.3093L27.7098 48.2328L27.8686 48.1563L28.0275 48.0798L28.1864 48.0033L28.3452 47.9268L28.5041 47.8502L28.663 47.7737L28.8218 47.6972L28.9807 47.6207L29.1396 47.5442L29.2984 47.4677L29.4573 47.3911L29.6162 47.3146L29.775 47.2381L29.9339 47.1616L30.0928 47.0851L30.2516 47.0086L30.4105 46.932L30.5694 46.8555L30.7282 46.779L30.8871 46.7025L31.046 46.626L31.2048 46.5495L31.3637 46.473L31.5226 46.3964L31.6814 46.3199L31.8403 46.2434L31.9992 46.1669L32.158 46.0904L32.3169 46.0139L32.4758 45.9373L32.6346 45.8608L32.7935 45.7843L32.9524 45.7078L33.1112 45.6313L33.2701 45.5548L33.429 45.4783L33.5879 45.4017L33.7467 45.3252L33.9056 45.2487L34.0645 45.1722L34.2233 45.0957L34.3822 45.0192L34.5411 44.9426L34.6999 44.8661L34.8588 44.7896L35.0177 44.7131L35.1765 44.6366L35.3354 44.5601L35.4943 44.4835L35.6531 44.407L35.812 44.3305L35.9709 44.254L36.1297 44.1775L36.2886 44.101L36.4475 44.0245L36.6063 43.9479L36.7652 43.8714L36.9241 43.7949L37.0829 43.7184L37.2418 43.6419L37.4007 43.5654L37.5595 43.4888L37.7184 43.4123L37.8773 43.3358L38.0361 43.2593L38.195 43.1828L38.3539 43.1063L38.5127 43.0298L38.6716 42.9532L38.8305 42.8767L38.9893 42.8002L39.1482 42.7237L39.3071 42.6472L39.4659 42.5707L39.6248 42.4941L39.7837 42.4176L39.9425 42.3411L40.1014 42.2646L40.2603 42.1881L40.4191 42.1116L40.578 42.035L40.7369 41.9585L40.8957 41.882L41.0546 41.8055L41.2135 41.729L41.3723 41.6525L41.5312 41.576L41.6901 41.4994L41.8489 41.4229L41.9838 41.3594Z" fill="#9A5CE4" fill-opacity="0.1"/>
<path opacity="0.6" d="M41.9838 41.3594L42.0208 41.5766L42.0577 41.7938L42.0947 42.0111L42.1317 42.2283L42.1686 42.4455L42.2056 42.6627L42.2425 42.88L42.2795 43.0972L42.3165 43.3144L42.3534 43.5316L42.3904 43.7489L42.4273 43.9661L42.4643 44.1833L42.5013 44.4005L42.5382 44.6178L42.5752 44.835L42.6122 45.0522L42.6491 45.2695L42.6861 45.4867L42.723 45.7039L42.76 45.9211L42.797 46.1384L42.8339 46.3556L42.8709 46.5728L42.9078 46.79L42.9448 47.0073L42.9818 47.2245L43.0187 47.4417L43.0557 47.6589L43.0926 47.8762L43.1296 48.0934L43.1666 48.3106L43.2035 48.5278L43.2405 48.7451L43.2774 48.9623L43.3144 49.1795L43.3514 49.3968L43.3883 49.614L43.4253 49.8312L43.4623 50.0484L43.4992 50.2657L43.5362 50.4829L43.5731 50.7001L43.6101 50.9173L43.6471 51.1346L43.684 51.3518L43.721 51.569L43.7579 51.7862L43.7949 52.0035L43.8319 52.2207L43.8688 52.4379L43.9058 52.6552L43.9427 52.8724L43.9797 53.0896L44.0167 53.3068L44.0536 53.5241L44.0906 53.7413L44.1275 53.9585L44.1645 54.1757L44.2015 54.393L44.2384 54.6102L44.2754 54.8274L44.3124 55.0446L44.3493 55.2619L44.3863 55.4791L44.4232 55.6963L44.4602 55.9136L44.4972 56.1308L44.5341 56.348L44.5711 56.5652L44.608 56.7825L44.645 56.9997L44.682 57.2169L44.7189 57.4341L44.7559 57.6514L44.7928 57.8686L44.8298 58.0858L44.8668 58.303L44.9037 58.5203L44.9407 58.7375L44.9777 58.9547L45.0146 59.172L45.0516 59.3892L45.0885 59.6064L45.1255 59.8236L45.1625 60.0409L45.1994 60.2581L45.2364 60.4753L45.2733 60.6925L45.3103 60.9098L45.3473 61.127L45.3842 61.3442L45.4212 61.5614L45.4581 61.7787L45.4951 61.9959L45.5321 62.2131L45.569 62.4304L45.606 62.6476L45.6429 62.8648L45.6799 63.082L45.595 63.0963L45.5094 63.1106L45.4238 63.1242L45.3382 63.1378L45.2526 63.1508L45.167 63.1631L45.0814 63.1754L44.9958 63.1871L44.9102 63.1987L44.8246 63.2098L44.739 63.2208L44.6534 63.2312L44.5678 63.2415L44.4822 63.2513L44.3967 63.261L44.3111 63.2701L44.2248 63.2792L44.1386 63.2876L44.0523 63.296L43.9661 63.3038L43.8798 63.3116L43.7936 63.3187L43.7074 63.3258L43.6211 63.3323L43.5349 63.3388L43.4486 63.3447L43.3624 63.3505L43.2762 63.3557L43.1899 63.3602L43.1037 63.3647L43.0174 63.3693L42.9312 63.3732L42.8449 63.3764L42.7587 63.3797L42.6725 63.3823L42.5862 63.3849L42.5 63.3868L42.4137 63.3887L42.3275 63.39L42.2412 63.3913L42.155 63.392L42.0688 63.3926H41.8963L41.81 63.392L41.7238 63.3913L41.6376 63.39L41.5513 63.3887L41.4651 63.3868L41.3788 63.3849L41.2926 63.3823L41.1934 63.3518L41.1071 63.3485L41.0209 63.3453L40.9346 63.3414L40.8484 63.3369L40.7615 63.3323L40.6753 63.3271L40.589 63.322L40.5028 63.3161L40.4165 63.3103L40.3303 63.3038L40.2441 63.2973L40.1578 63.2902L40.0716 63.283L39.9853 63.2753L39.8991 63.2675L39.8128 63.2591L39.7266 63.2506L39.6404 63.2415L39.5548 63.2318L39.4705 63.2221L39.3849 63.2124L39.2993 63.202L39.2137 63.191L39.1281 63.1799L39.0425 63.1683L38.9569 63.1566L38.8713 63.1443L38.7857 63.132L38.7001 63.119L38.6145 63.106L38.5289 63.0924L38.4433 63.0788L38.3584 63.0645L38.2735 63.0503L38.1885 63.0353L38.1036 63.0204L38.0186 63.0049L37.9337 62.9893L37.8487 62.9731L37.7638 62.9569L37.6788 62.94L37.5939 62.9232L37.5089 62.9057L37.4247 62.8881L37.3404 62.87L37.2561 62.8518L37.1718 62.833L37.0875 62.8142L37.1367 62.5996L37.186 62.385L37.2353 62.1703L37.2846 61.9557L37.3339 61.7411L37.3832 61.5264L37.4324 61.3118L37.4817 61.0972L37.531 60.8825L37.5803 60.6679L37.6296 60.4533L37.6788 60.2386L37.7281 60.024L37.7774 59.8094L37.8267 59.5947L37.876 59.3801L37.9252 59.1655L37.9745 58.9508L38.0238 58.7362L38.0731 58.5216L38.1224 58.3069L38.1717 58.0923L38.2209 57.8777L38.2702 57.663L38.3195 57.4484L38.3688 57.2338L38.4181 57.0191L38.4673 56.8045L38.5166 56.5899L38.5659 56.3752L38.6152 56.1606L38.6645 55.946L38.7137 55.7313L38.763 55.5167L38.8123 55.3021L38.8616 55.0874L38.9109 54.8728L38.9602 54.6582L39.0094 54.4435L39.0587 54.2289L39.108 54.0143L39.1573 53.7996L39.2066 53.585L39.2558 53.3704L39.3051 53.1557L39.3544 52.9411L39.4037 52.7265L39.453 52.5119L39.5022 52.2972L39.5515 52.0826L39.6008 51.868L39.6501 51.6533L39.6994 51.4387L39.7487 51.2241L39.7979 51.0094L39.8472 50.7948L39.8965 50.5802L39.9458 50.3655L39.9951 50.1509L40.0443 49.9363L40.0936 49.7216L40.1429 49.507L40.1922 49.2924L40.2415 49.0777L40.2907 48.8631L40.34 48.6485L40.3893 48.4338L40.4386 48.2192L40.4879 48.0046L40.5372 47.7899L40.5864 47.5753L40.6357 47.3607L40.685 47.146L40.7343 46.9314L40.7836 46.7168L40.8328 46.5021L40.8821 46.2875L40.9314 46.0729L40.9807 45.8582L41.03 45.6436L41.0792 45.429L41.1285 45.2143L41.1778 44.9997L41.2271 44.7851L41.2764 44.5704L41.3257 44.3558L41.3749 44.1412L41.4242 43.9265L41.4735 43.7119L41.5228 43.4973L41.5721 43.2826L41.6213 43.068L41.6706 42.8534L41.7199 42.6387L41.7692 42.4241L41.8185 42.2095L41.8677 41.9948L41.917 41.7802L41.9663 41.5656L41.9838 41.3594Z" fill="#9A5CE4" fill-opacity="0.1"/>
<path opacity="0.6" d="M41.9838 41.3594L42.2613 41.576L42.5388 41.7925L42.8164 42.0091L43.0939 42.2257L43.3714 42.4423L43.649 42.6588L43.9265 42.8754L44.204 43.092L44.4815 43.3086L44.7591 43.5252L45.0366 43.7417L45.3141 43.9583L45.5917 44.1749L45.8692 44.3915L46.15 44.6055L46.4275 44.822L46.705 45.0386L46.9826 45.2552L47.2601 45.4718L47.5376 45.6883L47.8152 45.9049L48.0927 46.1215L48.3702 46.3381L48.6478 46.5547L48.9253 46.7712L49.2028 46.9878L49.4804 47.2044L49.7579 47.421L50.0354 47.6375L50.3129 47.8541L50.5905 48.0707L50.868 48.2873L51.1455 48.5039L51.4231 48.7204L51.7006 48.937L51.9781 49.1536L52.2557 49.3702L52.5332 49.5868L52.8107 49.8033L53.0883 50.0199L53.3658 50.2365L53.6433 50.4531L53.9209 50.6696L54.1984 50.8862L54.4759 51.1028L54.7534 51.3194L55.031 51.536L55.3085 51.7525L55.586 51.9691L55.8636 52.1857L56.1411 52.4023L56.4186 52.6188L56.6962 52.8354L56.9737 53.052L57.2512 53.2686L57.5288 53.4852L57.8063 53.7017L58.0838 53.9183L58.3614 54.1349L58.6389 54.3515L58.9164 54.568L59.1939 54.7846L59.4715 55.0012L59.749 55.2178L60.0265 55.4344L60.3041 55.6509L60.5816 55.8675L60.8591 56.0841L61.1367 56.3007L61.4142 56.5173L61.6917 56.7338L61.9693 56.9504L62.2468 57.167L62.5243 57.3836L62.8019 57.6001L63.0794 57.8167L63.3569 58.0333L63.6344 58.2499L63.912 58.4665L64.1895 58.683L64.467 58.8996L64.7446 59.1162L65.0221 59.3328L65.2996 59.5493L65.5772 59.7659L65.8547 59.9825L66.1322 60.1991L66.4098 60.4157L66.6873 60.6322L66.9648 60.8488L67.2424 61.0654L67.5199 61.282L67.7974 61.4985L68.0749 61.7151L68.3525 61.9317L68.63 62.1483L68.9075 62.3649L69.1851 62.5814L69.4626 62.798L69.7401 63.0146L69.6889 63.0801L69.6377 63.1456L69.5865 63.2104L69.5352 63.2753L69.4834 63.3401L69.4315 63.405L69.3796 63.4698L69.3277 63.5346L69.2752 63.5988L69.2227 63.663L69.1702 63.7272L69.1176 63.7914L69.0645 63.8556L69.0113 63.9192L68.9581 63.9827L68.9049 64.0463L68.8511 64.1098L68.7973 64.1734L68.7435 64.2363L68.6897 64.2992L68.6358 64.362L68.5814 64.4249L68.5269 64.4878L68.4724 64.5501L68.418 64.6123L68.3629 64.6746L68.3077 64.7368L68.2526 64.7991L68.1975 64.8607L68.1424 64.9223L68.0866 64.9839L68.0308 65.0455L67.9751 65.1071L67.9193 65.1681L67.8629 65.229L67.8065 65.29L67.7501 65.3509L67.6937 65.4119L67.6373 65.4722L67.5802 65.5325L67.5231 65.5928L67.4661 65.6531L67.409 65.7134L67.3513 65.773L67.2936 65.8327L67.2359 65.8924L67.1782 65.952L67.1204 66.0117L67.0621 66.0707L67.0037 66.1297L66.9454 66.1887L66.887 66.2477L66.8286 66.3061L66.7696 66.3644L66.7106 66.4228L66.6516 66.4811L66.5926 66.5395L66.533 66.5972L66.4733 66.6549L66.4136 66.7126L66.354 66.7703L66.2943 66.8281L66.234 66.8851L66.1737 66.9422L66.1134 66.9992L66.0531 67.0563L65.9928 67.1127L65.9319 67.1691L65.8709 67.2255L65.81 67.282L65.749 67.3384L65.688 67.3941L65.644 67.4369L65.5823 67.4927L65.5208 67.5485L65.4591 67.6036L65.3975 67.6587L65.3353 67.7138L65.273 67.7689L65.2108 67.8234L65.1485 67.8779L65.0863 67.9323L65.0234 67.9868L64.9605 68.0413L64.8976 68.0951L64.8347 68.1489L64.7718 68.2027L64.7083 68.2566L64.6447 68.3097L64.5812 68.3629L64.5176 68.4161L64.4541 68.4693L64.3899 68.5224L64.3257 68.5749L64.2615 68.6275L64.1973 68.68L64.1331 68.7325L64.0682 68.7844L64.0034 68.8363L63.9386 68.8881L63.7187 68.6126L63.4996 68.3376L63.2798 68.062L63.0599 67.7864L62.8401 67.5109L62.6203 67.2353L62.4005 66.9597L62.1806 66.6841L61.9608 66.4085L61.741 66.1329L61.5212 65.8573L61.3014 65.5818L61.0815 65.3062L60.8617 65.0306L60.6419 64.755L60.4221 64.4794L60.2023 64.2038L59.9824 63.9282L59.7626 63.6527L59.5428 63.3771L59.323 63.1015L59.1032 62.8259L58.8833 62.5503L58.6635 62.2747L58.4437 61.9991L58.2297 61.7307L58.0099 61.4551L57.7901 61.1795L57.5703 60.9039L57.3504 60.6283L57.1306 60.3528L56.9108 60.0772L56.691 59.8016L56.4712 59.526L56.2513 59.2504L56.0315 58.9748L55.8117 58.6992L55.5919 58.4237L55.3721 58.1481L55.1522 57.8725L54.9324 57.5969L54.7126 57.3213L54.4928 57.0457L54.273 56.7701L54.0531 56.4946L53.8333 56.219L53.6135 55.9434L53.3937 55.6678L53.1739 55.3922L52.954 55.1166L52.7342 54.841L52.5144 54.5655L52.2946 54.2899L52.0748 54.0143L51.8549 53.7387L51.6351 53.4631L51.4153 53.1875L51.1955 52.9119L50.9757 52.6364L50.7558 52.3608L50.536 52.0852L50.3162 51.8096L50.0964 51.534L49.8765 51.2584L49.6567 50.9828L49.4369 50.7072L49.2171 50.4317L48.9973 50.1561L48.7774 49.8805L48.5576 49.6049L48.3378 49.3293L48.118 49.0537L47.8982 48.7781L47.6783 48.5026L47.4585 48.227L47.2387 47.9514L47.0189 47.6758L46.7991 47.4002L46.5792 47.1246L46.3594 46.849L46.1396 46.5735L45.9198 46.2979L45.7 46.0223L45.4801 45.7467L45.2603 45.4711L45.0405 45.1955L44.8207 44.9199L44.6009 44.6444L44.381 44.3688L44.1612 44.0932L43.9414 43.8176L43.7216 43.542L43.5018 43.2664L43.2819 42.9908L43.0621 42.7153L42.8423 42.4397L42.6225 42.1641L42.4027 41.8885L42.1828 41.6129L41.9838 41.3594Z" fill="#9A5CE4" fill-opacity="0.1"/>
<path d="M50.787 41.6291L41.9838 41.6285C41.9205 41.6277 41.8594 41.6045 41.8115 41.5631C41.7636 41.5217 41.7319 41.4647 41.722 41.4021C41.712 41.3396 41.7245 41.2755 41.7572 41.2213C41.79 41.1671 41.8408 41.1262 41.9008 41.1058L50.2734 38.3863C50.3069 38.3753 50.3422 38.3711 50.3773 38.3738C50.4124 38.3766 50.4466 38.3862 50.478 38.4022C50.5093 38.4181 50.5373 38.4401 50.5601 38.4669C50.583 38.4936 50.6004 38.5246 50.6113 38.5581C50.9063 39.4646 51.0554 40.4081 51.0548 41.3613C51.0548 41.3965 51.0479 41.4313 51.0344 41.4638C51.0209 41.4963 51.0012 41.5258 50.9763 41.5507C50.9515 41.5755 50.922 41.5953 50.8895 41.6087C50.857 41.6222 50.8222 41.6291 50.787 41.6291ZM43.6769 41.0922H50.5146C50.4925 40.3767 50.38 39.6669 50.18 38.9796L43.6769 41.0922Z" fill="#1F1740" fill-opacity="0.3"/>
<path d="M41.9838 41.6275C41.9405 41.6274 41.898 41.6168 41.8597 41.5967C41.8214 41.5766 41.7886 41.5475 41.7639 41.512C41.7393 41.4765 41.7236 41.4355 41.7182 41.3927C41.7128 41.3498 41.7178 41.3062 41.7328 41.2657L51.0126 16.5414C51.0249 16.5084 51.0435 16.4781 51.0675 16.4523C51.0915 16.4265 51.1204 16.4057 51.1525 16.3912C51.1845 16.3766 51.2191 16.3685 51.2544 16.3673C51.2896 16.3662 51.3246 16.372 51.3576 16.3845C53.9793 17.3664 56.4294 18.7563 58.6175 20.5027C58.673 20.547 58.7088 20.6116 58.7168 20.6822C58.7248 20.7528 58.7045 20.8238 58.6603 20.8794L42.1932 41.5263C42.1681 41.5578 42.1362 41.5832 42.1 41.6007C42.0637 41.6182 42.024 41.6274 41.9838 41.6275ZM51.4198 16.9817L42.83 39.8683L58.0728 20.7556C56.053 19.177 53.8111 17.9054 51.4198 16.9817Z" fill="#1F1740" fill-opacity="0.3"/>
<path d="M41.9838 41.6283C41.9446 41.6283 41.9059 41.6196 41.8704 41.6031C41.8349 41.5865 41.8035 41.5624 41.7782 41.5324L19.212 14.5023C19.1893 14.4753 19.1722 14.4441 19.1616 14.4106C19.151 14.377 19.1472 14.3416 19.1504 14.3065C19.1535 14.2715 19.1635 14.2374 19.1799 14.2062C19.1962 14.175 19.2186 14.1474 19.2457 14.1249C23.5449 10.5378 28.6312 8.01771 34.0897 6.77028C34.1591 6.75459 34.2319 6.76709 34.2921 6.80502C34.3523 6.84295 34.3949 6.90323 34.4107 6.9726L42.2458 41.3015C42.259 41.3603 42.2522 41.4219 42.2263 41.4763C42.2005 41.5307 42.1571 41.5749 42.1031 41.6018C42.0657 41.6191 42.025 41.6281 41.9838 41.6283ZM19.7956 14.3648L41.4735 40.3308L33.9471 7.35323C28.7572 8.58152 23.9168 10.9798 19.7956 14.3648Z" fill="#1F1740" fill-opacity="0.3"/>
<path d="M11.6687 47.129C11.606 47.1289 11.5453 47.1069 11.4972 47.0667C11.4491 47.0266 11.4166 46.9708 11.4054 46.9092C10.2298 40.5 11.1454 33.74 13.9842 27.8743C14.0152 27.8103 14.0702 27.7612 14.1373 27.7377C14.2044 27.7142 14.2781 27.7183 14.3422 27.7491L42.1005 41.1167C42.1519 41.141 42.1941 41.1811 42.2212 41.2311C42.2483 41.2811 42.2587 41.3384 42.2511 41.3947C42.2434 41.451 42.2181 41.5034 42.1786 41.5444C42.1392 41.5853 42.0878 41.6127 42.0318 41.6225L11.7173 47.1244C11.7013 47.1279 11.685 47.1294 11.6687 47.129ZM14.3506 28.3502C11.6901 33.9774 10.8179 40.4177 11.8859 46.5499L41.124 41.2438L14.3506 28.3502Z" fill="#1F1740" fill-opacity="0.3"/>
<path d="M27.5119 51.6537C27.4685 51.6534 27.4258 51.6428 27.3874 51.6227C27.3489 51.6027 27.3158 51.5737 27.2908 51.5382C26.7577 50.7684 26.2858 49.9579 25.8792 49.1144C25.8638 49.0827 25.8549 49.0482 25.8529 49.0131C25.8509 48.9779 25.8559 48.9427 25.8675 48.9094C25.8791 48.8762 25.8972 48.8456 25.9207 48.8193C25.9441 48.7931 25.9726 48.7717 26.0043 48.7564L41.8664 41.1178C41.9274 41.0863 41.9983 41.0794 42.0643 41.0986C42.1303 41.1178 42.1863 41.1616 42.2209 41.221C42.2555 41.2804 42.2659 41.3508 42.25 41.4176C42.2341 41.4845 42.1931 41.5427 42.1355 41.5802L27.665 51.6063C27.62 51.6373 27.5666 51.6538 27.5119 51.6537ZM26.4809 49.1222C26.8081 49.774 27.1756 50.4049 27.5813 51.0111L39.0301 43.0794L26.4809 49.1222Z" fill="#1F1740" fill-opacity="0.3"/>
<path d="M41.9935 63.6317C40.3206 63.6317 38.6443 63.4456 37.0265 63.076C36.9572 63.0599 36.8971 63.017 36.8593 62.9568C36.8215 62.8965 36.8091 62.8237 36.8248 62.7543L41.7218 41.2988C41.7504 41.1743 41.8664 41.0693 41.9909 41.0907C42.053 41.0922 42.1126 41.1154 42.1594 41.1561C42.2063 41.1968 42.2375 41.2525 42.2477 41.3137L45.9341 63.0105C45.9459 63.0806 45.9294 63.1526 45.8882 63.2106C45.847 63.2686 45.7844 63.3079 45.7143 63.3198C44.485 63.5281 43.2403 63.6325 41.9935 63.6317ZM37.4078 62.611C40.0015 63.1687 42.7379 63.2465 45.3602 62.8341L41.9449 42.7332L37.4078 62.611Z" fill="#1F1740" fill-opacity="0.3"/>
<path d="M63.938 69.1568C63.8976 69.1569 63.8577 69.1478 63.8213 69.1303C63.7849 69.1128 63.753 69.0873 63.7279 69.0557L41.7737 41.5262C41.7322 41.475 41.7111 41.4103 41.7143 41.3445C41.7176 41.2786 41.745 41.2163 41.7913 41.1694C41.8376 41.1225 41.8996 41.0944 41.9654 41.0903C42.0312 41.0863 42.0962 41.1067 42.1479 41.1476L69.9224 62.7917C69.9785 62.8355 70.015 62.8998 70.0238 62.9705C70.0325 63.0411 70.0128 63.1123 69.9691 63.1685C68.2541 65.3692 66.2855 67.3598 64.104 69.0991C64.0568 69.1366 63.9982 69.157 63.938 69.1568ZM43.6062 42.9638L63.9801 68.5116C65.9753 66.8946 67.7865 65.063 69.3809 63.0498L43.6062 42.9638Z" fill="#1F1740" fill-opacity="0.3"/>
</svg>
