<svg width="100" height="101" viewBox="0 0 100 101" fill="none" xmlns="http://www.w3.org/2000/svg">
<path fill-rule="evenodd" clip-rule="evenodd" d="M15.0004 63.0354H17.3435V53.7532L21.0027 61.8461C21.4172 62.8188 22.0127 63.1792 23.1656 63.1792C24.3186 63.1792 24.8785 62.8184 25.3067 61.8461L28.9478 53.7532V63.0354H31.309V53.7532C31.309 52.8523 30.9483 52.4188 30.1912 52.1845C28.4068 51.644 27.2171 52.1126 26.6766 53.3197L23.0901 61.3225L19.6292 53.3197C19.1065 52.1126 17.8986 51.644 16.0964 52.1845C15.3572 52.4188 14.9968 52.8519 14.9968 53.7532L14.9964 63.0354H15.0004ZM33.2594 55.4834H35.6207V60.5844C35.6029 60.8725 35.7107 61.5217 36.9942 61.539C37.6607 61.5572 42.077 61.539 42.1126 61.539V55.447H44.4738V63.7924C44.4738 65.847 41.9288 66.2971 40.7427 66.3157H33.3176V64.7482H40.7617C42.2758 64.5858 42.0956 63.8292 42.0956 63.5767V62.9635H37.1025C34.7772 62.9453 33.2808 61.918 33.2635 60.7464V55.4826L33.2594 55.4834ZM83.9077 49.5712C82.4663 49.5348 81.3481 49.6795 80.4109 50.0762C80.141 50.1852 79.7079 50.1852 79.6724 50.527C79.8166 50.6704 79.834 50.9051 79.9604 51.1039C80.1766 51.4646 80.5555 51.9506 80.8977 52.2027C81.2766 52.4915 81.6551 52.7796 82.051 53.0321C82.7539 53.4643 83.5469 53.7168 84.2317 54.1495C84.6284 54.402 85.0247 54.7263 85.4214 54.997C85.6234 55.1412 85.7458 55.3759 85.9983 55.4656V55.4111C85.8722 55.2495 85.8359 55.0152 85.7102 54.8342C85.5297 54.6544 85.3495 54.4916 85.1689 54.3119C84.6466 53.6089 83.9974 52.9957 83.2944 52.4915C82.7176 52.0948 81.4564 51.5543 81.222 50.8878L81.1865 50.8514C81.5824 50.815 82.051 50.6708 82.4299 50.5626C83.0432 50.401 83.6015 50.4365 84.2317 50.2745C84.5205 50.2018 84.8086 50.1121 85.0974 50.022V49.8604C84.773 49.536 84.5387 49.1034 84.1965 48.7972C83.2775 48.0042 82.2675 47.2289 81.222 46.5801C80.6633 46.2198 79.9422 45.9851 79.3476 45.6793C79.1307 45.571 78.7707 45.5169 78.6447 45.3367C78.3195 44.9408 78.1397 44.4177 77.9054 43.9486C77.383 42.9573 76.8781 41.858 76.4276 40.8126C76.1032 40.1096 75.9045 39.4067 75.5086 38.7579C73.6519 35.6938 71.6328 33.8375 68.5327 32.0168C67.8661 31.6382 67.0731 31.4754 66.23 31.2775L64.8783 31.2048C64.5895 31.0787 64.3014 30.7361 64.049 30.5737C63.0216 29.925 60.372 28.5191 59.6145 30.3758C59.1277 31.5473 60.3356 32.7007 60.7456 33.2957C61.0527 33.7102 61.4486 34.1788 61.6655 34.6475C61.7867 34.9537 61.8271 35.2785 61.9535 35.6029C62.2416 36.3959 62.5122 37.2794 62.8908 38.0186C63.0928 38.3972 63.3048 38.7943 63.5573 39.1365C63.7015 39.3344 63.954 39.4249 64.0078 39.7493C63.7553 40.11 63.7379 40.6502 63.5937 41.1014C62.9445 43.1383 63.197 45.6615 64.116 47.157C64.4049 47.6075 65.0856 48.5992 66.0091 48.2203C66.8203 47.8959 66.6393 46.8686 66.8736 45.9673C66.9281 45.7512 66.8918 45.607 66.9996 45.4623V45.4987L67.7389 46.9946C68.2976 47.8777 69.2712 48.7972 70.082 49.4104C70.5142 49.7348 70.8568 50.2939 71.3973 50.4919V50.4373H71.3618C71.2535 50.2757 71.0911 50.203 70.9469 50.077C70.6225 49.7526 70.2621 49.3559 70.0097 48.9955C69.253 47.9864 68.5864 46.8686 67.9914 45.7152C67.7025 45.1565 67.4501 44.5437 67.2166 43.985C67.1075 43.7685 67.1075 43.4437 66.9277 43.3362C66.657 43.7321 66.2611 44.0755 66.062 44.5619C65.7194 45.3367 65.6839 46.2921 65.5578 47.2835C65.4851 47.3016 65.5174 47.2835 65.4851 47.3198C64.909 47.176 64.7103 46.5805 64.4941 46.0764C63.9536 44.7966 63.8631 42.742 64.3317 41.2638C64.4578 40.8853 64.9991 39.6956 64.783 39.3352C64.6739 38.9926 64.3144 38.7947 64.1156 38.524C63.8813 38.1814 63.6296 37.7492 63.4672 37.3707C63.035 36.3607 62.8189 35.2437 62.3498 34.2342C62.1329 33.7656 61.7548 33.2788 61.4482 32.8465C61.1056 32.3597 60.7279 32.0172 60.4572 31.4407C60.3671 31.2427 60.2411 30.9179 60.3853 30.7014C60.4208 30.5572 60.4936 30.5035 60.637 30.4671C60.8713 30.2691 61.5386 30.5212 61.773 30.6287C62.4395 30.8994 62.9982 31.1514 63.5569 31.5296C63.8094 31.7097 64.0801 32.0523 64.4045 32.1428H64.7834C65.3603 32.2688 66.0087 32.1792 66.5488 32.3407C67.5042 32.6478 68.3691 33.0978 69.1447 33.585C71.5056 35.0809 73.4528 37.2079 74.7681 39.7497C74.9842 40.1642 75.0743 40.5427 75.2731 40.9754C75.652 41.8589 76.1206 42.7597 76.4983 43.6255C76.8773 44.4726 77.2376 45.3383 77.7781 46.0412C78.0488 46.4198 79.1299 46.6177 79.6162 46.8161C79.977 46.9777 80.5353 47.1231 80.8605 47.321C81.4729 47.6996 82.0857 48.1322 82.6622 48.5467C82.9503 48.7624 83.8519 49.2133 83.9057 49.5728L83.9077 49.5712ZM65.5267 33.9082C65.2777 33.906 65.0294 33.9363 64.7882 33.9983V34.0346H64.8238C64.968 34.3231 65.2205 34.5214 65.4007 34.7739L65.8156 35.6392L65.8511 35.6029C66.1036 35.4227 66.23 35.1342 66.23 34.702C66.1218 34.5759 66.104 34.4495 66.0139 34.3235C65.9056 34.1433 65.6713 34.0528 65.5267 33.909V33.9082Z" fill="#9A5CE4" fill-opacity="0.2"/>
<path fill-rule="evenodd" clip-rule="evenodd" d="M46.2731 63.0356H53.0503C53.8433 63.0356 54.6007 62.874 55.2132 62.5851C56.2405 62.1165 56.7273 61.4863 56.7273 60.657V58.9267C56.7273 58.2602 56.1686 57.6287 55.0516 57.1965C54.4747 56.9804 53.7536 56.8539 53.0507 56.8539H50.2026C49.2472 56.8539 48.7968 56.5651 48.6703 55.9349C48.6526 55.863 48.6526 55.7906 48.6526 55.7187V54.6551C48.6526 54.6005 48.6526 54.529 48.6703 54.4571C48.7964 53.9703 49.0489 53.8439 49.8823 53.7542H56.8214V52.1855H50.2244C49.269 52.1855 48.7645 52.2401 48.3136 52.3843C46.9256 52.8166 46.3127 53.5017 46.3127 54.7088V56.0795C46.3127 57.1419 47.5024 58.044 49.5211 58.2602C49.7372 58.2783 49.9715 58.2783 50.2059 58.2783H52.6394C52.7295 58.2783 52.8192 58.2783 52.8911 58.2965C53.6304 58.3684 53.9548 58.4945 54.1709 58.7643C54.3151 58.9085 54.3515 59.035 54.3515 59.1974V60.5669C54.3515 60.7285 54.2432 60.9458 54.0271 61.1256C53.8109 61.3053 53.4676 61.4318 53.0171 61.45C52.927 61.45 52.8737 61.4681 52.7828 61.4681H46.2731V63.0356ZM71.3985 60.3144C71.3985 61.9182 72.6104 62.819 75.0222 63C75.2565 63.0182 75.4726 63.0356 75.7069 63.0356H81.8353V61.4681H75.6532C74.2825 61.4681 73.7602 61.1256 73.7602 60.2966V52.1855H71.3941V60.3148L71.3985 60.3144ZM58.2228 60.3859V54.7989C58.2228 53.3749 59.2319 52.5091 61.1973 52.2393C61.4134 52.2211 61.6295 52.2029 61.8275 52.2029H66.2971C66.5314 52.2029 66.7302 52.2211 66.9645 52.2393C68.929 52.5091 69.92 53.3745 69.92 54.7989V60.3859C69.92 61.5392 69.5059 62.1525 68.5319 62.5674L70.8386 64.6575H68.1174L66.243 62.9637L64.3499 63.0719H61.8267C61.3643 63.0696 60.9041 63.0092 60.4568 62.8922C58.9621 62.4769 58.2228 61.6843 58.2228 60.3859ZM60.7638 60.2607C60.7638 60.3326 60.8042 60.4041 60.8183 60.495C60.9444 61.1433 61.5568 61.5041 62.494 61.5041H64.6214L62.675 59.7375H65.3962L67.1083 61.288C67.4335 61.1074 67.6314 60.8549 67.7033 60.5305C67.7215 60.4586 67.7215 60.3689 67.7215 60.2962V54.9427C67.7215 54.8708 67.7215 54.7993 67.7033 54.7266C67.5773 54.1141 66.9649 53.772 66.0454 53.772H62.4944C61.449 53.772 60.7642 54.2224 60.7642 54.9427L60.7638 60.2607Z" fill="#9A5CE4" fill-opacity="0.2"/>
</svg>
