<svg width="100" height="101" viewBox="0 0 100 101" fill="none" xmlns="http://www.w3.org/2000/svg">
<path d="M53.6641 7.68351C51.4459 6.43604 48.5541 6.44163 46.3341 7.68351C35.2153 13.8196 24.0963 19.9575 12.9755 26.0908C10.8115 27.2292 9.35199 29.5531 9.37527 31.965V69.04C9.35965 71.4991 10.8944 73.8453 13.1142 74.9681C16.3085 76.6675 19.4119 78.5394 22.6639 80.1256C26.4203 81.9716 31.1201 82.3797 34.9225 80.4547C38.0091 78.8594 39.38 75.3109 39.3759 72.05C39.4009 59.8144 39.38 47.5784 39.3856 35.3425C39.4591 34.7988 39.0506 34.2175 38.4575 34.2306C37.0366 34.2081 35.6137 34.2175 34.1928 34.2269C33.6559 34.1763 33.1319 34.6222 33.1725 35.1619C33.1534 47.3188 33.1762 59.4794 33.1609 71.6381C33.1919 73.32 32.0556 74.9363 30.4348 75.5044C26.6912 76.8166 16.0062 69.8788 16.0062 69.8788C15.6141 69.6972 15.3651 69.2719 15.4035 68.8494C15.4035 56.6175 15.4054 44.3853 15.4035 32.1553C15.3496 31.6622 15.6535 31.2181 16.1063 31.0168C27.1885 24.9169 38.265 18.8017 49.3472 12.698C49.7322 12.4411 50.2687 12.4419 50.6528 12.6999C61.735 18.8017 72.8134 24.9113 83.8975 31.0115C84.3519 31.2125 84.6428 31.6641 84.5966 32.1553C84.5947 44.3853 84.6003 56.6175 84.5928 68.8478C84.6256 69.2806 84.4019 69.7 83.9978 69.89C73.0191 75.9569 61.9153 81.8281 51.0359 88.0713C50.5612 88.3434 50.0234 88.6519 49.4916 88.3519C46.6306 86.7694 43.8044 85.1253 40.9528 83.5275C40.6428 83.3341 40.2481 83.2509 39.9247 83.4675C38.6462 84.1413 37.4437 84.6869 35.9756 85.2681C33.9137 86.0844 34.2431 86.4181 36.1028 87.5016C39.4375 89.3888 42.7778 91.2684 46.1125 93.1575C48.3078 94.5275 51.2575 94.625 53.5234 93.3591C64.6441 87.2306 75.7612 81.095 86.8841 74.9666C89.0978 73.8375 90.6403 71.5006 90.6247 69.0397V31.965C90.6462 29.602 89.2425 27.3196 87.1437 26.1644C75.9862 19.9984 64.8234 13.8458 53.6641 7.68351Z" fill="#9A5CE4" fill-opacity="0.05"/>
<path d="M70.4434 35.5192C66.0787 33.1842 60.8862 33.0598 56.0359 33.3651C52.5319 33.7114 48.8465 34.6782 46.2937 37.1901C43.6753 39.7151 43.1053 43.7926 44.349 47.0889C45.2403 49.4182 47.4837 50.9329 49.8037 51.7342C52.7922 52.7892 55.9309 53.1154 59.0706 53.4417C61.9344 53.7392 64.7991 54.037 67.5516 54.8879C68.6759 55.2604 69.9853 55.8304 70.3297 57.0539C70.6478 58.5026 70.2991 60.1867 69.1228 61.1932C65.3866 64.1504 54.9934 63.6973 51.3019 61.3698C49.8094 60.3782 49.1662 58.6229 48.9047 56.9501C48.8756 56.4289 48.4559 55.9507 47.89 55.9904C46.4728 55.9735 45.0556 55.9773 43.6384 55.9885C43.144 55.947 42.63 56.2989 42.6028 56.8035C42.3115 64.4651 49.3481 67.8051 55.9497 68.5404C59.7212 68.8998 63.5756 68.8792 67.2897 68.0698C70.0815 67.4342 72.8809 66.2635 74.8028 64.1132C77.1728 61.4998 77.6387 57.6089 76.5759 54.3535C75.7634 51.9245 73.4412 50.3664 71.0675 49.5648C67.8394 48.4579 64.0137 47.8629 61.09 47.5845C56.8403 47.1798 51.7903 47.3451 50.5875 44.5526C50.1078 43.0904 50.5159 41.2748 51.8597 40.3754C55.415 37.9639 62.6509 38.2842 66.3328 40.0857C68.0234 40.9323 69.0031 42.671 69.4075 44.4264C69.4825 44.942 69.8294 45.4801 70.4262 45.4576C71.8337 45.4857 73.2412 45.4651 74.6484 45.467C75.1319 45.5007 75.6612 45.2279 75.7556 44.7329C75.6959 41.0642 73.8225 37.3085 70.4434 35.5192Z" fill="#9A5CE4" fill-opacity="0.05"/>
</svg>
