<svg width="84" height="83" viewBox="0 0 84 83" fill="none" xmlns="http://www.w3.org/2000/svg">
<path d="M61.2499 56.4316L61.2679 74.7643L44.9998 82.8823V64.5577L61.2499 56.4316ZM80.774 46.6335V65.0302L66.8989 71.9548L66.8888 53.6422L80.774 46.6335ZM61.2259 31.8934L61.2439 50.0337L44.9998 58.1057V39.9593L61.2259 31.8934ZM80.774 22.1754V40.2016L66.8848 47.2623L66.8728 29.0859L80.774 22.1754ZM42.5268 20.0427L57.0467 27.3718L41.9821 34.9371L27.7365 27.7823L42.5268 20.0427ZM22.3299 9.84815L36.1789 16.8388L21.3547 24.5763L7.1311 17.4335L22.3299 9.84815ZM61.9187 9.95428L76.8351 17.4335L63.4947 24.1338L48.9447 16.7947L61.9187 9.95428ZM42.0702 0L55.4988 6.73231L42.6229 13.6068L28.7858 6.62818L42.0702 0Z" fill="#9A5CE4" fill-opacity="0.05"/>
<path d="M39.2567 39.9588L28.2992 34.45V58.2614C28.2992 58.2614 14.8987 29.7482 13.6571 27.187C13.4969 26.8566 12.8381 26.4942 12.6699 26.4061C10.2669 25.1445 3.22626 21.5781 3.22626 21.5781V63.646L12.9663 68.8525V46.8633C12.9663 46.8633 26.2246 72.3408 26.3588 72.6191C26.493 72.8974 27.8246 75.5828 29.2464 76.5259C31.1407 77.7795 39.2587 82.6615 39.2587 82.6615L39.2567 39.9588Z" fill="#9A5CE4" fill-opacity="0.05"/>
</svg>
