<svg width="100" height="101" viewBox="0 0 100 101" fill="none" xmlns="http://www.w3.org/2000/svg">
<path d="M70.0465 69.4225C70.5749 65.0228 70.4161 64.3809 73.6907 65.0909L74.5239 65.1655C77.0431 65.2789 80.3372 64.7602 82.3052 63.8621C86.4714 61.9298 88.9419 58.7005 84.8341 59.55C75.4642 61.4823 74.7833 58.3082 74.7833 58.3082C84.6817 43.6211 88.822 24.9786 85.2458 20.4168C75.5063 7.96679 58.6437 13.8546 58.3616 14.0102L58.2708 14.0264C56.4228 13.6374 54.3802 13.4104 52.0134 13.378C47.7726 13.3132 44.5564 14.4901 42.1118 16.3414C42.1118 16.3414 12.034 3.94973 13.4314 31.9266C13.7297 37.8792 21.9583 76.993 31.7822 65.159C35.3778 60.8339 38.8469 57.18 38.8469 57.18C40.5652 58.3245 42.6305 58.908 44.7931 58.6973L44.9617 58.5546C44.9118 59.1151 44.9346 59.6796 45.0297 60.2341C42.5008 63.0613 43.2465 63.5573 38.1887 64.5981C33.0726 65.6518 36.0813 67.529 38.0396 68.0218C40.4194 68.6184 45.9246 69.4614 49.6466 64.2544L49.4975 64.8477C50.4896 65.6421 50.4215 70.554 50.5674 74.062C50.7133 77.5701 50.9435 80.8479 51.66 82.777C52.3765 84.7061 53.2163 89.6829 59.8628 88.2887C65.4166 87.0989 69.6639 85.3838 70.053 69.4516" fill="#1F1740" fill-opacity="0.3"/>
<path d="M70.0465 69.4225C70.5749 65.0228 70.4161 64.3809 73.6907 65.0909L74.5239 65.1655C77.0431 65.2789 80.3372 64.7602 82.3052 63.8621C86.4714 61.9298 88.9419 58.7005 84.8341 59.55C75.4642 61.4823 74.7833 58.3082 74.7833 58.3082C84.6817 43.6211 88.822 24.9786 85.2458 20.4168C75.5063 7.96679 58.6437 13.8546 58.3616 14.0102L58.2708 14.0264C56.4228 13.6374 54.3802 13.4104 52.0134 13.378C47.7726 13.3132 44.5564 14.4901 42.1118 16.3414C42.1118 16.3414 12.034 3.94972 13.4314 31.9266C13.7297 37.8792 21.9583 76.993 31.7822 65.159C35.3778 60.8339 38.8469 57.18 38.8469 57.18C40.5652 58.3245 42.6305 58.908 44.7931 58.6973L44.9617 58.5547C44.9118 59.1151 44.9346 59.6796 45.0297 60.2341C42.5008 63.0613 43.2465 63.5573 38.1887 64.5981C33.0726 65.6518 36.0813 67.529 38.0396 68.0218C40.4194 68.6184 45.9246 69.4614 49.6466 64.2544L49.4975 64.8477C50.4896 65.6421 50.4215 70.554 50.5674 74.062C50.7133 77.5701 50.9435 80.8479 51.66 82.777C52.3765 84.7061 53.2163 89.6829 59.8628 88.2887C65.4166 87.0989 69.6639 85.3838 70.053 69.4516" stroke="#1F1740" stroke-opacity="0.3" stroke-width="5.3725"/>
<path d="M84.8049 59.5781C75.435 61.5104 74.7541 58.3363 74.7541 58.3363C84.6525 43.6492 88.7928 25.0066 85.2199 20.4448C75.4804 7.99485 58.6178 13.8859 58.3357 14.0383L58.2449 14.0545C56.1853 13.6412 54.0913 13.423 51.9907 13.4028C47.75 13.338 44.5337 14.5149 42.0891 16.3662C42.0891 16.3662 12.0081 3.97454 13.4087 31.9514C13.707 37.904 21.9357 77.0178 31.7595 65.1838C35.3778 60.8328 38.8469 57.1788 38.8469 57.1788C40.5653 58.3233 42.6305 58.9069 44.7931 58.6962L44.9617 58.5535C44.9121 59.1139 44.935 59.6784 45.0298 60.233C42.5009 63.0602 43.2466 63.5562 38.1887 64.597C33.0726 65.6507 36.0813 67.5279 38.0396 68.0207C40.4194 68.6173 45.9246 69.4602 49.6466 64.2533L49.4975 64.8466C50.4896 65.6409 51.1834 70.0114 51.0667 73.9734C50.95 77.9353 50.8722 80.6523 51.6503 82.7791C52.4284 84.906 53.2066 89.685 59.853 88.2909C65.4069 87.101 68.2827 84.0112 68.688 78.8691C68.9733 75.2119 69.6153 75.7501 69.6607 72.482L70.1794 70.9322C70.7727 65.9716 70.2767 64.3732 73.6972 65.1189L74.5304 65.1935C77.0496 65.307 80.3469 64.7882 82.2793 63.8902C86.4455 61.9578 88.9128 58.7286 84.8049 59.5781Z" fill="#9A5CE4" fill-opacity="0.05"/>
<path d="M50.0454 62.39C49.786 71.6172 50.1103 80.9094 51.0116 83.14C51.9129 85.3706 53.8485 89.7865 60.4982 88.3664C66.0521 87.1765 68.0752 84.8713 68.9506 79.7843L71.0029 63.5183M42.0761 16.1337C42.0761 16.1337 11.9756 3.82634 13.3763 31.8032C13.6745 37.7558 21.9032 76.8696 31.727 65.0356C35.3129 60.7138 38.5551 57.3322 38.5551 57.3322M58.3324 13.8868C57.2949 14.2111 75.0751 7.38626 85.1842 20.2999C88.7506 24.8617 84.6169 43.5042 74.7185 58.1913" stroke="#1F1740" stroke-opacity="0.3" stroke-width="1.79" stroke-linecap="round" stroke-linejoin="round"/>
<path d="M74.7217 58.1858C74.7217 58.1858 75.3701 61.3631 84.7725 59.4243C88.8803 58.5749 86.4066 61.8041 82.2436 63.7364C78.8263 65.3251 71.1618 65.7304 71.0353 63.5419C70.7111 57.8843 75.0686 59.6026 74.7541 58.1858C74.4688 56.9084 72.517 55.6569 71.2331 52.5314C70.1081 49.808 55.8003 28.8959 75.2016 31.9987C75.9148 31.8528 70.1437 13.5182 51.9875 13.2523C33.8312 12.9865 34.4051 35.5748 34.4051 35.5748" stroke="#1F1740" stroke-opacity="0.3" stroke-width="1.79" stroke-linecap="round" stroke-linejoin="bevel"/>
<path d="M44.9649 60.1235C42.436 62.9507 43.1817 63.4468 38.1239 64.4875C33.0077 65.5412 36.0165 67.4185 37.9748 67.9113C40.3545 68.5078 45.8598 69.3508 49.5818 64.1406C50.7165 62.5519 49.5753 60.023 48.019 59.3811C47.2669 59.0698 46.2618 58.6808 44.9714 60.1268L44.9649 60.1235Z" stroke="#1F1740" stroke-opacity="0.3" stroke-width="1.79" stroke-linejoin="round"/>
<path d="M44.7995 60.0753C44.5402 58.4121 45.3442 56.4376 46.2034 54.1227C47.4938 50.6535 50.4701 47.1844 48.0904 36.1707C46.3169 27.9679 34.4083 34.462 34.4083 35.5741C34.4083 36.6862 34.9465 41.2155 34.2138 46.4841C33.2509 53.364 38.5908 59.1805 44.7379 58.5872" stroke="#1F1740" stroke-opacity="0.3" stroke-width="1.79" stroke-linecap="round" stroke-linejoin="round"/>
<path d="M41.9659 35.4094C41.9107 35.7887 42.6629 36.8035 43.6388 36.9397C44.6147 37.0759 45.448 36.2848 45.5031 35.9022C45.5582 35.5196 44.806 35.1046 43.8301 34.9685C42.8542 34.8323 42.0145 35.0333 41.9659 35.4094Z" fill="#1F1740" fill-opacity="0.3" stroke="#1F1740" stroke-opacity="0.3" stroke-width="0.5975"/>
<path d="M71.6773 34.634C71.7292 35.0134 70.9802 36.0282 70.0043 36.1643C69.0284 36.3005 68.1887 35.5094 68.1401 35.1268C68.0914 34.7442 68.8371 34.3292 69.813 34.1931C70.7889 34.0569 71.6287 34.2579 71.6773 34.634Z" fill="#1F1740" fill-opacity="0.3" stroke="#1F1740" stroke-opacity="0.3" stroke-width="0.2975"/>
<path d="M75.1659 32.0039C75.328 34.9867 74.524 37.0131 74.4202 40.1872C74.2711 44.7976 76.6184 50.0759 73.0812 55.3606" stroke="#1F1740" stroke-opacity="0.3" stroke-width="1.79" stroke-linecap="round" stroke-linejoin="round"/>
</svg>
