<svg width="100" height="101" viewBox="0 0 100 101" fill="none" xmlns="http://www.w3.org/2000/svg">
<path d="M49.5057 8.5417C46.0833 8.5576 42.8149 8.84949 39.9391 9.35836C31.4674 10.855 29.9292 13.9877 29.9292 19.765V27.3949H49.9491V29.9382H29.9292H22.4159C16.5976 29.9382 11.5029 33.4354 9.90935 40.0881C8.0712 47.7138 7.98967 52.4723 9.90935 60.4347C11.3324 66.3615 14.7309 70.5846 20.5493 70.5846H27.4326V61.438C27.4326 54.8301 33.1498 49.0014 39.9391 49.0014H59.9357C65.502 49.0014 69.9456 44.4183 69.9456 38.8282V19.765C69.9456 14.3395 65.3686 10.2639 59.9357 9.35836C56.4965 8.78588 52.9282 8.5258 49.5057 8.5417ZM38.6791 14.6783C40.7471 14.6783 42.4358 16.3946 42.4358 18.505C42.4358 20.6078 40.7471 22.3083 38.6791 22.3083C36.6038 22.3083 34.9225 20.6078 34.9225 18.505C34.9225 16.3946 36.6038 14.6783 38.6791 14.6783Z" fill="#9A5CE4" fill-opacity="0.05"/>
<path d="M72.4423 29.9395V38.8294C72.4423 45.7216 66.599 51.5226 59.9357 51.5226H39.9392C34.4618 51.5226 29.9293 56.2105 29.9293 61.6959V80.7591C29.9293 86.1846 34.6471 89.3758 39.9392 90.9324C46.2764 92.7957 52.3534 93.1325 59.9357 90.9324C64.9758 89.4731 69.9456 86.5363 69.9456 80.7591V73.1291H49.9491V70.5858H69.9456H79.9556C85.7739 70.5858 87.9421 66.5274 89.9655 60.4359C92.0556 54.1648 91.9667 48.1341 89.9655 40.0894C88.5276 34.2972 85.7813 29.9395 79.9556 29.9395H72.4423ZM61.1957 78.2158C63.271 78.2158 64.9523 79.9162 64.9523 82.0191C64.9523 84.1294 63.271 85.8457 61.1957 85.8457C59.1278 85.8457 57.4391 84.1294 57.4391 82.0191C57.4391 79.9162 59.1278 78.2158 61.1957 78.2158Z" fill="#9A5CE4" fill-opacity="0.05"/>
</svg>
