<svg width="84" height="83" viewBox="0 0 84 83" fill="none" xmlns="http://www.w3.org/2000/svg">
<g clip-path="url(#clip0_745_4106)">
<path d="M0.744446 41.4185C0.744446 47.6483 6.82776 53.4639 16.4182 56.742C14.503 66.3833 16.0751 74.1545 21.3255 77.1824C26.7221 80.2949 34.7621 78.1405 42.3933 71.4697C49.8318 77.871 57.3495 80.3902 62.5953 77.3536C67.9871 74.2323 69.6267 65.9343 67.6587 55.9918C77.6478 52.6893 83.2354 47.7304 83.2354 41.4185C83.2354 35.3332 77.1411 30.0689 67.6797 26.8118C69.7985 16.4585 68.0033 8.876 62.5353 5.72297C57.2639 2.68309 49.6587 5.33261 42.1109 11.9013C34.2583 4.92928 26.7283 2.80079 21.2662 5.96257C15.9996 9.0112 14.4968 16.9238 16.4182 26.7434C7.15133 29.9742 0.744446 35.3579 0.744446 41.4185Z" fill="#9A5CE4" fill-opacity="0.05"/>
<path d="M65.6761 30.0459C64.8963 29.7784 64.11 29.5306 63.3177 29.3028C63.4491 28.7689 63.5706 28.2327 63.6821 27.6943C65.4673 19.0286 64.3001 12.0475 60.3142 9.74944C56.4926 7.5454 50.2423 9.84347 43.9298 15.3367C43.3077 15.8792 42.6995 16.4374 42.1057 17.0106C41.708 16.6295 41.3033 16.2557 40.8918 15.8895C34.2762 10.0153 27.6449 7.54022 23.6632 9.84509C19.8452 12.0553 18.7143 18.6184 20.3215 26.8309C20.4814 27.6442 20.6619 28.4533 20.8629 29.2574C19.9246 29.5239 19.0184 29.8079 18.1515 30.1101C10.3955 32.814 5.44208 37.0522 5.44208 41.448C5.44208 45.9883 10.7593 50.5423 18.8381 53.3034C19.4932 53.5262 20.1538 53.7327 20.8191 53.9226C20.603 54.7889 20.4111 55.6611 20.2436 56.5381C18.7114 64.6079 19.9081 71.0154 23.716 73.212C27.6491 75.4799 34.2502 73.1488 40.6782 67.5301C41.1862 67.0859 41.6962 66.6148 42.2069 66.121C42.8501 66.7416 43.5104 67.3441 44.1872 67.9279C50.4135 73.2856 56.5626 75.4491 60.3673 73.2467C64.2969 70.972 65.5736 64.0885 63.9156 55.7136C63.7891 55.0739 63.6416 54.4206 63.4763 53.7553C63.9399 53.6185 64.3948 53.4771 64.8386 53.33C73.2372 50.5475 78.7013 46.049 78.7013 41.448C78.7013 37.0363 73.5883 32.7696 65.6761 30.0459Z" fill="#1F1740" fill-opacity="0.1"/>
<path d="M63.8543 50.3602C63.4539 50.4929 63.0428 50.6209 62.6239 50.7451C61.6966 47.8099 60.4451 44.6887 58.9142 41.4643C60.3754 38.3162 61.5783 35.2351 62.4796 32.3188C63.2289 32.536 63.9564 32.7646 64.6574 33.0061C71.4368 35.3395 75.5719 38.7902 75.5719 41.4488C75.5719 44.2808 71.1054 47.9575 63.8543 50.3602ZM60.8455 56.3223C61.5786 60.0255 61.6833 63.3737 61.1976 65.9912C60.7612 68.343 59.8839 69.911 58.7991 70.539C56.4903 71.8754 51.5528 70.1382 46.2284 65.5564C45.6179 65.0311 45.0029 64.4702 44.3862 63.8769C46.4505 61.6191 48.5135 58.9942 50.5269 56.0795C54.0687 55.7653 57.4146 55.2514 60.449 54.5501C60.5981 55.1532 60.7311 55.7442 60.8455 56.3223ZM30.4176 70.3081C28.162 71.1047 26.3655 71.1274 25.2797 70.5014C22.9687 69.1688 22.0083 64.0235 23.3185 57.1225C23.4743 56.3069 23.6527 55.4958 23.8535 54.6902C26.8541 55.3539 30.1757 55.8314 33.7259 56.1193C35.7526 58.9715 37.8753 61.5931 40.0145 63.8889C39.5598 64.3287 39.0944 64.7572 38.6187 65.1741C35.7763 67.6589 32.928 69.4214 30.4179 70.3081H30.4176ZM19.8503 50.3427C16.2781 49.1217 13.328 47.535 11.3059 45.8037C9.48895 44.2474 8.57141 42.7025 8.57141 41.4488C8.57141 38.7814 12.5486 35.3787 19.1818 33.0661C20.0144 32.7771 20.8552 32.5125 21.7032 32.2727C22.6201 35.2546 23.8227 38.3723 25.2739 41.525C23.8039 44.7247 22.5841 47.892 21.6588 50.9088C21.0514 50.735 20.4484 50.5462 19.8503 50.3427ZM23.3927 26.2306C22.0158 19.1941 22.9301 13.8863 25.2311 12.5544C27.6822 11.1356 33.1015 13.1587 38.8136 18.2305C39.1786 18.5547 39.5453 18.8942 39.9127 19.2453C37.7845 21.5307 35.6813 24.1326 33.6721 26.9682C30.2266 27.2875 26.9284 27.8005 23.8963 28.4875C23.7095 27.7394 23.5416 26.9871 23.3927 26.2306ZM54.9934 34.0336C54.2772 32.7965 53.5345 31.575 52.7657 30.3699C55.1033 30.6649 57.3427 31.0572 59.4455 31.5374C58.8143 33.5609 58.0274 35.6767 57.1008 37.8457C56.4238 36.5611 55.7212 35.2901 54.9934 34.0336ZM42.1067 21.4818C43.5501 23.0455 44.9958 24.7917 46.4178 26.6861C43.5332 26.5498 40.6438 26.5492 37.7592 26.6842C39.1825 24.8073 40.6405 23.0636 42.1067 21.4818ZM29.1373 34.055C28.4186 35.3015 27.7291 36.5647 27.0694 37.8435C26.158 35.6819 25.3783 33.5566 24.7415 31.5043C26.8317 31.0365 29.0607 30.6542 31.3831 30.3641C30.6057 31.5766 29.8569 32.8072 29.1373 34.055ZM31.4499 52.7569C29.0507 52.4891 26.788 52.1263 24.6984 51.6714C25.3452 49.5828 26.1421 47.4118 27.073 45.2039C27.7355 46.4836 28.428 47.7475 29.1499 48.9946C29.8866 50.2668 30.6534 51.5212 31.4499 52.7569ZM42.1932 61.6369C40.7099 60.0362 39.2305 58.266 37.7855 56.3619C39.188 56.417 40.6182 56.4449 42.0716 56.4449C43.565 56.4449 45.0412 56.4115 46.494 56.3466C45.0674 58.2854 43.6269 60.0583 42.1932 61.6369ZM57.1306 45.0914C58.1098 47.3233 58.9352 49.4826 59.5908 51.5359C57.4665 52.0206 55.1733 52.4109 52.7569 52.7008C53.5313 51.4732 54.2811 50.2303 55.006 48.9729C55.7429 47.695 56.4513 46.4008 57.1306 45.0914ZM52.2949 47.4095C51.1852 49.3373 50.013 51.2285 48.7804 53.0801C46.6068 53.2354 44.3606 53.3155 42.0716 53.3155C39.7921 53.3155 37.5744 53.2445 35.4388 53.1061C34.1741 51.2588 32.9798 49.3643 31.8584 47.4267C30.7423 45.4994 29.6997 43.5304 28.733 41.524C29.6972 39.517 30.7366 37.5469 31.849 35.618V35.6187C32.961 33.6894 34.1459 31.803 35.4012 29.9636C37.5799 29.7989 39.8138 29.7127 42.072 29.7127C44.3402 29.7127 46.577 29.7996 48.7551 29.9656C49.9976 31.8021 51.1749 33.6819 52.2849 35.6015C53.4011 37.5261 54.4543 39.4865 55.4431 41.4796C54.4645 43.493 53.4142 45.4709 52.2949 47.4095ZM58.7511 12.4613C61.2041 13.8762 62.1583 19.5815 60.617 27.0635C60.5159 27.5509 60.4061 28.0365 60.2875 28.5199C57.2483 27.8186 53.9478 27.2966 50.4922 26.9724C48.4792 24.106 46.3935 21.4996 44.2997 19.2437C44.8483 18.7147 45.4101 18.1995 45.9843 17.6984C51.3929 12.9914 56.4478 11.133 58.7511 12.4613Z" fill="#9A5CE4" fill-opacity="0.05"/>
<path d="M42.0717 34.9062C45.6848 34.9062 48.6134 37.8352 48.6134 41.448C48.6134 45.0611 45.6848 47.9901 42.0717 47.9901C38.4589 47.9901 35.5299 45.0611 35.5299 41.448C35.5299 37.8352 38.4589 34.9062 42.0717 34.9062Z" fill="#1F1740" fill-opacity="0.1"/>
</g>
<defs>
<clipPath id="clip0_745_4106">
<rect width="83" height="83" fill="white" transform="translate(0.5)"/>
</clipPath>
</defs>
</svg>
