<svg width="100" height="101" viewBox="0 0 100 101" fill="none" xmlns="http://www.w3.org/2000/svg">
<path d="M76.7031 69.3516C88.9141 57.1485 90.9453 39.3829 81.2344 29.6797C71.5234 19.9766 53.7578 22.0079 41.5469 34.211C29.3359 46.4141 32.8672 69.7422 37.0156 73.8829C40.3672 77.2344 64.4922 81.5547 76.7031 69.3516Z" fill="#9A5CE4" fill-opacity="0.05"/>
<path d="M26.5938 51.7182C19.5078 44.6401 9.19532 43.4604 3.56251 49.0854C-2.0703 54.7182 -0.890615 65.0229 6.19532 72.101C13.2813 79.187 26.8203 77.1323 29.2266 74.7338C31.1719 72.7885 33.6875 58.7963 26.5938 51.7182Z" fill="#9A5CE4" fill-opacity="0.05"/>
<path d="M96.7344 67.4375C96.2812 67.4375 96.0547 67.1641 96.0547 66.6094C96.0547 66.1953 96.3281 65.2891 96.8672 63.9063C97.6562 61.8828 98.0547 60.4297 98.0547 59.5469C98.0547 59.0156 97.8984 58.5703 97.5859 58.2187C97.2734 57.8672 96.8828 57.6875 96.4141 57.6875C95.7266 57.6875 94.9375 58.0078 94.0469 58.6563C93.1562 59.3047 91.9609 60.4688 90.4531 62.1562C90.6719 61.0625 91.1406 59.5625 91.8438 57.6563L88.4766 58.3047C87.7109 59.9609 87.1562 61.4531 86.8125 62.7813C86.6406 63.4297 86.5156 64.1016 86.4297 64.7812C85.375 65.8047 84.6875 66.4219 84.3906 66.6484C84.0859 66.875 83.7656 66.9844 83.4375 66.9844C83.1328 66.9844 82.8906 66.8672 82.7109 66.6406C82.5312 66.4141 82.4453 66.1016 82.4453 65.7188C82.4453 65.3047 82.5234 64.8281 82.6797 64.2891C82.8359 63.75 83.1797 62.7344 83.7188 61.2422L85 57.7109L83.7422 57.7656C82.6016 59.9375 81.2656 61.1094 79.7344 61.2734C80.1484 60.1953 80.3594 59.3672 80.3594 58.7891C80.3594 58.0547 80 57.6875 79.2813 57.6875C78.4297 57.6875 77.7656 58.0859 77.2891 58.8906C76.8047 59.6953 76.5625 60.4531 76.5625 61.1641C76.5625 61.875 76.9609 62.375 77.75 62.7266C77.2344 63.4844 76.6562 64.1953 76.0312 64.8672C75.2891 65.6016 74.7109 66.1641 74.2891 66.5312C73.8594 66.9141 73.4609 67.1016 73.1016 67.1016C72.5391 67.1016 72.2578 66.7031 72.2578 65.9141C72.2578 65.125 72.5703 63.7656 73.1953 61.7344L74.4141 57.6875H73.6406L70.8203 59.25C70.3594 58.1953 69.5547 57.6641 68.4062 57.6641C67.4922 57.6641 66.4453 58.0547 65.2578 58.8281C64.0703 59.6016 63.0938 60.6094 62.3359 61.8672C61.75 62.8359 61.3906 63.8516 61.2578 64.8984C60.1953 65.9609 59.3984 66.6484 58.8672 66.9688C58.3125 67.2969 57.7344 67.4609 57.125 67.4609C55.5703 67.4609 54.6094 66.5625 54.2422 64.7656C58.2969 63.5781 60.3203 62.0313 60.3203 60.125C60.3203 59.4063 60.0625 58.8281 59.5469 58.3828C59.0312 57.9375 58.3437 57.7187 57.4922 57.7187C55.8437 57.7187 54.3438 58.5078 52.9922 60.0859C51.7656 61.5156 51.1016 63.1016 50.9844 64.8438C49.8672 65.9453 49.0234 66.6719 48.4766 67.0234C47.9141 67.3828 47.3828 67.5625 46.8906 67.5625C46.3984 67.5625 46.0078 67.3281 45.7187 66.8594C45.4219 66.3906 45.2734 65.7578 45.2734 64.9531C45.2734 64.5938 45.3125 63.9375 45.3828 62.9766C47.2266 60.9766 48.5781 59.1016 49.4453 57.3438C50.3125 55.5859 50.7422 53.7656 50.7422 51.8906C50.7422 51.2266 50.6563 50.7031 50.4844 50.3125C50.3125 49.9219 50.0937 49.7266 49.8281 49.7266C49.7734 49.7266 49.6875 49.7422 49.5781 49.7813L46.0703 51.0781C44.875 53.3594 43.8516 55.8516 43.0156 58.5625C42.1797 61.2656 41.7578 63.5859 41.7578 65.5156C41.7578 66.8047 42.0547 67.8281 42.6641 68.5938C43.2656 69.3594 44.0625 69.7422 45.0469 69.7422C45.9062 69.7422 46.8047 69.4688 47.75 68.9219C48.6953 68.375 49.7891 67.5234 51.0469 66.375C52.3047 65.2266 51.0469 66.3594 51.0469 66.3594C51.1953 67.2266 51.5547 67.9531 52.1172 68.5469C52.8906 69.3438 53.8984 69.75 55.1484 69.75C56.2734 69.75 57.2969 69.4766 58.2266 68.9297C59.125 68.4062 60.1328 67.5859 61.2578 66.5C61.3516 67.3125 61.6172 68.0156 62.0625 68.6172C62.6328 69.375 63.3203 69.7578 64.125 69.7578C64.9297 69.7578 65.7578 69.4453 66.5391 68.8203C67.3203 68.1953 68.1641 67.2188 69.0859 65.9063C69 68.4766 69.6875 69.7578 71.1406 69.7578C71.7187 69.7578 72.3281 69.5469 72.9609 69.125C73.5937 68.7031 74.6484 67.7891 76.125 66.3906C77.4062 65.125 78.3438 63.9375 78.9453 62.8281C79.7578 62.6875 80.5 62.4453 81.1797 62.0937C79.7891 64.2734 79.0937 66.0156 79.0937 67.3125C79.0937 68.0156 79.2891 68.6016 79.6719 69.0703C80.0547 69.5391 80.5312 69.7813 81.0938 69.7813C82.3203 69.7813 84.0625 68.6797 86.3125 66.5C86.3125 66.6719 86.2969 66.8359 86.2969 67.0078C86.2969 67.6172 86.3516 68.5391 86.4453 69.7813L89.5 69.0625C89.5 68.2344 89.5156 67.5781 89.5391 67.0859C89.5859 66.4297 89.6797 65.7109 89.8125 64.9297C89.8984 64.4688 90.1094 64.0313 90.4453 63.6172L91.2188 62.7188C91.5 62.3906 91.7734 62.0938 92.0156 61.8359C92.3047 61.5313 92.5625 61.2734 92.7891 61.0625C93.0469 60.8359 93.2734 60.6484 93.4688 60.5234C93.6797 60.3984 93.8516 60.3281 93.9766 60.3281C94.2031 60.3281 94.3203 60.4766 94.3203 60.7734C94.3203 61.0703 94.1016 61.7578 93.6719 62.8438C92.8594 64.8672 92.4531 66.375 92.4531 67.3594C92.4531 68.0859 92.6406 68.6641 93.0234 69.1016C93.3984 69.5312 93.8984 69.75 94.5156 69.75C96.0312 69.75 97.8594 68.625 99.9844 66.3828V64.7969C98.4766 66.5703 97.3906 67.4609 96.7188 67.4609L96.7344 67.4375ZM45.75 60.9609C46.375 57.9063 47.0156 55.5391 47.6641 53.8438C48.3125 52.1484 48.8125 51.2969 49.1484 51.2969C49.3047 51.2969 49.4375 51.3984 49.5391 51.6094C49.6406 51.8125 49.6875 52.0938 49.6875 52.4297C49.6875 53.5938 49.3281 54.9766 48.5938 56.5938C47.8672 58.2031 46.9141 59.6641 45.75 60.9609ZM54.9609 60.1953C55.5156 59.2656 56.0938 58.8047 56.7031 58.8047C57.3438 58.8047 57.6719 59.25 57.6719 60.1328C57.6719 61.9219 56.4922 63.1406 54.1328 63.8047C54.1328 62.3203 54.4062 61.1172 54.9609 60.1953ZM68.6172 64.7656C67.8047 66.3359 66.9297 67.1172 66.0156 67.1172C65.6406 67.1172 65.3281 66.9609 65.0859 66.6563C64.8437 66.3516 64.7187 65.9453 64.7187 65.4453C64.7187 64.1328 65.1328 62.6875 65.9531 61.125C66.7734 59.5625 67.6484 58.7812 68.5703 58.7812C68.9531 58.7812 69.2656 58.9219 69.4922 59.2188C69.7187 59.5078 69.8359 59.9141 69.8359 60.4297C69.8359 61.7578 69.4297 63.2031 68.6172 64.7734V64.7656Z" fill="#1F1740" fill-opacity="0.7"/>
<path d="M58.9531 51.1875C59.0703 51.3516 59.125 51.5625 59.125 51.8125C59.125 52.0625 59.0547 52.2891 58.9141 52.5C58.7734 52.7109 58.5703 52.8828 58.2969 53C58.0313 53.1172 57.7266 53.1797 57.3906 53.1797C56.8281 53.1797 56.4063 53.0625 56.1094 52.8281C55.8125 52.5938 55.625 52.25 55.5469 51.7891L56.2734 51.6719C56.3125 51.9609 56.4297 52.1875 56.6094 52.3359C56.7969 52.4922 57.0547 52.5703 57.3906 52.5703C57.7266 52.5703 57.9766 52.5 58.1406 52.3672C58.3047 52.2344 58.3828 52.0703 58.3828 51.8828C58.3828 51.7187 58.3125 51.5859 58.1641 51.4922C58.0625 51.4297 57.8125 51.3437 57.4141 51.2422C56.875 51.1094 56.5078 50.9922 56.2969 50.8906C56.0859 50.7891 55.9297 50.6563 55.8281 50.4766C55.7266 50.2969 55.6641 50.1094 55.6641 49.8984C55.6641 49.7031 55.7109 49.5313 55.7969 49.3672C55.8828 49.2031 56.0078 49.0703 56.1562 48.9609C56.2734 48.875 56.4219 48.8047 56.6172 48.75C56.8125 48.6953 57.0234 48.6641 57.25 48.6641C57.5859 48.6641 57.8828 48.7109 58.1406 48.8125C58.3984 48.9063 58.5859 49.0391 58.7109 49.2109C58.8359 49.375 58.9141 49.6016 58.9609 49.8828L58.2422 49.9766C58.2109 49.7578 58.1172 49.5781 57.9609 49.4531C57.8047 49.3281 57.5859 49.2656 57.2969 49.2656C56.9609 49.2656 56.7187 49.3203 56.5781 49.4297C56.4375 49.5391 56.3594 49.6719 56.3594 49.8203C56.3594 49.9141 56.3906 50 56.4453 50.0781C56.5078 50.1563 56.6016 50.2188 56.7266 50.2734C56.7969 50.2969 57.0156 50.3594 57.375 50.4609C57.8906 50.6016 58.25 50.7109 58.4609 50.7969C58.6641 50.8828 58.8281 51.0156 58.9453 51.1797L58.9531 51.1875ZM62.4453 52.3125C62.25 52.4922 62.0156 52.5781 61.7266 52.5781C61.3672 52.5781 61.0781 52.4453 60.8594 52.1875C60.6406 51.9297 60.5234 51.5 60.5234 50.9219C60.5234 50.3438 60.6406 49.9297 60.8672 49.6719C61.0938 49.4141 61.3984 49.2734 61.7656 49.2734C62.0078 49.2734 62.2188 49.3438 62.3906 49.4922C62.5625 49.6406 62.6797 49.8594 62.75 50.1484L63.4609 50.0391C63.375 49.6016 63.1875 49.2656 62.8906 49.0313C62.5938 48.7969 62.2109 48.6797 61.7422 48.6797C61.3672 48.6797 61.0313 48.7656 60.7109 48.9453C60.3984 49.1172 60.1562 49.3828 60.0078 49.7344C59.8516 50.0859 59.7734 50.4922 59.7734 50.9609C59.7734 51.6797 59.9531 52.2344 60.3125 52.6172C60.6719 53 61.1484 53.1953 61.7344 53.1953C62.2031 53.1953 62.6016 53.0547 62.9297 52.7734C63.25 52.4922 63.4531 52.1016 63.5313 51.6094L62.8125 51.5156C62.7578 51.8828 62.6406 52.1484 62.4453 52.3281V52.3125ZM64.1563 53.0781H64.8906V48.7656H64.1563V53.0781ZM64.1563 47.9609H64.8906V47.1172H64.1563V47.9609ZM69.4141 48.7578H68.4688L66.7344 50.5156V47.1172H66V53.0703H66.7344V51.3594L67.25 50.8672L68.6797 53.0703H69.5859L67.7656 50.3594L69.4141 48.7578ZM70.1641 47.9609H70.8984V47.1172H70.1641V47.9609ZM70.1641 53.0781H70.8984V48.7656H70.1641V53.0781ZM73.6094 52.4219C73.4766 52.4375 73.3672 52.4531 73.2891 52.4531C73.1797 52.4531 73.0938 52.4375 73.0391 52.3984C72.9844 52.3594 72.9375 52.3125 72.9141 52.2578C72.8906 52.1953 72.875 52.0625 72.875 51.8594V49.3359H73.6094V48.7656H72.875V47.2578L72.1484 47.6953V48.7656H71.6094V49.3359H72.1484V51.8203C72.1484 52.2578 72.1797 52.5469 72.2344 52.6797C72.2969 52.8203 72.3984 52.9297 72.5391 53.0078C72.6875 53.0938 72.8906 53.1328 73.1562 53.1328C73.3203 53.1328 73.5 53.1094 73.7109 53.0703L73.6016 52.4219H73.6094Z" fill="#1F1740" fill-opacity="0.7"/>
</svg>
