<svg width="84" height="83" viewBox="0 0 84 83" fill="none" xmlns="http://www.w3.org/2000/svg">
<path d="M36.4663 44.6812L47.6713 38.18L58.7375 44.6812L47.6713 51.045L36.4663 44.82V44.6812ZM2.85126 25.4538L47.6713 0L81.01 18.9512L69.9438 38.18L47.6726 25.4538L14.0576 44.5438L2.85126 25.4538Z" fill="#9747FF" fill-opacity="0.05"/>
<path d="M36.4662 70.1353V57.4091L47.5324 51.0453L58.7374 44.6816V57.4078L47.6712 63.7716V76.4978L36.4662 83.0003V70.1353ZM36.4662 44.6816L25.2612 38.3178L14.0562 44.5428V31.8166L47.6712 12.7266V38.1803L36.4662 44.6816ZM69.805 31.8166V25.4528L81.01 18.9516L81.1487 31.6778L69.9437 38.179L69.805 31.8166Z" fill="#9747FF" fill-opacity="0.05"/>
<path d="M25.2613 76.2216V38.3191L36.3275 32.0941L36.4663 44.6829L47.6713 50.9079V63.7729L36.4663 57.8241V83.0003L25.2613 76.2216ZM8.38502 41.2241L2.85126 37.9041V25.4541L14.0563 31.8179V44.5441L8.38502 41.2241ZM47.6713 25.4541V12.7266L69.805 25.4528L69.9438 38.179L47.6726 25.4528L47.6713 25.4541Z" fill="#9747FF" fill-opacity="0.05"/>
</svg>
