<svg width="32" height="33" viewBox="0 0 32 33" fill="none" xmlns="http://www.w3.org/2000/svg">
<path d="M32 16.5504C32 24.6314 26.0099 31.3121 18.2282 32.3962C17.5006 32.4971 16.7562 32.5498 16.0006 32.5498C15.1283 32.5498 14.2718 32.4803 13.4377 32.3458C5.81859 31.1193 0 24.5136 0 16.5504C0 7.71373 7.16393 0.549805 15.9994 0.549805C24.835 0.549805 32 7.71373 32 16.5504Z" fill="#1877F2"/>
<path d="M18.2282 13.3965V16.8821H22.54L21.8572 21.5773H18.2282V32.3949C17.5006 32.4958 16.7562 32.5485 16.0005 32.5485C15.1283 32.5485 14.2718 32.479 13.4377 32.3445V21.5773H9.46106V16.8821H13.4377V12.6173C13.4377 9.9715 15.5824 7.82568 18.2293 7.82568V7.82793C18.2372 7.82793 18.2439 7.82568 18.2517 7.82568H22.5411V11.8864H19.7383C18.9053 11.8864 18.2293 12.5624 18.2293 13.3954L18.2282 13.3965Z" fill="#FAFAFA"/>
<path d="M18.2282 13.3965V16.8821H22.54L21.8572 21.5773H18.2282V32.3949C17.5006 32.4958 16.7562 32.5485 16.0005 32.5485C15.1283 32.5485 14.2718 32.479 13.4377 32.3445V21.5773H9.46106V16.8821H13.4377V12.6173C13.4377 9.9715 15.5824 7.82568 18.2293 7.82568V7.82793C18.2372 7.82793 18.2439 7.82568 18.2517 7.82568H22.5411V11.8864H19.7383C18.9053 11.8864 18.2293 12.5624 18.2293 13.3954L18.2282 13.3965Z" fill="#674992" fill-opacity="0.01"/>
</svg>
