<svg width="32" height="33" viewBox="0 0 32 33" fill="none" xmlns="http://www.w3.org/2000/svg">
<path d="M16.0364 0.549805H15.9636C7.14713 0.549805 0 7.69694 0 16.5134V16.5862C0 25.4027 7.14713 32.5498 15.9636 32.5498H16.0364C24.8529 32.5498 32 25.4027 32 16.5862V16.5134C32 7.69694 24.8529 0.549805 16.0364 0.549805Z" fill="url(#paint0_linear_216_1643)"/>
<path d="M20.9513 7.06006H11.0496C8.31411 7.06006 6.0887 9.28547 6.0887 12.021V21.0796C6.0887 23.8151 8.31411 26.0405 11.0496 26.0405H20.9513C23.6868 26.0405 25.9123 23.8151 25.9123 21.0796V12.021C25.9123 9.28547 23.6868 7.06006 20.9513 7.06006ZM7.83876 12.021C7.83876 10.2508 9.27939 8.81012 11.0496 8.81012H20.9513C22.7216 8.81012 24.1622 10.2508 24.1622 12.021V21.0796C24.1622 22.8498 22.7216 24.2905 20.9513 24.2905H11.0496C9.27939 24.2905 7.83876 22.8498 7.83876 21.0796V12.021Z" fill="#FAFAFA"/>
<path d="M20.9513 7.06006H11.0496C8.31411 7.06006 6.0887 9.28547 6.0887 12.021V21.0796C6.0887 23.8151 8.31411 26.0405 11.0496 26.0405H20.9513C23.6868 26.0405 25.9123 23.8151 25.9123 21.0796V12.021C25.9123 9.28547 23.6868 7.06006 20.9513 7.06006ZM7.83876 12.021C7.83876 10.2508 9.27939 8.81012 11.0496 8.81012H20.9513C22.7216 8.81012 24.1622 10.2508 24.1622 12.021V21.0796C24.1622 22.8498 22.7216 24.2905 20.9513 24.2905H11.0496C9.27939 24.2905 7.83876 22.8498 7.83876 21.0796V12.021Z" fill="#674992" fill-opacity="0.01"/>
<path d="M16.0006 21.1636C18.5445 21.1636 20.6151 19.094 20.6151 16.5491C20.6151 14.0042 18.5456 11.9346 16.0006 11.9346C13.4557 11.9346 11.3861 14.0042 11.3861 16.5491C11.3861 19.094 13.4557 21.1636 16.0006 21.1636ZM16.0006 13.6858C17.5803 13.6858 18.8651 14.9706 18.8651 16.5502C18.8651 18.1299 17.5803 19.4147 16.0006 19.4147C14.421 19.4147 13.1362 18.1299 13.1362 16.5502C13.1362 14.9706 14.421 13.6858 16.0006 13.6858Z" fill="#FAFAFA"/>
<path d="M16.0006 21.1636C18.5445 21.1636 20.6151 19.094 20.6151 16.5491C20.6151 14.0042 18.5456 11.9346 16.0006 11.9346C13.4557 11.9346 11.3861 14.0042 11.3861 16.5491C11.3861 19.094 13.4557 21.1636 16.0006 21.1636ZM16.0006 13.6858C17.5803 13.6858 18.8651 14.9706 18.8651 16.5502C18.8651 18.1299 17.5803 19.4147 16.0006 19.4147C14.421 19.4147 13.1362 18.1299 13.1362 16.5502C13.1362 14.9706 14.421 13.6858 16.0006 13.6858Z" fill="#674992" fill-opacity="0.01"/>
<path d="M21.0422 12.6807C21.7272 12.6807 22.2855 12.1234 22.2855 11.437C22.2855 10.7507 21.7283 10.1934 21.0422 10.1934C20.3561 10.1934 19.7989 10.7507 19.7989 11.437C19.7989 12.1234 20.3561 12.6807 21.0422 12.6807Z" fill="#FAFAFA"/>
<path d="M21.0422 12.6807C21.7272 12.6807 22.2855 12.1234 22.2855 11.437C22.2855 10.7507 21.7283 10.1934 21.0422 10.1934C20.3561 10.1934 19.7989 10.7507 19.7989 11.437C19.7989 12.1234 20.3561 12.6807 21.0422 12.6807Z" fill="#674992" fill-opacity="0.01"/>
<defs>
<linearGradient id="paint0_linear_216_1643" x1="4.67505" y1="27.8748" x2="27.3249" y2="5.22598" gradientUnits="userSpaceOnUse">
<stop stop-color="#FAAD4F"/>
<stop offset="0.35" stop-color="#DD2A7B"/>
<stop offset="0.62" stop-color="#9537B0"/>
<stop offset="1" stop-color="#515BD4"/>
</linearGradient>
</defs>
</svg>
