<svg width="32" height="33" viewBox="0 0 32 33" fill="none" xmlns="http://www.w3.org/2000/svg">
<path d="M16.0364 0.549805H15.9636C7.14714 0.549805 0 7.69694 0 16.5134V16.5862C0 25.4027 7.14714 32.5498 15.9636 32.5498H16.0364C24.8529 32.5498 32 25.4027 32 16.5862V16.5134C32 7.69694 24.8529 0.549805 16.0364 0.549805Z" fill="#007EBB"/>
<path d="M7.63142 11.1869C7.20988 10.7956 7.00024 10.3113 7.00024 9.73507C7.00024 9.15882 7.211 8.65319 7.63142 8.2608C8.05296 7.86953 8.59558 7.67334 9.2604 7.67334C9.92522 7.67334 10.4466 7.86953 10.867 8.2608C11.2885 8.65207 11.4981 9.14424 11.4981 9.73507C11.4981 10.3259 11.2874 10.7956 10.867 11.1869C10.4454 11.5782 9.91065 11.7744 9.2604 11.7744C8.61016 11.7744 8.05296 11.5782 7.63142 11.1869ZM11.1439 13.4314V25.4273H7.35338V13.4314H11.1439Z" fill="#FEFFFC"/>
<path d="M23.762 14.6163C24.5882 15.5132 25.0008 16.7442 25.0008 18.3115V25.2154H21.4009V18.7981C21.4009 18.0077 21.1958 17.3933 20.7865 16.9561C20.3773 16.5189 19.8258 16.2991 19.1351 16.2991C18.4445 16.2991 17.8929 16.5177 17.4837 16.9561C17.0745 17.3933 16.8693 18.0077 16.8693 18.7981V25.2154H13.2482V13.3977H16.8693V14.965C17.236 14.4426 17.7304 14.03 18.3515 13.7262C18.9726 13.4223 19.671 13.271 20.448 13.271C21.8314 13.271 22.9368 13.7194 23.762 14.6163Z" fill="#FEFFFC"/>
</svg>
