<svg width="20" height="21" viewBox="0 0 20 21" fill="none" xmlns="http://www.w3.org/2000/svg">
<path d="M18.3334 9.29964V13.4663C18.3334 16.383 16.6667 17.633 14.1667 17.633H5.83335C3.33335 17.633 1.66669 16.383 1.66669 13.4663V7.63298C1.66669 4.71631 3.33335 3.46631 5.83335 3.46631H11.6667" stroke="#FAFAFA" stroke-width="1.5" stroke-miterlimit="10" stroke-linecap="round" stroke-linejoin="round"/>
<path d="M18.3334 9.29964V13.4663C18.3334 16.383 16.6667 17.633 14.1667 17.633H5.83335C3.33335 17.633 1.66669 16.383 1.66669 13.4663V7.63298C1.66669 4.71631 3.33335 3.46631 5.83335 3.46631H11.6667" stroke="#674992" stroke-opacity="0.01" stroke-width="1.5" stroke-miterlimit="10" stroke-linecap="round" stroke-linejoin="round"/>
<path d="M5.83331 8.0498L8.44165 10.1331C9.29998 10.8165 10.7083 10.8165 11.5667 10.1331L12.55 9.3498" stroke="#FAFAFA" stroke-width="1.5" stroke-miterlimit="10" stroke-linecap="round" stroke-linejoin="round"/>
<path d="M5.83331 8.0498L8.44165 10.1331C9.29998 10.8165 10.7083 10.8165 11.5667 10.1331L12.55 9.3498" stroke="#674992" stroke-opacity="0.01" stroke-width="1.5" stroke-miterlimit="10" stroke-linecap="round" stroke-linejoin="round"/>
<path d="M16.25 7.21647C17.4006 7.21647 18.3334 6.28373 18.3334 5.13314C18.3334 3.98254 17.4006 3.0498 16.25 3.0498C15.0994 3.0498 14.1667 3.98254 14.1667 5.13314C14.1667 6.28373 15.0994 7.21647 16.25 7.21647Z" stroke="#DFDFEC" stroke-width="1.5" stroke-miterlimit="10" stroke-linecap="round" stroke-linejoin="round"/>
</svg>
