<svg width="32" height="33" viewBox="0 0 32 33" fill="none" xmlns="http://www.w3.org/2000/svg">
<path d="M31.9978 16.5504C31.9978 24.6314 26.0078 31.3121 18.2265 32.3962C17.4989 32.4971 16.7545 32.5498 15.9989 32.5498C15.1267 32.5498 14.2702 32.4803 13.4361 32.3458C5.81838 31.1193 0 24.5136 0 16.5504C0 7.71373 7.16368 0.549805 16 0.549805C24.8363 0.549805 32 7.71373 32 16.5504H31.9978Z" fill="#1C1C1B"/>
<path d="M6.48884 7.60596L13.8678 17.4718L6.44287 25.4934H8.1144L14.6155 18.4707L19.8678 25.4934H25.555L17.7613 15.0726L24.6727 7.60596H23.0012L17.0146 14.0737L12.1772 7.60596H6.48995H6.48884ZM8.94623 8.83694H11.5583L23.0953 24.2624H20.4832L8.94623 8.83694Z" fill="#FAFAFA"/>
<path d="M6.48884 7.60596L13.8678 17.4718L6.44287 25.4934H8.1144L14.6155 18.4707L19.8678 25.4934H25.555L17.7613 15.0726L24.6727 7.60596H23.0012L17.0146 14.0737L12.1772 7.60596H6.48995H6.48884ZM8.94623 8.83694H11.5583L23.0953 24.2624H20.4832L8.94623 8.83694Z" fill="#674992" fill-opacity="0.01"/>
</svg>
