<svg width="56" height="56" viewBox="0 0 56 56" fill="none" xmlns="http://www.w3.org/2000/svg">
<path d="M27.9998 51.3334C40.8865 51.3334 51.3332 40.8867 51.3332 28.0001C51.3332 15.1134 40.8865 4.66675 27.9998 4.66675C15.1132 4.66675 4.6665 15.1134 4.6665 28.0001C4.6665 40.8867 15.1132 51.3334 27.9998 51.3334Z" stroke="#FAFAFA" stroke-width="3" stroke-linecap="round" stroke-linejoin="round"/>
<path d="M27.9998 51.3334C40.8865 51.3334 51.3332 40.8867 51.3332 28.0001C51.3332 15.1134 40.8865 4.66675 27.9998 4.66675C15.1132 4.66675 4.6665 15.1134 4.6665 28.0001C4.6665 40.8867 15.1132 51.3334 27.9998 51.3334Z" stroke="#674992" stroke-opacity="0.01" stroke-width="3" stroke-linecap="round" stroke-linejoin="round"/>
<path d="M18.6666 7H20.9999C16.4499 20.6267 16.4499 35.3733 20.9999 49H18.6666" stroke="#FAFAFA" stroke-width="3" stroke-linecap="round" stroke-linejoin="round"/>
<path d="M18.6666 7H20.9999C16.4499 20.6267 16.4499 35.3733 20.9999 49H18.6666" stroke="#674992" stroke-opacity="0.01" stroke-width="3" stroke-linecap="round" stroke-linejoin="round"/>
<path d="M35 7C39.55 20.6267 39.55 35.3733 35 49" stroke="#FAFAFA" stroke-width="3" stroke-linecap="round" stroke-linejoin="round"/>
<path d="M35 7C39.55 20.6267 39.55 35.3733 35 49" stroke="#674992" stroke-opacity="0.01" stroke-width="3" stroke-linecap="round" stroke-linejoin="round"/>
<path d="M7 37.3333V35C20.6267 39.55 35.3733 39.55 49 35V37.3333" stroke="#FAFAFA" stroke-width="3" stroke-linecap="round" stroke-linejoin="round"/>
<path d="M7 37.3333V35C20.6267 39.55 35.3733 39.55 49 35V37.3333" stroke="#674992" stroke-opacity="0.01" stroke-width="3" stroke-linecap="round" stroke-linejoin="round"/>
<path d="M7 20.9999C20.6267 16.4499 35.3733 16.4499 49 20.9999" stroke="#FAFAFA" stroke-width="3" stroke-linecap="round" stroke-linejoin="round"/>
<path d="M7 20.9999C20.6267 16.4499 35.3733 16.4499 49 20.9999" stroke="#674992" stroke-opacity="0.01" stroke-width="3" stroke-linecap="round" stroke-linejoin="round"/>
</svg>
