<svg width="56" height="56" viewBox="0 0 56 56" fill="none" xmlns="http://www.w3.org/2000/svg">
<path d="M28 18.4099L25.5034 22.7499C24.9434 23.7066 25.41 24.4999 26.5067 24.4999H29.47C30.59 24.4999 31.0334 25.2932 30.4734 26.2499L28 30.5899" stroke="#FAFAFA" stroke-width="3" stroke-linecap="round" stroke-linejoin="round"/>
<path d="M28 18.4099L25.5034 22.7499C24.9434 23.7066 25.41 24.4999 26.5067 24.4999H29.47C30.59 24.4999 31.0334 25.2932 30.4734 26.2499L28 30.5899" stroke="#674992" stroke-opacity="0.01" stroke-width="3" stroke-linecap="round" stroke-linejoin="round"/>
<path d="M19.3667 42.0934V39.3868C14 36.1434 9.59003 29.8201 9.59003 23.1001C9.59003 11.5501 20.2067 2.49675 32.2 5.11008C37.4734 6.27675 42.0934 9.77675 44.4967 14.6068C49.3734 24.4068 44.24 34.8134 36.7034 39.3634V42.0701C36.7034 42.7468 36.96 44.3101 34.4634 44.3101H21.6067C19.04 44.3334 19.3667 43.3301 19.3667 42.0934Z" stroke="#FAFAFA" stroke-width="3" stroke-linecap="round" stroke-linejoin="round"/>
<path d="M19.3667 42.0934V39.3868C14 36.1434 9.59003 29.8201 9.59003 23.1001C9.59003 11.5501 20.2067 2.49675 32.2 5.11008C37.4734 6.27675 42.0934 9.77675 44.4967 14.6068C49.3734 24.4068 44.24 34.8134 36.7034 39.3634V42.0701C36.7034 42.7468 36.96 44.3101 34.4634 44.3101H21.6067C19.04 44.3334 19.3667 43.3301 19.3667 42.0934Z" stroke="#674992" stroke-opacity="0.01" stroke-width="3" stroke-linecap="round" stroke-linejoin="round"/>
<path d="M19.8333 51.3333C25.1766 49.8166 30.8233 49.8166 36.1666 51.3333" stroke="#FAFAFA" stroke-width="3" stroke-linecap="round" stroke-linejoin="round"/>
<path d="M19.8333 51.3333C25.1766 49.8166 30.8233 49.8166 36.1666 51.3333" stroke="#674992" stroke-opacity="0.01" stroke-width="3" stroke-linecap="round" stroke-linejoin="round"/>
</svg>
