<svg width="56" height="56" viewBox="0 0 56 56" fill="none" xmlns="http://www.w3.org/2000/svg">
<path d="M15.0267 4.66663H40.95C49.2567 4.66663 51.3333 6.74329 51.3333 15.0266V29.7966C51.3333 38.1033 49.2567 40.1566 40.9733 40.1566H15.0267C6.74332 40.18 4.66666 38.1033 4.66666 29.82V15.0266C4.66666 6.74329 6.74332 4.66663 15.0267 4.66663Z" stroke="#FAFAFA" stroke-width="3" stroke-linecap="round" stroke-linejoin="round"/>
<path d="M15.0267 4.66663H40.95C49.2567 4.66663 51.3333 6.74329 51.3333 15.0266V29.7966C51.3333 38.1033 49.2567 40.1566 40.9733 40.1566H15.0267C6.74332 40.18 4.66666 38.1033 4.66666 29.82V15.0266C4.66666 6.74329 6.74332 4.66663 15.0267 4.66663Z" stroke="#674992" stroke-opacity="0.01" stroke-width="3" stroke-linecap="round" stroke-linejoin="round"/>
<path d="M28 40.1801V51.3334" stroke="#FAFAFA" stroke-width="3" stroke-linecap="round" stroke-linejoin="round"/>
<path d="M28 40.1801V51.3334" stroke="#674992" stroke-opacity="0.01" stroke-width="3" stroke-linecap="round" stroke-linejoin="round"/>
<path d="M4.66666 30.3334H51.3333" stroke="#FAFAFA" stroke-width="3" stroke-linecap="round" stroke-linejoin="round"/>
<path d="M4.66666 30.3334H51.3333" stroke="#674992" stroke-opacity="0.01" stroke-width="3" stroke-linecap="round" stroke-linejoin="round"/>
<path d="M17.5 51.3334H38.5" stroke="#FAFAFA" stroke-width="3" stroke-linecap="round" stroke-linejoin="round"/>
<path d="M17.5 51.3334H38.5" stroke="#674992" stroke-opacity="0.01" stroke-width="3" stroke-linecap="round" stroke-linejoin="round"/>
</svg>
