<svg width="56" height="56" viewBox="0 0 56 56" fill="none" xmlns="http://www.w3.org/2000/svg">
<path d="M42 16.7068C41.86 16.6834 41.6967 16.6834 41.5567 16.7068C38.3367 16.5901 35.77 13.9534 35.77 10.6868C35.77 7.35009 38.4533 4.66675 41.79 4.66675C45.1267 4.66675 47.81 7.37342 47.81 10.6868C47.7867 13.9534 45.22 16.5901 42 16.7068Z" stroke="#FAFAFA" stroke-width="3" stroke-linecap="round" stroke-linejoin="round"/>
<path d="M42 16.7068C41.86 16.6834 41.6967 16.6834 41.5567 16.7068C38.3367 16.5901 35.77 13.9534 35.77 10.6868C35.77 7.35009 38.4533 4.66675 41.79 4.66675C45.1267 4.66675 47.81 7.37342 47.81 10.6868C47.7867 13.9534 45.22 16.5901 42 16.7068Z" stroke="#674992" stroke-opacity="0.01" stroke-width="3" stroke-linecap="round" stroke-linejoin="round"/>
<path d="M39.5967 33.6935C42.7933 34.2302 46.3167 33.6702 48.79 32.0135C52.08 29.8202 52.08 26.2269 48.79 24.0335C46.2933 22.3769 42.7233 21.8169 39.5267 22.3769" stroke="#FAFAFA" stroke-width="3" stroke-linecap="round" stroke-linejoin="round"/>
<path d="M39.5967 33.6935C42.7933 34.2302 46.3167 33.6702 48.79 32.0135C52.08 29.8202 52.08 26.2269 48.79 24.0335C46.2933 22.3769 42.7233 21.8169 39.5267 22.3769" stroke="#674992" stroke-opacity="0.01" stroke-width="3" stroke-linecap="round" stroke-linejoin="round"/>
<path d="M13.93 16.7068C14.07 16.6834 14.2333 16.6834 14.3733 16.7068C17.5933 16.5901 20.16 13.9534 20.16 10.6868C20.16 7.35009 17.4767 4.66675 14.14 4.66675C10.8033 4.66675 8.12 7.37342 8.12 10.6868C8.14333 13.9534 10.71 16.5901 13.93 16.7068Z" stroke="#FAFAFA" stroke-width="3" stroke-linecap="round" stroke-linejoin="round"/>
<path d="M13.93 16.7068C14.07 16.6834 14.2333 16.6834 14.3733 16.7068C17.5933 16.5901 20.16 13.9534 20.16 10.6868C20.16 7.35009 17.4767 4.66675 14.14 4.66675C10.8033 4.66675 8.12 7.37342 8.12 10.6868C8.14333 13.9534 10.71 16.5901 13.93 16.7068Z" stroke="#674992" stroke-opacity="0.01" stroke-width="3" stroke-linecap="round" stroke-linejoin="round"/>
<path d="M16.3333 33.6935C13.1367 34.2302 9.61335 33.6702 7.14002 32.0135C3.85002 29.8202 3.85002 26.2269 7.14002 24.0335C9.63668 22.3769 13.2067 21.8169 16.4033 22.3769" stroke="#FAFAFA" stroke-width="3" stroke-linecap="round" stroke-linejoin="round"/>
<path d="M16.3333 33.6935C13.1367 34.2302 9.61335 33.6702 7.14002 32.0135C3.85002 29.8202 3.85002 26.2269 7.14002 24.0335C9.63668 22.3769 13.2067 21.8169 16.4033 22.3769" stroke="#674992" stroke-opacity="0.01" stroke-width="3" stroke-linecap="round" stroke-linejoin="round"/>
<path d="M28 34.1367C27.86 34.1134 27.6967 34.1134 27.5567 34.1367C24.3367 34.02 21.77 31.3833 21.77 28.1167C21.77 24.78 24.4533 22.0967 27.79 22.0967C31.1267 22.0967 33.81 24.8034 33.81 28.1167C33.7867 31.3833 31.22 34.0434 28 34.1367Z" stroke="#FAFAFA" stroke-width="3" stroke-linecap="round" stroke-linejoin="round"/>
<path d="M28 34.1367C27.86 34.1134 27.6967 34.1134 27.5567 34.1367C24.3367 34.02 21.77 31.3833 21.77 28.1167C21.77 24.78 24.4533 22.0967 27.79 22.0967C31.1267 22.0967 33.81 24.8034 33.81 28.1167C33.7867 31.3833 31.22 34.0434 28 34.1367Z" stroke="#674992" stroke-opacity="0.01" stroke-width="3" stroke-linecap="round" stroke-linejoin="round"/>
<path d="M21.21 41.4866C17.92 43.6799 17.92 47.2733 21.21 49.4666C24.9433 51.9633 31.0567 51.9633 34.79 49.4666C38.08 47.2733 38.08 43.6799 34.79 41.4866C31.08 39.0133 24.9433 39.0133 21.21 41.4866Z" stroke="#FAFAFA" stroke-width="3" stroke-linecap="round" stroke-linejoin="round"/>
<path d="M21.21 41.4866C17.92 43.6799 17.92 47.2733 21.21 49.4666C24.9433 51.9633 31.0567 51.9633 34.79 49.4666C38.08 47.2733 38.08 43.6799 34.79 41.4866C31.08 39.0133 24.9433 39.0133 21.21 41.4866Z" stroke="#674992" stroke-opacity="0.01" stroke-width="3" stroke-linecap="round" stroke-linejoin="round"/>
</svg>
