<svg width="56" height="56" viewBox="0 0 56 56" fill="none" xmlns="http://www.w3.org/2000/svg">
<path d="M13.7666 39.6667H42.2099C46.6432 39.6667 48.9766 37.3334 48.9766 32.9001V4.66675H6.97656V32.9001C6.9999 37.3334 9.33324 39.6667 13.7666 39.6667Z" stroke="#FAFAFA" stroke-width="3" stroke-miterlimit="10" stroke-linecap="round" stroke-linejoin="round"/>
<path d="M13.7666 39.6667H42.2099C46.6432 39.6667 48.9766 37.3334 48.9766 32.9001V4.66675H6.97656V32.9001C6.9999 37.3334 9.33324 39.6667 13.7666 39.6667Z" stroke="#674992" stroke-opacity="0.01" stroke-width="3" stroke-miterlimit="10" stroke-linecap="round" stroke-linejoin="round"/>
<path d="M4.6665 4.66675H51.3332" stroke="#FAFAFA" stroke-width="3" stroke-miterlimit="10" stroke-linecap="round" stroke-linejoin="round"/>
<path d="M4.6665 4.66675H51.3332" stroke="#674992" stroke-opacity="0.01" stroke-width="3" stroke-miterlimit="10" stroke-linecap="round" stroke-linejoin="round"/>
<path d="M18.6665 51.3334L27.9998 46.6667V39.6667" stroke="#FAFAFA" stroke-width="3" stroke-miterlimit="10" stroke-linecap="round" stroke-linejoin="round"/>
<path d="M18.6665 51.3334L27.9998 46.6667V39.6667" stroke="#674992" stroke-opacity="0.01" stroke-width="3" stroke-miterlimit="10" stroke-linecap="round" stroke-linejoin="round"/>
<path d="M37.3333 51.3334L28 46.6667" stroke="#FAFAFA" stroke-width="3" stroke-miterlimit="10" stroke-linecap="round" stroke-linejoin="round"/>
<path d="M37.3333 51.3334L28 46.6667" stroke="#674992" stroke-opacity="0.01" stroke-width="3" stroke-miterlimit="10" stroke-linecap="round" stroke-linejoin="round"/>
<path d="M17.5 25.6667L24.85 19.5301C25.4333 19.0401 26.2033 19.1801 26.6 19.8334L29.4 24.5001C29.7967 25.1534 30.5667 25.2701 31.15 24.8034L38.5 18.6667" stroke="#FAFAFA" stroke-width="3" stroke-miterlimit="10" stroke-linecap="round" stroke-linejoin="round"/>
<path d="M17.5 25.6667L24.85 19.5301C25.4333 19.0401 26.2033 19.1801 26.6 19.8334L29.4 24.5001C29.7967 25.1534 30.5667 25.2701 31.15 24.8034L38.5 18.6667" stroke="#674992" stroke-opacity="0.01" stroke-width="3" stroke-miterlimit="10" stroke-linecap="round" stroke-linejoin="round"/>
</svg>
