<svg width="56" height="56" viewBox="0 0 56 56" fill="none" xmlns="http://www.w3.org/2000/svg">
<path d="M7 21.2567V34.72C7 39.6667 7 39.6667 11.6667 42.8167L24.5 50.2367C26.4367 51.3567 29.5867 51.3567 31.5 50.2367L44.3333 42.8167C49 39.6667 49 39.6667 49 34.7433V21.2567C49 16.3333 49 16.3333 44.3333 13.1833L31.5 5.76334C29.5867 4.64334 26.4367 4.64334 24.5 5.76334L11.6667 13.1833C7 16.3333 7 16.3333 7 21.2567Z" stroke="#FAFAFA" stroke-width="3" stroke-linecap="round" stroke-linejoin="round"/>
<path d="M7 21.2567V34.72C7 39.6667 7 39.6667 11.6667 42.8167L24.5 50.2367C26.4367 51.3567 29.5867 51.3567 31.5 50.2367L44.3333 42.8167C49 39.6667 49 39.6667 49 34.7433V21.2567C49 16.3333 49 16.3333 44.3333 13.1833L31.5 5.76334C29.5867 4.64334 26.4367 4.64334 24.5 5.76334L11.6667 13.1833C7 16.3333 7 16.3333 7 21.2567Z" stroke="#674992" stroke-opacity="0.01" stroke-width="3" stroke-linecap="round" stroke-linejoin="round"/>
<path d="M28 35C31.866 35 35 31.866 35 28C35 24.134 31.866 21 28 21C24.134 21 21 24.134 21 28C21 31.866 24.134 35 28 35Z" stroke="#FAFAFA" stroke-width="3" stroke-linecap="round" stroke-linejoin="round"/>
<path d="M28 35C31.866 35 35 31.866 35 28C35 24.134 31.866 21 28 21C24.134 21 21 24.134 21 28C21 31.866 24.134 35 28 35Z" stroke="#674992" stroke-opacity="0.01" stroke-width="3" stroke-linecap="round" stroke-linejoin="round"/>
</svg>
