<svg width="56" height="56" viewBox="0 0 56 56" fill="none" xmlns="http://www.w3.org/2000/svg">
<path d="M16.0533 42.35V37.52" stroke="#FAFAFA" stroke-width="3" stroke-linecap="round"/>
<path d="M16.0533 42.35V37.52" stroke="#674992" stroke-opacity="0.01" stroke-width="3" stroke-linecap="round"/>
<path d="M28 42.3499V32.6899" stroke="#FAFAFA" stroke-width="3" stroke-linecap="round"/>
<path d="M28 42.3499V32.6899" stroke="#674992" stroke-opacity="0.01" stroke-width="3" stroke-linecap="round"/>
<path d="M39.9467 42.35V27.8367" stroke="#FAFAFA" stroke-width="3" stroke-linecap="round"/>
<path d="M39.9467 42.35V27.8367" stroke="#674992" stroke-opacity="0.01" stroke-width="3" stroke-linecap="round"/>
<path d="M39.9467 13.65L38.8733 14.91C32.9233 21.8634 24.9433 26.7867 16.0533 29.0034" stroke="#FAFAFA" stroke-width="3" stroke-linecap="round"/>
<path d="M39.9467 13.65L38.8733 14.91C32.9233 21.8634 24.9433 26.7867 16.0533 29.0034" stroke="#674992" stroke-opacity="0.01" stroke-width="3" stroke-linecap="round"/>
<path d="M33.11 13.65H39.9467V20.4634" stroke="#FAFAFA" stroke-width="3" stroke-linecap="round" stroke-linejoin="round"/>
<path d="M33.11 13.65H39.9467V20.4634" stroke="#674992" stroke-opacity="0.01" stroke-width="3" stroke-linecap="round" stroke-linejoin="round"/>
<path d="M21 51.3333H35C46.6667 51.3333 51.3333 46.6666 51.3333 35V21C51.3333 9.33329 46.6667 4.66663 35 4.66663H21C9.33332 4.66663 4.66666 9.33329 4.66666 21V35C4.66666 46.6666 9.33332 51.3333 21 51.3333Z" stroke="#FAFAFA" stroke-width="3" stroke-linecap="round" stroke-linejoin="round"/>
<path d="M21 51.3333H35C46.6667 51.3333 51.3333 46.6666 51.3333 35V21C51.3333 9.33329 46.6667 4.66663 35 4.66663H21C9.33332 4.66663 4.66666 9.33329 4.66666 21V35C4.66666 46.6666 9.33332 51.3333 21 51.3333Z" stroke="#674992" stroke-opacity="0.01" stroke-width="3" stroke-linecap="round" stroke-linejoin="round"/>
</svg>
