<svg width="220" height="80" viewBox="0 0 220 80" fill="none" xmlns="http://www.w3.org/2000/svg">
<g clip-path="url(#clip0_200_1164)">
<path d="M27.5087 42.3484C30.3582 42.3484 32.8912 40.4486 33.8411 37.7574C34.3952 36.0951 34.2369 34.2745 33.4453 32.6122C32.6538 31.0291 31.3081 29.8418 29.5667 29.2877L24.6591 27.7046C23.7884 28.8128 23.1551 29.9209 22.5219 31.1874L28.3794 33.0872C29.8042 33.5621 30.5166 35.0661 30.1208 36.4909C29.8042 37.599 28.7752 38.3906 27.5878 38.3906C27.3504 38.3906 27.0337 38.3114 26.7171 38.2323L20.8596 36.3325C20.7013 37.5199 20.543 38.6281 20.543 39.8946C20.543 40.0529 20.543 40.2903 20.543 40.4486L25.4506 42.0318C26.163 42.2692 26.7963 42.3484 27.5087 42.3484Z" fill="#FAFAFA"/>
<path d="M27.5087 42.3484C30.3582 42.3484 32.8912 40.4486 33.8411 37.7574C34.3952 36.0951 34.2369 34.2745 33.4453 32.6122C32.6538 31.0291 31.3081 29.8418 29.5667 29.2877L24.6591 27.7046C23.7884 28.8128 23.1551 29.9209 22.5219 31.1874L28.3794 33.0872C29.8042 33.5621 30.5166 35.0661 30.1208 36.4909C29.8042 37.599 28.7752 38.3906 27.5878 38.3906C27.3504 38.3906 27.0337 38.3114 26.7171 38.2323L20.8596 36.3325C20.7013 37.5199 20.543 38.6281 20.543 39.8946C20.543 40.0529 20.543 40.2903 20.543 40.4486L25.4506 42.0318C26.163 42.2692 26.7963 42.3484 27.5087 42.3484Z" fill="#674992" fill-opacity="0.01"/>
<path d="M53.4723 46.8596C52.2058 45.1182 50.227 44.0891 48.0898 44.0891C46.6649 44.0891 45.3193 44.5641 44.2111 45.3556C42.7863 46.3847 41.8364 47.9678 41.5198 49.7092C41.2032 51.4506 41.6781 53.2712 42.7072 54.696L45.7151 58.8913C47.0607 58.4955 48.2481 58.0205 49.5146 57.3081L45.9525 52.3213C45.5568 51.7672 45.3193 51.0548 45.4776 50.3424C45.5568 49.63 45.9525 48.9968 46.5066 48.601C46.9816 48.2844 47.5357 48.0469 48.0898 48.0469C48.9605 48.0469 49.752 48.4427 50.227 49.1551L53.789 54.1419C54.7388 53.192 55.6887 52.163 56.4011 50.9757L53.4723 46.8596Z" fill="#FAFAFA"/>
<path d="M53.4723 46.8596C52.2058 45.1182 50.227 44.0891 48.0898 44.0891C46.6649 44.0891 45.3193 44.5641 44.2111 45.3556C42.7863 46.3847 41.8364 47.9678 41.5198 49.7092C41.2032 51.4506 41.6781 53.2712 42.7072 54.696L45.7151 58.8913C47.0607 58.4955 48.2481 58.0205 49.5146 57.3081L45.9525 52.3213C45.5568 51.7672 45.3193 51.0548 45.4776 50.3424C45.5568 49.63 45.9525 48.9968 46.5066 48.601C46.9816 48.2844 47.5357 48.0469 48.0898 48.0469C48.9605 48.0469 49.752 48.4427 50.227 49.1551L53.789 54.1419C54.7388 53.192 55.6887 52.163 56.4011 50.9757L53.4723 46.8596Z" fill="#674992" fill-opacity="0.01"/>
<path d="M36.2956 45.3556C35.1874 44.4849 33.8417 44.0891 32.4169 44.0891C30.2797 44.0891 28.3008 45.1182 27.0343 46.8596L24.0264 51.0548C24.8179 52.2422 25.6886 53.2712 26.6385 54.2211L30.2006 49.2343C30.6755 48.5219 31.4671 48.1261 32.3378 48.1261C32.8919 48.1261 33.4459 48.2844 33.9209 48.6802C35.1082 49.5509 35.3457 51.2923 34.5541 52.4796L30.9921 57.4665C32.1795 58.0997 33.4459 58.6538 34.7916 59.0496L37.7995 54.8543C38.8285 53.4295 39.2243 51.6089 38.9869 49.8675C38.6702 47.9678 37.7204 46.4638 36.2956 45.3556Z" fill="#FAFAFA"/>
<path d="M36.2956 45.3556C35.1874 44.4849 33.8417 44.0891 32.4169 44.0891C30.2797 44.0891 28.3008 45.1182 27.0343 46.8596L24.0264 51.0548C24.8179 52.2422 25.6886 53.2712 26.6385 54.2211L30.2006 49.2343C30.6755 48.5219 31.4671 48.1261 32.3378 48.1261C32.8919 48.1261 33.4459 48.2844 33.9209 48.6802C35.1082 49.5509 35.3457 51.2923 34.5541 52.4796L30.9921 57.4665C32.1795 58.0997 33.4459 58.6538 34.7916 59.0496L37.7995 54.8543C38.8285 53.4295 39.2243 51.6089 38.9869 49.8675C38.6702 47.9678 37.7204 46.4638 36.2956 45.3556Z" fill="#674992" fill-opacity="0.01"/>
<path d="M59.6466 36.3325L53.7891 38.2323C53.5516 38.3114 53.235 38.3906 52.9184 38.3906C51.7311 38.3906 50.702 37.6782 50.3854 36.4909C50.1479 35.7785 50.2271 35.0661 50.5437 34.4328C50.8603 33.7996 51.4144 33.3246 52.0477 33.0872L57.9052 31.1874C57.272 29.9209 56.5596 28.8128 55.768 27.7046L50.8603 29.2877C49.1981 29.8418 47.7733 31.0291 46.9817 32.6122C46.1901 34.1953 46.0318 36.0159 46.5859 37.7574C47.4566 40.5278 49.9896 42.3484 52.9184 42.3484C53.6308 42.3484 54.264 42.2692 54.9764 42.0318L59.8841 40.4486C59.8841 40.2903 59.8841 40.0529 59.8841 39.8946C59.8841 38.6281 59.8049 37.5199 59.6466 36.3325Z" fill="#FAFAFA"/>
<path d="M59.6466 36.3325L53.7891 38.2323C53.5516 38.3114 53.235 38.3906 52.9184 38.3906C51.7311 38.3906 50.702 37.6782 50.3854 36.4909C50.1479 35.7785 50.2271 35.0661 50.5437 34.4328C50.8603 33.7996 51.4144 33.3246 52.0477 33.0872L57.9052 31.1874C57.272 29.9209 56.5596 28.8128 55.768 27.7046L50.8603 29.2877C49.1981 29.8418 47.7733 31.0291 46.9817 32.6122C46.1901 34.1953 46.0318 36.0159 46.5859 37.7574C47.4566 40.5278 49.9896 42.3484 52.9184 42.3484C53.6308 42.3484 54.264 42.2692 54.9764 42.0318L59.8841 40.4486C59.8841 40.2903 59.8841 40.0529 59.8841 39.8946C59.8841 38.6281 59.8049 37.5199 59.6466 36.3325Z" fill="#674992" fill-opacity="0.01"/>
<path d="M46.8236 26.3587V21.1344C45.5571 20.6595 44.2906 20.3429 42.8658 20.1846V26.3587C42.8658 27.8627 41.6785 29.05 40.1745 29.05C38.7497 29.05 37.4832 27.8627 37.4832 26.3587V20.1846C36.1376 20.3429 34.7919 20.7387 33.5254 21.1344V26.3587C33.5254 30.079 36.5333 33.087 40.1745 33.087C43.8948 33.087 46.8236 29.9999 46.8236 26.3587Z" fill="#FAFAFA"/>
<path d="M46.8236 26.3587V21.1344C45.5571 20.6595 44.2906 20.3429 42.8658 20.1846V26.3587C42.8658 27.8627 41.6785 29.05 40.1745 29.05C38.7497 29.05 37.4832 27.8627 37.4832 26.3587V20.1846C36.1376 20.3429 34.7919 20.7387 33.5254 21.1344V26.3587C33.5254 30.079 36.5333 33.087 40.1745 33.087C43.8948 33.087 46.8236 29.9999 46.8236 26.3587Z" fill="#674992" fill-opacity="0.01"/>
<path d="M72.865 29.6831H71.7568V51.6884H72.865V29.6831Z" fill="#FAFAFA"/>
<path d="M72.865 29.6831H71.7568V51.6884H72.865V29.6831Z" fill="#674992" fill-opacity="0.01"/>
<path d="M95.0004 36.6489C95.0004 39.261 93.4173 41.1608 90.4885 41.1608C87.4806 41.1608 85.8975 39.261 85.8975 36.6489V29.9207H88.2721V36.5697C88.2721 37.9154 89.222 38.9444 90.4885 38.9444C91.755 38.9444 92.6257 37.9154 92.6257 36.5697V29.9207H95.0004V36.6489Z" fill="#FAFAFA"/>
<path d="M95.0004 36.6489C95.0004 39.261 93.4173 41.1608 90.4885 41.1608C87.4806 41.1608 85.8975 39.261 85.8975 36.6489V29.9207H88.2721V36.5697C88.2721 37.9154 89.222 38.9444 90.4885 38.9444C91.755 38.9444 92.6257 37.9154 92.6257 36.5697V29.9207H95.0004V36.6489Z" fill="#674992" fill-opacity="0.01"/>
<path d="M97.9297 29.9207H101.175L105.766 37.5196H105.845V29.9207H108.22V40.8442H105.054L100.384 33.0869H100.304V40.8442H97.9297V29.9207Z" fill="#FAFAFA"/>
<path d="M97.9297 29.9207H101.175L105.766 37.5196H105.845V29.9207H108.22V40.8442H105.054L100.384 33.0869H100.304V40.8442H97.9297V29.9207Z" fill="#674992" fill-opacity="0.01"/>
<path d="M113.522 29.9207H111.147V40.8442H113.522V29.9207Z" fill="#FAFAFA"/>
<path d="M113.522 29.9207H111.147V40.8442H113.522V29.9207Z" fill="#674992" fill-opacity="0.01"/>
<path d="M118.51 32.0579H115.423V29.9207H124.051V32.0579H120.964V40.8442H118.51V32.0579Z" fill="#FAFAFA"/>
<path d="M118.51 32.0579H115.423V29.9207H124.051V32.0579H120.964V40.8442H118.51V32.0579Z" fill="#674992" fill-opacity="0.01"/>
<path d="M126.108 29.9207H133.469V32.137H128.483V34.1951H133.153V36.4114H128.483V38.6278H133.707V40.8442H126.108V29.9207Z" fill="#FAFAFA"/>
<path d="M126.108 29.9207H133.469V32.137H128.483V34.1951H133.153V36.4114H128.483V38.6278H133.707V40.8442H126.108V29.9207Z" fill="#674992" fill-opacity="0.01"/>
<path d="M138.773 38.6278H140.039C142.256 38.6278 143.918 37.7571 143.918 35.3032C143.918 33.166 142.177 32.137 140.198 32.137H138.773V38.6278ZM136.398 29.9207H139.96C143.443 29.9207 146.372 31.4246 146.372 35.4616C146.372 39.0236 143.522 40.9233 140.277 40.9233H136.398V29.9207Z" fill="#FAFAFA"/>
<path d="M138.773 38.6278H140.039C142.256 38.6278 143.918 37.7571 143.918 35.3032C143.918 33.166 142.177 32.137 140.198 32.137H138.773V38.6278ZM136.398 29.9207H139.96C143.443 29.9207 146.372 31.4246 146.372 35.4616C146.372 39.0236 143.522 40.9233 140.277 40.9233H136.398V29.9207Z" fill="#674992" fill-opacity="0.01"/>
<path d="M161.095 32.7702C160.62 32.2161 159.908 31.8995 159.037 31.8995C157.217 31.8995 155.871 33.4034 155.871 35.4615C155.871 37.5195 157.217 39.0235 158.958 39.0235C159.908 39.0235 160.699 38.5486 161.174 37.8361L163.153 39.3401C162.283 40.6066 160.699 41.2398 159.195 41.2398C155.792 41.2398 153.338 39.0235 153.338 35.4615C153.338 31.8995 155.792 29.6831 159.195 29.6831C160.383 29.6831 161.966 30.0789 162.837 31.2662L161.095 32.7702Z" fill="#FAFAFA"/>
<path d="M161.095 32.7702C160.62 32.2161 159.908 31.8995 159.037 31.8995C157.217 31.8995 155.871 33.4034 155.871 35.4615C155.871 37.5195 157.217 39.0235 158.958 39.0235C159.908 39.0235 160.699 38.5486 161.174 37.8361L163.153 39.3401C162.283 40.6066 160.699 41.2398 159.195 41.2398C155.792 41.2398 153.338 39.0235 153.338 35.4615C153.338 31.8995 155.792 29.6831 159.195 29.6831C160.383 29.6831 161.966 30.0789 162.837 31.2662L161.095 32.7702Z" fill="#674992" fill-opacity="0.01"/>
<path d="M169.802 33.0869L168.456 36.4906H171.148L169.802 33.0869ZM168.852 29.9207H170.831L175.581 40.8442H172.889L171.939 38.5486H167.744L166.873 40.8442H164.261L168.852 29.9207Z" fill="#FAFAFA"/>
<path d="M169.802 33.0869L168.456 36.4906H171.148L169.802 33.0869ZM168.852 29.9207H170.831L175.581 40.8442H172.889L171.939 38.5486H167.744L166.873 40.8442H164.261L168.852 29.9207Z" fill="#674992" fill-opacity="0.01"/>
<path d="M180.776 34.5908H182.359C183.23 34.5908 184.022 34.2742 184.022 33.2452C184.022 32.137 182.914 31.9787 181.964 31.9787H180.776V34.5908ZM178.402 29.9207H182.439C184.655 29.9207 186.555 30.6331 186.555 33.2452C186.555 35.8573 184.813 36.6489 182.518 36.6489H180.776V40.9233H178.402V29.9207Z" fill="#FAFAFA"/>
<path d="M180.776 34.5908H182.359C183.23 34.5908 184.022 34.2742 184.022 33.2452C184.022 32.137 182.914 31.9787 181.964 31.9787H180.776V34.5908ZM178.402 29.9207H182.439C184.655 29.9207 186.555 30.6331 186.555 33.2452C186.555 35.8573 184.813 36.6489 182.518 36.6489H180.776V40.9233H178.402V29.9207Z" fill="#674992" fill-opacity="0.01"/>
<path d="M194.154 32.6124C193.758 32.1375 193.045 31.9 192.412 31.9C191.7 31.9 190.829 32.2166 190.829 33.0082C190.829 34.9871 195.816 33.7206 195.816 37.5201C195.816 39.9739 193.837 41.1612 191.621 41.1612C190.275 41.1612 189.008 40.7655 187.979 39.8156L189.721 37.9158C190.196 38.5491 190.987 38.9449 191.779 38.9449C192.57 38.9449 193.441 38.5491 193.441 37.7575C193.441 35.7786 188.375 36.8077 188.375 33.1665C188.375 30.871 190.354 29.6045 192.491 29.6045C193.679 29.6045 194.866 29.9211 195.816 30.7918L194.154 32.6124Z" fill="#FAFAFA"/>
<path d="M194.154 32.6124C193.758 32.1375 193.045 31.9 192.412 31.9C191.7 31.9 190.829 32.2166 190.829 33.0082C190.829 34.9871 195.816 33.7206 195.816 37.5201C195.816 39.9739 193.837 41.1612 191.621 41.1612C190.275 41.1612 189.008 40.7655 187.979 39.8156L189.721 37.9158C190.196 38.5491 190.987 38.9449 191.779 38.9449C192.57 38.9449 193.441 38.5491 193.441 37.7575C193.441 35.7786 188.375 36.8077 188.375 33.1665C188.375 30.871 190.354 29.6045 192.491 29.6045C193.679 29.6045 194.866 29.9211 195.816 30.7918L194.154 32.6124Z" fill="#674992" fill-opacity="0.01"/>
<path d="M89.4585 47.652C89.1419 47.2562 88.667 47.0187 88.2712 47.0187C87.163 47.0187 86.4506 47.9686 86.4506 49.0768C86.4506 50.185 87.2422 51.1348 88.2712 51.1348C88.9045 51.1348 89.3002 50.8974 89.696 50.4224L90.0918 50.739C89.696 51.2931 89.0628 51.6098 88.2712 51.6098C86.9256 51.6098 85.8174 50.5016 85.8174 48.9976C85.8174 47.5728 86.8464 46.3855 88.2712 46.3855C88.9045 46.3855 89.5377 46.6229 90.0126 47.177L89.4585 47.652Z" fill="#FAFAFA"/>
<path d="M89.4585 47.652C89.1419 47.2562 88.667 47.0187 88.2712 47.0187C87.163 47.0187 86.4506 47.9686 86.4506 49.0768C86.4506 50.185 87.2422 51.1348 88.2712 51.1348C88.9045 51.1348 89.3002 50.8974 89.696 50.4224L90.0918 50.739C89.696 51.2931 89.0628 51.6098 88.2712 51.6098C86.9256 51.6098 85.8174 50.5016 85.8174 48.9976C85.8174 47.5728 86.8464 46.3855 88.2712 46.3855C88.9045 46.3855 89.5377 46.6229 90.0126 47.177L89.4585 47.652Z" fill="#674992" fill-opacity="0.01"/>
<path d="M96.4248 46.7021H96.9789V51.0557H99.1953V51.5306H96.4248V46.7021Z" fill="#FAFAFA"/>
<path d="M96.4248 46.7021H96.9789V51.0557H99.1953V51.5306H96.4248V46.7021Z" fill="#674992" fill-opacity="0.01"/>
<path d="M109.406 49.1554C109.406 48.0472 108.615 47.0973 107.507 47.0973C106.398 47.0973 105.607 47.968 105.607 49.1554C105.607 50.2636 106.398 51.2134 107.507 51.2134C108.615 51.1343 109.406 50.2636 109.406 49.1554ZM104.974 49.1554C104.974 47.6514 106.003 46.5432 107.507 46.5432C108.931 46.5432 110.04 47.6514 110.04 49.1554C110.04 50.6593 109.011 51.7675 107.507 51.7675C106.003 51.7675 104.974 50.5802 104.974 49.1554Z" fill="#FAFAFA"/>
<path d="M109.406 49.1554C109.406 48.0472 108.615 47.0973 107.507 47.0973C106.398 47.0973 105.607 47.968 105.607 49.1554C105.607 50.2636 106.398 51.2134 107.507 51.2134C108.615 51.1343 109.406 50.2636 109.406 49.1554ZM104.974 49.1554C104.974 47.6514 106.003 46.5432 107.507 46.5432C108.931 46.5432 110.04 47.6514 110.04 49.1554C110.04 50.6593 109.011 51.7675 107.507 51.7675C106.003 51.7675 104.974 50.5802 104.974 49.1554Z" fill="#674992" fill-opacity="0.01"/>
<path d="M118.748 47.4937C118.59 47.177 118.194 47.0187 117.877 47.0187C117.402 47.0187 116.848 47.2562 116.848 47.8103C116.848 48.2852 117.086 48.4435 117.877 48.681C118.669 48.9185 119.302 49.1559 119.302 50.1058C119.302 51.0557 118.431 51.5306 117.561 51.5306C117.007 51.5306 116.373 51.3723 116.057 50.8182L116.532 50.4224C116.769 50.739 117.165 50.9765 117.561 50.9765C118.036 50.9765 118.59 50.6599 118.59 50.1058C118.59 49.4726 118.194 49.3934 117.323 49.1559C116.611 48.9185 116.136 48.6018 116.136 47.8103C116.136 46.8604 116.927 46.3855 117.798 46.3855C118.352 46.3855 118.827 46.5438 119.144 46.9396L118.748 47.4937Z" fill="#FAFAFA"/>
<path d="M118.748 47.4937C118.59 47.177 118.194 47.0187 117.877 47.0187C117.402 47.0187 116.848 47.2562 116.848 47.8103C116.848 48.2852 117.086 48.4435 117.877 48.681C118.669 48.9185 119.302 49.1559 119.302 50.1058C119.302 51.0557 118.431 51.5306 117.561 51.5306C117.007 51.5306 116.373 51.3723 116.057 50.8182L116.532 50.4224C116.769 50.739 117.165 50.9765 117.561 50.9765C118.036 50.9765 118.59 50.6599 118.59 50.1058C118.59 49.4726 118.194 49.3934 117.323 49.1559C116.611 48.9185 116.136 48.6018 116.136 47.8103C116.136 46.8604 116.927 46.3855 117.798 46.3855C118.352 46.3855 118.827 46.5438 119.144 46.9396L118.748 47.4937Z" fill="#674992" fill-opacity="0.01"/>
<path d="M125.712 46.7021H128.72V47.1771H126.267V48.7602H128.562V49.3143H126.267V51.0557H128.879V51.5306H125.712V46.7021Z" fill="#FAFAFA"/>
<path d="M125.712 46.7021H128.72V47.1771H126.267V48.7602H128.562V49.3143H126.267V51.0557H128.879V51.5306H125.712V46.7021Z" fill="#674992" fill-opacity="0.01"/>
<path d="M145.818 47.1771H144.235V51.5306H143.681V47.1771H142.019V46.7021H145.818V47.1771Z" fill="#FAFAFA"/>
<path d="M145.818 47.1771H144.235V51.5306H143.681V47.1771H142.019V46.7021H145.818V47.1771Z" fill="#674992" fill-opacity="0.01"/>
<path d="M156.108 49.1554C156.108 48.0472 155.317 47.0973 154.208 47.0973C153.1 47.0973 152.309 47.968 152.309 49.1554C152.309 50.2636 153.1 51.2134 154.208 51.2134C155.317 51.2134 156.108 50.2636 156.108 49.1554ZM151.675 49.1554C151.675 47.6514 152.704 46.5432 154.208 46.5432C155.712 46.5432 156.741 47.6514 156.741 49.1554C156.741 50.6593 155.712 51.7675 154.208 51.7675C152.704 51.7675 151.675 50.5802 151.675 49.1554Z" fill="#FAFAFA"/>
<path d="M156.108 49.1554C156.108 48.0472 155.317 47.0973 154.208 47.0973C153.1 47.0973 152.309 47.968 152.309 49.1554C152.309 50.2636 153.1 51.2134 154.208 51.2134C155.317 51.2134 156.108 50.2636 156.108 49.1554ZM151.675 49.1554C151.675 47.6514 152.704 46.5432 154.208 46.5432C155.712 46.5432 156.741 47.6514 156.741 49.1554C156.741 50.6593 155.712 51.7675 154.208 51.7675C152.704 51.7675 151.675 50.5802 151.675 49.1554Z" fill="#674992" fill-opacity="0.01"/>
<path d="M171.623 49.4726L169.802 46.7021H170.594L171.94 48.8394L173.285 46.7021H173.998L172.177 49.4726V51.5306H171.623V49.4726Z" fill="#FAFAFA"/>
<path d="M171.623 49.4726L169.802 46.7021H170.594L171.94 48.8394L173.285 46.7021H173.998L172.177 49.4726V51.5306H171.623V49.4726Z" fill="#674992" fill-opacity="0.01"/>
<path d="M185.209 49.1554C185.209 48.0472 184.417 47.0973 183.309 47.0973C182.201 47.0973 181.409 47.968 181.409 49.1554C181.409 50.2636 182.201 51.2134 183.309 51.2134C184.417 51.1343 185.209 50.2636 185.209 49.1554ZM180.697 49.1554C180.697 47.6514 181.726 46.5432 183.23 46.5432C184.734 46.5432 185.763 47.6514 185.763 49.1554C185.763 50.6593 184.734 51.7675 183.23 51.7675C181.726 51.7675 180.697 50.5802 180.697 49.1554Z" fill="#FAFAFA"/>
<path d="M185.209 49.1554C185.209 48.0472 184.417 47.0973 183.309 47.0973C182.201 47.0973 181.409 47.968 181.409 49.1554C181.409 50.2636 182.201 51.2134 183.309 51.2134C184.417 51.1343 185.209 50.2636 185.209 49.1554ZM180.697 49.1554C180.697 47.6514 181.726 46.5432 183.23 46.5432C184.734 46.5432 185.763 47.6514 185.763 49.1554C185.763 50.6593 184.734 51.7675 183.23 51.7675C181.726 51.7675 180.697 50.5802 180.697 49.1554Z" fill="#674992" fill-opacity="0.01"/>
<path d="M195.815 49.7101C195.815 50.7391 195.34 51.689 193.994 51.689C192.649 51.689 192.174 50.7391 192.174 49.7101V46.7021H192.728V49.6309C192.728 50.4225 193.045 51.1349 193.994 51.1349C194.944 51.1349 195.261 50.4225 195.261 49.6309V46.7021H195.815V49.7101Z" fill="#FAFAFA"/>
<path d="M195.815 49.7101C195.815 50.7391 195.34 51.689 193.994 51.689C192.649 51.689 192.174 50.7391 192.174 49.7101V46.7021H192.728V49.6309C192.728 50.4225 193.045 51.1349 193.994 51.1349C194.944 51.1349 195.261 50.4225 195.261 49.6309V46.7021H195.815V49.7101Z" fill="#674992" fill-opacity="0.01"/>
<path d="M197.795 30.633H197.953C198.111 30.633 198.27 30.633 198.27 30.3955C198.27 30.2372 198.111 30.2372 198.032 30.2372H197.795V30.633ZM197.557 30.0789H198.032C198.349 30.0789 198.428 30.158 198.428 30.3955C198.428 30.633 198.27 30.7121 198.111 30.7121L198.428 31.2662H198.19L197.874 30.7121H197.636V31.2662H197.478L197.557 30.0789ZM197.953 31.662C198.428 31.662 198.824 31.2662 198.824 30.7121C198.824 30.158 198.428 29.7623 197.953 29.7623C197.478 29.7623 197.082 30.158 197.082 30.7121C197.082 31.2662 197.478 31.662 197.953 31.662ZM197.953 29.6831C198.586 29.6831 199.061 30.158 199.061 30.7913C199.061 31.4245 198.586 31.8995 197.953 31.8995C197.32 31.8995 196.845 31.4245 196.845 30.7913C196.924 30.158 197.399 29.6831 197.953 29.6831Z" fill="#FAFAFA"/>
<path d="M197.795 30.633H197.953C198.111 30.633 198.27 30.633 198.27 30.3955C198.27 30.2372 198.111 30.2372 198.032 30.2372H197.795V30.633ZM197.557 30.0789H198.032C198.349 30.0789 198.428 30.158 198.428 30.3955C198.428 30.633 198.27 30.7121 198.111 30.7121L198.428 31.2662H198.19L197.874 30.7121H197.636V31.2662H197.478L197.557 30.0789ZM197.953 31.662C198.428 31.662 198.824 31.2662 198.824 30.7121C198.824 30.158 198.428 29.7623 197.953 29.7623C197.478 29.7623 197.082 30.158 197.082 30.7121C197.082 31.2662 197.478 31.662 197.953 31.662ZM197.953 29.6831C198.586 29.6831 199.061 30.158 199.061 30.7913C199.061 31.4245 198.586 31.8995 197.953 31.8995C197.32 31.8995 196.845 31.4245 196.845 30.7913C196.924 30.158 197.399 29.6831 197.953 29.6831Z" fill="#674992" fill-opacity="0.01"/>
</g>
<defs>
<clipPath id="clip0_200_1164">
<rect width="180" height="40" fill="white" transform="translate(20 20)"/>
</clipPath>
</defs>
</svg>
