<svg width="280" height="80" viewBox="0 0 280 80" fill="none" xmlns="http://www.w3.org/2000/svg">
<path d="M224.834 14.0335C224.965 14.0328 225.097 14.0321 225.233 14.0314C225.448 14.0312 225.448 14.0312 225.666 14.0309C225.894 14.03 225.894 14.03 226.127 14.0291C226.542 14.0277 226.958 14.0268 227.373 14.0262C227.633 14.0259 227.893 14.0254 228.153 14.0248C228.968 14.0232 229.783 14.022 230.598 14.0215C231.536 14.021 232.475 14.0189 233.413 14.0153C234.14 14.0127 234.867 14.0115 235.594 14.0113C236.027 14.0112 236.461 14.0105 236.894 14.0083C237.378 14.006 237.862 14.0065 238.346 14.0073C238.488 14.0062 238.63 14.0051 238.776 14.0039C239.682 14.0085 240.531 14.0704 241.278 14.6249C241.347 14.7016 241.415 14.7782 241.486 14.8572C241.564 14.9427 241.642 15.0282 241.723 15.1163C241.802 15.2068 241.881 15.2972 241.963 15.3904C242.047 15.4837 242.132 15.577 242.219 15.6731C242.459 15.9381 242.695 16.2052 242.932 16.473C243.119 16.68 243.305 16.887 243.492 17.0938C243.574 17.1853 243.655 17.2768 243.739 17.371C244.111 17.7829 244.491 18.1877 244.87 18.5927C245.431 19.1921 245.987 19.796 246.534 20.4082C247.042 20.9718 247.559 21.5272 248.074 22.0838C248.562 22.6112 249.049 23.1392 249.536 23.6674C249.657 23.7977 249.777 23.9281 249.897 24.0583C250.535 24.7499 251.169 25.4428 251.775 26.1631C252.246 25.9745 252.509 25.6768 252.842 25.3001C252.922 25.2103 252.922 25.2103 253.004 25.1186C253.16 24.9426 253.316 24.7655 253.471 24.5884C253.546 24.5024 253.622 24.4164 253.7 24.3277C253.835 24.1737 253.969 24.0195 254.103 23.865C254.354 23.5789 254.609 23.2963 254.864 23.0138C255.19 22.6528 255.514 22.2904 255.833 21.9237C256.244 21.4519 256.663 20.9876 257.082 20.5231C257.314 20.2649 257.543 20.005 257.771 19.7434C258.182 19.2716 258.601 18.8074 259.02 18.3429C259.252 18.0847 259.482 17.8247 259.709 17.5631C260.12 17.092 260.538 16.6282 260.957 16.165C261.199 15.8949 261.435 15.6208 261.67 15.345C262.324 14.6011 262.92 14.1045 263.943 14.0284C264.297 14.019 264.65 14.0177 265.004 14.0191C265.138 14.0187 265.273 14.0183 265.411 14.0178C265.853 14.0168 266.296 14.0175 266.738 14.0183C267.047 14.0181 267.355 14.0179 267.664 14.0176C268.31 14.0172 268.956 14.0177 269.602 14.0189C270.347 14.0202 271.092 14.0198 271.837 14.0184C272.556 14.0172 273.275 14.0173 273.994 14.018C274.298 14.0182 274.603 14.018 274.908 14.0174C275.335 14.0168 275.761 14.0178 276.188 14.0191C276.313 14.0186 276.438 14.0181 276.567 14.0176C278.315 14.0278 278.315 14.0278 278.929 14.4891C278.982 14.5617 279.036 14.6343 279.091 14.7091C279.148 14.7814 279.204 14.8537 279.262 14.9282C279.553 15.3954 279.552 15.8147 279.515 16.3519C279.263 16.9609 278.902 17.409 278.471 17.8962C278.406 17.9704 278.341 18.0447 278.275 18.1211C277.812 18.6509 277.34 19.1722 276.867 19.6928C276.595 20.0007 276.336 20.3168 276.078 20.6367C275.632 21.1883 275.163 21.71 274.68 22.2288C274.318 22.6204 273.975 23.0219 273.64 23.4377C273.2 23.985 272.736 24.501 272.258 25.0148C271.895 25.4063 271.552 25.8078 271.217 26.2236C270.777 26.7709 270.313 27.2869 269.835 27.8007C269.473 28.1922 269.129 28.5937 268.795 29.0096C268.354 29.5568 267.89 30.0728 267.412 30.5866C267.05 30.9781 266.707 31.3796 266.372 31.7955C265.984 32.2771 265.581 32.7362 265.161 33.1884C264.635 33.7533 264.141 34.3366 263.656 34.9376C263.301 35.3742 262.931 35.7964 262.556 36.2166C262.759 36.6844 263.065 37.0629 263.381 37.4581C263.44 37.532 263.499 37.6059 263.559 37.682C264.267 38.5724 264.986 39.4536 265.706 40.3349C266.515 41.3262 267.321 42.3194 268.109 43.3281C268.598 43.9537 269.1 44.5695 269.602 45.1849C270.023 45.7011 270.437 46.2218 270.846 46.747C271.343 47.3841 271.853 48.0097 272.368 48.632C272.939 49.3211 273.5 50.0162 274.05 50.7218C274.61 51.4396 275.186 52.1447 275.762 52.8506C276.121 53.292 276.477 53.7366 276.832 54.182C277.108 54.5254 277.386 54.8663 277.666 55.2071C277.938 55.5403 278.208 55.8749 278.478 56.2099C278.598 56.3591 278.719 56.5079 278.841 56.6562C279.989 58.0612 279.989 58.0612 280 58.9883C279.918 59.6776 279.657 59.9927 279.146 60.4219C278.684 60.6975 278.177 60.6995 277.651 60.7027C277.521 60.7037 277.392 60.7048 277.258 60.7059C277.117 60.7064 276.976 60.7069 276.831 60.7074C276.682 60.7084 276.532 60.7094 276.378 60.7104C275.884 60.7134 275.39 60.7155 274.896 60.7172C274.725 60.7178 274.554 60.7185 274.383 60.7191C273.673 60.7218 272.962 60.724 272.252 60.7254C271.237 60.7274 270.221 60.7314 269.206 60.7383C268.49 60.743 267.775 60.7453 267.059 60.746C266.633 60.7464 266.206 60.7478 265.78 60.7518C265.303 60.7561 264.826 60.7556 264.35 60.7547C264.21 60.7567 264.07 60.7587 263.926 60.7608C262.926 60.7531 262.088 60.554 261.345 59.8486C261.131 59.6137 260.938 59.3701 260.747 59.117C260.675 59.026 260.603 58.935 260.529 58.8412C260.314 58.5687 260.103 58.2942 259.891 58.0193C259.775 57.8712 259.659 57.7232 259.542 57.5755C259.325 57.3012 259.11 57.0263 258.895 56.7508C258.527 56.2804 258.149 55.8174 257.771 55.3545C257.225 54.6852 256.687 54.0106 256.155 53.3296C255.737 52.795 255.309 52.2686 254.879 51.7434C254.27 50.9995 253.684 50.2415 253.104 49.475C252.536 48.7275 251.942 48.0025 251.339 47.2821C251.271 47.2006 251.203 47.1191 251.133 47.0351C251.073 46.9632 251.012 46.8913 250.95 46.8173C250.806 46.6334 250.806 46.6334 250.685 46.3912C250.229 46.5734 250.013 46.8314 249.716 47.2163C249.291 47.7504 248.85 48.2561 248.383 48.7531C247.843 49.3297 247.337 49.9238 246.842 50.5402C246.54 50.9047 246.222 51.2531 245.9 51.5996C245.479 52.0518 245.076 52.5109 244.688 52.9925C244.248 53.5399 243.784 54.056 243.305 54.5698C242.946 54.9588 242.605 55.3577 242.273 55.7709C241.865 56.2778 241.438 56.7575 240.994 57.232C240.284 57.9897 239.609 58.7743 238.986 59.6058C238.476 60.2628 237.864 60.616 237.031 60.7283C236.659 60.7459 236.289 60.7482 235.917 60.7448C235.776 60.7455 235.636 60.7461 235.491 60.7468C235.03 60.7483 234.569 60.7463 234.107 60.7442C233.785 60.7442 233.463 60.7443 233.141 60.7447C232.467 60.745 231.794 60.7434 231.12 60.7406C230.343 60.7374 229.566 60.7371 228.789 60.7386C228.039 60.7399 227.289 60.7391 226.538 60.7374C226.22 60.7369 225.902 60.7368 225.584 60.7373C225.14 60.7376 224.695 60.7356 224.25 60.733C224.119 60.7336 223.989 60.7341 223.854 60.7347C222.992 60.7262 222.236 60.6626 221.566 60.0633C221.206 59.4258 221.08 58.8883 221.21 58.1631C221.49 57.5368 222.003 57.0635 222.472 56.5748C222.79 56.2426 223.081 55.8953 223.368 55.5362C223.809 54.989 224.273 54.4729 224.751 53.9592C225.113 53.5676 225.456 53.1661 225.791 52.7503C226.231 52.2031 226.695 51.687 227.174 51.1733C227.536 50.7817 227.879 50.3802 228.214 49.9644C228.654 49.4172 229.118 48.9011 229.596 48.3874C229.959 47.9958 230.302 47.5943 230.636 47.1785C231.077 46.6313 231.541 46.1152 232.019 45.6015C232.381 45.2099 232.725 44.8084 233.059 44.3926C233.5 43.8454 233.964 43.3293 234.442 42.8156C234.804 42.424 235.147 42.0225 235.482 41.6067C235.922 41.0595 236.386 40.5434 236.865 40.0297C237.322 39.5357 237.745 39.0196 238.166 38.4948C238.541 38.0446 238.938 37.6167 239.343 37.1927C239.631 36.886 239.863 36.6074 240.025 36.2166C239.973 36.1666 239.922 36.1166 239.869 36.0652C239.415 35.6187 238.987 35.1591 238.572 34.6774C238.279 34.3429 237.979 34.0152 237.678 33.6881C237.266 33.2411 236.857 32.7927 236.451 32.3405C236.05 31.8938 235.646 31.4502 235.24 31.0081C234.744 30.469 234.253 29.9264 233.764 29.3814C233.446 29.0284 233.124 28.6782 232.802 28.3282C232.441 27.9361 232.083 27.5425 231.734 27.1397C231.3 26.6392 230.85 26.1547 230.4 25.6689C229.94 25.173 229.487 24.6722 229.036 24.1688C228.719 23.817 228.398 23.4683 228.077 23.1198C227.717 22.7277 227.359 22.3341 227.01 21.9312C226.576 21.4308 226.125 20.9463 225.675 20.4605C225.216 19.965 224.763 19.4652 224.313 18.9613C224.106 18.7319 223.896 18.5057 223.684 18.2809C223.624 18.217 223.564 18.153 223.502 18.0872C223.332 17.9063 223.161 17.7262 222.991 17.5461C222.453 16.9005 222.269 16.3794 222.296 15.5527C222.38 14.9814 222.664 14.6563 223.111 14.3154C223.665 14.0646 224.231 14.0354 224.834 14.0335Z" fill="white"/>
<path d="M70.5535 22.0449C71.053 22.2339 71.5252 22.4654 71.9991 22.7102C72.0798 22.7516 72.1605 22.793 72.2436 22.8357C72.5057 22.9705 72.7675 23.1057 73.0293 23.241C73.1187 23.2872 73.2082 23.3333 73.3004 23.3808C74.4135 23.9548 75.5207 24.5374 76.618 25.1412C76.9248 25.309 77.2317 25.4768 77.5387 25.6445C77.7259 25.7472 77.9127 25.8506 78.0992 25.9547C79.509 26.7577 79.509 26.7577 81.0925 26.7688C81.5952 26.602 82.0677 26.3895 82.5461 26.1632C84.0591 25.4804 85.4901 25.1518 87.1493 25.0731C87.1076 25.3983 87.0699 25.5251 86.8067 25.7302C86.6615 25.8092 86.6615 25.8092 86.5134 25.8897C86.4036 25.9506 86.2937 26.0115 86.1806 26.0742C86.0005 26.1707 86.0005 26.1707 85.8168 26.2692C85.5623 26.408 85.3079 26.547 85.0536 26.686C84.9206 26.7584 84.7876 26.8307 84.6506 26.9052C84.2401 27.1333 83.837 27.371 83.4343 27.6125C83.3023 27.6903 83.1702 27.7682 83.0342 27.8484C82.7805 27.9982 82.528 28.1503 82.2771 28.3049C81.4334 28.7953 80.7339 29.0288 79.76 28.828C79.1588 28.5989 78.6081 28.3015 78.0489 27.9877C77.8943 27.904 77.7394 27.8206 77.5844 27.7376C77.2786 27.5734 76.9734 27.4079 76.6689 27.241C76.1088 26.9358 75.5439 26.6411 74.975 26.3525C74.8471 26.2852 74.8471 26.2852 74.7166 26.2165C74.115 25.9069 74.115 25.9069 73.4608 25.921C73.157 26.1557 73.157 26.1557 72.8778 26.4736C72.5206 26.8498 72.1691 27.214 71.7725 27.5486C71.3043 27.9486 70.8741 28.3827 70.442 28.8207C70.0446 29.2215 69.6348 29.5993 69.203 29.9626C68.9142 30.2173 68.6453 30.4938 68.373 30.766C74.0096 30.826 74.0096 30.826 79.76 30.8871C79.6814 31.5158 79.6153 32.0053 79.4396 32.5922C79.3983 32.7315 79.3571 32.8707 79.3146 33.0142C79.2692 33.1647 79.2238 33.3151 79.177 33.4701C79.1283 33.6332 79.0798 33.7964 79.0313 33.9597C78.9264 34.3121 78.8211 34.6644 78.7155 35.0166C78.5459 35.5817 78.3774 36.1471 78.2092 36.7126C78.1506 36.9095 78.092 37.1064 78.0334 37.3032C78.0039 37.4024 77.9744 37.5016 77.944 37.6037C77.8524 37.9113 77.7607 38.2189 77.669 38.5265C76.9714 40.8668 76.2831 43.2097 75.5948 45.5527C75.4678 45.9849 75.3408 46.4171 75.2137 46.8493C75.1521 47.0587 75.0906 47.2681 75.029 47.4775C74.8799 47.9848 74.7307 48.4919 74.581 48.999C74.3213 49.8795 74.0631 50.7603 73.8126 51.6435C73.7045 52.0241 73.5954 52.4045 73.4862 52.7848C73.4357 52.9617 73.3858 53.1387 73.3365 53.316C72.7267 55.5067 72.7267 55.5067 71.9467 56.05C71.8424 56.0908 71.738 56.1316 71.6305 56.1737C71.4552 56.2438 71.4552 56.2438 71.2763 56.3153C71.1577 56.358 71.0391 56.4008 70.9169 56.4448C70.8077 56.4848 70.6985 56.5249 70.5859 56.5662C70.2438 56.6862 69.9 56.7978 69.5541 56.9066C69.4245 56.9475 69.2949 56.9884 69.1613 57.0305C63.0936 58.9098 56.8913 59.8034 50.5658 60.1997C50.4316 60.2084 50.2973 60.2171 50.159 60.2261C42.5164 60.703 34.5486 60.2256 27.1863 58.0194C27.0871 57.9901 26.9879 57.9608 26.8856 57.9306C23.4041 56.8885 20.0299 55.211 17.2346 52.8744C16.8116 52.5185 16.8116 52.5185 16.2759 52.4599C15.6751 52.5685 15.1416 52.8344 14.5956 53.0987C14.4834 53.1528 14.3711 53.2069 14.2555 53.2627C12.6782 54.044 11.3353 55.0915 9.95931 56.1776C9.03873 56.8978 8.0739 57.531 7.07753 58.1405C6.99745 58.1903 6.91736 58.24 6.83484 58.2913C6.60652 58.4324 6.37684 58.5709 6.14629 58.7083C5.95071 58.8252 5.95071 58.8252 5.75117 58.9444C5.35241 59.1226 5.08639 59.1438 4.65479 59.1095C4.83714 58.4483 5.29641 58.0368 5.76016 57.5576C5.84289 57.471 5.92561 57.3844 6.01084 57.2952C6.24444 57.0513 6.47921 56.8086 6.71412 56.5659C6.80937 56.4657 6.90463 56.3654 7.00277 56.2621C7.5619 55.6843 8.17284 55.1795 8.80185 54.6796C8.9717 54.5423 9.13978 54.4029 9.30722 54.2627C10.0842 53.6153 10.8823 53.0272 11.7262 52.4703C11.8518 52.3872 11.9775 52.304 12.107 52.2183C13.3078 51.4317 14.5325 50.7001 15.7994 50.0251C15.8941 49.9744 15.9887 49.9237 16.0862 49.8714C19.0288 48.3197 22.2747 47.8062 25.5073 47.182C26.5 46.9901 27.4902 46.7879 28.479 46.5762C28.9503 46.4756 29.4202 46.3799 29.8963 46.3042C31.891 45.9721 32.9315 44.8222 34.2123 43.3631C34.2932 43.2715 34.3741 43.1798 34.4574 43.0854C34.5854 42.939 34.7128 42.7922 34.8398 42.6449C35.3247 42.0934 35.8291 41.559 36.3282 41.0203C36.6132 40.7121 36.8967 40.4024 37.1802 40.0927C38.2299 38.9467 39.2841 37.805 40.346 36.6703C40.7144 36.2767 41.0816 35.882 41.4465 35.4852C41.8576 35.0387 42.2729 34.5966 42.6919 34.1575C42.7756 34.069 42.8593 33.9805 42.9455 33.8893C43.6299 33.2275 44.4986 32.8555 45.3516 32.4565C45.5893 32.3453 45.8257 32.2319 46.062 32.1178C47.1221 31.6139 47.1221 31.6139 47.5374 31.6139C47.3707 32.2669 47.0749 32.6538 46.6365 33.1431C46.5179 33.2783 46.3994 33.4137 46.2811 33.5491C46.2287 33.6079 46.1763 33.6667 46.1224 33.7273C45.9379 33.9444 45.7694 34.1714 45.5992 34.3998C48.037 34.1519 50.4745 33.9009 52.9118 33.6478C53.5337 33.5832 54.1557 33.519 54.7777 33.455C55.813 33.3484 56.8482 33.2408 57.8832 33.1315C58.3804 33.079 58.8776 33.027 59.375 32.9762C59.8448 32.9281 60.3144 32.8787 60.784 32.8284C60.9565 32.8101 61.1291 32.7923 61.3017 32.775C62.7865 32.654 62.7865 32.654 64.0334 31.9044C64.0955 31.8456 64.1575 31.7868 64.2215 31.7262C64.3165 31.6332 64.3165 31.6332 64.4134 31.5382C64.5515 31.4067 64.6896 31.2754 64.8279 31.1441C64.9287 31.0473 64.9287 31.0473 65.0316 30.9486C65.295 30.6979 65.5653 30.4554 65.8367 30.2134C66.2865 29.8104 66.7324 29.4034 67.1768 28.9945C67.6482 28.5611 68.1243 28.1341 68.6082 27.7147C69.0322 27.3422 69.4472 26.9599 69.8641 26.5796C70.2288 26.2493 70.5982 25.9249 70.9704 25.603C71.3232 25.3087 71.3232 25.3087 71.4431 24.8772C71.3897 24.3519 71.2043 23.9552 70.9775 23.4833C70.5535 22.5912 70.5535 22.5912 70.5535 22.0449ZM46.4169 36.3075C46.2803 36.3188 46.2803 36.3188 46.141 36.3302C45.2431 36.4243 44.7102 36.8069 44.1229 37.4885C43.7072 37.9637 43.2868 38.4328 42.8585 38.8966C42.422 39.3711 41.9916 39.85 41.5695 40.3373C41.3264 40.6149 41.0779 40.8873 40.8294 41.1602C40.4504 41.5796 40.0869 42.0073 39.7316 42.4471C39.1701 43.1415 38.5743 43.7984 37.9676 44.4533C38.8189 46.3031 40.9568 47.4656 42.7752 48.1552C47.4036 49.8248 52.2253 49.9865 57.0391 49.1848C57.1561 49.1657 57.273 49.1466 57.3935 49.1269C57.9923 49.0211 58.5367 48.9231 59.0455 48.5716C59.9536 46.7555 60.3047 44.7098 60.8625 42.7575C55.8656 42.7575 50.8687 42.7575 45.7204 42.7575C46.0002 41.9181 46.28 41.0787 46.5683 40.2139C46.7711 39.5635 46.9716 38.9134 47.1664 38.2607C47.2151 38.1003 47.2637 37.9399 47.3124 37.7795C47.3578 37.6282 47.4031 37.4769 47.4499 37.321C47.4901 37.1869 47.5304 37.0527 47.5719 36.9145C47.6737 36.579 47.6737 36.579 47.6585 36.2167C47.2426 36.2167 46.8303 36.2658 46.4169 36.3075Z" fill="white"/>
<path d="M81.6982 0C82.2003 0.212797 82.4382 0.5271 82.7677 0.948664C83.4305 1.6103 84.2117 1.9251 85.0977 2.18027C85.3001 2.24152 85.5024 2.30287 85.7048 2.36433C85.8048 2.39425 85.9048 2.42417 86.0078 2.45499C86.4458 2.58723 86.8812 2.72663 87.316 2.86918C87.4568 2.91461 87.5977 2.96005 87.7428 3.00686C88.1118 3.14675 88.4111 3.27197 88.7242 3.51266C88.851 3.81406 88.851 3.81406 88.9362 4.15614C89.1947 4.94511 89.5942 5.18639 90.299 5.57181C90.5021 5.70368 90.7041 5.83738 90.9047 5.97304C90.9946 6.03253 91.0846 6.09202 91.1772 6.15331C91.3892 6.29856 91.3892 6.29856 91.5104 6.41969C91.6131 7.22657 91.4084 7.63034 90.9686 8.30093C90.796 8.57991 90.6795 8.83644 90.5716 9.14503C90.4201 9.56897 90.4201 9.56897 90.1779 9.81122C89.9204 9.7658 89.9204 9.7658 89.6933 9.6901C89.7136 9.58346 89.7339 9.47681 89.7548 9.36694C89.7795 9.22626 89.8042 9.08557 89.8296 8.94063C89.8549 8.80151 89.8802 8.66239 89.9062 8.51905C89.9373 8.09219 89.8956 7.88217 89.6933 7.50983C89.3994 7.23975 89.1266 7.04483 88.7696 6.86634C88.3059 6.5369 88.1896 6.05915 88.0371 5.53348C87.995 5.39132 87.995 5.39132 87.952 5.24628C87.9285 5.15837 87.9051 5.07047 87.881 4.9799C87.6255 4.46041 87.1746 4.22941 86.6455 4.04906C86.448 3.98784 86.25 3.92819 86.0516 3.86989C85.9464 3.83802 85.8411 3.80616 85.7327 3.77333C85.5109 3.70661 85.2889 3.64058 85.0668 3.57521C84.7272 3.47496 84.3886 3.37178 84.05 3.26828C83.834 3.20367 83.6179 3.13924 83.4017 3.075C83.3008 3.0441 83.1998 3.0132 83.0958 2.98136C82.399 2.77127 82.399 2.77127 81.6982 2.90703C81.3013 3.56678 81.2717 4.20199 81.2515 4.95861C81.2474 5.06455 81.2433 5.17049 81.239 5.27964C81.2291 5.53848 81.2212 5.79739 81.2137 6.05631C81.0538 6.05631 80.8939 6.05631 80.7291 6.05631C80.4784 5.76911 80.4784 5.76911 80.2295 5.39769C79.9409 4.92544 79.9409 4.92544 79.5178 4.6028C78.8431 4.56035 78.2855 4.67656 77.6449 4.85924C77.5492 4.88555 77.4535 4.91187 77.3549 4.93897C77.0509 5.02273 76.7474 5.10794 76.4439 5.19329C76.1412 5.27748 75.8384 5.36137 75.5355 5.44501C75.3479 5.49693 75.1603 5.54921 74.9729 5.60194C74.352 5.77504 73.7279 5.92215 73.0975 6.05631C73.1863 6.16577 73.2752 6.27522 73.3667 6.38799C73.4815 6.53225 73.5961 6.67656 73.7107 6.82092C73.7989 6.92901 73.7989 6.92901 73.8889 7.03928C74.0386 7.22926 74.1748 7.42969 74.3089 7.63095C74.2689 7.75087 74.2289 7.87078 74.1877 7.99433C73.7025 7.94188 73.308 7.81141 72.8628 7.62338C70.7691 6.84686 68.8836 7.83454 66.9913 8.68454C66.71 8.81081 66.4282 8.93589 66.1463 9.06081C65.2335 9.46699 64.3255 9.8837 63.4264 10.3194C63.3474 10.3565 63.2685 10.3937 63.1871 10.432C62.3945 10.823 61.9549 11.3953 61.4683 12.1126C61.3743 12.2443 61.2798 12.3757 61.1849 12.5068C60.9809 12.7893 60.779 13.0731 60.5782 13.358C60.2474 13.8249 59.905 14.2827 59.5604 14.7395C58.8071 15.7389 58.0646 16.746 57.3233 17.7543C56.8984 18.332 56.4727 18.9091 56.0472 19.4864C55.6951 19.9641 55.3431 20.442 54.9917 20.9203C54.5673 21.4978 54.1417 22.0744 53.7155 22.6506C53.6358 22.7585 53.5562 22.8664 53.4741 22.9775C53.2296 23.308 52.9843 23.638 52.7388 23.9679C52.6638 24.0694 52.5888 24.171 52.5115 24.2756C52.1348 24.7802 51.7665 25.2617 51.2928 25.6788C51.2128 25.6788 51.1329 25.6788 51.0505 25.6788C51.1991 24.5271 51.6737 23.5501 52.163 22.5094C52.275 22.2674 52.275 22.2674 52.383 21.9238C51.4814 22.1758 50.6161 22.4896 49.7483 22.8399C49.618 22.8921 49.4877 22.9443 49.3535 22.9981C48.3274 23.4139 47.3176 23.8609 46.3147 24.3298C46.2115 24.3779 46.1083 24.426 46.002 24.4755C45.9122 24.5179 45.8223 24.5603 45.7298 24.604C44.74 25.0199 43.7485 24.776 42.7299 24.5962C37.4408 23.7185 32.5207 24.7054 28.1306 27.8182C27.3801 28.3623 26.651 28.8949 26.1341 29.6759C26.0636 29.7804 25.9932 29.8848 25.9206 29.9925C25.7752 30.2162 25.6324 30.4416 25.4905 30.6676C24.8933 31.5074 24.176 32.0391 23.2798 32.53C23.1703 32.591 23.0609 32.652 22.9482 32.7149C22.5855 32.9156 22.2213 33.1131 21.8564 33.3097C21.728 33.379 21.5997 33.4484 21.4674 33.5198C16.2749 36.307 9.61623 39.5778 3.59352 37.8146C2.26985 37.3471 1.20534 36.4826 0.536218 35.2477C0.382835 34.8899 0.26405 34.5359 0.172806 34.1576C0.150632 34.0661 0.128458 33.9746 0.105613 33.8803C-0.203509 31.9987 0.161145 30.2634 1.26304 28.7069C1.55843 28.3498 1.85132 28.0048 2.23214 27.7379C2.39204 27.7379 2.55194 27.7379 2.71669 27.7379C2.50948 28.4296 2.19341 29.0386 1.85926 29.6747C1.3368 30.6913 1.03674 31.7415 1.34207 32.8768C1.83829 34.1098 2.67507 34.7756 3.85898 35.3116C5.06234 35.8079 6.26447 35.9984 7.56218 35.9972C7.69322 35.9973 7.69322 35.9973 7.82691 35.9974C8.75997 35.9885 9.66831 35.8667 10.5906 35.7322C10.6076 35.635 10.6245 35.5377 10.642 35.4375C11.6694 29.6292 13.7465 24.4699 17.4954 19.8647C17.5461 19.8024 17.5967 19.7402 17.6488 19.676C18.7559 18.3217 19.9164 16.9343 21.2658 15.8155C21.4265 15.6809 21.5827 15.5409 21.7353 15.3972C29.4096 8.17651 40.5166 4.73702 50.8082 3.87604C50.9317 3.86453 51.0553 3.85303 51.1825 3.84117C52.8507 3.70496 54.5264 3.73074 56.1988 3.7322C56.2814 3.73223 56.364 3.73227 56.4491 3.7323C58.8958 3.7335 61.3339 3.73936 63.7699 3.99717C63.8478 4.00539 63.9257 4.01361 64.006 4.02208C65.833 4.2168 67.6578 4.43774 69.4546 4.82914C70.7625 5.09777 71.9816 4.76153 73.2584 4.45281C73.4233 4.41338 73.5882 4.37398 73.7531 4.3346C74.0966 4.25239 74.4398 4.16953 74.783 4.08627C75.2211 3.98006 75.6598 3.87594 76.0985 3.77235C76.4384 3.69179 76.778 3.60988 77.1174 3.5276C77.279 3.48865 77.4407 3.45016 77.6025 3.41216C78.9772 3.11062 78.9772 3.11062 80.0089 2.2167C80.0817 2.09726 80.1545 1.97781 80.2295 1.85475C80.6621 1.17409 81.1436 0.584044 81.6982 0ZM44.5091 22.1661C45.137 22.48 46.4091 21.8922 47.053 21.6816C48.5426 21.1323 50.0158 20.4978 51.4139 19.7436C51.4139 19.7036 51.4139 19.6636 51.4139 19.6224C49.0089 19.5361 46.4123 20.7917 44.5091 22.1661Z" fill="white"/>
<path d="M170.744 32.4383C173.969 35.086 175.737 38.4689 176.148 42.6287C176.341 45.6179 176.051 48.6294 174.732 51.3574C174.643 51.5448 174.643 51.5448 174.552 51.7359C173.025 54.7599 170.433 56.9327 167.258 58.0567C163.74 59.1309 159.695 58.8743 156.35 57.342C156.231 57.2874 156.111 57.2328 155.988 57.1765C155.897 57.1349 155.807 57.0932 155.713 57.0503C155.714 57.1398 155.715 57.2292 155.717 57.3213C155.726 58.166 155.734 59.0107 155.738 59.8554C155.741 60.2896 155.744 60.7238 155.75 61.158C155.755 61.5774 155.758 61.9968 155.759 62.4162C155.761 62.6533 155.764 62.8904 155.768 63.1275C155.768 63.7365 155.765 64.1993 155.521 64.7624C154.912 65.3504 154.286 65.4535 153.462 65.455C153.375 65.4557 153.287 65.4563 153.197 65.457C152.91 65.4586 152.623 65.4575 152.336 65.4563C152.135 65.4565 151.935 65.4569 151.734 65.4573C151.314 65.4579 150.895 65.4571 150.475 65.4554C149.938 65.4533 149.402 65.4545 148.865 65.4567C148.451 65.458 148.037 65.4576 147.623 65.4567C147.425 65.4564 147.227 65.4567 147.029 65.4576C146.752 65.4585 146.475 65.4571 146.199 65.455C145.963 65.4546 145.963 65.4546 145.722 65.4542C145.104 65.3873 144.71 65.1972 144.289 64.7418C144.008 64.3256 143.948 64.0162 143.947 63.526C143.947 63.4126 143.946 63.2993 143.946 63.1825C143.946 63.0577 143.946 62.933 143.946 62.8045C143.946 62.6721 143.945 62.5397 143.945 62.4034C143.944 61.9576 143.944 61.5118 143.943 61.066C143.943 60.7473 143.942 60.4286 143.942 60.11C143.94 59.2425 143.939 58.3751 143.939 57.5077C143.938 56.9662 143.938 56.4247 143.937 55.8832C143.936 54.3841 143.935 52.885 143.934 51.386C143.934 51.29 143.934 51.194 143.934 51.0952C143.934 50.999 143.934 50.9028 143.934 50.8037C143.934 50.6088 143.934 50.4139 143.934 50.219C143.934 50.1223 143.934 50.0256 143.934 49.926C143.933 48.3592 143.931 46.7924 143.928 45.2256C143.926 43.6173 143.924 42.009 143.924 40.4007C143.924 39.4976 143.923 38.5945 143.921 37.6913C143.919 36.9223 143.918 36.1533 143.919 35.3843C143.92 34.992 143.92 34.5997 143.918 34.2073C143.917 33.7819 143.917 33.3565 143.918 32.9311C143.918 32.8072 143.917 32.6833 143.916 32.5556C143.92 31.9079 143.958 31.4444 144.326 30.8871C144.965 30.2784 145.639 30.3301 146.472 30.3339C146.609 30.3332 146.746 30.3324 146.887 30.3317C147.175 30.3308 147.464 30.3312 147.753 30.3327C148.193 30.3344 148.634 30.3303 149.074 30.3257C149.355 30.3255 149.636 30.3258 149.917 30.3264C150.048 30.3248 150.179 30.3232 150.315 30.3215C151.147 30.3317 151.582 30.4386 152.2 31.0082C152.397 31.2437 152.397 31.2437 152.522 31.4648C152.591 31.5848 152.591 31.5848 152.662 31.7073C152.73 31.8296 152.73 31.8296 152.798 31.9545C152.847 32.0384 152.895 32.1223 152.944 32.2088C153.061 32.4133 153.176 32.619 153.291 32.8251C153.351 32.7839 153.411 32.7426 153.474 32.7002C153.775 32.4971 154.077 32.2975 154.381 32.0983C154.499 32.0196 154.618 31.9409 154.74 31.8598C159.464 28.8237 166.29 28.9309 170.744 32.4383ZM156.319 39.7293C156.163 39.8305 156.163 39.8305 156.003 39.9338C155.682 40.1925 155.682 40.1925 155.632 40.5882C155.63 40.7352 155.628 40.8822 155.625 41.0337C155.623 41.1151 155.621 41.1965 155.619 41.2803C155.613 41.549 155.612 41.8173 155.612 42.086C155.61 42.2734 155.608 42.4608 155.605 42.6481C155.602 43.0409 155.601 43.4335 155.601 43.8263C155.601 44.3283 155.593 44.8297 155.582 45.3316C155.576 45.7187 155.574 46.1057 155.575 46.4928C155.574 46.6777 155.571 46.8627 155.567 47.0475C155.519 48.0945 155.519 48.0945 155.979 48.9917C156.286 49.21 156.584 49.3804 156.925 49.5405C157.055 49.6161 157.185 49.6916 157.319 49.7695C158.862 50.5009 160.453 50.8716 162.134 50.3884C163.391 49.8588 164.164 48.9362 164.677 47.6938C165.387 45.7414 165.246 43.2444 164.398 41.3654C163.706 39.9343 162.887 39.1099 161.407 38.518C159.614 37.9349 157.757 38.6785 156.319 39.7293Z" fill="white"/>
<path d="M84.9022 30.8542C84.9909 30.8536 85.0796 30.853 85.171 30.8524C85.4631 30.8507 85.7552 30.8508 86.0473 30.8511C86.2511 30.8506 86.4549 30.8501 86.6587 30.8495C87.0855 30.8486 87.5122 30.8486 87.939 30.8493C88.485 30.85 89.0309 30.8479 89.5768 30.8451C89.9976 30.8433 90.4184 30.8432 90.8392 30.8436C91.0404 30.8435 91.2417 30.8429 91.4429 30.8417C91.7247 30.8402 92.0064 30.841 92.2882 30.8424C92.3707 30.8415 92.4533 30.8405 92.5383 30.8396C93.2578 30.8475 93.7098 31.0269 94.217 31.5357C94.5791 32.149 94.4833 32.9106 94.478 33.5976C94.4784 33.7628 94.4791 33.928 94.48 34.0932C94.4815 34.4481 94.4814 34.803 94.4802 35.1579C94.4783 35.7201 94.48 36.2822 94.4821 36.8443C94.4859 37.9369 94.486 39.0294 94.4858 40.122C94.4856 41.5109 94.4869 42.8998 94.4917 44.2887C94.4935 44.8465 94.4935 45.4043 94.492 45.9621C94.4914 46.3105 94.4923 46.6589 94.4936 47.0073C94.4941 47.2437 94.4927 47.4801 94.4912 47.7165C94.497 48.7281 94.5841 49.6378 95.1293 50.5099C95.482 50.8419 95.8054 50.9856 96.2919 51.0086C97.5524 50.8908 98.6474 50.4544 99.7955 49.9469C99.8845 49.9078 99.9734 49.8686 100.065 49.8283C100.282 49.7327 100.5 49.6368 100.717 49.5409C100.717 49.4071 100.717 49.4071 100.718 49.2706C100.725 47.0991 100.734 44.9276 100.745 42.7561C100.751 41.7059 100.756 40.6558 100.759 39.6057C100.762 38.6903 100.766 37.775 100.771 36.8597C100.774 36.375 100.776 35.8904 100.777 35.4058C100.778 34.9495 100.78 34.4932 100.784 34.0368C100.785 33.8696 100.785 33.7023 100.785 33.535C100.785 33.3061 100.787 33.0772 100.79 32.8483C100.79 32.7204 100.791 32.5924 100.791 32.4606C100.847 32.0301 100.977 31.7421 101.201 31.372C101.807 30.9298 102.219 30.8268 102.979 30.8267C103.068 30.8261 103.157 30.8254 103.248 30.8247C103.539 30.8232 103.83 30.8252 104.12 30.8274C104.324 30.8274 104.527 30.8272 104.731 30.8269C105.156 30.8267 105.581 30.8282 106.007 30.831C106.551 30.8344 107.095 30.8341 107.639 30.8325C108.059 30.8317 108.478 30.8327 108.898 30.8342C109.099 30.8347 109.299 30.8347 109.5 30.8343C109.78 30.8339 110.061 30.8359 110.342 30.8386C110.501 30.8392 110.66 30.8399 110.825 30.8405C111.458 30.9096 111.829 31.0686 112.242 31.5598C112.528 32.0913 112.535 32.4795 112.528 33.0726C112.529 33.2361 112.529 33.2361 112.53 33.4029C112.531 33.7676 112.53 34.1321 112.528 34.4967C112.528 34.7584 112.529 35.02 112.53 35.2817C112.532 35.9919 112.53 36.7021 112.528 37.4123C112.527 38.1554 112.527 38.8984 112.528 39.6414C112.528 40.8891 112.526 42.1367 112.524 43.3843C112.52 44.8273 112.52 46.2703 112.522 47.7132C112.523 49.1009 112.522 50.4885 112.52 51.8762C112.52 52.4669 112.52 53.0577 112.52 53.6485C112.521 54.344 112.52 55.0394 112.517 55.7348C112.516 55.9903 112.516 56.2457 112.517 56.5011C112.518 56.8494 112.516 57.1976 112.514 57.5458C112.515 57.698 112.515 57.698 112.516 57.8532C112.508 58.5821 112.354 58.9827 111.825 59.5072C111.432 59.7578 111.204 59.7769 110.74 59.7782C110.59 59.7798 110.439 59.7813 110.284 59.7829C110.121 59.782 109.958 59.781 109.795 59.7799C109.626 59.7802 109.458 59.7807 109.289 59.7813C108.937 59.782 108.584 59.781 108.232 59.7787C107.781 59.776 107.33 59.7775 106.88 59.7804C106.532 59.7822 106.184 59.7816 105.836 59.7804C105.67 59.7801 105.504 59.7804 105.338 59.7816C103.72 59.7902 103.72 59.7902 103.14 59.231C102.883 58.8478 102.883 58.8478 102.67 58.4286C102.598 58.2896 102.526 58.1506 102.451 58.0075C102.292 57.6564 102.292 57.6564 102.292 57.4141C102.225 57.4526 102.158 57.491 102.09 57.5305C98.0508 59.797 93.5951 61.1446 88.9664 59.9578C86.8617 59.3612 85.1917 58.2117 84.0632 56.3098C82.6338 53.6051 82.7132 50.6539 82.7194 47.6816C82.72 47.2396 82.7191 46.7976 82.7182 46.3557C82.7162 45.3138 82.7166 44.2719 82.7186 43.23C82.7207 42.1572 82.7187 41.0844 82.7148 40.0115C82.7116 39.0863 82.7107 38.161 82.7117 37.2358C82.7123 36.6849 82.7121 36.134 82.7096 35.583C82.7074 35.0666 82.7081 34.5502 82.7111 34.0338C82.7117 33.8446 82.7113 33.6555 82.7097 33.4663C82.6977 31.8608 82.6977 31.8608 83.0582 31.3902C83.6652 30.9196 84.148 30.8515 84.9022 30.8542Z" fill="white"/>
<path d="M128.465 30.2364C128.553 30.2365 128.641 30.2365 128.731 30.2366C132.394 30.2492 135.361 31.4543 138.035 33.9989C140.96 37.0165 141.978 41.1048 141.958 45.2038C141.957 45.5264 141.96 45.8488 141.964 46.1714C141.964 46.3793 141.964 46.5873 141.964 46.7952C141.965 46.8902 141.966 46.9852 141.968 47.0831C141.96 47.7131 141.836 48.0727 141.419 48.5719C141.023 48.8358 140.913 48.8442 140.456 48.8433C140.332 48.8436 140.208 48.8439 140.08 48.8443C139.945 48.8434 139.809 48.8425 139.669 48.8416C139.526 48.8417 139.383 48.8417 139.235 48.8417C138.843 48.8416 138.451 48.8404 138.059 48.8387C137.649 48.8372 137.239 48.837 136.829 48.8367C136.053 48.836 135.277 48.834 134.501 48.8316C133.618 48.8289 132.734 48.8275 131.851 48.8263C130.033 48.8238 128.216 48.8195 126.398 48.8141C126.491 48.968 126.584 49.1213 126.678 49.2745C126.73 49.36 126.782 49.4454 126.835 49.5335C127.523 50.5517 128.697 50.9873 129.856 51.2509C132.113 51.6751 134.455 51.4089 136.618 50.702C136.705 50.6738 136.791 50.6457 136.881 50.6167C137.117 50.5383 137.351 50.455 137.585 50.3713C138.282 50.2079 138.751 50.2524 139.378 50.6007C139.925 51.1163 140.136 51.8839 140.397 52.569C140.452 52.7091 140.507 52.8492 140.564 52.9935C140.675 53.2753 140.784 53.5578 140.892 53.8408C141.003 54.1277 141.118 54.4129 141.236 54.6966C141.293 54.8341 141.349 54.9715 141.408 55.1132C141.459 55.2357 141.511 55.3582 141.565 55.4844C141.733 56.1017 141.531 56.5977 141.298 57.1718C141.271 57.2944 141.243 57.417 141.215 57.5433C140.997 58.0288 140.671 58.1725 140.208 58.3831C140.122 58.4238 140.036 58.4645 139.947 58.5065C138.205 59.3072 136.4 59.7655 134.514 60.0789C134.432 60.0932 134.349 60.1076 134.264 60.1224C129.812 60.8698 124.575 60.3219 120.759 57.751C120.241 57.374 119.743 56.9771 119.251 56.5662C119.17 56.5034 119.09 56.4407 119.007 56.376C116.224 54.1252 115.011 50.5092 114.576 47.0829C114.155 42.964 114.859 38.6723 117.505 35.3859C120.347 31.9771 124.016 30.2238 128.465 30.2364ZM126.867 39.2527C126.172 40.1188 126.008 41.0745 125.792 42.1522C127.471 42.1522 129.15 42.1522 130.88 42.1522C130.727 40.7758 130.49 39.7036 129.426 38.7607C128.514 38.2131 127.559 38.5184 126.867 39.2527Z" fill="white"/>
<path d="M182.28 14.0345C182.408 14.034 182.536 14.0335 182.668 14.0331C182.877 14.0332 182.877 14.0332 183.092 14.0334C183.315 14.0328 183.315 14.0328 183.544 14.0323C183.958 14.0314 184.372 14.0311 184.785 14.031C185.232 14.0308 185.678 14.0299 186.125 14.0291C187.101 14.0274 188.077 14.0267 189.053 14.0262C189.663 14.0258 190.272 14.0253 190.882 14.0248C192.57 14.0233 194.258 14.022 195.946 14.0216C196.054 14.0216 196.162 14.0216 196.273 14.0215C196.381 14.0215 196.489 14.0215 196.601 14.0215C196.82 14.0214 197.04 14.0214 197.259 14.0213C197.368 14.0213 197.477 14.0212 197.589 14.0212C199.352 14.0207 201.116 14.0186 202.879 14.0158C204.69 14.0129 206.5 14.0114 208.311 14.0113C209.328 14.0112 210.344 14.0105 211.361 14.0083C212.226 14.0064 213.092 14.0058 213.957 14.0068C214.399 14.0073 214.84 14.0072 215.282 14.0055C215.761 14.0036 216.24 14.0046 216.719 14.0059C216.927 14.0044 216.927 14.0044 217.14 14.0029C217.939 14.0079 218.746 14.0203 219.377 14.5811C219.925 15.197 219.934 15.7322 219.935 16.5228C219.936 16.6124 219.937 16.7021 219.937 16.7945C219.939 17.0906 219.94 17.3867 219.94 17.6828C219.941 17.8892 219.942 18.0955 219.943 18.3019C219.944 18.7346 219.944 19.1672 219.945 19.5998C219.946 20.1529 219.948 20.706 219.952 21.2591C219.954 21.6854 219.955 22.1118 219.955 22.5382C219.955 22.742 219.956 22.9458 219.958 23.1497C219.96 23.4355 219.96 23.7212 219.959 24.007C219.96 24.0904 219.961 24.1738 219.962 24.2598C219.957 24.9234 219.809 25.4944 219.375 26.0107C218.791 26.4599 218.406 26.5416 217.682 26.5413C217.48 26.5417 217.48 26.5417 217.273 26.542C217.125 26.5417 216.977 26.5413 216.825 26.541C216.589 26.5411 216.589 26.5411 216.348 26.5413C215.912 26.5416 215.475 26.5411 215.038 26.5405C214.567 26.5399 214.097 26.5401 213.626 26.5402C212.81 26.5403 211.994 26.5399 211.178 26.5392C209.999 26.5382 208.819 26.5379 207.639 26.5378C205.726 26.5375 203.812 26.5367 201.898 26.5355C200.039 26.5344 198.18 26.5336 196.32 26.5331C196.206 26.533 196.091 26.533 195.973 26.533C195.398 26.5328 194.824 26.5326 194.249 26.5325C189.479 26.5312 184.71 26.5291 179.94 26.5264C179.932 25.0839 179.926 23.6414 179.922 22.1989C179.92 21.5291 179.917 20.8593 179.913 20.1895C179.909 19.5432 179.907 18.8968 179.906 18.2505C179.905 18.0038 179.904 17.7572 179.902 17.5106C179.899 17.1652 179.899 16.8199 179.899 16.4745C179.898 16.3725 179.897 16.2704 179.895 16.1653C179.898 15.5997 179.941 15.2381 180.304 14.7772C180.952 14.1572 181.406 14.0357 182.28 14.0345Z" fill="white"/>
<path d="M179.941 48.208C184.785 48.1997 189.63 48.1933 194.475 48.1895C195.047 48.189 195.618 48.1886 196.19 48.1881C196.304 48.188 196.418 48.1879 196.535 48.1878C198.379 48.1862 200.223 48.1833 202.067 48.18C203.958 48.1766 205.85 48.1746 207.742 48.1738C208.909 48.1733 210.077 48.1718 211.244 48.1688C212.044 48.1669 212.845 48.1663 213.645 48.1668C214.107 48.167 214.569 48.1667 215.031 48.1647C215.532 48.1626 216.033 48.1633 216.534 48.1643C216.752 48.1628 216.752 48.1628 216.975 48.1611C217.759 48.1653 218.359 48.2254 219.068 48.5714C219.647 49.1649 219.692 49.673 219.695 50.4689C219.696 50.5632 219.697 50.6576 219.698 50.7549C219.7 51.0674 219.701 51.3798 219.703 51.6923C219.703 51.7992 219.704 51.906 219.704 52.0161C219.707 52.5818 219.708 53.1474 219.709 53.7131C219.711 54.2965 219.715 54.8798 219.72 55.4632C219.723 55.9125 219.724 56.3618 219.724 56.8111C219.725 57.0261 219.726 57.2411 219.729 57.4561C219.732 57.7576 219.731 58.059 219.731 58.3605C219.733 58.4927 219.733 58.4927 219.735 58.6276C219.729 59.2944 219.557 59.6627 219.189 60.1995C218.638 60.6128 218.147 60.699 217.47 60.7C217.342 60.7004 217.215 60.7009 217.083 60.7014C216.942 60.7013 216.802 60.7012 216.658 60.7011C216.508 60.7014 216.359 60.7018 216.205 60.7021C215.791 60.703 215.377 60.7033 214.962 60.7034C214.515 60.7037 214.069 60.7046 213.622 60.7054C212.645 60.707 211.668 60.7078 210.69 60.7083C210.08 60.7086 209.47 60.7091 208.86 60.7097C207.171 60.7112 205.482 60.7124 203.793 60.7128C203.631 60.7129 203.631 60.7129 203.466 60.7129C203.357 60.7129 203.249 60.713 203.138 60.713C202.918 60.713 202.698 60.7131 202.479 60.7131C202.315 60.7132 202.315 60.7132 202.149 60.7132C200.384 60.7137 198.619 60.7158 196.854 60.7186C195.042 60.7215 193.23 60.723 191.418 60.7232C190.4 60.7233 189.383 60.724 188.365 60.7262C187.499 60.728 186.633 60.7286 185.767 60.7276C185.325 60.7272 184.883 60.7273 184.441 60.729C183.961 60.7308 183.482 60.7298 183.003 60.7286C182.863 60.7295 182.724 60.7305 182.58 60.7315C181.652 60.7258 181.033 60.6466 180.319 60.0103C179.871 59.4957 179.924 59.0668 179.927 58.4112C179.927 58.3013 179.927 58.1914 179.927 58.0782C179.927 57.7138 179.928 57.3494 179.929 56.985C179.929 56.7327 179.929 56.4805 179.929 56.2283C179.93 55.5636 179.931 54.8989 179.932 54.2342C179.934 53.5563 179.934 52.8784 179.935 52.2005C179.936 50.8697 179.938 49.5388 179.941 48.208Z" fill="white"/>
<path d="M179.941 31.1299C185.379 31.1104 185.379 31.1104 187.656 31.1063C189.229 31.1034 190.802 31.1 192.375 31.0934C193.52 31.0885 194.665 31.0854 195.811 31.0843C196.417 31.0837 197.024 31.0822 197.63 31.0787C198.201 31.0754 198.772 31.0744 199.343 31.0751C199.553 31.075 199.762 31.074 199.972 31.0722C200.258 31.0698 200.544 31.0703 200.83 31.0717C200.913 31.0702 200.996 31.0688 201.081 31.0674C201.677 31.0748 202.011 31.2452 202.472 31.6144C202.936 32.1593 203.027 32.604 203.019 33.2998C203.02 33.393 203.021 33.4863 203.022 33.5824C203.024 33.889 203.023 34.1954 203.021 34.5021C203.021 34.7162 203.022 34.9304 203.023 35.1446C203.023 35.5929 203.022 36.0412 203.02 36.4895C203.017 37.0627 203.019 37.6358 203.022 38.209C203.023 38.6512 203.023 39.0933 203.022 39.5355C203.021 39.7467 203.022 39.958 203.023 40.1693C203.024 40.4653 203.022 40.7611 203.019 41.057C203.02 41.1435 203.021 41.2299 203.022 41.3189C203.012 41.9242 202.89 42.4345 202.472 42.8792C201.857 43.3007 201.46 43.4241 200.699 43.4219C200.61 43.4224 200.521 43.4228 200.429 43.4232C200.132 43.424 199.835 43.4213 199.538 43.4187C199.324 43.4185 199.11 43.4186 198.896 43.4189C198.317 43.419 197.739 43.4162 197.16 43.4128C196.554 43.4098 195.949 43.4095 195.343 43.4089C194.197 43.4074 193.052 43.4034 191.906 43.3986C190.357 43.3921 188.808 43.3895 187.259 43.3867C184.82 43.3821 182.38 43.3725 179.941 43.3637C179.941 39.3265 179.941 35.2894 179.941 31.1299Z" fill="white"/>
<path d="M232.03 66.1349C232.525 66.1258 233.02 66.1193 233.516 66.1149C233.684 66.1131 233.852 66.1107 234.02 66.1075C235.412 66.0818 236.611 66.1562 237.717 67.076C238.619 68.0582 238.861 69.2386 238.846 70.5267C238.727 72.1552 238.213 73.4616 237.011 74.5986C236.095 75.3529 235.132 75.5995 233.962 75.5946C233.882 75.5944 233.802 75.5942 233.72 75.594C233.467 75.5934 233.214 75.5919 232.961 75.5903C232.789 75.5897 232.616 75.5891 232.444 75.5887C232.023 75.5873 231.602 75.5852 231.182 75.5827C231.261 73.9241 231.409 72.2733 231.564 70.6203C231.606 70.1742 231.647 69.728 231.688 69.2818C231.715 68.9959 231.742 68.7099 231.768 68.424C231.781 68.2918 231.793 68.1595 231.806 68.0233C231.865 67.3908 231.932 66.7627 232.03 66.1349ZM233.604 67.8307C233.423 69.2011 233.282 70.5716 233.165 71.949C233.149 72.1385 233.132 72.3281 233.116 72.5177C233.077 72.9741 233.037 73.4305 232.999 73.887C233.25 73.8905 233.502 73.8929 233.753 73.895C233.963 73.8973 233.963 73.8973 234.177 73.8995C234.934 73.8755 235.436 73.6545 235.997 73.1526C236.679 72.4195 236.951 71.4459 237.027 70.4652C236.966 69.5526 236.692 68.8283 236.027 68.194C235.261 67.7153 234.484 67.801 233.604 67.8307Z" fill="white"/>
<path d="M77.3374 14.6562C77.8373 15.0991 78.1623 15.6305 78.5109 16.193C78.5775 16.3002 78.644 16.4074 78.7126 16.5178C79.771 18.2608 80.6657 20.1011 81.5772 21.9238C82.4004 21.8524 83.208 21.741 84.0213 21.5959C84.2592 21.5545 84.4972 21.5132 84.7352 21.472C84.8585 21.4505 84.9819 21.4291 85.1091 21.407C88.5901 20.8053 92.0913 20.2982 95.6291 20.2281C95.7104 20.2256 95.7917 20.2231 95.8754 20.2205C97.104 20.1839 98.325 20.2558 99.551 20.334C99.7074 20.3435 99.8639 20.353 100.025 20.3628C100.172 20.373 100.319 20.3832 100.47 20.3937C100.602 20.4025 100.734 20.4114 100.87 20.4206C101.201 20.4703 101.201 20.4703 101.565 20.7126C101.488 20.7203 101.411 20.7281 101.331 20.7361C93.7949 21.4963 86.4841 22.3782 79.3256 24.9773C79.0333 25.0731 79.0333 25.0731 78.7911 25.0731C78.8071 24.9955 78.8232 24.9179 78.8398 24.838C79.4633 21.7844 78.8206 19.3063 77.7868 16.4387C77.7574 16.3565 77.728 16.2743 77.6976 16.1897C77.6166 15.9639 77.5343 15.7385 77.452 15.5131C77.3374 15.1408 77.3374 15.1408 77.3374 14.6562Z" fill="white"/>
<path d="M198.959 68.3148C199.75 68.621 200.221 69.1705 200.617 69.9046C201.077 71.0737 200.943 72.3913 200.511 73.545C200.09 74.4652 199.601 75.1638 198.666 75.597C197.994 75.8316 197.348 75.9059 196.658 75.7035C196.458 75.5836 196.258 75.4637 196.052 75.3401C195.932 76.5393 195.812 77.7384 195.688 78.9739C195.129 78.9739 194.569 78.9739 193.993 78.9739C193.969 77.8355 194.063 76.721 194.174 75.5899C194.193 75.3945 194.211 75.199 194.23 75.0035C194.269 74.5967 194.308 74.1899 194.348 73.7832C194.399 73.2618 194.449 72.7403 194.499 72.2188C194.537 71.8164 194.576 71.4141 194.615 71.0117C194.634 70.8194 194.652 70.627 194.671 70.4345C194.696 70.1667 194.723 69.8989 194.749 69.6311C194.771 69.4027 194.771 69.4027 194.794 69.1697C194.84 68.7993 194.84 68.7993 194.962 68.4359C195.401 68.4359 195.841 68.4359 196.294 68.4359C196.374 68.6358 196.454 68.8356 196.536 69.0416C196.651 68.9441 196.766 68.8467 196.885 68.7463C197.522 68.2061 198.141 68.2236 198.959 68.3148ZM196.658 70.4951C196.213 71.3232 195.984 72.5047 196.249 73.422C196.439 73.7447 196.675 73.8962 196.998 74.0759C197.525 74.1481 197.775 74.0314 198.232 73.7655C198.742 73.2957 199.046 72.769 199.117 72.0773C199.117 71.9549 199.118 71.8325 199.118 71.7063C199.12 71.5839 199.122 71.4615 199.124 71.3354C199.062 70.8313 198.853 70.5154 198.505 70.1544C197.809 69.787 197.211 69.9915 196.658 70.4951Z" fill="white"/>
<path d="M180.304 66.1348C182.143 66.1348 183.982 66.1348 185.876 66.1348C185.876 67.2249 185.876 67.2249 185.755 67.7094C184.476 67.7094 183.197 67.7094 181.879 67.7094C181.879 68.0692 181.879 68.4289 181.879 68.7995C181.839 69.1993 181.799 69.599 181.758 70.0108C182.917 70.0108 184.076 70.0108 185.271 70.0108C185.271 71.1009 185.271 71.1009 185.15 71.7066C183.95 71.7066 182.751 71.7066 181.515 71.7066C181.475 72.4261 181.435 73.1456 181.394 73.8868C182.633 73.8868 183.873 73.8868 185.15 73.8868C185.15 74.977 185.15 74.977 185.028 75.5826C183.19 75.5826 181.351 75.5826 179.456 75.5826C179.735 72.433 180.016 69.2836 180.304 66.1348Z" fill="white"/>
<path d="M273.701 68.4365C274.34 68.4365 274.98 68.4365 275.639 68.4365C275.699 68.7295 275.759 69.0226 275.82 69.3246C275.878 69.6084 275.937 69.8922 275.995 70.176C276.035 70.3733 276.075 70.5705 276.116 70.7678C276.173 71.0514 276.232 71.3349 276.29 71.6184C276.308 71.7066 276.326 71.7948 276.344 71.8857C276.417 72.2381 276.494 72.5764 276.608 72.9181C276.655 72.7867 276.702 72.6552 276.751 72.5198C276.925 72.0336 277.1 71.5477 277.274 71.0618C277.35 70.8511 277.426 70.6405 277.501 70.4298C277.609 70.1275 277.718 69.8254 277.827 69.5233C277.86 69.4285 277.894 69.3338 277.929 69.2362C278.169 68.5714 278.169 68.5714 278.304 68.4365C278.589 68.4277 278.874 68.4263 279.16 68.4289C279.316 68.43 279.472 68.4311 279.633 68.4322C279.754 68.4336 279.875 68.435 280 68.4365C279.762 69.2765 279.48 70.0881 279.158 70.8997C279.113 71.0159 279.067 71.1321 279.02 71.2518C278.875 71.6207 278.73 71.9893 278.584 72.3579C278.489 72.6003 278.394 72.8427 278.299 73.0852C278.065 73.6807 277.829 74.2757 277.594 74.8706C277.457 75.2182 277.321 75.5664 277.185 75.9147C277.1 76.1323 277.014 76.3499 276.929 76.5675C276.891 76.6664 276.853 76.7652 276.813 76.8671C276.477 77.719 276.055 78.3729 275.359 78.9745C274.399 79.3316 273.548 79.2358 272.611 78.8533C272.571 78.8134 272.531 78.7734 272.49 78.7322C272.5 78.4467 272.519 78.1615 272.542 77.8767C272.555 77.7204 272.567 77.5642 272.58 77.4031C272.59 77.2821 272.6 77.1611 272.611 77.0364C272.699 77.0741 272.788 77.1117 272.879 77.1505C273.354 77.3312 273.796 77.4342 274.307 77.3998C274.876 77.0204 275.242 76.3684 275.397 75.704C275.331 74.894 275.133 74.137 274.919 73.3549C274.885 73.2254 274.85 73.0958 274.814 72.9624C274.703 72.5513 274.592 72.1404 274.481 71.7296C274.369 71.3166 274.257 70.9035 274.146 70.4903C274.077 70.2338 274.008 69.9773 273.938 69.7211C273.907 69.6054 273.876 69.4897 273.844 69.3706C273.802 69.218 273.802 69.218 273.76 69.0623C273.701 68.7998 273.701 68.7998 273.701 68.4365Z" fill="white"/>
<path d="M244.175 68.4023C244.865 68.7722 245.276 69.3385 245.533 70.0688C245.703 70.8777 245.676 71.7559 245.476 72.5542C244.117 72.5542 242.758 72.5542 241.357 72.5542C241.581 73.7357 241.581 73.7357 242.205 74.1289C242.681 74.1997 242.869 74.1708 243.273 73.9017C243.543 73.668 243.543 73.668 243.659 73.4021C244.219 73.4021 244.778 73.4021 245.355 73.4021C245.211 74.2657 244.952 74.7527 244.259 75.29C243.521 75.7429 242.771 75.9287 241.912 75.7707C241.215 75.5674 240.63 75.2518 240.241 74.6138C239.675 73.5127 239.603 72.264 239.874 71.0576C240.267 69.9405 240.921 68.9573 242.006 68.4142C242.683 68.2041 243.497 68.1857 244.175 68.4023ZM242.084 70.1317C241.792 70.5135 241.6 70.8515 241.6 71.343C242.399 71.343 243.199 71.343 244.022 71.343C244.092 70.5514 244.092 70.5514 243.825 70.1468C243.236 69.6194 242.711 69.6958 242.084 70.1317Z" fill="white"/>
<path d="M211.853 68.4974C212.524 68.8952 212.851 69.5424 213.056 70.2764C213.19 70.9897 213.116 71.7203 213.011 72.434C212.89 72.5551 212.89 72.5551 212.509 72.5688C212.341 72.5688 212.172 72.5681 212.004 72.5669C211.915 72.5668 211.827 72.5666 211.735 72.5664C211.451 72.5657 211.167 72.5642 210.884 72.5627C210.692 72.5621 210.5 72.5615 210.307 72.561C209.836 72.5597 209.364 72.5576 208.892 72.5551C208.928 72.7303 208.965 72.9053 209.002 73.0803C209.022 73.1778 209.042 73.2753 209.063 73.3757C209.127 73.6649 209.127 73.6649 209.324 73.9632C209.722 74.1875 210.007 74.1526 210.453 74.1113C210.742 74.0283 210.742 74.0283 210.867 73.7001C210.969 73.553 210.969 73.553 211.073 73.403C211.41 73.3569 211.671 73.3449 212.004 73.3651C212.089 73.3679 212.174 73.3706 212.262 73.3734C212.471 73.3805 212.681 73.3914 212.89 73.403C212.688 74.2527 212.378 74.8068 211.679 75.341C210.923 75.7606 210.102 75.9173 209.248 75.7649C208.562 75.5594 208.032 75.0788 207.638 74.4898C207.036 73.3581 207.077 72.0641 207.439 70.8593C207.882 69.7385 208.369 69.0583 209.4 68.4519C210.205 68.2142 211.066 68.162 211.853 68.4974ZM209.619 70.1326C209.211 70.5637 209.135 70.7374 209.014 71.3438C209.853 71.3438 210.693 71.3438 211.557 71.3438C211.518 70.4766 211.518 70.4766 211.073 69.8903C210.456 69.719 210.12 69.7269 209.619 70.1326Z" fill="white"/>
<path d="M265.993 68.4442C266.594 68.8876 267.067 69.4071 267.28 70.1324C267.311 70.504 267.309 70.8726 267.303 71.2452C267.303 71.3445 267.303 71.4437 267.303 71.5459C267.298 72.2786 267.298 72.2786 267.159 72.5549C265.84 72.5549 264.521 72.5549 263.162 72.5549C263.299 73.5424 263.299 73.5424 263.889 74.1296C264.357 74.1882 264.711 74.1654 265.1 73.8873C265.18 73.7274 265.26 73.5675 265.342 73.4028C265.942 73.4028 266.542 73.4028 267.159 73.4028C266.898 74.3166 266.61 74.8372 265.836 75.3844C265.102 75.7896 264.324 75.9158 263.503 75.7421C262.714 75.5028 262.238 75.0936 261.834 74.3874C261.288 73.265 261.345 71.9966 261.703 70.8232C262.11 69.7644 262.708 68.9136 263.73 68.3912C264.489 68.248 265.252 68.2107 265.993 68.4442ZM263.889 70.1324C263.48 70.5635 263.404 70.7372 263.283 71.3437C264.082 71.3437 264.882 71.3437 265.706 71.3437C265.869 70.8533 265.772 70.6083 265.585 70.1324C264.979 69.6388 264.504 69.6863 263.889 70.1324Z" fill="white"/>
<path d="M186.724 68.4366C188.146 68.2477 188.146 68.2477 188.784 68.4366C189.258 68.9087 189.473 69.404 189.753 70.0113C189.87 70.1362 189.99 70.2583 190.116 70.3747C190.149 70.316 190.183 70.2572 190.217 70.1968C191.174 68.5707 191.174 68.5707 191.841 68.3448C192.447 68.2662 193.03 68.3344 193.629 68.4366C193.455 68.96 193.195 69.3016 192.834 69.716C192.726 69.8436 192.618 69.9714 192.51 70.0993C192.455 70.1644 192.4 70.2296 192.343 70.2967C192.071 70.6198 191.802 70.9445 191.54 71.2755C191.446 71.3903 191.353 71.5051 191.258 71.6233C191.044 71.9337 191.044 71.9337 191.171 72.2293C191.339 72.5794 191.524 72.9115 191.722 73.2457C191.798 73.3744 191.874 73.503 191.952 73.6356C192.07 73.8352 192.07 73.8352 192.191 74.0387C192.348 74.3042 192.504 74.5698 192.661 74.8355C192.731 74.9528 192.8 75.0701 192.872 75.191C193.023 75.462 193.023 75.462 193.023 75.5831C191.184 75.749 191.184 75.749 190.683 75.3702C190.498 75.0849 190.365 74.8073 190.237 74.493C190.144 74.3277 190.048 74.1635 189.95 74.0009C189.852 73.8248 189.852 73.8248 189.753 73.6451C189.422 73.945 189.18 74.1911 188.963 74.5876C188.73 74.9961 188.541 75.2809 188.178 75.5831C187.505 75.7489 186.799 75.6597 186.119 75.5831C186.295 75.0339 186.606 74.6534 186.982 74.228C187.101 74.0886 187.221 73.9492 187.34 73.8097C187.559 73.556 187.781 73.3057 188.005 73.0565C188.095 72.9534 188.184 72.8504 188.276 72.7442C188.357 72.6544 188.438 72.5646 188.521 72.4721C188.702 72.1902 188.702 72.1902 188.575 71.8526C188.422 71.4688 188.245 71.1427 188.026 70.7929C187.95 70.6707 187.874 70.5484 187.796 70.4224C187.717 70.2968 187.638 70.1711 187.557 70.0416C187.4 69.7901 187.243 69.5384 187.087 69.2864C187.017 69.1756 186.948 69.0648 186.876 68.9506C186.724 68.6789 186.724 68.6789 186.724 68.4366Z" fill="white"/>
<path d="M225.91 68.6478C226.298 68.9686 226.552 69.2779 226.607 69.789C226.609 70.0248 226.595 70.2606 226.579 70.4959C226.059 70.4959 225.539 70.4959 225.004 70.4959C224.924 70.336 224.844 70.1761 224.761 70.0114C224.391 69.8262 224.079 69.8621 223.671 69.8902C223.368 70.0138 223.368 70.0138 223.187 70.2536C223.146 70.5717 223.146 70.5717 223.187 70.8593C223.289 70.8922 223.392 70.9251 223.497 70.9591C225.924 71.7892 225.924 71.7892 226.51 72.7064C226.645 73.3646 226.562 73.9287 226.253 74.5233C225.58 75.3236 224.964 75.6549 223.944 75.7952C223.128 75.8627 222.416 75.7486 221.688 75.3712C221.253 74.9984 220.916 74.676 220.856 74.0828C220.855 73.8156 220.869 73.5485 220.885 73.2818C221.405 73.2818 221.924 73.2818 222.46 73.2818C222.54 73.5216 222.62 73.7614 222.702 74.0085C223.118 74.2163 223.579 74.1782 224.035 74.1297C224.34 73.9701 224.34 73.9701 224.519 73.7663C224.516 73.4739 224.516 73.4739 224.398 73.1607C224.071 72.9444 224.071 72.9444 223.664 72.7897C223.521 72.7283 223.379 72.667 223.232 72.6038C223.097 72.5477 222.962 72.4917 222.823 72.4339C222.15 72.1486 221.699 71.9075 221.37 71.2226C221.192 70.4905 221.225 69.9423 221.612 69.2846C222.648 68.2005 224.591 67.8257 225.91 68.6478Z" fill="white"/>
<path d="M219.126 68.6475C219.514 68.9684 219.768 69.2777 219.823 69.7887C219.825 70.0245 219.811 70.2604 219.795 70.4956C219.275 70.4956 218.755 70.4956 218.22 70.4956C218.14 70.3357 218.06 70.1758 217.978 70.0111C217.607 69.826 217.296 69.8618 216.887 69.89C216.584 70.0135 216.584 70.0135 216.403 70.2534C216.362 70.5715 216.362 70.5715 216.403 70.859C216.62 70.9227 216.62 70.9227 216.842 70.9877C217.372 71.1655 217.876 71.3877 218.379 71.6312C218.521 71.6996 218.663 71.768 218.809 71.8384C219.274 72.1221 219.552 72.4325 219.795 72.9181C219.802 73.6846 219.701 74.2617 219.189 74.8562C218.4 75.6112 217.593 75.811 216.524 75.8252C215.59 75.7387 214.932 75.4903 214.298 74.7729C214.035 74.2371 214.065 73.8735 214.101 73.2815C214.621 73.2815 215.141 73.2815 215.676 73.2815C215.756 73.5214 215.836 73.7612 215.918 74.0083C216.334 74.2161 216.795 74.1779 217.251 74.1294C217.556 73.9698 217.556 73.9698 217.735 73.766C217.732 73.4737 217.732 73.4737 217.614 73.1604C217.287 72.9441 217.287 72.9441 216.88 72.7894C216.737 72.7281 216.595 72.6667 216.448 72.6035C216.313 72.5474 216.178 72.4914 216.039 72.4336C215.365 72.1481 214.92 71.9047 214.586 71.2224C214.384 70.5091 214.494 69.9331 214.828 69.2844C215.85 68.1911 217.816 67.8315 219.126 68.6475Z" fill="white"/>
<path d="M254.682 68.4365C255.322 68.4365 255.962 68.4365 256.621 68.4365C256.879 69.3723 257.025 70.3261 257.181 71.283C257.209 71.4536 257.237 71.6243 257.265 71.7949C257.333 72.2097 257.401 72.6245 257.469 73.0393C257.749 72.6192 257.907 72.1839 258.079 71.7131C258.114 71.6195 258.148 71.5259 258.184 71.4295C258.294 71.131 258.404 70.8323 258.513 70.5335C258.588 70.3309 258.663 70.1283 258.738 69.9258C258.921 69.4295 259.103 68.9331 259.286 68.4365C259.925 68.4365 260.565 68.4365 261.224 68.4365C261.137 68.8682 261.067 69.166 260.898 69.5548C260.857 69.652 260.815 69.7491 260.772 69.8491C260.727 69.9527 260.682 70.0563 260.635 70.163C260.588 70.2717 260.542 70.3803 260.493 70.4922C260.344 70.8393 260.193 71.1861 260.043 71.5328C259.894 71.8759 259.746 72.219 259.598 72.5622C259.503 72.783 259.407 73.0038 259.312 73.2245C258.973 74.008 258.642 74.7939 258.316 75.583C257.677 75.583 257.037 75.583 256.378 75.583C256.006 74.2173 255.666 72.846 255.34 71.4688C255.257 71.119 255.173 70.7694 255.089 70.4197C255.036 70.197 254.983 69.9742 254.93 69.7514C254.905 69.6471 254.88 69.5427 254.855 69.4353C254.682 68.7066 254.682 68.7066 254.682 68.4365Z" fill="white"/>
<path d="M247.777 65.6504C248.337 65.6504 248.897 65.6504 249.473 65.6504C249.502 66.7017 249.391 67.7367 249.288 68.7812C249.269 68.9779 249.25 69.1746 249.231 69.3713C249.181 69.8857 249.131 70.4 249.08 70.9143C249.029 71.4404 248.978 71.9666 248.927 72.4928C248.827 73.5229 248.726 74.5528 248.625 75.5827C248.066 75.5827 247.506 75.5827 246.929 75.5827C246.911 74.5302 246.982 73.5013 247.084 72.4543C247.1 72.2844 247.116 72.1145 247.132 71.9447C247.165 71.5912 247.199 71.2378 247.233 70.8844C247.277 70.4333 247.319 69.9822 247.362 69.5311C247.403 69.0974 247.444 68.6637 247.485 68.23C247.493 68.1484 247.501 68.0669 247.509 67.9828C247.531 67.7502 247.553 67.5176 247.576 67.285C247.588 67.1532 247.601 67.0214 247.614 66.8856C247.659 66.4722 247.716 66.0617 247.777 65.6504Z" fill="white"/>
<path d="M272.974 68.3147C273.054 68.3547 273.134 68.3947 273.216 68.4358C273.202 68.7135 273.187 68.9911 273.171 69.2686C273.162 69.4232 273.154 69.5777 273.145 69.737C273.095 70.1316 273.095 70.1316 272.853 70.3739C272.624 70.3701 272.624 70.3701 272.391 70.3663C271.911 70.3585 271.649 70.4073 271.278 70.7372C270.753 71.5814 270.675 72.3855 270.589 73.3642C270.561 73.6549 270.533 73.9455 270.504 74.2362C270.493 74.3639 270.481 74.4915 270.47 74.6231C270.434 74.9453 270.373 75.2644 270.309 75.5823C269.749 75.5823 269.19 75.5823 268.613 75.5823C268.692 74.0002 268.829 72.4271 268.984 70.8508C269.007 70.6151 269.03 70.3794 269.052 70.1437C269.107 69.5744 269.163 69.0051 269.219 68.4358C269.778 68.4358 270.338 68.4358 270.915 68.4358C270.955 68.6757 270.995 68.9155 271.036 69.1626C271.093 69.1115 271.15 69.0605 271.208 69.0079C271.284 68.9415 271.359 68.8752 271.437 68.8068C271.512 68.7407 271.586 68.6747 271.663 68.6066C272.08 68.2841 272.465 68.2931 272.974 68.3147Z" fill="white"/>
<path d="M206.712 68.436C206.672 69.0755 206.632 69.7151 206.591 70.374C206.406 70.364 206.221 70.354 206.03 70.3437C205.43 70.3471 205.096 70.4256 204.653 70.8585C204.237 71.7272 204.178 72.611 204.092 73.5612C204.063 73.8661 204.034 74.1709 204.004 74.4758C203.992 74.6098 203.98 74.7438 203.967 74.8819C203.926 75.2191 203.926 75.2191 203.805 75.5824C203.245 75.5824 202.685 75.5824 202.109 75.5824C202.459 71.3043 202.459 71.3043 202.608 69.6927C202.622 69.5394 202.622 69.5394 202.636 69.3829C202.7 68.7069 202.7 68.7069 202.835 68.436C203.395 68.436 203.955 68.436 204.531 68.436C204.531 68.6758 204.531 68.9157 204.531 69.1628C204.587 69.1117 204.643 69.0606 204.7 69.008C204.774 68.9417 204.849 68.8753 204.925 68.807C204.998 68.7409 205.071 68.6749 205.147 68.6068C205.698 68.2024 205.995 68.3336 206.712 68.436Z" fill="white"/>
<path d="M26.9443 32.4619C27.0242 32.5019 27.1042 32.5419 27.1866 32.583C27.2136 33.3791 27.1299 34.0536 26.9291 34.822C26.8887 34.983 26.8887 34.983 26.8474 35.1473C26.7599 35.4941 26.6705 35.8403 26.5809 36.1865C26.5198 36.4258 26.4587 36.6651 26.3977 36.9044C26.2465 37.4955 26.0933 38.0861 25.9392 38.6765C25.8603 38.9787 25.7819 39.281 25.7036 39.5834C25.5769 40.0718 25.4472 40.5594 25.3165 41.0467C25.2796 41.1874 25.2426 41.328 25.2046 41.4729C24.7878 42.9915 24.7878 42.9915 24.143 43.4087C23.5821 43.5306 22.8674 43.6264 22.3411 43.3633C22.4219 42.8304 22.6138 42.3652 22.8299 41.8757C22.8675 41.7892 22.9051 41.7027 22.9438 41.6135C23.0679 41.3285 23.1928 41.0438 23.3177 40.7591C23.4046 40.5599 23.4914 40.3607 23.5781 40.1615C23.7595 39.7451 23.9412 39.3287 24.123 38.9125C24.3965 38.2856 24.668 37.6578 24.9389 37.0297C24.9823 36.9291 25.0257 36.8286 25.0704 36.725C25.2386 36.3349 25.4069 35.9448 25.575 35.5546C26.0215 34.5191 26.4717 33.4859 26.9443 32.4619Z" fill="white"/>
<path d="M89.451 11.2648C89.451 11.3048 89.451 11.3448 89.451 11.386C89.3686 11.3951 89.2863 11.4042 89.2014 11.4136C88.8226 11.4561 88.4441 11.5005 88.0655 11.5449C87.8712 11.5664 87.8712 11.5664 87.673 11.5882C86.6911 11.7053 85.8128 11.8404 85.0034 12.4335C84.3417 12.8709 83.6092 12.799 82.8414 12.7941C81.3796 12.7792 81.3796 12.7792 80.0931 13.3997C79.784 13.8192 79.6581 14.2798 79.5177 14.7775C79.2243 14.4841 79.2253 14.3544 79.1723 13.95C79.1567 13.8332 79.1411 13.7165 79.125 13.5963C79.1097 13.4739 79.0944 13.3516 79.0786 13.2256C79.0624 13.1046 79.0461 12.9837 79.0294 12.8591C78.9593 12.3224 78.9085 11.8064 78.912 11.2648C78.9983 11.2636 79.0847 11.2623 79.1736 11.2611C79.9932 11.2491 80.8128 11.2367 81.6323 11.2237C82.0535 11.2171 82.4747 11.2106 82.8959 11.2046C83.3819 11.1976 83.8678 11.1898 84.3538 11.182C84.577 11.179 84.577 11.179 84.8048 11.1759C85.6064 11.1624 86.3995 11.1252 87.1978 11.05C88.0079 10.9796 88.6786 11.0019 89.451 11.2648Z" fill="white"/>
<path d="M251.654 68.4365C252.213 68.4365 252.773 68.4365 253.35 68.4365C253.283 69.1884 253.216 69.9403 253.149 70.6921C253.127 70.9474 253.104 71.2026 253.081 71.4579C253.049 71.8269 253.016 72.1958 252.983 72.5648C252.973 72.6771 252.963 72.7895 252.953 72.9052C252.933 73.1228 252.914 73.3404 252.894 73.5579C252.874 73.7896 252.854 74.0213 252.835 74.2531C252.825 74.372 252.815 74.4909 252.805 74.6133C252.796 74.7209 252.787 74.8284 252.778 74.9391C252.744 75.2196 252.744 75.2196 252.623 75.583C252.063 75.583 251.504 75.583 250.927 75.583C250.994 74.8311 251.061 74.0792 251.127 73.3274C251.15 73.0721 251.173 72.8169 251.195 72.5616C251.228 72.1926 251.261 71.8237 251.294 71.4547C251.304 71.3424 251.314 71.23 251.324 71.1143C251.343 70.8967 251.363 70.6791 251.382 70.4616C251.403 70.2299 251.423 69.9982 251.442 69.7664C251.452 69.6475 251.462 69.5286 251.472 69.4062C251.481 69.2986 251.489 69.1911 251.499 69.0804C251.533 68.7999 251.533 68.7999 251.654 68.4365Z" fill="white"/>
<path d="M253.066 65.2178C253.35 65.2864 253.35 65.2864 253.566 65.5069C253.782 65.895 253.759 66.1817 253.713 66.6188C253.447 67.1759 253.447 67.1759 253.108 67.3455C252.858 67.3701 252.858 67.3701 252.57 67.3758C252.475 67.3789 252.38 67.3821 252.283 67.3853C252.017 67.3455 252.017 67.3455 251.804 67.1951C251.523 66.7968 251.585 66.3574 251.654 65.892C251.961 65.2072 252.384 65.2188 253.066 65.2178Z" fill="white"/>
<path d="M29.8513 30.7661C30.202 30.9765 30.2163 31.1357 30.3207 31.5383C30.3375 32.026 30.2718 32.2061 29.9724 32.583C29.6021 32.7682 29.2904 32.7323 28.8822 32.7041C28.5945 32.583 28.5945 32.583 28.3976 32.3408C28.2723 31.9066 28.2336 31.52 28.3598 31.0841C28.7874 30.5547 29.22 30.6169 29.8513 30.7661Z" fill="white"/>
<path d="M29.2456 36.7006C29.6014 36.9504 29.6014 36.9504 29.8513 37.3062C29.9278 37.7905 29.9336 38.0339 29.6544 38.4418C29.2986 38.6853 29.0712 38.751 28.6399 38.7598C28.2931 38.61 28.0957 38.4773 27.8677 38.1768C27.7603 37.8013 27.8041 37.5586 27.9131 37.1851C28.2794 36.6497 28.6182 36.6016 29.2456 36.7006Z" fill="white"/>
<path d="M37.483 29.7973C37.7244 29.9888 37.8301 30.1281 37.9675 30.403C38.0009 30.7869 38.0003 31.0541 37.8464 31.4098C37.4812 31.7179 37.0972 31.7552 36.635 31.7353C36.2792 31.6218 36.2792 31.6218 36.0293 31.372C35.8904 30.9407 35.8687 30.5531 35.9839 30.1153C36.4025 29.6206 36.8939 29.6308 37.483 29.7973Z" fill="white"/>
<path d="M64.0239 11.1009C64.3578 11.1626 64.5204 11.2448 64.7389 11.5069C64.8984 12.031 64.8728 12.3561 64.6177 12.8393C64.3279 13.1291 64.2429 13.1204 63.8455 13.127C63.4618 13.1165 63.3095 13.0963 62.9748 12.8923C62.7314 12.4795 62.7344 12.221 62.8007 11.7491C63.1021 11.1589 63.3963 11.0565 64.0239 11.1009Z" fill="white"/>
<path d="M31.6685 33.6055C32.1388 33.6936 32.3301 33.7874 32.6376 34.1581C32.7242 34.5389 32.7242 34.8674 32.6376 35.2482C32.3301 35.6189 32.1388 35.7127 31.6685 35.8009C31.1674 35.7069 30.9961 35.5373 30.6994 35.1271C30.6237 34.7032 30.6237 34.7032 30.6994 34.2792C30.9961 33.869 31.1674 33.6994 31.6685 33.6055Z" fill="white"/>
<path d="M52.7463 27.4962C53.0946 27.746 53.0946 27.746 53.352 28.1018C53.4147 28.5484 53.4076 28.8254 53.2233 29.2374C52.8715 29.5324 52.5937 29.5475 52.1406 29.5553C51.7056 29.391 51.5727 29.2658 51.3608 28.8513C51.2793 28.3895 51.326 28.1562 51.535 27.7384C51.9088 27.4447 52.2842 27.4302 52.7463 27.4962Z" fill="white"/>
<path d="M80.2445 7.87349C80.5892 8.08742 80.6102 8.246 80.7139 8.64567C80.729 9.08475 80.729 9.08475 80.6154 9.43299C80.2994 9.75856 80.0839 9.8008 79.6393 9.82618C79.2491 9.80261 79.068 9.72528 78.7908 9.44813C78.6519 9.01685 78.6302 8.6293 78.7454 8.19145C79.164 7.69679 79.6553 7.70702 80.2445 7.87349Z" fill="white"/>
<path d="M64.7389 20.5909C65.0836 20.871 65.0987 21.0509 65.1628 21.4918C65.1023 21.9233 65.1023 21.9233 64.8449 22.2791C64.4966 22.5289 64.4966 22.5289 64.1332 22.597C63.6628 22.5089 63.4715 22.4151 63.1641 22.0444C63.0774 21.6633 63.0789 21.3356 63.1641 20.9543C63.5996 20.3827 64.0956 20.3765 64.7389 20.5909Z" fill="white"/>
<path d="M72.855 18.0479C73.2058 18.3329 73.2155 18.5052 73.2638 18.9564C73.1962 19.5876 73.1962 19.5876 72.855 19.8648C72.413 19.9924 72.0297 20.0339 71.5906 19.8875C71.4013 19.7437 71.4013 19.7437 71.2802 19.5014C71.2301 19.1309 71.2238 18.7813 71.2802 18.4113C71.7157 17.8397 72.2117 17.8335 72.855 18.0479Z" fill="white"/>
<path d="M69.4634 13.5667C69.7533 13.7941 69.8211 13.9118 69.9328 14.2707C69.9513 14.7439 69.8341 14.9862 69.5845 15.3836C69.2043 15.5737 68.9136 15.5473 68.4943 15.5047C68.1384 15.2549 68.1384 15.2549 67.8886 14.8991C67.8135 14.4235 67.8172 14.1722 68.0627 13.7559C68.5086 13.4841 68.9531 13.4624 69.4634 13.5667Z" fill="white"/>
<path d="M32.8798 38.1552C33.2356 38.405 33.2356 38.405 33.4855 38.7608C33.5626 39.2492 33.57 39.4897 33.281 39.8964C32.965 40.1184 32.7806 40.1955 32.3952 40.2143C32.0201 40.1009 31.8254 40.0079 31.5473 39.7298C31.4621 39.2167 31.4635 38.777 31.7365 38.3293C32.1529 38.0838 32.4042 38.0801 32.8798 38.1552Z" fill="white"/>
<path d="M45.8414 27.496C46.0686 27.6322 46.0686 27.6322 46.2049 27.8593C46.2957 28.6769 46.2957 28.6769 46.0231 29.1312C45.5931 29.3892 45.2402 29.391 44.7512 29.3129C44.4484 29.1993 44.4484 29.1993 44.2667 28.9495C44.1984 28.574 44.1981 28.2348 44.2667 27.8593C44.7308 27.2192 45.1415 27.2043 45.8414 27.496Z" fill="white"/>
<path d="M41.4276 25.3682C41.844 25.4363 41.844 25.4363 42.1317 25.6331C42.3752 25.989 42.4409 26.2163 42.4497 26.6476C42.2838 27.0771 42.1568 27.2172 41.7456 27.4273C41.2838 27.5088 41.0505 27.4621 40.6327 27.2532C40.4126 26.9731 40.39 26.766 40.3374 26.4129C40.3904 26.0419 40.3904 26.0419 40.6402 25.6937C40.9961 25.4363 40.9961 25.4363 41.4276 25.3682Z" fill="white"/>
<path d="M76.6106 5.8137C76.868 6.00738 76.9608 6.11733 77.0308 6.43399C77.0409 7.1865 77.0409 7.1865 76.7166 7.5776C76.304 7.78384 76.0959 7.83691 75.6415 7.75172C75.2932 7.50189 75.2932 7.50189 75.0358 7.14608C74.9711 6.68508 74.9685 6.42 75.1948 6.01053C75.6325 5.58903 76.0559 5.69485 76.6106 5.8137Z" fill="white"/>
<path d="M42.0864 30.4025C42.3818 30.7456 42.4498 30.9257 42.4498 31.3791C42.2951 31.8336 42.1368 31.9803 41.723 32.2194C41.3596 32.2875 41.3596 32.2875 40.9961 32.2194C40.6479 31.9696 40.6479 31.9696 40.3905 31.6138C40.3223 31.1823 40.3223 31.1823 40.3905 30.7659C40.6059 30.4736 40.775 30.3281 41.1021 30.1754C41.4863 30.1528 41.739 30.2399 42.0864 30.4025Z" fill="white"/>
<path d="M48.9909 24.1037C49.2531 24.2994 49.3427 24.404 49.4026 24.7282C49.4017 24.8219 49.4007 24.9156 49.3998 25.0121C49.4007 25.1058 49.4016 25.1995 49.4026 25.296C49.3427 25.62 49.2517 25.7238 48.9909 25.9206C48.5109 26.045 48.2506 26.0908 47.7947 25.8827C47.5373 25.6783 47.5373 25.6783 47.4161 25.4361C47.3599 24.5501 47.3599 24.5501 47.5751 24.2324C48.0667 23.9229 48.4414 23.9859 48.9909 24.1037Z" fill="white"/>
<path d="M59.7724 19.6218C60.0388 19.8121 60.1225 19.9202 60.1883 20.2421C60.1891 20.6982 60.188 20.9897 59.9465 21.3857C59.5337 21.6291 59.2752 21.6261 58.8033 21.5598C58.4475 21.3781 58.4475 21.3781 58.1976 21.0753C58.0851 20.5937 58.1255 20.2317 58.3718 19.8035C58.8193 19.5416 59.2654 19.5182 59.7724 19.6218Z" fill="white"/>
<path d="M62.4374 15.746C62.7932 15.9958 62.7932 15.9958 63.0431 16.3516C63.1202 16.84 63.1277 17.0805 62.8387 17.4872C62.5226 17.7093 62.3382 17.7864 61.9528 17.8052C61.5777 17.6918 61.383 17.5987 61.1049 17.3207C61.0197 16.8075 61.0211 16.3679 61.2942 15.9201C61.7105 15.6746 61.9618 15.6709 62.4374 15.746Z" fill="white"/>
<path d="M35.7872 33.9156C36.0959 34.1856 36.2357 34.4764 36.2718 34.8846C36.1503 35.3904 36.1077 35.5592 35.6661 35.8536C35.3008 35.8942 35.0484 35.9215 34.697 35.8536C34.2986 35.525 34.2235 35.3269 34.1519 34.8164C34.2124 34.4001 34.2124 34.4001 34.3866 34.1048C34.8434 33.8263 35.2656 33.8166 35.7872 33.9156Z" fill="white"/>
<path d="M32.6375 26.4053C32.9328 26.587 32.9328 26.587 33.1221 26.8898C33.1891 27.2269 33.1906 27.522 33.1221 27.8589C32.8913 28.1922 32.7241 28.3092 32.3498 28.4569C31.9191 28.4672 31.6682 28.3239 31.305 28.1011C31.1149 27.7209 31.1413 27.4302 31.1839 27.011C31.597 26.4227 31.9293 26.2895 32.6375 26.4053Z" fill="white"/>
<path d="M54.9269 24.3461C55.2297 24.5278 55.2297 24.5278 55.4114 24.8306C55.5072 25.3176 55.4867 25.6741 55.2297 26.1024C54.7996 26.3605 54.4468 26.3623 53.9578 26.2841C53.6549 26.1706 53.6549 26.1706 53.4732 25.9207C53.3786 25.4003 53.3853 24.9807 53.6549 24.5202C54.0845 24.2732 54.4432 24.2509 54.9269 24.3461Z" fill="white"/>
<path d="M67.6464 16.5941C67.9568 16.7834 67.9568 16.7834 68.131 17.0786C68.2183 17.6125 68.1939 17.8368 67.8811 18.2823C67.4355 18.5951 67.2112 18.6195 66.6773 18.5321C66.382 18.358 66.382 18.358 66.1928 18.0476C66.1193 17.5853 66.0625 17.1399 66.3442 16.7455C66.7386 16.4638 67.184 16.5207 67.6464 16.5941Z" fill="white"/>
<path d="M68.6153 9.51245C68.9387 9.58823 69.1075 9.69744 69.3422 9.9326C69.4023 10.2203 69.4023 10.2203 69.3952 10.5382C69.395 10.6432 69.3949 10.7481 69.3947 10.8562C69.3422 11.1439 69.3422 11.1439 69.1912 11.3606C68.9224 11.5461 68.7583 11.5559 68.4336 11.5527C68.3399 11.5536 68.2463 11.5545 68.1497 11.5555C67.8292 11.4963 67.7262 11.3952 67.5251 11.1439C67.3523 10.7983 67.3664 10.5583 67.404 10.1749C67.7122 9.58415 67.9908 9.50269 68.6153 9.51245Z" fill="white"/>
<path d="M37.9676 25.4364C38.3235 25.6863 38.3235 25.6863 38.5733 26.0421C38.6484 26.5176 38.6447 26.7689 38.3992 27.1852C37.9533 27.4571 37.5088 27.4788 36.9985 27.3745C36.7321 27.1842 36.6484 27.0761 36.5826 26.7542C36.5818 26.2981 36.5829 26.0066 36.8244 25.6106C37.2407 25.3651 37.4921 25.3614 37.9676 25.4364Z" fill="white"/>
<path d="M60.3783 23.3769C60.7341 23.6267 60.7341 23.6267 60.984 23.9825C61.059 24.458 61.0553 24.7094 60.8098 25.1256C60.3639 25.3975 59.9194 25.4192 59.4092 25.3149C59.1428 25.1246 59.0591 25.0165 58.9932 24.6946C58.9925 24.2385 58.9935 23.947 59.235 23.551C59.6513 23.3055 59.9027 23.3018 60.3783 23.3769Z" fill="white"/>
<path d="M75.278 15.1406C75.6471 15.4543 75.7492 15.637 75.808 16.1172C75.7642 16.4601 75.7109 16.6716 75.5203 16.9575C75.1411 17.1471 74.7219 17.1441 74.3089 17.0786C74.0392 16.9329 74.0392 16.9329 73.8244 16.7152C73.76 16.4275 73.76 16.4275 73.7638 16.1096C73.7625 16.0047 73.7613 15.8997 73.76 15.7916C73.8244 15.504 73.8244 15.504 74.0401 15.2882C74.456 15.0598 74.8166 15.0404 75.278 15.1406Z" fill="white"/>
<path d="M73.3397 11.1437C73.635 11.3254 73.635 11.3254 73.8243 11.6282C73.9203 12.1114 73.8968 12.471 73.6501 12.9C73.1896 13.1696 72.7699 13.1763 72.2495 13.0817C71.954 12.8668 71.9079 12.7194 71.8449 12.3663C71.8091 11.8989 71.8307 11.6953 72.1359 11.3254C72.5802 11.0986 72.8469 11.072 73.3397 11.1437Z" fill="white"/>
<path d="M85.9533 4.70801C86.1082 4.70832 86.2631 4.70863 86.4227 4.70895C86.5776 4.70864 86.7325 4.70833 86.8921 4.70801C87.2707 4.72409 87.2707 4.72409 87.3918 4.84522C87.4006 5.08985 87.402 5.33477 87.3994 5.57955C87.3983 5.71336 87.3972 5.84717 87.3961 5.98504C87.3947 6.08856 87.3933 6.19208 87.3918 6.29874C86.7177 6.28189 86.386 5.98709 85.906 5.55826C85.6971 5.33106 85.5756 5.12705 85.4536 4.84522C85.5748 4.72409 85.5748 4.72409 85.9533 4.70801Z" fill="white"/>
</svg>
