<svg width="93" height="26" viewBox="0 0 93 26" fill="none" xmlns="http://www.w3.org/2000/svg">
<g clip-path="url(#clip0_200_1199)">
<path d="M50.3663 18.8513C50.1961 18.8429 50.0302 18.9061 49.9087 19.0256C49.7978 19.1532 49.7399 19.3184 49.7466 19.4873C49.7397 19.655 49.7977 19.819 49.9087 19.9449C50.0297 20.0654 50.1957 20.1297 50.3663 20.1222C50.5373 20.1323 50.7043 20.0676 50.8238 19.9449C50.937 19.8201 50.9964 19.6556 50.9889 19.4873C50.9962 19.3178 50.9369 19.1521 50.8238 19.0256C50.7037 18.904 50.5368 18.8404 50.3663 18.8513Z" fill="#FAFAFA"/>
<path d="M50.3663 18.8513C50.1961 18.8429 50.0302 18.9061 49.9087 19.0256C49.7978 19.1532 49.7399 19.3184 49.7466 19.4873C49.7397 19.655 49.7977 19.819 49.9087 19.9449C50.0297 20.0654 50.1957 20.1297 50.3663 20.1222C50.5373 20.1323 50.7043 20.0676 50.8238 19.9449C50.937 19.8201 50.9964 19.6556 50.9889 19.4873C50.9962 19.3178 50.9369 19.1521 50.8238 19.0256C50.7037 18.904 50.5368 18.8404 50.3663 18.8513Z" fill="#674992" fill-opacity="0.01"/>
<path d="M53.5529 18.8513C53.3827 18.8429 53.2168 18.9061 53.0953 19.0256C52.9844 19.1532 52.9264 19.3184 52.9332 19.4873C52.9263 19.655 52.9843 19.819 53.0953 19.9449C53.2163 20.0654 53.3823 20.1297 53.5529 20.1222C53.7239 20.1323 53.8909 20.0676 54.0104 19.9449C54.1236 19.8201 54.183 19.6556 54.1755 19.4873C54.1828 19.3178 54.1235 19.1521 54.0104 19.0256C53.8903 18.904 53.7234 18.8404 53.5529 18.8513Z" fill="#FAFAFA"/>
<path d="M53.5529 18.8513C53.3827 18.8429 53.2168 18.9061 53.0953 19.0256C52.9844 19.1532 52.9264 19.3184 52.9332 19.4873C52.9263 19.655 52.9843 19.819 53.0953 19.9449C53.2163 20.0654 53.3823 20.1297 53.5529 20.1222C53.7239 20.1323 53.8909 20.0676 54.0104 19.9449C54.1236 19.8201 54.183 19.6556 54.1755 19.4873C54.1828 19.3178 54.1235 19.1521 54.0104 19.0256C53.8903 18.904 53.7234 18.8404 53.5529 18.8513Z" fill="#674992" fill-opacity="0.01"/>
<path d="M48.8854 11.0312C48.3697 11.0239 47.8736 11.2286 47.5132 11.5974C47.1527 11.9663 46.9596 12.467 46.9788 12.9824C46.9788 14.0353 47.8324 14.8889 48.8854 14.8889C49.9383 14.8889 50.7919 14.0353 50.7919 12.9824C50.8112 12.467 50.618 11.9663 50.2576 11.5974C49.8972 11.2286 49.4011 11.0239 48.8854 11.0312Z" fill="#FAFAFA"/>
<path d="M48.8854 11.0312C48.3697 11.0239 47.8736 11.2286 47.5132 11.5974C47.1527 11.9663 46.9596 12.467 46.9788 12.9824C46.9788 14.0353 47.8324 14.8889 48.8854 14.8889C49.9383 14.8889 50.7919 14.0353 50.7919 12.9824C50.8112 12.467 50.618 11.9663 50.2576 11.5974C49.8972 11.2286 49.4011 11.0239 48.8854 11.0312Z" fill="#674992" fill-opacity="0.01"/>
<path d="M56.6661 18.8512C56.4959 18.8429 56.33 18.906 56.2085 19.0255C56.0976 19.1531 56.0398 19.3183 56.0465 19.4872C56.0396 19.6549 56.0975 19.8189 56.2085 19.9448C56.4686 20.1811 56.8658 20.1811 57.1259 19.9448C57.2369 19.8189 57.295 19.6549 57.2881 19.4872C57.2949 19.3183 57.2368 19.1531 57.1259 19.0255C57.0039 18.9054 56.837 18.8422 56.6661 18.8512Z" fill="#FAFAFA"/>
<path d="M56.6661 18.8512C56.4959 18.8429 56.33 18.906 56.2085 19.0255C56.0976 19.1531 56.0398 19.3183 56.0465 19.4872C56.0396 19.6549 56.0975 19.8189 56.2085 19.9448C56.4686 20.1811 56.8658 20.1811 57.1259 19.9448C57.2369 19.8189 57.295 19.6549 57.2881 19.4872C57.2949 19.3183 57.2368 19.1531 57.1259 19.0255C57.0039 18.9054 56.837 18.8422 56.6661 18.8512Z" fill="#674992" fill-opacity="0.01"/>
<path d="M61.0179 18.7254C60.9403 18.7242 60.8632 18.7388 60.7914 18.7682C60.7294 18.7922 60.6724 18.8275 60.6232 18.8723C60.5329 18.9594 60.4784 19.0772 60.4707 19.2025H61.4953C61.5011 19.0768 61.4533 18.9545 61.3637 18.8662C61.2742 18.7718 61.1479 18.7205 61.0179 18.7254Z" fill="#FAFAFA"/>
<path d="M61.0179 18.7254C60.9403 18.7242 60.8632 18.7388 60.7914 18.7682C60.7294 18.7922 60.6724 18.8275 60.6232 18.8723C60.5329 18.9594 60.4784 19.0772 60.4707 19.2025H61.4953C61.5011 19.0768 61.4533 18.9545 61.3637 18.8662C61.2742 18.7718 61.1479 18.7205 61.0179 18.7254Z" fill="#674992" fill-opacity="0.01"/>
<path d="M43.1814 18.7254C43.1038 18.7242 43.0267 18.7388 42.9549 18.7681C42.8929 18.7922 42.8359 18.8275 42.7867 18.8722C42.7405 18.9144 42.703 18.9654 42.6765 19.0221C42.6516 19.0792 42.6372 19.1403 42.6338 19.2024H43.6558C43.6613 19.0749 43.6132 18.9508 43.5232 18.8602C43.4332 18.7696 43.309 18.7207 43.1814 18.7254Z" fill="#FAFAFA"/>
<path d="M43.1814 18.7254C43.1038 18.7242 43.0267 18.7388 42.9549 18.7681C42.8929 18.7922 42.8359 18.8275 42.7867 18.8722C42.7405 18.9144 42.703 18.9654 42.6765 19.0221C42.6516 19.0792 42.6372 19.1403 42.6338 19.2024H43.6558C43.6613 19.0749 43.6132 18.9508 43.5232 18.8602C43.4332 18.7696 43.309 18.7207 43.1814 18.7254Z" fill="#674992" fill-opacity="0.01"/>
<path d="M27.746 12.7405L26.5746 12.8549C25.6114 12.959 25.5225 13.465 25.5225 14.2657C25.5225 15.0665 25.5683 15.9538 26.5746 15.9538C27.272 15.9538 27.7154 15.2442 27.746 14.4583V12.7405Z" fill="#FAFAFA"/>
<path d="M27.746 12.7405L26.5746 12.8549C25.6114 12.959 25.5225 13.465 25.5225 14.2657C25.5225 15.0665 25.5683 15.9538 26.5746 15.9538C27.272 15.9538 27.7154 15.2442 27.746 14.4583V12.7405Z" fill="#674992" fill-opacity="0.01"/>
<path d="M28.7312 18.5727C28.6264 18.5747 28.5229 18.5965 28.4261 18.6368C28.2198 18.7147 28.0505 18.8676 27.9522 19.065C27.9054 19.1597 27.8823 19.2644 27.885 19.37H29.5182C29.5269 19.1631 29.452 18.9614 29.3104 18.8103C29.1602 18.6518 28.9493 18.5654 28.7312 18.5727Z" fill="#FAFAFA"/>
<path d="M28.7312 18.5727C28.6264 18.5747 28.5229 18.5965 28.4261 18.6368C28.2198 18.7147 28.0505 18.8676 27.9522 19.065C27.9054 19.1597 27.8823 19.2644 27.885 19.37H29.5182C29.5269 19.1631 29.452 18.9614 29.3104 18.8103C29.1602 18.6518 28.9493 18.5654 28.7312 18.5727Z" fill="#674992" fill-opacity="0.01"/>
<path d="M40.9673 11.0312C40.4522 11.0239 39.9566 11.2282 39.5963 11.5964C39.2359 11.9646 39.0424 12.4645 39.0608 12.9793C39.0608 14.0332 39.9151 14.8876 40.969 14.8876C42.023 14.8876 42.8773 14.0332 42.8773 12.9793C42.8957 12.4645 42.7022 11.9646 42.3418 11.5964C41.9815 11.2282 41.4859 11.0239 40.9708 11.0312H40.9673Z" fill="#FAFAFA"/>
<path d="M40.9673 11.0312C40.4522 11.0239 39.9566 11.2282 39.5963 11.5964C39.2359 11.9646 39.0424 12.4645 39.0608 12.9793C39.0608 14.0332 39.9151 14.8876 40.969 14.8876C42.023 14.8876 42.8773 14.0332 42.8773 12.9793C42.8957 12.4645 42.7022 11.9646 42.3418 11.5964C41.9815 11.2282 41.4859 11.0239 40.9708 11.0312H40.9673Z" fill="#674992" fill-opacity="0.01"/>
<path d="M68.0921 9.64893C67.2174 9.64893 67.0645 10.389 67.0645 11.753C67.0645 13.7713 67.4191 13.9916 68.0921 13.9916C68.7022 13.9916 69.135 13.8723 69.1533 11.8048C69.1369 9.86894 68.8982 9.64893 68.0921 9.64893Z" fill="#FAFAFA"/>
<path d="M68.0921 9.64893C67.2174 9.64893 67.0645 10.389 67.0645 11.753C67.0645 13.7713 67.4191 13.9916 68.0921 13.9916C68.7022 13.9916 69.135 13.8723 69.1533 11.8048C69.1369 9.86894 68.8982 9.64893 68.0921 9.64893Z" fill="#674992" fill-opacity="0.01"/>
<path d="M36.4413 18.8514C36.3603 18.7644 36.2625 18.6948 36.1538 18.6466C35.9091 18.5485 35.636 18.5485 35.3912 18.6466C35.2835 18.6948 35.1867 18.7645 35.1068 18.8514C35.0274 18.9404 34.9661 19.044 34.9264 19.1564C34.8409 19.3999 34.8409 19.6652 34.9264 19.9087C35.0032 20.1364 35.1717 20.3216 35.3912 20.4193C35.636 20.5174 35.9091 20.5174 36.1538 20.4193C36.262 20.3703 36.3597 20.3008 36.4413 20.2145C36.5206 20.1249 36.5827 20.0215 36.6248 19.9095C36.7103 19.666 36.7103 19.4006 36.6248 19.1572C36.5828 19.0449 36.5206 18.9412 36.4413 18.8514Z" fill="#FAFAFA"/>
<path d="M36.4413 18.8514C36.3603 18.7644 36.2625 18.6948 36.1538 18.6466C35.9091 18.5485 35.636 18.5485 35.3912 18.6466C35.2835 18.6948 35.1867 18.7645 35.1068 18.8514C35.0274 18.9404 34.9661 19.044 34.9264 19.1564C34.8409 19.3999 34.8409 19.6652 34.9264 19.9087C35.0032 20.1364 35.1717 20.3216 35.3912 20.4193C35.636 20.5174 35.9091 20.5174 36.1538 20.4193C36.262 20.3703 36.3597 20.3008 36.4413 20.2145C36.5206 20.1249 36.5827 20.0215 36.6248 19.9095C36.7103 19.666 36.7103 19.4006 36.6248 19.1572C36.5828 19.0449 36.5206 18.9412 36.4413 18.8514Z" fill="#674992" fill-opacity="0.01"/>
<path d="M67.8916 21.1111C69.5918 21.1111 71.1056 19.9671 71.1056 18.7378C71.1056 17.7102 70.552 17.5603 68.867 17.5603H66.2245C65.7653 18.0111 65.5148 18.633 65.5332 19.2762C65.5523 20.0846 66.3747 21.1111 67.8916 21.1111Z" fill="#FAFAFA"/>
<path d="M67.8916 21.1111C69.5918 21.1111 71.1056 19.9671 71.1056 18.7378C71.1056 17.7102 70.552 17.5603 68.867 17.5603H66.2245C65.7653 18.0111 65.5148 18.633 65.5332 19.2762C65.5523 20.0846 66.3747 21.1111 67.8916 21.1111Z" fill="#674992" fill-opacity="0.01"/>
<path d="M0.617188 0.715576V25.2581H92.3646V0.715576H0.617188ZM86.1229 16.2348C86.1229 15.8894 86.0955 15.5283 86.0955 15.1672H86.0684C85.6352 15.9522 84.7962 16.4255 83.9003 16.3904C82.1909 16.3904 81.4294 15.3079 81.4294 13.7388V9.73733H82.5089V13.6396C82.5089 14.7252 82.9829 15.4043 83.9983 15.4043C85.4019 15.4043 86.0135 14.392 86.0135 12.9056V9.73733H87.093V14.6943C87.093 15.3044 87.1479 15.8043 87.1479 16.2234H86.1233L86.1229 16.2348ZM80.4376 12.9716V13.3201H75.1866C75.2335 14.4728 76.1737 15.3876 77.3273 15.4028C78.1379 15.4416 78.9141 15.0718 79.3948 14.4179L80.2142 15.057C79.5413 15.9648 78.4552 16.4711 77.3273 16.4026C75.2842 16.4026 74.0366 14.8736 74.0366 12.9865C74.0366 10.9712 75.4524 9.57032 77.37 9.57032C79.1896 9.58443 80.4376 10.8077 80.4376 12.9731V12.9716ZM72.4252 14.6535C72.7617 14.6535 73.0651 14.8563 73.1939 15.1672C73.3227 15.4781 73.2515 15.8359 73.0135 16.0739C72.7756 16.3118 72.4177 16.383 72.1068 16.2542C71.7959 16.1255 71.5932 15.8221 71.5932 15.4856C71.5949 15.0267 71.9664 14.6552 72.4252 14.6535ZM30.5083 11.6671C30.5083 10.2205 31.8082 9.56994 33.1199 9.56994C34.0038 9.51781 34.861 9.88361 35.4348 10.5579L34.3523 11.5337C34.0718 11.1072 33.5906 10.8562 33.0803 10.8702C32.646 10.8702 32.1323 11.075 32.1323 11.5615C32.1323 12.7237 35.6369 11.7785 35.6369 14.3138C35.6369 15.8428 34.1628 16.3965 32.8355 16.3965C31.8848 16.4612 30.9557 16.0936 30.3066 15.396L31.3888 14.3798C31.7491 14.8665 32.3125 15.1616 32.9178 15.1805C33.3918 15.1805 34.0004 14.9479 34.0004 14.4343C34.0133 13.0894 30.5083 14.1445 30.5083 11.6671ZM8.92018 16.4716C7.73209 16.5316 6.57997 16.0544 5.78239 15.1717L7.06702 13.9272C7.4894 14.5585 8.20066 14.9354 8.96022 14.9304C9.74609 14.9304 10.638 14.4961 10.638 13.6152C10.638 11.5203 6.09049 12.7222 6.09049 9.29997C6.09049 7.32441 7.85213 6.40203 9.62293 6.40203C10.6333 6.3648 11.6192 6.71868 12.3752 7.39L11.1306 8.70208C10.7263 8.19364 10.1017 7.91127 9.45287 7.94366C8.66699 7.94366 7.88111 8.29523 7.88111 9.1669C7.88111 11.0875 12.4286 9.99281 12.4286 13.4025C12.4252 15.4722 10.8012 16.4716 8.92018 16.4716ZM17.1992 11.1135H15.4101V13.9546C15.4101 14.6028 15.6007 15.0097 16.3275 15.0097C16.634 15.0236 16.9384 14.9539 17.2083 14.808V16.175C16.7966 16.3277 16.3596 16.4003 15.9206 16.3889C14.2021 16.3889 13.7983 15.6183 13.7983 14.0923V11.1135H12.4465V9.73123H13.7891V7.54786H15.4101V9.73161H17.1992V11.1135ZM22.2881 11.2359C22.0324 11.1618 21.7683 11.1207 21.5022 11.1135C21.0493 11.082 20.6037 11.2405 20.2724 11.5509C19.941 11.8613 19.7539 12.2956 19.7558 12.7497V16.2299H18.1318V9.73123H19.7558V10.7608H19.7833C20.2274 9.82113 21.2962 9.35269 22.2881 9.66298V11.2359ZM22.4788 14.5998C22.4788 13.0555 23.9468 12.7005 25.2955 12.5968L26.7483 12.4774V11.2267C26.7483 10.3368 26.6015 9.78919 25.4899 9.78919C24.9855 9.78919 24.126 9.90854 24.1413 10.2327C24.1413 10.4866 24.8966 10.4405 24.8966 11.1501C24.9077 11.3907 24.8154 11.6245 24.6431 11.7928C24.4707 11.9611 24.2347 12.0477 23.9945 12.0309C23.7328 12.0523 23.4749 11.9578 23.2889 11.7724C23.103 11.5871 23.0077 11.3295 23.0282 11.0677C23.0282 10.2357 24.1108 9.51122 25.594 9.51122C27.1231 9.51122 28.7074 9.92417 28.7074 11.6153V15.0375C28.7074 15.4951 28.7837 15.7776 29.0506 15.7776C29.4052 15.7776 29.5673 15.3342 29.5673 14.9487H29.8342C29.8342 15.8234 29.2241 16.4015 28.2499 16.4015C27.6124 16.4353 27.021 16.0695 26.7666 15.484C26.3811 16.1936 25.3557 16.4015 24.7788 16.4015C23.6379 16.4015 22.4822 15.8817 22.4822 14.5941L22.4788 14.5998ZM28.9 19.6308H26.8722C26.8815 19.7522 26.9116 19.8711 26.961 19.9823C27.0076 20.0848 27.0721 20.178 27.1517 20.2576C27.2311 20.3355 27.3245 20.3977 27.427 20.441C27.5331 20.487 27.6477 20.5098 27.7633 20.5082C27.93 20.5119 28.0943 20.4684 28.2373 20.3827C28.361 20.3058 28.4654 20.2014 28.5423 20.0777L28.8054 20.2946C28.6806 20.4628 28.517 20.5982 28.3284 20.6893C28.1526 20.7691 27.9617 20.8098 27.7686 20.8086C27.5976 20.8098 27.4281 20.7765 27.2703 20.7106C27.1214 20.6487 26.9863 20.558 26.8726 20.4437C26.7604 20.3262 26.6721 20.188 26.6125 20.0369C26.5474 19.8768 26.5151 19.7052 26.5176 19.5324C26.5159 19.3589 26.547 19.1867 26.6095 19.0249C26.6709 18.8756 26.759 18.7387 26.8695 18.6211C26.9796 18.5081 27.1105 18.4174 27.255 18.3541C27.3837 18.2915 27.5249 18.2591 27.668 18.2592C27.859 18.257 28.0488 18.2902 28.2277 18.3572C28.3657 18.4191 28.4895 18.5086 28.5915 18.6203C28.6927 18.7302 28.7698 18.8601 28.8176 19.0016C28.8699 19.152 28.8957 19.3103 28.8939 19.4695L28.9 19.6308ZM31.1356 20.7469V20.3617C31.0496 20.4915 30.9314 20.5966 30.7924 20.6668C30.7195 20.7059 30.6429 20.7377 30.5636 20.7617C30.4848 20.7832 30.4036 20.7945 30.3219 20.7953C30.0681 20.8154 29.8179 20.725 29.6355 20.5474C29.461 20.3597 29.3647 20.1124 29.3663 19.8561V18.3282H29.7057V19.6769C29.7054 19.7968 29.7156 19.9165 29.7362 20.0346C29.7538 20.1277 29.7903 20.2162 29.8433 20.2946C29.8932 20.3666 29.9634 20.422 30.0451 20.4536C30.1422 20.4916 30.2458 20.5103 30.3501 20.5085C30.3985 20.5048 30.4465 20.4977 30.4939 20.4872C30.5856 20.4702 30.6718 20.4309 30.7448 20.3728C30.8444 20.3001 30.9252 20.2047 30.9804 20.0944C31.0575 19.934 31.0931 19.7567 31.0837 19.5789V18.3206H31.4231V20.4559C31.4229 20.551 31.429 20.6461 31.4414 20.7404L31.1356 20.7469ZM33.3407 18.6275C33.2772 18.6093 33.2112 18.6011 33.1451 18.6031C33.0287 18.5996 32.9132 18.6247 32.8088 18.6763C32.719 18.7242 32.6399 18.7897 32.5762 18.8689C32.5157 18.9436 32.4691 19.0286 32.4385 19.1198C32.4199 19.2021 32.4148 19.2868 32.4233 19.3707V20.7343H32.0801V18.3091H32.4183V18.7591C32.4423 18.6921 32.4763 18.6292 32.5194 18.5726C32.5665 18.5102 32.6221 18.4546 32.6845 18.4075C32.7513 18.358 32.8256 18.3194 32.9045 18.2931C32.997 18.2614 33.0942 18.2459 33.192 18.2474C33.2777 18.2456 33.3631 18.2559 33.4459 18.2779L33.3407 18.6275ZM35.9523 20.0384C35.8911 20.1894 35.8004 20.3267 35.6854 20.4422C35.5693 20.5579 35.4309 20.6487 35.2785 20.7091C34.9463 20.8397 34.577 20.8397 34.2448 20.7091C34.0938 20.6479 33.9565 20.5572 33.841 20.4422C33.7249 20.3276 33.634 20.1901 33.5741 20.0384C33.5079 19.8785 33.4746 19.7069 33.4761 19.5339C33.4749 19.3599 33.5082 19.1874 33.5741 19.0264C33.6961 18.7209 33.9382 18.4789 34.2436 18.3568C34.5766 18.2304 34.9444 18.2304 35.2774 18.3568C35.4297 18.4172 35.5682 18.508 35.6842 18.6237C35.7979 18.7402 35.8885 18.8773 35.9511 19.0275C36.016 19.1888 36.0483 19.3613 36.0461 19.5351C36.0524 19.707 36.0243 19.8786 35.9633 20.0395L35.9523 20.0384ZM40.4258 20.7411H39.6521V19.2792C39.6538 19.1726 39.6275 19.0674 39.5759 18.9741C39.5172 18.8859 39.4143 18.8375 39.3089 18.8487C39.2324 18.8466 39.1563 18.8612 39.0859 18.8914C39.0274 18.9192 38.977 18.9613 38.9391 19.0138C38.9021 19.0684 38.8762 19.1296 38.8628 19.1942C38.8468 19.2654 38.8386 19.3381 38.8384 19.4111V20.7381H38.0655V19.2472C38.0626 19.1834 38.0498 19.1205 38.0274 19.0607C38.0084 19.0023 37.9734 18.9503 37.9263 18.9109C37.8677 18.8665 37.7949 18.8448 37.7216 18.8498C37.6379 18.8468 37.5548 18.8646 37.4798 18.9017C37.4198 18.9361 37.371 18.9871 37.3391 19.0485C37.3047 19.112 37.2829 19.1815 37.275 19.2533C37.2625 19.3312 37.2564 19.41 37.2567 19.4889V20.7396H36.4903V18.2302H37.2335V18.5734C37.2608 18.5204 37.2947 18.471 37.3345 18.4266C37.3832 18.3774 37.4376 18.3342 37.4966 18.2981C37.5629 18.2591 37.6337 18.2282 37.7075 18.2062C37.7917 18.1805 37.8794 18.1676 37.9675 18.1681C38.1298 18.1659 38.2902 18.2026 38.4354 18.2752C38.5734 18.3512 38.6811 18.4724 38.7404 18.6184C38.8136 18.4731 38.9272 18.3521 39.0676 18.2699C39.2129 18.1983 39.3736 18.1636 39.5354 18.1688C39.6829 18.1636 39.8296 18.193 39.9636 18.2546C40.0737 18.3063 40.1677 18.3866 40.2359 18.4872C40.306 18.5922 40.3558 18.7094 40.3827 18.8327C40.4115 18.9726 40.4258 19.115 40.4254 19.2578L40.4258 20.7411ZM43.432 19.7288H41.6345C41.6591 19.8666 41.7303 19.9918 41.8363 20.0834C42.0398 20.2399 42.3177 20.258 42.5398 20.1291C42.6303 20.0722 42.7081 19.9973 42.7686 19.9091L43.3131 20.3068C43.1883 20.4657 43.0267 20.5916 42.8421 20.6736C42.6586 20.7605 42.458 20.8054 42.2549 20.8052C42.0683 20.8055 41.883 20.7734 41.7074 20.7102C41.5432 20.6519 41.3923 20.5611 41.2639 20.4433C41.1338 20.3279 41.0298 20.1861 40.9589 20.0273C40.8122 19.6803 40.8122 19.2887 40.9589 18.9417C41.0298 18.783 41.1338 18.6411 41.2639 18.5257C41.3932 18.409 41.5437 18.3184 41.7074 18.2588C41.8832 18.1966 42.0685 18.1655 42.2549 18.1669C42.4215 18.1649 42.5868 18.1961 42.7411 18.2588C42.8839 18.3186 43.0114 18.4099 43.114 18.5257C43.2192 18.6475 43.2992 18.7889 43.3497 18.9417C43.407 19.1175 43.4349 19.3014 43.4324 19.4862L43.432 19.7288ZM40.295 16.3874C39.4006 16.4355 38.5485 16.0029 38.0594 15.2526H38.0319V16.2283H36.5029V5.99708H38.1265V10.5571H38.1646C38.7045 9.90078 39.5241 9.53989 40.3728 9.58481C42.226 9.58481 43.5106 11.0742 43.5106 12.9949C43.5106 14.9155 42.298 16.3874 40.295 16.3874ZM45.5765 18.8338H44.8902V19.675C44.8867 19.7371 44.8867 19.7993 44.8902 19.8615C44.8942 19.9132 44.9098 19.9634 44.9359 20.0083C44.9618 20.0513 45.0003 20.0855 45.0461 20.1063C45.1095 20.1304 45.177 20.1418 45.2448 20.1398C45.3001 20.1382 45.3552 20.1331 45.4099 20.1246C45.4655 20.1215 45.5188 20.1012 45.5624 20.0666V20.7118C45.475 20.7421 45.3849 20.7636 45.2932 20.7758H45.0179C44.8964 20.7765 44.7752 20.7621 44.6572 20.7331C44.5475 20.7107 44.4437 20.6659 44.3521 20.6016C44.2691 20.5406 44.2028 20.4595 44.1596 20.3659C44.1102 20.2554 44.0863 20.1353 44.0894 20.0144V18.851H43.5937V18.2409H44.0894V17.487H44.8631V18.2302H45.5735L45.5765 18.8338ZM47.7755 18.8857C47.7225 18.869 47.6683 18.8563 47.6135 18.8476C47.5575 18.8429 47.5013 18.8429 47.4453 18.8476C47.3251 18.8426 47.2052 18.8634 47.0937 18.9086C47.012 18.9461 46.9429 19.0066 46.8951 19.0828C46.8463 19.1645 46.815 19.2554 46.8032 19.3497C46.7905 19.4624 46.7844 19.5757 46.7849 19.6891V20.7381H46.0082V18.2302H46.7971V18.634C46.8681 18.4942 46.9729 18.3744 47.1021 18.2855C47.2306 18.2037 47.3813 18.1638 47.5334 18.1711H47.668L47.7904 18.1925L47.7755 18.8857ZM44.3502 12.9823C44.3502 10.9362 45.9254 9.58443 47.8857 9.58443C49.846 9.58443 51.4182 10.9514 51.4182 12.9975C51.4182 15.0436 49.8548 16.3893 47.8857 16.3893C45.9166 16.3893 44.3502 15.0249 44.3502 12.9823ZM50.6502 20.0163C50.5779 20.1743 50.4741 20.3158 50.3452 20.4323C50.2156 20.5501 50.0638 20.6408 49.8986 20.6992C49.5467 20.8254 49.1619 20.8254 48.81 20.6992C48.2897 20.5211 47.9454 20.0257 47.9597 19.476C47.9558 19.2889 47.9923 19.1031 48.0668 18.9314C48.1391 18.7734 48.2429 18.6319 48.3719 18.5154C48.5018 18.398 48.6535 18.3073 48.8184 18.2485C49.171 18.1262 49.5545 18.1262 49.907 18.2485C50.0716 18.308 50.2232 18.3986 50.3535 18.5154C50.4825 18.6319 50.5863 18.7734 50.6586 18.9314C50.8011 19.2793 50.8011 19.6692 50.6586 20.017L50.6502 20.0163ZM53.8673 19.9827C53.8179 20.1369 53.7412 20.2809 53.6408 20.4079C53.5443 20.5347 53.4211 20.6388 53.2801 20.7129C53.1318 20.7897 52.967 20.829 52.8 20.8273C52.6459 20.8276 52.4929 20.8019 52.3474 20.751C52.2032 20.6987 52.0799 20.601 51.9958 20.4727V21.9217H51.2222V18.2302H51.9348V18.5608C51.9721 18.5129 52.0131 18.4679 52.0572 18.4262C52.11 18.3752 52.1697 18.332 52.2345 18.2977C52.3046 18.2598 52.3783 18.229 52.4546 18.2058C52.5357 18.1803 52.6204 18.1674 52.7055 18.1677C52.8793 18.1649 53.0519 18.1972 53.213 18.2626C53.3607 18.3244 53.494 18.4161 53.6046 18.5318C53.7137 18.6511 53.7989 18.7903 53.8555 18.9417C53.9143 19.1097 53.9433 19.2866 53.9413 19.4645C53.946 19.6396 53.9211 19.8143 53.8677 19.9812L53.8673 19.9827ZM56.9254 20.0407C56.854 20.1992 56.7501 20.3409 56.6203 20.4567C56.4924 20.5751 56.3414 20.6659 56.1769 20.7236C55.825 20.8498 55.4401 20.8498 55.0882 20.7236C54.5689 20.5437 54.2244 20.0499 54.2349 19.5004C54.232 19.313 54.2696 19.1273 54.3451 18.9558C54.4174 18.7978 54.5212 18.6563 54.6501 18.5398C54.78 18.4224 54.9317 18.3317 55.0966 18.2729C55.4492 18.1506 55.8327 18.1506 56.1853 18.2729C56.3492 18.3318 56.5 18.4225 56.6287 18.5398C56.7585 18.6556 56.8624 18.7973 56.9338 18.9558C57.0763 19.3037 57.0763 19.6936 56.9338 20.0414L56.9254 20.0407ZM58.2405 20.7533H57.4638V17.0466H58.2405V20.7533ZM58.2405 16.2425H56.7115V15.1874H56.684C56.3361 15.964 55.5426 16.4431 54.6932 16.3893C52.9468 16.3893 52.326 15.166 52.326 13.8326V9.73123H53.95V13.0219C53.95 13.7376 54.0019 14.9285 55.1397 14.9285C56.2101 14.9285 56.6291 14.1426 56.6291 13.277V9.73085H58.2531L58.2405 16.2425ZM61.2529 19.741H59.4531C59.4776 19.8788 59.5489 20.004 59.6548 20.0956C59.7616 20.1845 59.8972 20.2313 60.0361 20.2271C60.1503 20.2314 60.2631 20.2015 60.3602 20.1413C60.45 20.0835 60.5277 20.0088 60.589 19.9213L61.1305 20.319C61.0076 20.4785 60.8467 20.6046 60.6626 20.6858C60.478 20.7727 60.2764 20.8177 60.0723 20.8174C59.8857 20.8175 59.7005 20.7854 59.5248 20.7224C59.3606 20.6641 59.2097 20.5733 59.0813 20.4555C58.9523 20.3391 58.8485 20.1975 58.7763 20.0395C58.6337 19.6917 58.6337 19.3018 58.7763 18.9539C58.8485 18.7959 58.9523 18.6544 59.0813 18.5379C59.2106 18.4212 59.3611 18.3306 59.5248 18.271C59.7007 18.2091 59.8859 18.178 60.0723 18.1791C60.2399 18.1772 60.4061 18.2084 60.5615 18.271C60.7035 18.3308 60.83 18.4221 60.9314 18.5379C61.0366 18.6598 61.1166 18.8011 61.1671 18.9539C61.2244 19.1297 61.2523 19.3136 61.2498 19.4984L61.2529 19.741ZM63.4915 11.2481C63.2369 11.174 62.9738 11.1329 62.7087 11.1257C62.2555 11.0942 61.8096 11.2526 61.4778 11.563C61.146 11.8733 60.9582 12.3076 60.9593 12.7619V16.2318H59.3387V9.73123H60.9596V10.7608H60.9871C61.4312 9.82113 62.5 9.35269 63.4919 9.66298L63.4915 11.2481ZM69.3328 10.1838C69.7896 10.6312 70.0502 11.2417 70.0573 11.881C70.0573 13.4806 68.5099 14.3062 67.0602 14.3062C66.8274 14.3104 66.5955 14.2763 66.3738 14.2051C66.1933 14.1479 66.0062 14.1139 65.8171 14.1041C65.1781 14.1041 64.4532 14.5616 64.4532 14.9788C64.4532 15.396 65.0251 15.4497 65.4473 15.4497H68.2426C69.891 15.4162 70.6891 16.1563 70.6891 17.7894C70.6891 19.8447 69.1601 21.4256 66.8173 21.4256C64.9458 21.4256 63.4808 20.4685 63.4808 19.2205C63.4808 18.4132 64.2576 17.7402 64.9298 17.5538V17.5202C64.2233 17.3185 63.8351 16.6791 63.8351 15.8383C63.7769 14.8422 64.5255 13.9822 65.5201 13.9024V13.8642C64.6734 13.5366 64.1173 12.7199 64.1226 11.812C64.1226 10.283 65.6364 9.36556 67.0495 9.36556C67.7983 9.33712 68.5362 9.55109 69.1536 9.97565C69.4561 9.55057 69.9302 9.27994 70.45 9.23553C70.6513 9.23712 70.85 9.27981 71.0342 9.36098C71.2888 9.44605 71.4933 9.63835 71.5939 9.88719C71.6137 9.95367 71.624 10.0226 71.6244 10.092C71.6239 10.1673 71.6137 10.2423 71.5939 10.315C71.5367 10.5943 71.3323 10.8204 71.0601 10.9053C70.9693 10.9351 70.8743 10.9505 70.7787 10.951C70.5742 10.9577 70.3759 10.8805 70.2297 10.7372C70.0836 10.594 70.0024 10.3972 70.005 10.1926C69.9771 9.87186 70.1632 9.57086 70.4626 9.4525V9.41894C69.8052 9.4952 69.6523 9.86545 69.3496 10.1682L69.3328 10.1838Z" fill="#FAFAFA"/>
<path d="M0.617188 0.715576V25.2581H92.3646V0.715576H0.617188ZM86.1229 16.2348C86.1229 15.8894 86.0955 15.5283 86.0955 15.1672H86.0684C85.6352 15.9522 84.7962 16.4255 83.9003 16.3904C82.1909 16.3904 81.4294 15.3079 81.4294 13.7388V9.73733H82.5089V13.6396C82.5089 14.7252 82.9829 15.4043 83.9983 15.4043C85.4019 15.4043 86.0135 14.392 86.0135 12.9056V9.73733H87.093V14.6943C87.093 15.3044 87.1479 15.8043 87.1479 16.2234H86.1233L86.1229 16.2348ZM80.4376 12.9716V13.3201H75.1866C75.2335 14.4728 76.1737 15.3876 77.3273 15.4028C78.1379 15.4416 78.9141 15.0718 79.3948 14.4179L80.2142 15.057C79.5413 15.9648 78.4552 16.4711 77.3273 16.4026C75.2842 16.4026 74.0366 14.8736 74.0366 12.9865C74.0366 10.9712 75.4524 9.57032 77.37 9.57032C79.1896 9.58443 80.4376 10.8077 80.4376 12.9731V12.9716ZM72.4252 14.6535C72.7617 14.6535 73.0651 14.8563 73.1939 15.1672C73.3227 15.4781 73.2515 15.8359 73.0135 16.0739C72.7756 16.3118 72.4177 16.383 72.1068 16.2542C71.7959 16.1255 71.5932 15.8221 71.5932 15.4856C71.5949 15.0267 71.9664 14.6552 72.4252 14.6535ZM30.5083 11.6671C30.5083 10.2205 31.8082 9.56994 33.1199 9.56994C34.0038 9.51781 34.861 9.88361 35.4348 10.5579L34.3523 11.5337C34.0718 11.1072 33.5906 10.8562 33.0803 10.8702C32.646 10.8702 32.1323 11.075 32.1323 11.5615C32.1323 12.7237 35.6369 11.7785 35.6369 14.3138C35.6369 15.8428 34.1628 16.3965 32.8355 16.3965C31.8848 16.4612 30.9557 16.0936 30.3066 15.396L31.3888 14.3798C31.7491 14.8665 32.3125 15.1616 32.9178 15.1805C33.3918 15.1805 34.0004 14.9479 34.0004 14.4343C34.0133 13.0894 30.5083 14.1445 30.5083 11.6671ZM8.92018 16.4716C7.73209 16.5316 6.57997 16.0544 5.78239 15.1717L7.06702 13.9272C7.4894 14.5585 8.20066 14.9354 8.96022 14.9304C9.74609 14.9304 10.638 14.4961 10.638 13.6152C10.638 11.5203 6.09049 12.7222 6.09049 9.29997C6.09049 7.32441 7.85213 6.40203 9.62293 6.40203C10.6333 6.3648 11.6192 6.71868 12.3752 7.39L11.1306 8.70208C10.7263 8.19364 10.1017 7.91127 9.45287 7.94366C8.66699 7.94366 7.88111 8.29523 7.88111 9.1669C7.88111 11.0875 12.4286 9.99281 12.4286 13.4025C12.4252 15.4722 10.8012 16.4716 8.92018 16.4716ZM17.1992 11.1135H15.4101V13.9546C15.4101 14.6028 15.6007 15.0097 16.3275 15.0097C16.634 15.0236 16.9384 14.9539 17.2083 14.808V16.175C16.7966 16.3277 16.3596 16.4003 15.9206 16.3889C14.2021 16.3889 13.7983 15.6183 13.7983 14.0923V11.1135H12.4465V9.73123H13.7891V7.54786H15.4101V9.73161H17.1992V11.1135ZM22.2881 11.2359C22.0324 11.1618 21.7683 11.1207 21.5022 11.1135C21.0493 11.082 20.6037 11.2405 20.2724 11.5509C19.941 11.8613 19.7539 12.2956 19.7558 12.7497V16.2299H18.1318V9.73123H19.7558V10.7608H19.7833C20.2274 9.82113 21.2962 9.35269 22.2881 9.66298V11.2359ZM22.4788 14.5998C22.4788 13.0555 23.9468 12.7005 25.2955 12.5968L26.7483 12.4774V11.2267C26.7483 10.3368 26.6015 9.78919 25.4899 9.78919C24.9855 9.78919 24.126 9.90854 24.1413 10.2327C24.1413 10.4866 24.8966 10.4405 24.8966 11.1501C24.9077 11.3907 24.8154 11.6245 24.6431 11.7928C24.4707 11.9611 24.2347 12.0477 23.9945 12.0309C23.7328 12.0523 23.4749 11.9578 23.2889 11.7724C23.103 11.5871 23.0077 11.3295 23.0282 11.0677C23.0282 10.2357 24.1108 9.51122 25.594 9.51122C27.1231 9.51122 28.7074 9.92417 28.7074 11.6153V15.0375C28.7074 15.4951 28.7837 15.7776 29.0506 15.7776C29.4052 15.7776 29.5673 15.3342 29.5673 14.9487H29.8342C29.8342 15.8234 29.2241 16.4015 28.2499 16.4015C27.6124 16.4353 27.021 16.0695 26.7666 15.484C26.3811 16.1936 25.3557 16.4015 24.7788 16.4015C23.6379 16.4015 22.4822 15.8817 22.4822 14.5941L22.4788 14.5998ZM28.9 19.6308H26.8722C26.8815 19.7522 26.9116 19.8711 26.961 19.9823C27.0076 20.0848 27.0721 20.178 27.1517 20.2576C27.2311 20.3355 27.3245 20.3977 27.427 20.441C27.5331 20.487 27.6477 20.5098 27.7633 20.5082C27.93 20.5119 28.0943 20.4684 28.2373 20.3827C28.361 20.3058 28.4654 20.2014 28.5423 20.0777L28.8054 20.2946C28.6806 20.4628 28.517 20.5982 28.3284 20.6893C28.1526 20.7691 27.9617 20.8098 27.7686 20.8086C27.5976 20.8098 27.4281 20.7765 27.2703 20.7106C27.1214 20.6487 26.9863 20.558 26.8726 20.4437C26.7604 20.3262 26.6721 20.188 26.6125 20.0369C26.5474 19.8768 26.5151 19.7052 26.5176 19.5324C26.5159 19.3589 26.547 19.1867 26.6095 19.0249C26.6709 18.8756 26.759 18.7387 26.8695 18.6211C26.9796 18.5081 27.1105 18.4174 27.255 18.3541C27.3837 18.2915 27.5249 18.2591 27.668 18.2592C27.859 18.257 28.0488 18.2902 28.2277 18.3572C28.3657 18.4191 28.4895 18.5086 28.5915 18.6203C28.6927 18.7302 28.7698 18.8601 28.8176 19.0016C28.8699 19.152 28.8957 19.3103 28.8939 19.4695L28.9 19.6308ZM31.1356 20.7469V20.3617C31.0496 20.4915 30.9314 20.5966 30.7924 20.6668C30.7195 20.7059 30.6429 20.7377 30.5636 20.7617C30.4848 20.7832 30.4036 20.7945 30.3219 20.7953C30.0681 20.8154 29.8179 20.725 29.6355 20.5474C29.461 20.3597 29.3647 20.1124 29.3663 19.8561V18.3282H29.7057V19.6769C29.7054 19.7968 29.7156 19.9165 29.7362 20.0346C29.7538 20.1277 29.7903 20.2162 29.8433 20.2946C29.8932 20.3666 29.9634 20.422 30.0451 20.4536C30.1422 20.4916 30.2458 20.5103 30.3501 20.5085C30.3985 20.5048 30.4465 20.4977 30.4939 20.4872C30.5856 20.4702 30.6718 20.4309 30.7448 20.3728C30.8444 20.3001 30.9252 20.2047 30.9804 20.0944C31.0575 19.934 31.0931 19.7567 31.0837 19.5789V18.3206H31.4231V20.4559C31.4229 20.551 31.429 20.6461 31.4414 20.7404L31.1356 20.7469ZM33.3407 18.6275C33.2772 18.6093 33.2112 18.6011 33.1451 18.6031C33.0287 18.5996 32.9132 18.6247 32.8088 18.6763C32.719 18.7242 32.6399 18.7897 32.5762 18.8689C32.5157 18.9436 32.4691 19.0286 32.4385 19.1198C32.4199 19.2021 32.4148 19.2868 32.4233 19.3707V20.7343H32.0801V18.3091H32.4183V18.7591C32.4423 18.6921 32.4763 18.6292 32.5194 18.5726C32.5665 18.5102 32.6221 18.4546 32.6845 18.4075C32.7513 18.358 32.8256 18.3194 32.9045 18.2931C32.997 18.2614 33.0942 18.2459 33.192 18.2474C33.2777 18.2456 33.3631 18.2559 33.4459 18.2779L33.3407 18.6275ZM35.9523 20.0384C35.8911 20.1894 35.8004 20.3267 35.6854 20.4422C35.5693 20.5579 35.4309 20.6487 35.2785 20.7091C34.9463 20.8397 34.577 20.8397 34.2448 20.7091C34.0938 20.6479 33.9565 20.5572 33.841 20.4422C33.7249 20.3276 33.634 20.1901 33.5741 20.0384C33.5079 19.8785 33.4746 19.7069 33.4761 19.5339C33.4749 19.3599 33.5082 19.1874 33.5741 19.0264C33.6961 18.7209 33.9382 18.4789 34.2436 18.3568C34.5766 18.2304 34.9444 18.2304 35.2774 18.3568C35.4297 18.4172 35.5682 18.508 35.6842 18.6237C35.7979 18.7402 35.8885 18.8773 35.9511 19.0275C36.016 19.1888 36.0483 19.3613 36.0461 19.5351C36.0524 19.707 36.0243 19.8786 35.9633 20.0395L35.9523 20.0384ZM40.4258 20.7411H39.6521V19.2792C39.6538 19.1726 39.6275 19.0674 39.5759 18.9741C39.5172 18.8859 39.4143 18.8375 39.3089 18.8487C39.2324 18.8466 39.1563 18.8612 39.0859 18.8914C39.0274 18.9192 38.977 18.9613 38.9391 19.0138C38.9021 19.0684 38.8762 19.1296 38.8628 19.1942C38.8468 19.2654 38.8386 19.3381 38.8384 19.4111V20.7381H38.0655V19.2472C38.0626 19.1834 38.0498 19.1205 38.0274 19.0607C38.0084 19.0023 37.9734 18.9503 37.9263 18.9109C37.8677 18.8665 37.7949 18.8448 37.7216 18.8498C37.6379 18.8468 37.5548 18.8646 37.4798 18.9017C37.4198 18.9361 37.371 18.9871 37.3391 19.0485C37.3047 19.112 37.2829 19.1815 37.275 19.2533C37.2625 19.3312 37.2564 19.41 37.2567 19.4889V20.7396H36.4903V18.2302H37.2335V18.5734C37.2608 18.5204 37.2947 18.471 37.3345 18.4266C37.3832 18.3774 37.4376 18.3342 37.4966 18.2981C37.5629 18.2591 37.6337 18.2282 37.7075 18.2062C37.7917 18.1805 37.8794 18.1676 37.9675 18.1681C38.1298 18.1659 38.2902 18.2026 38.4354 18.2752C38.5734 18.3512 38.6811 18.4724 38.7404 18.6184C38.8136 18.4731 38.9272 18.3521 39.0676 18.2699C39.2129 18.1983 39.3736 18.1636 39.5354 18.1688C39.6829 18.1636 39.8296 18.193 39.9636 18.2546C40.0737 18.3063 40.1677 18.3866 40.2359 18.4872C40.306 18.5922 40.3558 18.7094 40.3827 18.8327C40.4115 18.9726 40.4258 19.115 40.4254 19.2578L40.4258 20.7411ZM43.432 19.7288H41.6345C41.6591 19.8666 41.7303 19.9918 41.8363 20.0834C42.0398 20.2399 42.3177 20.258 42.5398 20.1291C42.6303 20.0722 42.7081 19.9973 42.7686 19.9091L43.3131 20.3068C43.1883 20.4657 43.0267 20.5916 42.8421 20.6736C42.6586 20.7605 42.458 20.8054 42.2549 20.8052C42.0683 20.8055 41.883 20.7734 41.7074 20.7102C41.5432 20.6519 41.3923 20.5611 41.2639 20.4433C41.1338 20.3279 41.0298 20.1861 40.9589 20.0273C40.8122 19.6803 40.8122 19.2887 40.9589 18.9417C41.0298 18.783 41.1338 18.6411 41.2639 18.5257C41.3932 18.409 41.5437 18.3184 41.7074 18.2588C41.8832 18.1966 42.0685 18.1655 42.2549 18.1669C42.4215 18.1649 42.5868 18.1961 42.7411 18.2588C42.8839 18.3186 43.0114 18.4099 43.114 18.5257C43.2192 18.6475 43.2992 18.7889 43.3497 18.9417C43.407 19.1175 43.4349 19.3014 43.4324 19.4862L43.432 19.7288ZM40.295 16.3874C39.4006 16.4355 38.5485 16.0029 38.0594 15.2526H38.0319V16.2283H36.5029V5.99708H38.1265V10.5571H38.1646C38.7045 9.90078 39.5241 9.53989 40.3728 9.58481C42.226 9.58481 43.5106 11.0742 43.5106 12.9949C43.5106 14.9155 42.298 16.3874 40.295 16.3874ZM45.5765 18.8338H44.8902V19.675C44.8867 19.7371 44.8867 19.7993 44.8902 19.8615C44.8942 19.9132 44.9098 19.9634 44.9359 20.0083C44.9618 20.0513 45.0003 20.0855 45.0461 20.1063C45.1095 20.1304 45.177 20.1418 45.2448 20.1398C45.3001 20.1382 45.3552 20.1331 45.4099 20.1246C45.4655 20.1215 45.5188 20.1012 45.5624 20.0666V20.7118C45.475 20.7421 45.3849 20.7636 45.2932 20.7758H45.0179C44.8964 20.7765 44.7752 20.7621 44.6572 20.7331C44.5475 20.7107 44.4437 20.6659 44.3521 20.6016C44.2691 20.5406 44.2028 20.4595 44.1596 20.3659C44.1102 20.2554 44.0863 20.1353 44.0894 20.0144V18.851H43.5937V18.2409H44.0894V17.487H44.8631V18.2302H45.5735L45.5765 18.8338ZM47.7755 18.8857C47.7225 18.869 47.6683 18.8563 47.6135 18.8476C47.5575 18.8429 47.5013 18.8429 47.4453 18.8476C47.3251 18.8426 47.2052 18.8634 47.0937 18.9086C47.012 18.9461 46.9429 19.0066 46.8951 19.0828C46.8463 19.1645 46.815 19.2554 46.8032 19.3497C46.7905 19.4624 46.7844 19.5757 46.7849 19.6891V20.7381H46.0082V18.2302H46.7971V18.634C46.8681 18.4942 46.9729 18.3744 47.1021 18.2855C47.2306 18.2037 47.3813 18.1638 47.5334 18.1711H47.668L47.7904 18.1925L47.7755 18.8857ZM44.3502 12.9823C44.3502 10.9362 45.9254 9.58443 47.8857 9.58443C49.846 9.58443 51.4182 10.9514 51.4182 12.9975C51.4182 15.0436 49.8548 16.3893 47.8857 16.3893C45.9166 16.3893 44.3502 15.0249 44.3502 12.9823ZM50.6502 20.0163C50.5779 20.1743 50.4741 20.3158 50.3452 20.4323C50.2156 20.5501 50.0638 20.6408 49.8986 20.6992C49.5467 20.8254 49.1619 20.8254 48.81 20.6992C48.2897 20.5211 47.9454 20.0257 47.9597 19.476C47.9558 19.2889 47.9923 19.1031 48.0668 18.9314C48.1391 18.7734 48.2429 18.6319 48.3719 18.5154C48.5018 18.398 48.6535 18.3073 48.8184 18.2485C49.171 18.1262 49.5545 18.1262 49.907 18.2485C50.0716 18.308 50.2232 18.3986 50.3535 18.5154C50.4825 18.6319 50.5863 18.7734 50.6586 18.9314C50.8011 19.2793 50.8011 19.6692 50.6586 20.017L50.6502 20.0163ZM53.8673 19.9827C53.8179 20.1369 53.7412 20.2809 53.6408 20.4079C53.5443 20.5347 53.4211 20.6388 53.2801 20.7129C53.1318 20.7897 52.967 20.829 52.8 20.8273C52.6459 20.8276 52.4929 20.8019 52.3474 20.751C52.2032 20.6987 52.0799 20.601 51.9958 20.4727V21.9217H51.2222V18.2302H51.9348V18.5608C51.9721 18.5129 52.0131 18.4679 52.0572 18.4262C52.11 18.3752 52.1697 18.332 52.2345 18.2977C52.3046 18.2598 52.3783 18.229 52.4546 18.2058C52.5357 18.1803 52.6204 18.1674 52.7055 18.1677C52.8793 18.1649 53.0519 18.1972 53.213 18.2626C53.3607 18.3244 53.494 18.4161 53.6046 18.5318C53.7137 18.6511 53.7989 18.7903 53.8555 18.9417C53.9143 19.1097 53.9433 19.2866 53.9413 19.4645C53.946 19.6396 53.9211 19.8143 53.8677 19.9812L53.8673 19.9827ZM56.9254 20.0407C56.854 20.1992 56.7501 20.3409 56.6203 20.4567C56.4924 20.5751 56.3414 20.6659 56.1769 20.7236C55.825 20.8498 55.4401 20.8498 55.0882 20.7236C54.5689 20.5437 54.2244 20.0499 54.2349 19.5004C54.232 19.313 54.2696 19.1273 54.3451 18.9558C54.4174 18.7978 54.5212 18.6563 54.6501 18.5398C54.78 18.4224 54.9317 18.3317 55.0966 18.2729C55.4492 18.1506 55.8327 18.1506 56.1853 18.2729C56.3492 18.3318 56.5 18.4225 56.6287 18.5398C56.7585 18.6556 56.8624 18.7973 56.9338 18.9558C57.0763 19.3037 57.0763 19.6936 56.9338 20.0414L56.9254 20.0407ZM58.2405 20.7533H57.4638V17.0466H58.2405V20.7533ZM58.2405 16.2425H56.7115V15.1874H56.684C56.3361 15.964 55.5426 16.4431 54.6932 16.3893C52.9468 16.3893 52.326 15.166 52.326 13.8326V9.73123H53.95V13.0219C53.95 13.7376 54.0019 14.9285 55.1397 14.9285C56.2101 14.9285 56.6291 14.1426 56.6291 13.277V9.73085H58.2531L58.2405 16.2425ZM61.2529 19.741H59.4531C59.4776 19.8788 59.5489 20.004 59.6548 20.0956C59.7616 20.1845 59.8972 20.2313 60.0361 20.2271C60.1503 20.2314 60.2631 20.2015 60.3602 20.1413C60.45 20.0835 60.5277 20.0088 60.589 19.9213L61.1305 20.319C61.0076 20.4785 60.8467 20.6046 60.6626 20.6858C60.478 20.7727 60.2764 20.8177 60.0723 20.8174C59.8857 20.8175 59.7005 20.7854 59.5248 20.7224C59.3606 20.6641 59.2097 20.5733 59.0813 20.4555C58.9523 20.3391 58.8485 20.1975 58.7763 20.0395C58.6337 19.6917 58.6337 19.3018 58.7763 18.9539C58.8485 18.7959 58.9523 18.6544 59.0813 18.5379C59.2106 18.4212 59.3611 18.3306 59.5248 18.271C59.7007 18.2091 59.8859 18.178 60.0723 18.1791C60.2399 18.1772 60.4061 18.2084 60.5615 18.271C60.7035 18.3308 60.83 18.4221 60.9314 18.5379C61.0366 18.6598 61.1166 18.8011 61.1671 18.9539C61.2244 19.1297 61.2523 19.3136 61.2498 19.4984L61.2529 19.741ZM63.4915 11.2481C63.2369 11.174 62.9738 11.1329 62.7087 11.1257C62.2555 11.0942 61.8096 11.2526 61.4778 11.563C61.146 11.8733 60.9582 12.3076 60.9593 12.7619V16.2318H59.3387V9.73123H60.9596V10.7608H60.9871C61.4312 9.82113 62.5 9.35269 63.4919 9.66298L63.4915 11.2481ZM69.3328 10.1838C69.7896 10.6312 70.0502 11.2417 70.0573 11.881C70.0573 13.4806 68.5099 14.3062 67.0602 14.3062C66.8274 14.3104 66.5955 14.2763 66.3738 14.2051C66.1933 14.1479 66.0062 14.1139 65.8171 14.1041C65.1781 14.1041 64.4532 14.5616 64.4532 14.9788C64.4532 15.396 65.0251 15.4497 65.4473 15.4497H68.2426C69.891 15.4162 70.6891 16.1563 70.6891 17.7894C70.6891 19.8447 69.1601 21.4256 66.8173 21.4256C64.9458 21.4256 63.4808 20.4685 63.4808 19.2205C63.4808 18.4132 64.2576 17.7402 64.9298 17.5538V17.5202C64.2233 17.3185 63.8351 16.6791 63.8351 15.8383C63.7769 14.8422 64.5255 13.9822 65.5201 13.9024V13.8642C64.6734 13.5366 64.1173 12.7199 64.1226 11.812C64.1226 10.283 65.6364 9.36556 67.0495 9.36556C67.7983 9.33712 68.5362 9.55109 69.1536 9.97565C69.4561 9.55057 69.9302 9.27994 70.45 9.23553C70.6513 9.23712 70.85 9.27981 71.0342 9.36098C71.2888 9.44605 71.4933 9.63835 71.5939 9.88719C71.6137 9.95367 71.624 10.0226 71.6244 10.092C71.6239 10.1673 71.6137 10.2423 71.5939 10.315C71.5367 10.5943 71.3323 10.8204 71.0601 10.9053C70.9693 10.9351 70.8743 10.9505 70.7787 10.951C70.5742 10.9577 70.3759 10.8805 70.2297 10.7372C70.0836 10.594 70.0024 10.3972 70.005 10.1926C69.9771 9.87186 70.1632 9.57086 70.4626 9.4525V9.41894C69.8052 9.4952 69.6523 9.86545 69.3496 10.1682L69.3328 10.1838Z" fill="#674992" fill-opacity="0.01"/>
<path d="M78.3136 10.5696C77.2197 10.4971 76.2686 11.3124 76.1729 12.4044H80.2586C80.2727 11.894 80.0683 11.4019 79.6969 11.0515C79.3255 10.7011 78.8223 10.5258 78.3136 10.5696Z" fill="#FAFAFA"/>
<path d="M78.3136 10.5696C77.2197 10.4971 76.2686 11.3124 76.1729 12.4044H80.2586C80.2727 11.894 80.0683 11.4019 79.6969 11.0515C79.3255 10.7011 78.8223 10.5258 78.3136 10.5696Z" fill="#674992" fill-opacity="0.01"/>
</g>
<defs>
<clipPath id="clip0_200_1199">
<rect width="93" height="26" fill="white"/>
</clipPath>
</defs>
</svg>
