<svg width="81" height="34" viewBox="0 0 81 34" fill="none" xmlns="http://www.w3.org/2000/svg">
<path d="M18.7832 7.21934L16.3551 9.95735C15.797 10.5909 15.2521 11.2332 14.6849 11.8519C14.6013 11.9195 14.5485 12.0179 14.5386 12.1249C14.5286 12.2319 14.5622 12.3384 14.6319 12.4203C15.6676 14.1481 16.7013 15.8804 17.7332 17.617C17.7598 17.6614 17.7821 17.7144 17.8439 17.8474L16.3551 17.2033C14.9107 16.5785 13.4663 15.9627 12.0265 15.3246C11.9463 15.2746 11.8493 15.2591 11.7576 15.2817C11.6658 15.3042 11.587 15.3629 11.5392 15.4444C10.1835 17.004 8.81109 18.5458 7.44701 20.105C7.32311 20.0387 7.37123 19.9367 7.3807 19.8435C7.5622 17.894 7.73498 15.9449 7.93884 13.9954C7.97188 13.8662 7.95155 13.7291 7.88241 13.6151C7.81326 13.501 7.70114 13.4196 7.57129 13.3892C5.799 12.6359 4.03871 11.8781 2.29042 11.1157C2.18394 11.0714 2.03806 11.0668 1.98047 10.894C3.70375 10.5087 5.42287 10.1188 7.14199 9.74213C8.36018 9.48068 8.36473 9.48977 8.4712 8.23596C8.63073 6.46379 8.79479 4.7227 8.95848 2.95508C9.13581 2.9907 9.15324 3.12786 9.21084 3.22524C10.1899 4.8735 11.1735 6.52177 12.1348 8.17836C12.1842 8.30949 12.2846 8.41502 12.4131 8.47091C12.5416 8.52681 12.6873 8.5283 12.8169 8.47505C14.7353 8.0321 16.6579 7.58878 18.5763 7.16819C18.6493 7.14265 18.7305 7.16272 18.7832 7.21934Z" fill="#FAFAFA"/>
<path d="M18.7832 7.21934L16.3551 9.95735C15.797 10.5909 15.2521 11.2332 14.6849 11.8519C14.6013 11.9195 14.5485 12.0179 14.5386 12.1249C14.5286 12.2319 14.5622 12.3384 14.6319 12.4203C15.6676 14.1481 16.7013 15.8804 17.7332 17.617C17.7598 17.6614 17.7821 17.7144 17.8439 17.8474L16.3551 17.2033C14.9107 16.5785 13.4663 15.9627 12.0265 15.3246C11.9463 15.2746 11.8493 15.2591 11.7576 15.2817C11.6658 15.3042 11.587 15.3629 11.5392 15.4444C10.1835 17.004 8.81109 18.5458 7.44701 20.105C7.32311 20.0387 7.37123 19.9367 7.3807 19.8435C7.5622 17.894 7.73498 15.9449 7.93884 13.9954C7.97188 13.8662 7.95155 13.7291 7.88241 13.6151C7.81326 13.501 7.70114 13.4196 7.57129 13.3892C5.799 12.6359 4.03871 11.8781 2.29042 11.1157C2.18394 11.0714 2.03806 11.0668 1.98047 10.894C3.70375 10.5087 5.42287 10.1188 7.14199 9.74213C8.36018 9.48068 8.36473 9.48977 8.4712 8.23596C8.63073 6.46379 8.79479 4.7227 8.95848 2.95508C9.13581 2.9907 9.15324 3.12786 9.21084 3.22524C10.1899 4.8735 11.1735 6.52177 12.1348 8.17836C12.1842 8.30949 12.2846 8.41502 12.4131 8.47091C12.5416 8.52681 12.6873 8.5283 12.8169 8.47505C14.7353 8.0321 16.6579 7.58878 18.5763 7.16819C18.6493 7.14265 18.7305 7.16272 18.7832 7.21934Z" fill="#674992" fill-opacity="0.01"/>
<path d="M19.012 15.9247C19.012 15.2601 18.981 14.6399 19.012 14.0302C19.0474 13.8976 19.0253 13.7563 18.9511 13.6409C18.8769 13.5255 18.7574 13.4467 18.6221 13.4239C18.0339 13.229 17.462 12.9875 16.9121 12.7017L18.0951 12.3607C19.114 12.0727 19.1181 12.0727 19.1496 11.0315V9.77124H19.2735C19.6145 10.285 19.9601 10.7992 20.2882 11.3217C20.3416 11.4524 20.4463 11.5554 20.5779 11.6065C20.7095 11.6576 20.8563 11.6523 20.9839 11.5919C21.5686 11.3881 22.1714 11.2463 22.8784 11.047C22.4355 11.6275 22.0448 12.1368 21.6333 12.6199C21.5281 12.698 21.4629 12.8187 21.4553 12.9495C21.4476 13.0804 21.4982 13.2079 21.5936 13.2978C21.9666 13.8103 22.2969 14.3526 22.5814 14.9191C22.0763 14.7331 21.5757 14.547 21.0657 14.3652C20.3125 14.0999 20.5387 14.0241 20.0378 14.6399C19.6941 15.0612 19.3584 15.4909 19.012 15.9247Z" fill="#FAFAFA"/>
<path d="M19.012 15.9247C19.012 15.2601 18.981 14.6399 19.012 14.0302C19.0474 13.8976 19.0253 13.7563 18.9511 13.6409C18.8769 13.5255 18.7574 13.4467 18.6221 13.4239C18.0339 13.229 17.462 12.9875 16.9121 12.7017L18.0951 12.3607C19.114 12.0727 19.1181 12.0727 19.1496 11.0315V9.77124H19.2735C19.6145 10.285 19.9601 10.7992 20.2882 11.3217C20.3416 11.4524 20.4463 11.5554 20.5779 11.6065C20.7095 11.6576 20.8563 11.6523 20.9839 11.5919C21.5686 11.3881 22.1714 11.2463 22.8784 11.047C22.4355 11.6275 22.0448 12.1368 21.6333 12.6199C21.5281 12.698 21.4629 12.8187 21.4553 12.9495C21.4476 13.0804 21.4982 13.2079 21.5936 13.2978C21.9666 13.8103 22.2969 14.3526 22.5814 14.9191C22.0763 14.7331 21.5757 14.547 21.0657 14.3652C20.3125 14.0999 20.5387 14.0241 20.0378 14.6399C19.6941 15.0612 19.3584 15.4909 19.012 15.9247Z" fill="#674992" fill-opacity="0.01"/>
<path d="M11.5646 28.2511C10.8068 28.1578 10.16 28.0995 9.52645 27.9809C9.22976 27.9278 9.11874 28.0207 9.0081 28.2734C8.7512 28.8626 8.45868 29.434 8.12183 30.1164C7.98012 29.3764 7.82931 28.7474 7.74974 28.1139C7.70541 27.7816 7.54589 27.7194 7.26701 27.6709C6.63775 27.6084 6.01325 27.5048 5.39746 27.361L6.59368 26.7142C7.39546 26.2713 7.39546 26.2713 7.24048 25.3585C7.2007 25.1281 7.15637 24.9155 7.11203 24.6673C7.0677 24.4191 7.02792 24.2244 6.95706 23.8962C7.35151 24.2596 7.66145 24.5476 7.96723 24.8401C8.71141 25.5532 8.71141 25.5532 9.6155 25.0705C9.99141 24.8531 10.3858 24.6693 10.7939 24.5211C10.5287 25.0837 10.2756 25.6551 9.98304 26.2046C9.89896 26.3058 9.86422 26.4391 9.88824 26.5685C9.91225 26.6978 9.99253 26.8098 10.1073 26.8741C10.581 27.2909 11.0239 27.7369 11.5646 28.2511Z" fill="#FAFAFA"/>
<path d="M11.5646 28.2511C10.8068 28.1578 10.16 28.0995 9.52645 27.9809C9.22976 27.9278 9.11874 28.0207 9.0081 28.2734C8.7512 28.8626 8.45868 29.434 8.12183 30.1164C7.98012 29.3764 7.82931 28.7474 7.74974 28.1139C7.70541 27.7816 7.54589 27.7194 7.26701 27.6709C6.63775 27.6084 6.01325 27.5048 5.39746 27.361L6.59368 26.7142C7.39546 26.2713 7.39546 26.2713 7.24048 25.3585C7.2007 25.1281 7.15637 24.9155 7.11203 24.6673C7.0677 24.4191 7.02792 24.2244 6.95706 23.8962C7.35151 24.2596 7.66145 24.5476 7.96723 24.8401C8.71141 25.5532 8.71141 25.5532 9.6155 25.0705C9.99141 24.8531 10.3858 24.6693 10.7939 24.5211C10.5287 25.0837 10.2756 25.6551 9.98304 26.2046C9.89896 26.3058 9.86422 26.4391 9.88824 26.5685C9.91225 26.6978 9.99253 26.8098 10.1073 26.8741C10.581 27.2909 11.0239 27.7369 11.5646 28.2511Z" fill="#674992" fill-opacity="0.01"/>
<path d="M2.42145 25.2069C2.30171 24.609 2.19107 24.1172 2.11567 23.6208C2.08005 23.3817 1.9785 23.3063 1.74358 23.284C1.24304 23.2396 0.746663 23.1703 0.139648 23.0801C0.666713 22.7921 1.09223 22.544 1.53518 22.3268C1.64046 22.2973 1.72797 22.2239 1.77545 22.1254C1.82293 22.0269 1.82581 21.9127 1.78336 21.8119C1.66136 21.3289 1.5915 20.8343 1.57496 20.3364C1.89472 20.6163 2.19977 20.9125 2.48889 21.2238C2.57288 21.3799 2.72701 21.4859 2.90282 21.5084C3.07862 21.531 3.2545 21.4673 3.37517 21.3375C3.73402 21.1022 4.12456 20.9193 4.53501 20.7941C4.35515 21.2311 4.1528 21.6585 3.92875 22.0745C3.8613 22.1684 3.83588 22.2861 3.85859 22.3995C3.88129 22.5129 3.95007 22.6117 4.04849 22.6724C4.40277 22.9915 4.73962 23.3238 5.16514 23.7269C4.54941 23.6511 4.04849 23.603 3.5525 23.5185C3.46905 23.4898 3.37736 23.4974 3.29982 23.5396C3.22228 23.5817 3.16603 23.6545 3.14479 23.7402C2.91744 24.1968 2.68706 24.6488 2.42145 25.2069Z" fill="#FAFAFA"/>
<path d="M2.42145 25.2069C2.30171 24.609 2.19107 24.1172 2.11567 23.6208C2.08005 23.3817 1.9785 23.3063 1.74358 23.284C1.24304 23.2396 0.746663 23.1703 0.139648 23.0801C0.666713 22.7921 1.09223 22.544 1.53518 22.3268C1.64046 22.2973 1.72797 22.2239 1.77545 22.1254C1.82293 22.0269 1.82581 21.9127 1.78336 21.8119C1.66136 21.3289 1.5915 20.8343 1.57496 20.3364C1.89472 20.6163 2.19977 20.9125 2.48889 21.2238C2.57288 21.3799 2.72701 21.4859 2.90282 21.5084C3.07862 21.531 3.2545 21.4673 3.37517 21.3375C3.73402 21.1022 4.12456 20.9193 4.53501 20.7941C4.35515 21.2311 4.1528 21.6585 3.92875 22.0745C3.8613 22.1684 3.83588 22.2861 3.85859 22.3995C3.88129 22.5129 3.95007 22.6117 4.04849 22.6724C4.40277 22.9915 4.73962 23.3238 5.16514 23.7269C4.54941 23.6511 4.04849 23.603 3.5525 23.5185C3.46905 23.4898 3.37736 23.4974 3.29982 23.5396C3.22228 23.5817 3.16603 23.6545 3.14479 23.7402C2.91744 24.1968 2.68706 24.6488 2.42145 25.2069Z" fill="#674992" fill-opacity="0.01"/>
<path d="M21.0876 2.3811C21.3267 2.73993 21.6014 3.0855 21.8052 3.46668C21.857 3.61508 21.9733 3.73197 22.1214 3.7845C22.2696 3.83702 22.4335 3.81949 22.5672 3.73685C22.9749 3.59059 23.4008 3.49775 23.9313 3.35149C23.5501 3.83877 23.2493 4.23777 22.9211 4.62729C22.8514 4.69183 22.8118 4.78254 22.8118 4.87756C22.8118 4.97257 22.8514 5.06328 22.9211 5.12783C23.2091 5.54463 23.4838 5.96977 23.8074 6.47902C23.2534 6.27062 22.7927 6.11148 22.341 5.91634C22.2441 5.85528 22.126 5.83778 22.0156 5.86813C21.9052 5.89848 21.8126 5.97387 21.7605 6.07586C21.4858 6.46576 21.1759 6.82459 20.8743 7.2232V5.79698C20.8743 5.4912 20.8386 5.32296 20.5109 5.22862C20.0467 5.08512 19.5901 4.91845 19.1426 4.72921C19.6194 4.53992 20.1115 4.39174 20.6136 4.28627C20.719 4.27681 20.8156 4.2234 20.8797 4.13912C20.9438 4.05484 20.9695 3.94747 20.9504 3.84332C20.9504 3.36059 20.9902 2.88202 21.0126 2.40346L21.0876 2.3811Z" fill="#FAFAFA"/>
<path d="M21.0876 2.3811C21.3267 2.73993 21.6014 3.0855 21.8052 3.46668C21.857 3.61508 21.9733 3.73197 22.1214 3.7845C22.2696 3.83702 22.4335 3.81949 22.5672 3.73685C22.9749 3.59059 23.4008 3.49775 23.9313 3.35149C23.5501 3.83877 23.2493 4.23777 22.9211 4.62729C22.8514 4.69183 22.8118 4.78254 22.8118 4.87756C22.8118 4.97257 22.8514 5.06328 22.9211 5.12783C23.2091 5.54463 23.4838 5.96977 23.8074 6.47902C23.2534 6.27062 22.7927 6.11148 22.341 5.91634C22.2441 5.85528 22.126 5.83778 22.0156 5.86813C21.9052 5.89848 21.8126 5.97387 21.7605 6.07586C21.4858 6.46576 21.1759 6.82459 20.8743 7.2232V5.79698C20.8743 5.4912 20.8386 5.32296 20.5109 5.22862C20.0467 5.08512 19.5901 4.91845 19.1426 4.72921C19.6194 4.53992 20.1115 4.39174 20.6136 4.28627C20.719 4.27681 20.8156 4.2234 20.8797 4.13912C20.9438 4.05484 20.9695 3.94747 20.9504 3.84332C20.9504 3.36059 20.9902 2.88202 21.0126 2.40346L21.0876 2.3811Z" fill="#674992" fill-opacity="0.01"/>
<path d="M13.8175 5.15055C13.7949 4.82015 13.7949 4.48859 13.8175 4.15819C13.8664 3.83914 13.7379 3.71524 13.4587 3.62771C13.1613 3.54201 12.8798 3.40881 12.625 3.23326C12.8952 3.15748 13.1612 3.05593 13.4359 3.00592C13.575 2.99966 13.7042 2.93266 13.7895 2.82265C13.8748 2.71264 13.9075 2.57074 13.8789 2.43452C13.8811 2.10873 13.9021 1.78334 13.9418 1.45996C14.207 1.85441 14.4071 2.142 14.5931 2.43907C14.6232 2.50762 14.6795 2.56124 14.7495 2.58788C14.8194 2.61453 14.8971 2.61197 14.9652 2.58078C15.3021 2.47014 15.6472 2.39133 16.0906 2.26174C15.8204 2.61185 15.6165 2.88656 15.3949 3.14801C15.324 3.21189 15.2835 3.30284 15.2835 3.39828C15.2835 3.49372 15.324 3.58467 15.3949 3.64855C15.6033 3.91871 15.7715 4.21692 16.0152 4.58332C15.612 4.43176 15.2884 4.33097 14.983 4.19342C14.8944 4.14048 14.7877 4.12674 14.6886 4.15548C14.5894 4.18422 14.5067 4.25286 14.4601 4.34499C14.2695 4.60985 14.057 4.85349 13.8175 5.15055Z" fill="#FAFAFA"/>
<path d="M13.8175 5.15055C13.7949 4.82015 13.7949 4.48859 13.8175 4.15819C13.8664 3.83914 13.7379 3.71524 13.4587 3.62771C13.1613 3.54201 12.8798 3.40881 12.625 3.23326C12.8952 3.15748 13.1612 3.05593 13.4359 3.00592C13.575 2.99966 13.7042 2.93266 13.7895 2.82265C13.8748 2.71264 13.9075 2.57074 13.8789 2.43452C13.8811 2.10873 13.9021 1.78334 13.9418 1.45996C14.207 1.85441 14.4071 2.142 14.5931 2.43907C14.6232 2.50762 14.6795 2.56124 14.7495 2.58788C14.8194 2.61453 14.8971 2.61197 14.9652 2.58078C15.3021 2.47014 15.6472 2.39133 16.0906 2.26174C15.8204 2.61185 15.6165 2.88656 15.3949 3.14801C15.324 3.21189 15.2835 3.30284 15.2835 3.39828C15.2835 3.49372 15.324 3.58467 15.3949 3.64855C15.6033 3.91871 15.7715 4.21692 16.0152 4.58332C15.612 4.43176 15.2884 4.33097 14.983 4.19342C14.8944 4.14048 14.7877 4.12674 14.6886 4.15548C14.5894 4.18422 14.5067 4.25286 14.4601 4.34499C14.2695 4.60985 14.057 4.85349 13.8175 5.15055Z" fill="#674992" fill-opacity="0.01"/>
<path d="M5.89841 17.1746C5.58773 17.1477 5.27864 17.1048 4.97235 17.0462C4.86909 17.0061 4.75342 17.0135 4.65612 17.0664C4.55881 17.1194 4.48974 17.2124 4.46726 17.3209C4.33534 17.6241 4.18709 17.92 4.02318 18.2072C3.89398 17.8924 3.81619 17.5588 3.7928 17.2193C3.74847 16.9624 3.64654 16.8382 3.37183 16.8249C3.09712 16.8116 2.75156 16.754 2.36621 16.7052C2.65479 16.486 2.971 16.3059 3.30666 16.1694C3.3955 16.1413 3.46896 16.078 3.50997 15.9944C3.55098 15.9107 3.55597 15.8139 3.52378 15.7264C3.45747 15.3941 3.39533 15.0573 3.31538 14.6011C3.63897 14.9069 3.89132 15.124 4.1217 15.3631C4.17795 15.4417 4.2646 15.4932 4.3606 15.505C4.45659 15.5169 4.55314 15.4879 4.62679 15.4252C4.9015 15.2524 5.20273 15.1107 5.60589 14.8981C5.42856 15.2702 5.31792 15.5537 5.16294 15.8197C5.08124 15.913 5.04537 16.0379 5.06507 16.1604C5.08478 16.2828 5.15801 16.3902 5.26487 16.4532C5.49649 16.6456 5.71688 16.8512 5.92493 17.0689L5.89841 17.1746Z" fill="#FAFAFA"/>
<path d="M5.89841 17.1746C5.58773 17.1477 5.27864 17.1048 4.97235 17.0462C4.86909 17.0061 4.75342 17.0135 4.65612 17.0664C4.55881 17.1194 4.48974 17.2124 4.46726 17.3209C4.33534 17.6241 4.18709 17.92 4.02318 18.2072C3.89398 17.8924 3.81619 17.5588 3.7928 17.2193C3.74847 16.9624 3.64654 16.8382 3.37183 16.8249C3.09712 16.8116 2.75156 16.754 2.36621 16.7052C2.65479 16.486 2.971 16.3059 3.30666 16.1694C3.3955 16.1413 3.46896 16.078 3.50997 15.9944C3.55098 15.9107 3.55597 15.8139 3.52378 15.7264C3.45747 15.3941 3.39533 15.0573 3.31538 14.6011C3.63897 14.9069 3.89132 15.124 4.1217 15.3631C4.17795 15.4417 4.2646 15.4932 4.3606 15.505C4.45659 15.5169 4.55314 15.4879 4.62679 15.4252C4.9015 15.2524 5.20273 15.1107 5.60589 14.8981C5.42856 15.2702 5.31792 15.5537 5.16294 15.8197C5.08124 15.913 5.04537 16.0379 5.06507 16.1604C5.08478 16.2828 5.15801 16.3902 5.26487 16.4532C5.49649 16.6456 5.71688 16.8512 5.92493 17.0689L5.89841 17.1746Z" fill="#674992" fill-opacity="0.01"/>
<path d="M25.3922 12.6513V12.6293C24.9664 12.6314 24.5821 12.8852 24.4131 13.2761C23.2938 15.2404 22.192 17.209 21.1079 19.1818C20.749 19.8199 20.3811 20.4576 19.9958 21.14C19.7165 20.6395 19.4653 20.1962 19.2247 19.7491C19.1494 19.6031 19.0234 19.4896 18.8704 19.43C16.6572 18.4774 14.4406 17.529 12.2618 16.5632C12.1081 16.4724 11.9099 16.5233 11.8189 16.6769C11.4911 17.0667 11.1543 17.4521 10.8087 17.8242C10.6662 17.9739 10.5923 18.176 10.6048 18.3823V23.4393C10.6048 23.5529 10.5605 23.6829 10.6579 23.8114L12.1023 23.0183C12.1046 23.1761 12.0582 23.3308 11.9693 23.4612C11.5483 24.3471 11.1357 25.2334 10.7022 26.1197C10.5785 26.3186 10.6309 26.5794 10.822 26.715C11.5839 27.4148 12.3281 28.1328 13.0769 28.8505C13.1432 28.9126 13.2807 28.9479 13.2364 29.0987L10.8928 28.7887C10.6935 28.7622 10.5897 28.7887 10.5961 29.0237V31.9655C10.5961 32.4706 10.8235 32.7275 11.3183 32.7362C12.3948 32.7627 13.4717 32.7362 14.5482 32.7362C14.7159 32.76 14.8859 32.7136 15.0184 32.608C15.1508 32.5023 15.2338 32.3469 15.248 32.1781C15.2964 32.0057 15.3143 31.8262 15.3011 31.6476V22.1191C15.3011 21.982 15.2791 21.849 15.27 21.7114C15.4117 21.5917 15.425 21.7512 15.4594 21.8134C15.6766 22.1809 15.9024 22.5534 16.093 22.9255C16.8106 24.1793 17.5374 25.4331 18.2418 26.6956C18.4522 27.2316 18.9997 27.5564 19.571 27.4841C19.8744 27.4509 20.1804 27.4509 20.4838 27.4841C20.9653 27.5455 21.43 27.2836 21.627 26.84C22.6131 25.1046 23.5994 23.3704 24.5859 21.6375C24.7632 21.7262 24.6567 21.8812 24.6567 22.0009V31.8174C24.6567 32.5085 24.8871 32.7389 25.5737 32.7434H28.3515C29.1665 32.7434 29.3704 32.5309 29.3704 31.7022V13.6046C29.3944 13.4396 29.3729 13.2711 29.3082 13.1174C29.2241 12.7055 28.9316 12.6036 28.5595 12.621C27.483 12.5854 26.4062 12.5721 25.3297 12.621V12.643L25.3922 12.6513Z" fill="#FAFAFA"/>
<path d="M25.3922 12.6513V12.6293C24.9664 12.6314 24.5821 12.8852 24.4131 13.2761C23.2938 15.2404 22.192 17.209 21.1079 19.1818C20.749 19.8199 20.3811 20.4576 19.9958 21.14C19.7165 20.6395 19.4653 20.1962 19.2247 19.7491C19.1494 19.6031 19.0234 19.4896 18.8704 19.43C16.6572 18.4774 14.4406 17.529 12.2618 16.5632C12.1081 16.4724 11.9099 16.5233 11.8189 16.6769C11.4911 17.0667 11.1543 17.4521 10.8087 17.8242C10.6662 17.9739 10.5923 18.176 10.6048 18.3823V23.4393C10.6048 23.5529 10.5605 23.6829 10.6579 23.8114L12.1023 23.0183C12.1046 23.1761 12.0582 23.3308 11.9693 23.4612C11.5483 24.3471 11.1357 25.2334 10.7022 26.1197C10.5785 26.3186 10.6309 26.5794 10.822 26.715C11.5839 27.4148 12.3281 28.1328 13.0769 28.8505C13.1432 28.9126 13.2807 28.9479 13.2364 29.0987L10.8928 28.7887C10.6935 28.7622 10.5897 28.7887 10.5961 29.0237V31.9655C10.5961 32.4706 10.8235 32.7275 11.3183 32.7362C12.3948 32.7627 13.4717 32.7362 14.5482 32.7362C14.7159 32.76 14.8859 32.7136 15.0184 32.608C15.1508 32.5023 15.2338 32.3469 15.248 32.1781C15.2964 32.0057 15.3143 31.8262 15.3011 31.6476V22.1191C15.3011 21.982 15.2791 21.849 15.27 21.7114C15.4117 21.5917 15.425 21.7512 15.4594 21.8134C15.6766 22.1809 15.9024 22.5534 16.093 22.9255C16.8106 24.1793 17.5374 25.4331 18.2418 26.6956C18.4522 27.2316 18.9997 27.5564 19.571 27.4841C19.8744 27.4509 20.1804 27.4509 20.4838 27.4841C20.9653 27.5455 21.43 27.2836 21.627 26.84C22.6131 25.1046 23.5994 23.3704 24.5859 21.6375C24.7632 21.7262 24.6567 21.8812 24.6567 22.0009V31.8174C24.6567 32.5085 24.8871 32.7389 25.5737 32.7434H28.3515C29.1665 32.7434 29.3704 32.5309 29.3704 31.7022V13.6046C29.3944 13.4396 29.3729 13.2711 29.3082 13.1174C29.2241 12.7055 28.9316 12.6036 28.5595 12.621C27.483 12.5854 26.4062 12.5721 25.3297 12.621V12.643L25.3922 12.6513Z" fill="#674992" fill-opacity="0.01"/>
<path d="M46.9087 29.1763C46.9368 28.9346 46.8088 28.7016 46.5897 28.5958C46.3685 28.456 46.1031 28.4038 45.8454 28.4495H36.3022V24.746C36.3022 24.6089 36.2757 24.4626 36.4572 24.4183H40.183C41.5122 24.4183 44.5291 24.4448 44.692 24.3739H44.8394C44.9913 24.3533 45.1288 24.2729 45.2212 24.1507C45.3137 24.0284 45.3535 23.8744 45.332 23.7226C45.3763 22.8098 45.3718 21.9016 45.332 20.9891C45.3573 20.8347 45.3187 20.6767 45.2251 20.5513C45.1315 20.426 44.9909 20.3441 44.8356 20.3245H44.7221C44.548 20.2667 44.3599 20.2667 44.1858 20.3245H36.5367C36.3094 20.3245 36.2886 20.1874 36.2886 19.9968V17.5952C36.2886 16.975 36.2886 16.975 36.8865 16.975H45.4195C46.1815 16.975 46.3941 16.7578 46.3986 15.9871V13.6758C46.3986 12.8251 46.1948 12.6258 45.3441 12.6258H32.4964C32.3873 12.6192 32.2778 12.6192 32.1687 12.6258C31.6992 12.6702 31.5131 12.8695 31.473 13.37V31.9984C31.4284 32.2265 31.5334 32.4578 31.7344 32.5743C32.0082 32.736 32.3324 32.79 32.6438 32.7259H45.9572C46.0378 32.7676 46.1337 32.7676 46.2142 32.7259C46.4214 32.7515 46.6227 32.6458 46.7193 32.4607C46.8269 32.352 46.8804 32.201 46.8655 32.0488C46.9128 31.0765 46.9174 30.1243 46.9087 29.1763Z" fill="#FAFAFA"/>
<path d="M46.9087 29.1763C46.9368 28.9346 46.8088 28.7016 46.5897 28.5958C46.3685 28.456 46.1031 28.4038 45.8454 28.4495H36.3022V24.746C36.3022 24.6089 36.2757 24.4626 36.4572 24.4183H40.183C41.5122 24.4183 44.5291 24.4448 44.692 24.3739H44.8394C44.9913 24.3533 45.1288 24.2729 45.2212 24.1507C45.3137 24.0284 45.3535 23.8744 45.332 23.7226C45.3763 22.8098 45.3718 21.9016 45.332 20.9891C45.3573 20.8347 45.3187 20.6767 45.2251 20.5513C45.1315 20.426 44.9909 20.3441 44.8356 20.3245H44.7221C44.548 20.2667 44.3599 20.2667 44.1858 20.3245H36.5367C36.3094 20.3245 36.2886 20.1874 36.2886 19.9968V17.5952C36.2886 16.975 36.2886 16.975 36.8865 16.975H45.4195C46.1815 16.975 46.3941 16.7578 46.3986 15.9871V13.6758C46.3986 12.8251 46.1948 12.6258 45.3441 12.6258H32.4964C32.3873 12.6192 32.2778 12.6192 32.1687 12.6258C31.6992 12.6702 31.5131 12.8695 31.473 13.37V31.9984C31.4284 32.2265 31.5334 32.4578 31.7344 32.5743C32.0082 32.736 32.3324 32.79 32.6438 32.7259H45.9572C46.0378 32.7676 46.1337 32.7676 46.2142 32.7259C46.4214 32.7515 46.6227 32.6458 46.7193 32.4607C46.8269 32.352 46.8804 32.201 46.8655 32.0488C46.9128 31.0765 46.9174 30.1243 46.9087 29.1763Z" fill="#674992" fill-opacity="0.01"/>
<path d="M63.1763 12.6243H48.9986C48.3605 12.6243 48.1123 12.8725 48.1123 13.5105V15.956C48.1123 16.7445 48.3071 16.9438 49.0827 16.9438H53.6815L53.7126 17.0856C53.7482 17.0856 53.7747 17.0098 53.8013 17.0014C53.8278 16.9931 53.7482 17.0856 53.7126 17.0856V31.9942C53.689 32.0666 53.7059 32.1461 53.7569 32.2026L53.788 32.3162C53.8754 32.5762 54.1307 32.7415 54.4037 32.7149H57.8018C58.2448 32.7149 58.4399 32.4625 58.4884 32.0283V17.3337C58.4884 17.0014 58.5816 16.926 58.9052 16.9306H63.1717C63.8185 16.9306 64.058 16.7002 64.058 16.0443V13.4791C64.0622 12.8679 63.8185 12.6243 63.1763 12.6243ZM63.8363 16.4744C63.8117 16.4743 63.788 16.4648 63.77 16.4479C63.7481 16.4213 63.77 16.3903 63.8011 16.3815C63.8322 16.3728 63.8454 16.3815 63.8674 16.4081C63.8894 16.4346 63.8541 16.4698 63.8363 16.4744Z" fill="#FAFAFA"/>
<path d="M63.1763 12.6243H48.9986C48.3605 12.6243 48.1123 12.8725 48.1123 13.5105V15.956C48.1123 16.7445 48.3071 16.9438 49.0827 16.9438H53.6815L53.7126 17.0856C53.7482 17.0856 53.7747 17.0098 53.8013 17.0014C53.8278 16.9931 53.7482 17.0856 53.7126 17.0856V31.9942C53.689 32.0666 53.7059 32.1461 53.7569 32.2026L53.788 32.3162C53.8754 32.5762 54.1307 32.7415 54.4037 32.7149H57.8018C58.2448 32.7149 58.4399 32.4625 58.4884 32.0283V17.3337C58.4884 17.0014 58.5816 16.926 58.9052 16.9306H63.1717C63.8185 16.9306 64.058 16.7002 64.058 16.0443V13.4791C64.0622 12.8679 63.8185 12.6243 63.1763 12.6243ZM63.8363 16.4744C63.8117 16.4743 63.788 16.4648 63.77 16.4479C63.7481 16.4213 63.77 16.3903 63.8011 16.3815C63.8322 16.3728 63.8454 16.3815 63.8674 16.4081C63.8894 16.4346 63.8541 16.4698 63.8363 16.4744Z" fill="#674992" fill-opacity="0.01"/>
<path d="M80.5732 13.3906V13.2803C80.5899 13.2937 80.5997 13.314 80.5997 13.3354C80.5997 13.3569 80.5899 13.3772 80.5732 13.3906Z" fill="#FAFAFA"/>
<path d="M80.5732 13.3906V13.2803C80.5899 13.2937 80.5997 13.314 80.5997 13.3354C80.5997 13.3569 80.5899 13.3772 80.5732 13.3906Z" fill="#674992" fill-opacity="0.01"/>
<path d="M26.7582 7.80984V8.5222H28.1716V9.43499H26.7582V10.2148H28.3531V11.1719H25.54V6.84741H28.3534V7.80984H26.7582Z" fill="#FAFAFA"/>
<path d="M26.7582 7.80984V8.5222H28.1716V9.43499H26.7582V10.2148H28.3531V11.1719H25.54V6.84741H28.3534V7.80984H26.7582Z" fill="#674992" fill-opacity="0.01"/>
<path d="M30.156 6.84741V9.31526C30.1427 9.51629 30.2008 9.71556 30.3201 9.87794C30.5982 10.1464 31.0389 10.1464 31.317 9.87794C31.4415 9.71784 31.503 9.51764 31.4898 9.31526V6.84741H32.6947V9.31526C32.7069 9.67832 32.6212 10.038 32.4466 10.3565C32.2878 10.6339 32.0505 10.858 31.7645 11.0007C31.4616 11.1497 31.1275 11.2241 30.79 11.2178C30.4556 11.226 30.1241 11.1531 29.8241 11.0052C29.5459 10.8626 29.3184 10.6377 29.1728 10.3611C29.0076 10.0378 28.9267 9.6781 28.9375 9.31526V6.84741H30.156Z" fill="#FAFAFA"/>
<path d="M30.156 6.84741V9.31526C30.1427 9.51629 30.2008 9.71556 30.3201 9.87794C30.5982 10.1464 31.0389 10.1464 31.317 9.87794C31.4415 9.71784 31.503 9.51764 31.4898 9.31526V6.84741H32.6947V9.31526C32.7069 9.67832 32.6212 10.038 32.4466 10.3565C32.2878 10.6339 32.0505 10.858 31.7645 11.0007C31.4616 11.1497 31.1275 11.2241 30.79 11.2178C30.4556 11.226 30.1241 11.1531 29.8241 11.0052C29.5459 10.8626 29.3184 10.6377 29.1728 10.3611C29.0076 10.0378 28.9267 9.6781 28.9375 9.31526V6.84741H30.156Z" fill="#674992" fill-opacity="0.01"/>
<path d="M35.6191 11.1717L34.7328 9.58026H34.6089V11.1717H33.3994V6.84756H35.3179C35.6232 6.83987 35.9264 6.90194 36.2041 7.02906C36.4343 7.13537 36.6273 7.30828 36.7581 7.52543C36.8834 7.74362 36.9477 7.99151 36.9442 8.24309C36.9504 8.52545 36.8616 8.80171 36.6918 9.02743C36.507 9.25982 36.2497 9.42363 35.9609 9.49274L36.9578 11.1717H35.6191ZM34.6135 8.7747H35.2159C35.5527 8.7747 35.721 8.62705 35.721 8.33175C35.7279 8.20634 35.6812 8.0839 35.5926 7.9949C35.4889 7.90446 35.3531 7.85977 35.2159 7.871H34.6135V8.7747Z" fill="#FAFAFA"/>
<path d="M35.6191 11.1717L34.7328 9.58026H34.6089V11.1717H33.3994V6.84756H35.3179C35.6232 6.83987 35.9264 6.90194 36.2041 7.02906C36.4343 7.13537 36.6273 7.30828 36.7581 7.52543C36.8834 7.74362 36.9477 7.99151 36.9442 8.24309C36.9504 8.52545 36.8616 8.80171 36.6918 9.02743C36.507 9.25982 36.2497 9.42363 35.9609 9.49274L36.9578 11.1717H35.6191ZM34.6135 8.7747H35.2159C35.5527 8.7747 35.721 8.62705 35.721 8.33175C35.7279 8.20634 35.6812 8.0839 35.5926 7.9949C35.4889 7.90446 35.3531 7.85977 35.2159 7.871H34.6135V8.7747Z" fill="#674992" fill-opacity="0.01"/>
<path d="M40.7183 7.06407C41.0532 7.25001 41.3305 7.52434 41.5201 7.85713C41.9103 8.56768 41.9103 9.42838 41.5201 10.1389C41.3277 10.4711 41.0491 10.7451 40.7138 10.932C40.0144 11.3101 39.1715 11.3101 38.4722 10.932C38.1346 10.7464 37.8543 10.4722 37.6613 10.1389C37.2652 9.4299 37.2652 8.56616 37.6613 7.85713C37.8555 7.52479 38.1356 7.25085 38.4722 7.06407C39.1732 6.686 40.0173 6.686 40.7183 7.06407ZM38.8666 8.18943C38.6793 8.41669 38.5845 8.70626 38.6014 9.0003C38.5871 9.28939 38.6817 9.57332 38.8666 9.79602C39.0585 9.98841 39.3191 10.0965 39.5909 10.0965C39.8626 10.0965 40.1232 9.98841 40.3152 9.79602C40.5 9.57332 40.5947 9.28939 40.5804 9.0003C40.5966 8.70698 40.5034 8.41808 40.319 8.18943C39.9156 7.79316 39.27 7.79316 38.8666 8.18943Z" fill="#FAFAFA"/>
<path d="M40.7183 7.06407C41.0532 7.25001 41.3305 7.52434 41.5201 7.85713C41.9103 8.56768 41.9103 9.42838 41.5201 10.1389C41.3277 10.4711 41.0491 10.7451 40.7138 10.932C40.0144 11.3101 39.1715 11.3101 38.4722 10.932C38.1346 10.7464 37.8543 10.4722 37.6613 10.1389C37.2652 9.4299 37.2652 8.56616 37.6613 7.85713C37.8555 7.52479 38.1356 7.25085 38.4722 7.06407C39.1732 6.686 40.0173 6.686 40.7183 7.06407ZM38.8666 8.18943C38.6793 8.41669 38.5845 8.70626 38.6014 9.0003C38.5871 9.28939 38.6817 9.57332 38.8666 9.79602C39.0585 9.98841 39.3191 10.0965 39.5909 10.0965C39.8626 10.0965 40.1232 9.98841 40.3152 9.79602C40.5 9.57332 40.5947 9.28939 40.5804 9.0003C40.5966 8.70698 40.5034 8.41808 40.319 8.18943C39.9156 7.79316 39.27 7.79316 38.8666 8.18943Z" fill="#674992" fill-opacity="0.01"/>
<path d="M47.4973 6.87012V11.1719H46.2924V8.73094L45.4861 11.1722H44.4448L43.6385 8.73094V11.1722H42.4199V6.87012H43.9041L44.9806 9.66572L46.0219 6.87012H47.4973Z" fill="#FAFAFA"/>
<path d="M47.4973 6.87012V11.1719H46.2924V8.73094L45.4861 11.1722H44.4448L43.6385 8.73094V11.1722H42.4199V6.87012H43.9041L44.9806 9.66572L46.0219 6.87012H47.4973Z" fill="#674992" fill-opacity="0.01"/>
<path d="M49.4457 7.80818V8.52129H50.8545V9.43408H49.4457V10.2139H51.0406V11.171H48.2275V6.84688H51.0409V7.80818H49.4457ZM50.4824 6.00494L48.9361 6.6112V5.80564L50.4824 5.1145V6.00494Z" fill="#FAFAFA"/>
<path d="M49.4457 7.80818V8.52129H50.8545V9.43408H49.4457V10.2139H51.0406V11.171H48.2275V6.84688H51.0409V7.80818H49.4457ZM50.4824 6.00494L48.9361 6.6112V5.80564L50.4824 5.1145V6.00494Z" fill="#674992" fill-opacity="0.01"/>
<path d="M54.9485 6.84741V7.80984H53.7701V11.1727H52.5606V7.80984H51.3955V6.84741H54.9485Z" fill="#FAFAFA"/>
<path d="M54.9485 6.84741V7.80984H53.7701V11.1727H52.5606V7.80984H51.3955V6.84741H54.9485Z" fill="#674992" fill-opacity="0.01"/>
<path d="M57.6295 11.1717L56.7436 9.58026H56.6197V11.1717H55.4072V6.84756H57.3226C57.628 6.83987 57.9311 6.90194 58.2089 7.02906C58.4383 7.13645 58.631 7.30911 58.7628 7.52543C58.8881 7.74362 58.9524 7.99151 58.9489 8.24309C58.9556 8.52625 58.865 8.80314 58.692 9.02743C58.5082 9.25904 58.2525 9.42278 57.9652 9.49274L58.9576 11.1717H57.6295ZM56.6239 8.7747H57.2218C57.5585 8.7747 57.7269 8.62705 57.7269 8.33175C57.735 8.20702 57.69 8.08467 57.603 7.9949C57.4977 7.90416 57.3603 7.85952 57.2218 7.871H56.6239V8.7747Z" fill="#FAFAFA"/>
<path d="M57.6295 11.1717L56.7436 9.58026H56.6197V11.1717H55.4072V6.84756H57.3226C57.628 6.83987 57.9311 6.90194 58.2089 7.02906C58.4383 7.13645 58.631 7.30911 58.7628 7.52543C58.8881 7.74362 58.9524 7.99151 58.9489 8.24309C58.9556 8.52625 58.865 8.80314 58.692 9.02743C58.5082 9.25904 58.2525 9.42278 57.9652 9.49274L58.9576 11.1717H57.6295ZM56.6239 8.7747H57.2218C57.5585 8.7747 57.7269 8.62705 57.7269 8.33175C57.735 8.20702 57.69 8.08467 57.603 7.9949C57.4977 7.90416 57.3603 7.85952 57.2218 7.871H56.6239V8.7747Z" fill="#674992" fill-opacity="0.01"/>
<path d="M62.7291 7.06387C63.0639 7.24981 63.3413 7.52414 63.5309 7.85693C63.9224 8.56758 63.9206 9.42965 63.5263 10.1387C63.3367 10.4715 63.0594 10.7459 62.7246 10.9318C62.0236 11.3099 61.1794 11.3099 60.4784 10.9318C60.1421 10.7462 59.8632 10.4719 59.6721 10.1387C59.276 9.4297 59.276 8.56597 59.6721 7.85693C59.8645 7.52478 60.1431 7.25077 60.4784 7.06387C61.181 6.68574 62.0265 6.68574 62.7291 7.06387ZM60.8774 8.18924C60.69 8.41649 60.5953 8.70606 60.6121 9.0001C60.5979 9.28919 60.6925 9.57312 60.8774 9.79582C61.0693 9.98821 61.3299 10.0963 61.6017 10.0963C61.8734 10.0963 62.134 9.98821 62.3259 9.79582C62.5199 9.5731 62.6213 9.2846 62.6094 8.98949C62.6262 8.69545 62.5315 8.40588 62.3441 8.17863C61.9424 7.7829 61.2973 7.7829 60.8956 8.17863L60.8774 8.18924Z" fill="#FAFAFA"/>
<path d="M62.7291 7.06387C63.0639 7.24981 63.3413 7.52414 63.5309 7.85693C63.9224 8.56758 63.9206 9.42965 63.5263 10.1387C63.3367 10.4715 63.0594 10.7459 62.7246 10.9318C62.0236 11.3099 61.1794 11.3099 60.4784 10.9318C60.1421 10.7462 59.8632 10.4719 59.6721 10.1387C59.276 9.4297 59.276 8.56597 59.6721 7.85693C59.8645 7.52478 60.1431 7.25077 60.4784 7.06387C61.181 6.68574 62.0265 6.68574 62.7291 7.06387ZM60.8774 8.18924C60.69 8.41649 60.5953 8.70606 60.6121 9.0001C60.5979 9.28919 60.6925 9.57312 60.8774 9.79582C61.0693 9.98821 61.3299 10.0963 61.6017 10.0963C61.8734 10.0963 62.134 9.98821 62.3259 9.79582C62.5199 9.5731 62.6213 9.2846 62.6094 8.98949C62.6262 8.69545 62.5315 8.40588 62.3441 8.17863C61.9424 7.7829 61.2973 7.7829 60.8956 8.17863L60.8774 8.18924Z" fill="#674992" fill-opacity="0.01"/>
<path d="M65.6441 9.72722V11.1716H64.4316V6.84712H66.2435C66.6811 6.81753 67.1131 6.95894 67.4484 7.24157C67.7313 7.51762 67.8829 7.90124 67.8652 8.29608C67.8694 8.55338 67.8052 8.80718 67.6792 9.03154C67.5487 9.2506 67.358 9.42751 67.1298 9.54118C66.853 9.67174 66.5494 9.73546 66.2435 9.72722H65.6441ZM66.6364 8.29608C66.6364 7.97703 66.4591 7.82206 66.106 7.82206H65.663V8.77919H66.106C66.4602 8.77919 66.6364 8.61929 66.6364 8.29608Z" fill="#FAFAFA"/>
<path d="M65.6441 9.72722V11.1716H64.4316V6.84712H66.2435C66.6811 6.81753 67.1131 6.95894 67.4484 7.24157C67.7313 7.51762 67.8829 7.90124 67.8652 8.29608C67.8694 8.55338 67.8052 8.80718 67.6792 9.03154C67.5487 9.2506 67.358 9.42751 67.1298 9.54118C66.853 9.67174 66.5494 9.73546 66.2435 9.72722H65.6441ZM66.6364 8.29608C66.6364 7.97703 66.4591 7.82206 66.106 7.82206H65.663V8.77919H66.106C66.4602 8.77919 66.6364 8.61929 66.6364 8.29608Z" fill="#674992" fill-opacity="0.01"/>
<path d="M72.6295 7.06407C72.9644 7.25001 73.2417 7.52434 73.4313 7.85713C73.8228 8.56778 73.821 9.42985 73.4267 10.1389C73.2371 10.4717 72.9598 10.746 72.625 10.932C71.9256 11.3101 71.0827 11.3101 70.3833 10.932C70.0449 10.7477 69.7642 10.4732 69.5725 10.1389C69.1764 9.4299 69.1764 8.56616 69.5725 7.85713C69.7654 7.52382 70.0458 7.24959 70.3833 7.06407C71.0843 6.686 71.9285 6.686 72.6295 7.06407ZM70.7778 8.18943C70.5904 8.41669 70.4957 8.70626 70.5125 9.0003C70.4983 9.28939 70.5929 9.57332 70.7778 9.79602C70.9697 9.98841 71.2303 10.0965 71.5021 10.0965C71.7738 10.0965 72.0344 9.98841 72.2264 9.79602C72.4112 9.57332 72.5059 9.28939 72.4916 9.0003C72.5077 8.70698 72.4146 8.41808 72.2301 8.18943C71.8268 7.79316 71.1811 7.79316 70.7778 8.18943Z" fill="#FAFAFA"/>
<path d="M72.6295 7.06407C72.9644 7.25001 73.2417 7.52434 73.4313 7.85713C73.8228 8.56778 73.821 9.42985 73.4267 10.1389C73.2371 10.4717 72.9598 10.746 72.625 10.932C71.9256 11.3101 71.0827 11.3101 70.3833 10.932C70.0449 10.7477 69.7642 10.4732 69.5725 10.1389C69.1764 9.4299 69.1764 8.56616 69.5725 7.85713C69.7654 7.52382 70.0458 7.24959 70.3833 7.06407C71.0843 6.686 71.9285 6.686 72.6295 7.06407ZM70.7778 8.18943C70.5904 8.41669 70.4957 8.70626 70.5125 9.0003C70.4983 9.28939 70.5929 9.57332 70.7778 9.79602C70.9697 9.98841 71.2303 10.0965 71.5021 10.0965C71.7738 10.0965 72.0344 9.98841 72.2264 9.79602C72.4112 9.57332 72.5059 9.28939 72.4916 9.0003C72.5077 8.70698 72.4146 8.41808 72.2301 8.18943C71.8268 7.79316 71.1811 7.79316 70.7778 8.18943Z" fill="#674992" fill-opacity="0.01"/>
<path d="M75.5436 10.2633H76.8994V11.1727H74.3311V6.84741H75.5436V10.2633Z" fill="#FAFAFA"/>
<path d="M75.5436 10.2633H76.8994V11.1727H74.3311V6.84741H75.5436V10.2633Z" fill="#674992" fill-opacity="0.01"/>
<path d="M78.6409 7.80984V8.5222H80.0542V9.43499H78.6409V10.2148H80.2346V11.1719H77.4268V6.84741H80.2346V7.80984H78.6409Z" fill="#FAFAFA"/>
<path d="M78.6409 7.80984V8.5222H80.0542V9.43499H78.6409V10.2148H80.2346V11.1719H77.4268V6.84741H80.2346V7.80984H78.6409Z" fill="#674992" fill-opacity="0.01"/>
<path d="M63.8667 16.4081C63.8667 16.4345 63.8667 16.47 63.8357 16.4742C63.8102 16.4812 63.7832 16.4704 63.7696 16.4477C63.7476 16.4213 63.7696 16.3903 63.8005 16.3816C63.8315 16.3729 63.8444 16.399 63.8667 16.4081Z" fill="#FAFAFA"/>
<path d="M63.8667 16.4081C63.8667 16.4345 63.8667 16.47 63.8357 16.4742C63.8102 16.4812 63.7832 16.4704 63.7696 16.4477C63.7476 16.4213 63.7696 16.3903 63.8005 16.3816C63.8315 16.3729 63.8444 16.399 63.8667 16.4081Z" fill="#674992" fill-opacity="0.01"/>
<path d="M79.5655 13.2757C79.4814 12.7706 79.273 12.6244 78.6129 12.6244H66.5579C66.4605 12.6177 66.3628 12.6177 66.2654 12.6244C66.0743 12.6125 65.8875 12.6835 65.7526 12.8193C65.6177 12.955 65.5478 13.1424 65.561 13.3333C65.5433 14.2844 65.5433 15.237 65.561 16.1911C65.5459 16.3751 65.6096 16.5569 65.7364 16.6913C65.8631 16.8256 66.0409 16.8998 66.2256 16.8954C66.4055 16.9066 66.586 16.9066 66.7659 16.8954H73.8856L73.6818 17.1921C71.0264 20.8802 68.3696 24.5556 65.7114 28.2184C65.456 28.5119 65.3089 28.8841 65.2946 29.2729V32.1754C65.2726 32.5255 65.4719 32.6805 65.7872 32.7157C65.9506 32.7356 66.1152 32.7445 66.2798 32.7422H79.3272C79.4511 32.7489 79.5753 32.7489 79.6993 32.7422C79.8908 32.7433 80.0738 32.6627 80.2023 32.5207C80.3308 32.3786 80.3927 32.1886 80.3726 31.9981V29.2244C80.3726 28.7239 80.1642 28.5379 79.6326 28.4803H71.1878C70.9885 28.3029 71.2234 28.2188 71.2852 28.1301C73.8992 24.4888 76.5176 20.8482 79.1404 17.2084C79.3973 16.931 79.5533 16.5752 79.5833 16.1983C79.6322 15.268 79.5833 13.2875 79.5833 13.2875" fill="#FAFAFA"/>
<path d="M79.5655 13.2757C79.4814 12.7706 79.273 12.6244 78.6129 12.6244H66.5579C66.4605 12.6177 66.3628 12.6177 66.2654 12.6244C66.0743 12.6125 65.8875 12.6835 65.7526 12.8193C65.6177 12.955 65.5478 13.1424 65.561 13.3333C65.5433 14.2844 65.5433 15.237 65.561 16.1911C65.5459 16.3751 65.6096 16.5569 65.7364 16.6913C65.8631 16.8256 66.0409 16.8998 66.2256 16.8954C66.4055 16.9066 66.586 16.9066 66.7659 16.8954H73.8856L73.6818 17.1921C71.0264 20.8802 68.3696 24.5556 65.7114 28.2184C65.456 28.5119 65.3089 28.8841 65.2946 29.2729V32.1754C65.2726 32.5255 65.4719 32.6805 65.7872 32.7157C65.9506 32.7356 66.1152 32.7445 66.2798 32.7422H79.3272C79.4511 32.7489 79.5753 32.7489 79.6993 32.7422C79.8908 32.7433 80.0738 32.6627 80.2023 32.5207C80.3308 32.3786 80.3927 32.1886 80.3726 31.9981V29.2244C80.3726 28.7239 80.1642 28.5379 79.6326 28.4803H71.1878C70.9885 28.3029 71.2234 28.2188 71.2852 28.1301C73.8992 24.4888 76.5176 20.8482 79.1404 17.2084C79.3973 16.931 79.5533 16.5752 79.5833 16.1983C79.6322 15.268 79.5833 13.2875 79.5833 13.2875" fill="#674992" fill-opacity="0.01"/>
</svg>
