<svg width="130" height="30" viewBox="0 0 130 30" fill="none" xmlns="http://www.w3.org/2000/svg">
<g clip-path="url(#clip0_200_1194)">
<path d="M90.5536 24.4876H96.0781L92.1024 17.6651C94.3026 16.7387 95.5518 14.964 95.5518 12.6147C95.5518 9.11437 93.2542 6.81721 88.7047 6.81721H79.9821V24.4876H84.7799V18.3638H87.205L90.5536 24.4876ZM90.7557 12.6147C90.7557 13.8648 89.9048 14.7657 88.1288 14.7657H84.7799V10.4653H88.1288C89.9048 10.4658 90.7557 11.365 90.7557 12.6147ZM71.3836 11.79V17.4379C71.3836 19.9876 70.1352 20.8873 68.5101 20.8873C66.8871 20.8873 65.6116 19.9876 65.6116 17.462V11.79H60.7121V17.6879C60.7121 22.3357 63.2873 24.8867 68.5105 24.8867C73.76 24.8867 76.2861 22.3357 76.2861 17.7129V11.79H71.3836ZM65.612 6.81721H60.7133V10.142H65.612V6.81721ZM71.3836 10.1407H76.2844V6.81592H71.3836V10.1407ZM40.5161 18.513L38.0409 6.81721H33.166L37.6663 24.4876H42.8404L45.8648 12.9656L48.8887 24.4876H54.0641L58.5623 6.81721H53.6882L51.213 18.513L48.1387 6.81721H43.59L40.5161 18.513ZM124.86 13.1401H118.909V6.81721H114.011V24.4876H118.909V17.1413H124.86V24.4876H129.783V6.81721H124.86V13.1401ZM101.913 10.6649V24.4876H106.812V10.6649H111.36V6.81721H97.364V10.6649H101.913Z" fill="#FAFAFA"/>
<path d="M90.5536 24.4876H96.0781L92.1024 17.6651C94.3026 16.7387 95.5518 14.964 95.5518 12.6147C95.5518 9.11437 93.2542 6.81721 88.7047 6.81721H79.9821V24.4876H84.7799V18.3638H87.205L90.5536 24.4876ZM90.7557 12.6147C90.7557 13.8648 89.9048 14.7657 88.1288 14.7657H84.7799V10.4653H88.1288C89.9048 10.4658 90.7557 11.365 90.7557 12.6147ZM71.3836 11.79V17.4379C71.3836 19.9876 70.1352 20.8873 68.5101 20.8873C66.8871 20.8873 65.6116 19.9876 65.6116 17.462V11.79H60.7121V17.6879C60.7121 22.3357 63.2873 24.8867 68.5105 24.8867C73.76 24.8867 76.2861 22.3357 76.2861 17.7129V11.79H71.3836ZM65.612 6.81721H60.7133V10.142H65.612V6.81721ZM71.3836 10.1407H76.2844V6.81592H71.3836V10.1407ZM40.5161 18.513L38.0409 6.81721H33.166L37.6663 24.4876H42.8404L45.8648 12.9656L48.8887 24.4876H54.0641L58.5623 6.81721H53.6882L51.213 18.513L48.1387 6.81721H43.59L40.5161 18.513ZM124.86 13.1401H118.909V6.81721H114.011V24.4876H118.909V17.1413H124.86V24.4876H129.783V6.81721H124.86V13.1401ZM101.913 10.6649V24.4876H106.812V10.6649H111.36V6.81721H97.364V10.6649H101.913Z" fill="#674992" fill-opacity="0.01"/>
<path d="M25.7842 12.2009H0.462891V1.3479H11.0012V5.61547H15.2468V1.3479H25.7842V12.2009Z" fill="#FAFAFA"/>
<path d="M25.7842 12.2009H0.462891V1.3479H11.0012V5.61547H15.2468V1.3479H25.7842V12.2009Z" fill="#674992" fill-opacity="0.01"/>
<path d="M15.2458 24.8086V29.0577C21.3066 27.9196 25.7833 22.6408 25.7833 16.7127V16.489H0.461914V16.7127C0.461914 22.6408 4.94199 27.9196 11.0002 29.0577V24.8086H15.2458Z" fill="#FAFAFA"/>
<path d="M15.2458 24.8086V29.0577C21.3066 27.9196 25.7833 22.6408 25.7833 16.7127V16.489H0.461914V16.7127C0.461914 22.6408 4.94199 27.9196 11.0002 29.0577V24.8086H15.2458Z" fill="#674992" fill-opacity="0.01"/>
</g>
<defs>
<clipPath id="clip0_200_1194">
<rect width="130" height="29" fill="white" transform="translate(0 0.5)"/>
</clipPath>
</defs>
</svg>
