<svg width="79" height="32" viewBox="0 0 79 32" fill="none" xmlns="http://www.w3.org/2000/svg">
<g clip-path="url(#clip0_200_1129)">
<path d="M24.8802 13.7524L16.8223 1.60791H22.7108L27.2563 9.54598L32.0773 1.60791H37.6904L29.5979 13.7524V22.776H24.8802V13.7524Z" fill="#FAFAFA"/>
<path d="M24.8802 13.7524L16.8223 1.60791H22.7108L27.2563 9.54598L32.0773 1.60791H37.6904L29.5979 13.7524V22.776H24.8802V13.7524Z" fill="#674992" fill-opacity="0.01"/>
<path d="M66.5815 7.78193L63.9644 14.363H69.1986L66.5815 7.78193ZM64.7564 1.60791H68.6821L78.0142 22.776H72.6766L70.8171 18.2981H62.4836L60.693 22.776H55.4932L64.7564 1.60791Z" fill="#FAFAFA"/>
<path d="M66.5815 7.78193L63.9644 14.363H69.1986L66.5815 7.78193ZM64.7564 1.60791H68.6821L78.0142 22.776H72.6766L70.8171 18.2981H62.4836L60.693 22.776H55.4932L64.7564 1.60791Z" fill="#674992" fill-opacity="0.01"/>
<path d="M74.5028 3.23615C74.5028 4.05031 75.157 4.69486 75.9835 4.72878C76.81 4.72878 77.4642 4.08423 77.4987 3.23615C77.4987 2.422 76.8444 1.77745 75.9835 1.74353C75.157 1.77745 74.5028 2.422 74.5028 3.23615ZM74.124 3.23615C74.124 2.21845 74.9504 1.4043 75.9835 1.4043C77.0166 1.4043 77.843 2.21845 77.843 3.23615C77.843 4.25385 77.0166 5.06801 75.9835 5.06801C74.9849 5.06801 74.124 4.25385 74.124 3.23615Z" fill="#FAFAFA"/>
<path d="M74.5028 3.23615C74.5028 4.05031 75.157 4.69486 75.9835 4.72878C76.81 4.72878 77.4642 4.08423 77.4987 3.23615C77.4987 2.422 76.8444 1.77745 75.9835 1.74353C75.157 1.77745 74.5028 2.422 74.5028 3.23615ZM74.124 3.23615C74.124 2.21845 74.9504 1.4043 75.9835 1.4043C77.0166 1.4043 77.843 2.21845 77.843 3.23615C77.843 4.25385 77.0166 5.06801 75.9835 5.06801C74.9849 5.06801 74.124 4.25385 74.124 3.23615Z" fill="#674992" fill-opacity="0.01"/>
<path d="M75.9832 2.99896C76.2242 2.99896 76.4997 2.96503 76.4997 2.72757C76.4997 2.49011 76.2586 2.45619 76.0176 2.45619H75.6388V2.99896H75.9832ZM75.26 2.15088H76.0865C76.5341 2.15088 76.9474 2.28657 76.9474 2.72757C76.9474 3.03288 76.7407 3.23642 76.3964 3.27034L77.0162 4.15235H76.4997L75.9487 3.30427H75.6388V4.15235H75.2256V2.15088H75.26Z" fill="#FAFAFA"/>
<path d="M75.9832 2.99896C76.2242 2.99896 76.4997 2.96503 76.4997 2.72757C76.4997 2.49011 76.2586 2.45619 76.0176 2.45619H75.6388V2.99896H75.9832ZM75.26 2.15088H76.0865C76.5341 2.15088 76.9474 2.28657 76.9474 2.72757C76.9474 3.03288 76.7407 3.23642 76.3964 3.27034L77.0162 4.15235H76.4997L75.9487 3.30427H75.6388V4.15235H75.2256V2.15088H75.26Z" fill="#674992" fill-opacity="0.01"/>
<path d="M43.6816 18.8409H47.9172C49.3979 18.8409 51.0852 18.2303 51.0852 16.3645C51.0852 14.363 48.8125 14.0238 47.2629 14.0238H43.6816V18.8409ZM43.6816 10.0887H47.1252C48.5714 10.0887 50.0866 9.4781 50.0866 7.78193C50.0866 6.01793 48.3992 5.57693 46.9185 5.57693H43.716V10.0887H43.6816ZM38.9639 1.60791H46.953C50.7064 1.60791 54.8043 2.38814 54.8043 7.00171C54.8043 9.37635 53.3235 10.9707 51.1197 11.6492V11.717C53.9434 12.0902 55.8029 14.1256 55.8029 16.8733C55.8029 21.2834 51.5673 22.7421 47.745 22.7421H38.9639V1.60791Z" fill="#FAFAFA"/>
<path d="M43.6816 18.8409H47.9172C49.3979 18.8409 51.0852 18.2303 51.0852 16.3645C51.0852 14.363 48.8125 14.0238 47.2629 14.0238H43.6816V18.8409ZM43.6816 10.0887H47.1252C48.5714 10.0887 50.0866 9.4781 50.0866 7.78193C50.0866 6.01793 48.3992 5.57693 46.9185 5.57693H43.716V10.0887H43.6816ZM38.9639 1.60791H46.953C50.7064 1.60791 54.8043 2.38814 54.8043 7.00171C54.8043 9.37635 53.3235 10.9707 51.1197 11.6492V11.717C53.9434 12.0902 55.8029 14.1256 55.8029 16.8733C55.8029 21.2834 51.5673 22.7421 47.745 22.7421H38.9639V1.60791Z" fill="#674992" fill-opacity="0.01"/>
<path d="M5.52629 10.3601H8.31559C10.0374 10.3601 12.2757 10.2923 12.2757 7.98549C12.2757 5.84832 10.3474 5.54301 8.59106 5.54301H5.49186V10.3601H5.52629ZM0.808594 1.60791H9.1076C13.5154 1.60791 17.2 3.10053 17.2 8.0533C17.2 11.0046 15.5816 13.3114 12.5512 13.8542L18.0265 22.776H12.3446L7.86793 14.3291H5.52629V22.776H0.808594V1.60791Z" fill="#FAFAFA"/>
<path d="M5.52629 10.3601H8.31559C10.0374 10.3601 12.2757 10.2923 12.2757 7.98549C12.2757 5.84832 10.3474 5.54301 8.59106 5.54301H5.49186V10.3601H5.52629ZM0.808594 1.60791H9.1076C13.5154 1.60791 17.2 3.10053 17.2 8.0533C17.2 11.0046 15.5816 13.3114 12.5512 13.8542L18.0265 22.776H12.3446L7.86793 14.3291H5.52629V22.776H0.808594V1.60791Z" fill="#674992" fill-opacity="0.01"/>
<path d="M-1.77344 27.6948H-0.602625C-0.430446 27.6948 -0.292704 27.6948 -0.120525 27.7287C0.0172192 27.7627 0.154957 27.7966 0.258264 27.8984C0.361572 27.9662 0.46488 28.068 0.533751 28.2037C0.602623 28.3394 0.637058 28.509 0.637058 28.6786C0.637058 28.8821 0.602623 29.0178 0.533751 29.1535C0.46488 29.2892 0.396014 29.391 0.292706 29.4588C0.189399 29.5267 0.0516499 29.5945 -0.0860875 29.6284C-0.223831 29.6624 -0.396011 29.6624 -0.56819 29.6624H-1.08473V30.9515H-1.77344V27.6948ZM-1.08473 29.0857H-0.602625C-0.533754 29.0857 -0.464882 29.0857 -0.430447 29.0518C-0.396011 29.0178 -0.327139 29.0178 -0.258268 28.9839C-0.223832 28.95 -0.189396 28.9161 -0.154966 28.8482C-0.12053 28.8143 -0.120525 28.7464 -0.120525 28.6447C-0.120525 28.5768 -0.15496 28.509 -0.189396 28.4411C-0.223832 28.3733 -0.258268 28.3394 -0.327139 28.3394C-0.396011 28.3054 -0.464882 28.3054 -0.533754 28.2715C-0.602625 28.2715 -0.671497 28.2715 -0.740369 28.2715H-1.08473V29.0857Z" fill="#FAFAFA"/>
<path d="M-1.77344 27.6948H-0.602625C-0.430446 27.6948 -0.292704 27.6948 -0.120525 27.7287C0.0172192 27.7627 0.154957 27.7966 0.258264 27.8984C0.361572 27.9662 0.46488 28.068 0.533751 28.2037C0.602623 28.3394 0.637058 28.509 0.637058 28.6786C0.637058 28.8821 0.602623 29.0178 0.533751 29.1535C0.46488 29.2892 0.396014 29.391 0.292706 29.4588C0.189399 29.5267 0.0516499 29.5945 -0.0860875 29.6284C-0.223831 29.6624 -0.396011 29.6624 -0.56819 29.6624H-1.08473V30.9515H-1.77344V27.6948ZM-1.08473 29.0857H-0.602625C-0.533754 29.0857 -0.464882 29.0857 -0.430447 29.0518C-0.396011 29.0178 -0.327139 29.0178 -0.258268 28.9839C-0.223832 28.95 -0.189396 28.9161 -0.154966 28.8482C-0.12053 28.8143 -0.120525 28.7464 -0.120525 28.6447C-0.120525 28.5768 -0.15496 28.509 -0.189396 28.4411C-0.223832 28.3733 -0.258268 28.3394 -0.327139 28.3394C-0.396011 28.3054 -0.464882 28.3054 -0.533754 28.2715C-0.602625 28.2715 -0.671497 28.2715 -0.740369 28.2715H-1.08473V29.0857Z" fill="#674992" fill-opacity="0.01"/>
<path d="M1.63557 28.3394H0.740234V27.6948H3.25405V28.3394H2.35872V30.9515H1.63557V28.3394Z" fill="#FAFAFA"/>
<path d="M1.63557 28.3394H0.740234V27.6948H3.25405V28.3394H2.35872V30.9515H1.63557V28.3394Z" fill="#674992" fill-opacity="0.01"/>
<path d="M3.63281 27.6948H5.76783V28.3733H4.32152V28.9839H5.69895V29.6284H4.32152V30.3069H5.87113V30.9515H3.63281V27.6948Z" fill="#FAFAFA"/>
<path d="M3.63281 27.6948H5.76783V28.3733H4.32152V28.9839H5.69895V29.6284H4.32152V30.3069H5.87113V30.9515H3.63281V27.6948Z" fill="#674992" fill-opacity="0.01"/>
<path d="M9.1093 29.6963C9.1093 29.8998 9.07487 30.0695 9.04044 30.2391C8.97156 30.4087 8.90269 30.5444 8.79938 30.6801C8.69607 30.8158 8.55833 30.8836 8.38616 30.9515C8.21398 31.0193 8.04179 31.0532 7.80075 31.0532C7.59413 31.0532 7.38752 31.0193 7.21534 30.9515C7.04316 30.8836 6.90542 30.7818 6.80211 30.6801C6.6988 30.5444 6.59549 30.4087 6.56106 30.2391C6.49218 30.0695 6.49219 29.8998 6.49219 29.6963V27.6948H7.1809V29.6624C7.1809 29.7641 7.1809 29.8659 7.21534 29.9338C7.24977 30.0355 7.28421 30.1034 7.35308 30.1712C7.42195 30.2391 7.49082 30.273 7.55969 30.3069C7.62857 30.3408 7.73188 30.3748 7.80075 30.3748C7.90406 30.3748 7.97293 30.3408 8.0418 30.3069C8.11067 30.273 8.17954 30.2391 8.24841 30.1712C8.31728 30.1034 8.35172 30.0355 8.38616 29.9338C8.42059 29.832 8.42059 29.7641 8.42059 29.6624V27.6948H9.1093V29.6963Z" fill="#FAFAFA"/>
<path d="M9.1093 29.6963C9.1093 29.8998 9.07487 30.0695 9.04044 30.2391C8.97156 30.4087 8.90269 30.5444 8.79938 30.6801C8.69607 30.8158 8.55833 30.8836 8.38616 30.9515C8.21398 31.0193 8.04179 31.0532 7.80075 31.0532C7.59413 31.0532 7.38752 31.0193 7.21534 30.9515C7.04316 30.8836 6.90542 30.7818 6.80211 30.6801C6.6988 30.5444 6.59549 30.4087 6.56106 30.2391C6.49218 30.0695 6.49219 29.8998 6.49219 29.6963V27.6948H7.1809V29.6624C7.1809 29.7641 7.1809 29.8659 7.21534 29.9338C7.24977 30.0355 7.28421 30.1034 7.35308 30.1712C7.42195 30.2391 7.49082 30.273 7.55969 30.3069C7.62857 30.3408 7.73188 30.3748 7.80075 30.3748C7.90406 30.3748 7.97293 30.3408 8.0418 30.3069C8.11067 30.273 8.17954 30.2391 8.24841 30.1712C8.31728 30.1034 8.35172 30.0355 8.38616 29.9338C8.42059 29.832 8.42059 29.7641 8.42059 29.6624V27.6948H9.1093V29.6963Z" fill="#674992" fill-opacity="0.01"/>
<path d="M9.72754 27.6948H10.9673C11.1394 27.6948 11.2772 27.6948 11.4149 27.7287C11.5527 27.7627 11.6904 27.8305 11.7937 27.8984C11.897 27.9662 12.0003 28.068 12.0692 28.2037C12.1381 28.3394 12.1725 28.4751 12.1725 28.6786C12.1725 28.9161 12.1036 29.1196 12.0003 29.2553C11.897 29.4249 11.7248 29.5267 11.4838 29.5606L12.2758 30.9515H11.4494L10.7951 29.6284H10.4507V30.9515H9.76197V27.6948H9.72754ZM10.4507 29.0518H10.8639C10.9328 29.0518 11.0017 29.0518 11.0706 29.0518C11.1394 29.0518 11.2083 29.0178 11.2772 29.0178C11.3461 28.9839 11.3805 28.95 11.4149 28.9161C11.4494 28.8821 11.4838 28.8143 11.4838 28.7125C11.4838 28.6447 11.4838 28.5768 11.4494 28.509C11.4149 28.4751 11.3805 28.4072 11.3116 28.4072C11.2772 28.3733 11.2083 28.3733 11.1394 28.3394C11.0706 28.3394 11.0017 28.3394 10.9328 28.3394H10.4852V29.0518H10.4507Z" fill="#FAFAFA"/>
<path d="M9.72754 27.6948H10.9673C11.1394 27.6948 11.2772 27.6948 11.4149 27.7287C11.5527 27.7627 11.6904 27.8305 11.7937 27.8984C11.897 27.9662 12.0003 28.068 12.0692 28.2037C12.1381 28.3394 12.1725 28.4751 12.1725 28.6786C12.1725 28.9161 12.1036 29.1196 12.0003 29.2553C11.897 29.4249 11.7248 29.5267 11.4838 29.5606L12.2758 30.9515H11.4494L10.7951 29.6284H10.4507V30.9515H9.76197V27.6948H9.72754ZM10.4507 29.0518H10.8639C10.9328 29.0518 11.0017 29.0518 11.0706 29.0518C11.1394 29.0518 11.2083 29.0178 11.2772 29.0178C11.3461 28.9839 11.3805 28.95 11.4149 28.9161C11.4494 28.8821 11.4838 28.8143 11.4838 28.7125C11.4838 28.6447 11.4838 28.5768 11.4494 28.509C11.4149 28.4751 11.3805 28.4072 11.3116 28.4072C11.2772 28.3733 11.2083 28.3733 11.1394 28.3394C11.0706 28.3394 11.0017 28.3394 10.9328 28.3394H10.4852V29.0518H10.4507Z" fill="#674992" fill-opacity="0.01"/>
<path d="M14.8597 29.5266H13.7578V30.0694H14.8597V29.5266Z" fill="#FAFAFA"/>
<path d="M14.8597 29.5266H13.7578V30.0694H14.8597V29.5266Z" fill="#674992" fill-opacity="0.01"/>
<path d="M16.6494 27.6948H18.75V28.3733H17.3381V29.0178H18.6467V29.6963H17.3381V30.9515H16.6494V27.6948Z" fill="#FAFAFA"/>
<path d="M16.6494 27.6948H18.75V28.3733H17.3381V29.0178H18.6467V29.6963H17.3381V30.9515H16.6494V27.6948Z" fill="#674992" fill-opacity="0.01"/>
<path d="M20.059 27.6948H20.6444L22.0219 30.9515H21.2298L20.9544 30.273H19.7147L19.4392 30.9515H18.6816L20.059 27.6948ZM20.3345 28.6447L19.9557 29.6624H20.7133L20.3345 28.6447Z" fill="#FAFAFA"/>
<path d="M20.059 27.6948H20.6444L22.0219 30.9515H21.2298L20.9544 30.273H19.7147L19.4392 30.9515H18.6816L20.059 27.6948ZM20.3345 28.6447L19.9557 29.6624H20.7133L20.3345 28.6447Z" fill="#674992" fill-opacity="0.01"/>
<path d="M22.3311 27.6948H23.5019C23.6396 27.6948 23.7774 27.6948 23.9151 27.7287C24.0529 27.7627 24.1906 27.7966 24.2939 27.8644C24.3972 27.9323 24.5005 28.0001 24.5694 28.1019C24.6383 28.2037 24.6727 28.3394 24.6727 28.5429C24.6727 28.7125 24.6383 28.8821 24.535 29.0178C24.4317 29.1535 24.2939 29.2214 24.1562 29.2892C24.2595 29.2892 24.3628 29.3231 24.4317 29.391C24.5005 29.4249 24.6038 29.4928 24.6383 29.5606C24.7071 29.6284 24.7416 29.6963 24.776 29.7981C24.8105 29.8998 24.8105 30.0016 24.8105 30.1034C24.8105 30.273 24.776 30.4087 24.7072 30.5444C24.6383 30.6461 24.535 30.7479 24.4317 30.8158C24.3284 30.8836 24.1906 30.9515 24.0529 30.9854C23.9151 31.0193 23.7774 31.0193 23.6396 31.0193H22.3311V27.6948ZM23.0198 29.0178H23.5363C23.6052 29.0178 23.6396 29.0178 23.7085 28.9839C23.7774 28.9839 23.8118 28.95 23.8463 28.9161C23.8807 28.8821 23.9151 28.8482 23.9496 28.8143C23.984 28.7804 23.984 28.7125 23.984 28.6447C23.984 28.5768 23.984 28.509 23.9496 28.4751C23.9151 28.4411 23.8807 28.4072 23.8463 28.3733C23.8118 28.3394 23.743 28.3394 23.7085 28.3054C23.6396 28.3054 23.6052 28.3054 23.5363 28.3054H23.0542V29.0178H23.0198ZM23.0198 30.3408H23.6396C23.7085 30.3408 23.7429 30.3408 23.8118 30.3069C23.8807 30.3069 23.9151 30.273 23.9496 30.2391C23.984 30.2051 24.0184 30.1712 24.0529 30.1034C24.0873 30.0695 24.0873 30.0016 24.0873 29.9338C24.0873 29.8659 24.0529 29.7981 24.0184 29.7302C23.984 29.6624 23.9496 29.6624 23.8807 29.6284C23.8118 29.5945 23.7774 29.5945 23.7085 29.5606C23.6396 29.5606 23.5708 29.5606 23.5363 29.5606H23.0198V30.3408Z" fill="#FAFAFA"/>
<path d="M22.3311 27.6948H23.5019C23.6396 27.6948 23.7774 27.6948 23.9151 27.7287C24.0529 27.7627 24.1906 27.7966 24.2939 27.8644C24.3972 27.9323 24.5005 28.0001 24.5694 28.1019C24.6383 28.2037 24.6727 28.3394 24.6727 28.5429C24.6727 28.7125 24.6383 28.8821 24.535 29.0178C24.4317 29.1535 24.2939 29.2214 24.1562 29.2892C24.2595 29.2892 24.3628 29.3231 24.4317 29.391C24.5005 29.4249 24.6038 29.4928 24.6383 29.5606C24.7071 29.6284 24.7416 29.6963 24.776 29.7981C24.8105 29.8998 24.8105 30.0016 24.8105 30.1034C24.8105 30.273 24.776 30.4087 24.7072 30.5444C24.6383 30.6461 24.535 30.7479 24.4317 30.8158C24.3284 30.8836 24.1906 30.9515 24.0529 30.9854C23.9151 31.0193 23.7774 31.0193 23.6396 31.0193H22.3311V27.6948ZM23.0198 29.0178H23.5363C23.6052 29.0178 23.6396 29.0178 23.7085 28.9839C23.7774 28.9839 23.8118 28.95 23.8463 28.9161C23.8807 28.8821 23.9151 28.8482 23.9496 28.8143C23.984 28.7804 23.984 28.7125 23.984 28.6447C23.984 28.5768 23.984 28.509 23.9496 28.4751C23.9151 28.4411 23.8807 28.4072 23.8463 28.3733C23.8118 28.3394 23.743 28.3394 23.7085 28.3054C23.6396 28.3054 23.6052 28.3054 23.5363 28.3054H23.0542V29.0178H23.0198ZM23.0198 30.3408H23.6396C23.7085 30.3408 23.7429 30.3408 23.8118 30.3069C23.8807 30.3069 23.9151 30.273 23.9496 30.2391C23.984 30.2051 24.0184 30.1712 24.0529 30.1034C24.0873 30.0695 24.0873 30.0016 24.0873 29.9338C24.0873 29.8659 24.0529 29.7981 24.0184 29.7302C23.984 29.6624 23.9496 29.6624 23.8807 29.6284C23.8118 29.5945 23.7774 29.5945 23.7085 29.5606C23.6396 29.5606 23.5708 29.5606 23.5363 29.5606H23.0198V30.3408Z" fill="#674992" fill-opacity="0.01"/>
<path d="M25.2256 27.6948H26.4652C26.6374 27.6948 26.7752 27.6948 26.9129 27.7287C27.0507 27.7627 27.1884 27.8305 27.2917 27.8984C27.395 27.9662 27.4983 28.068 27.5672 28.2037C27.6361 28.3394 27.6705 28.4751 27.6705 28.6786C27.6705 28.9161 27.6016 29.1196 27.4983 29.2553C27.395 29.4249 27.2228 29.5267 26.9818 29.5606L27.7738 30.9515H26.9473L26.2931 29.6284H25.9487V30.9515H25.26V27.6948H25.2256ZM25.9487 29.0518H26.3619C26.4308 29.0518 26.4997 29.0518 26.5685 29.0518C26.6374 29.0518 26.7063 29.0178 26.7752 29.0178C26.844 28.9839 26.8785 28.95 26.9129 28.9161C26.9473 28.8821 26.9818 28.8143 26.9818 28.7125C26.9818 28.6447 26.9818 28.5768 26.9473 28.509C26.9129 28.4751 26.8785 28.4072 26.8096 28.4072C26.7752 28.3733 26.7063 28.3733 26.6374 28.3394C26.5685 28.3054 26.4997 28.3394 26.4308 28.3394H25.9831V29.0518H25.9487Z" fill="#FAFAFA"/>
<path d="M25.2256 27.6948H26.4652C26.6374 27.6948 26.7752 27.6948 26.9129 27.7287C27.0507 27.7627 27.1884 27.8305 27.2917 27.8984C27.395 27.9662 27.4983 28.068 27.5672 28.2037C27.6361 28.3394 27.6705 28.4751 27.6705 28.6786C27.6705 28.9161 27.6016 29.1196 27.4983 29.2553C27.395 29.4249 27.2228 29.5267 26.9818 29.5606L27.7738 30.9515H26.9473L26.2931 29.6284H25.9487V30.9515H25.26V27.6948H25.2256ZM25.9487 29.0518H26.3619C26.4308 29.0518 26.4997 29.0518 26.5685 29.0518C26.6374 29.0518 26.7063 29.0178 26.7752 29.0178C26.844 28.9839 26.8785 28.95 26.9129 28.9161C26.9473 28.8821 26.9818 28.8143 26.9818 28.7125C26.9818 28.6447 26.9818 28.5768 26.9473 28.509C26.9129 28.4751 26.8785 28.4072 26.8096 28.4072C26.7752 28.3733 26.7063 28.3733 26.6374 28.3394C26.5685 28.3054 26.4997 28.3394 26.4308 28.3394H25.9831V29.0518H25.9487Z" fill="#674992" fill-opacity="0.01"/>
<path d="M28.8049 27.6948H28.1162V30.9515H28.8049V27.6948Z" fill="#FAFAFA"/>
<path d="M28.8049 27.6948H28.1162V30.9515H28.8049V27.6948Z" fill="#674992" fill-opacity="0.01"/>
<path d="M31.5254 28.5431C31.4566 28.4413 31.3877 28.4074 31.2844 28.3395C31.1811 28.3056 31.0778 28.2717 30.94 28.2717C30.8023 28.2717 30.699 28.3056 30.5612 28.3395C30.4579 28.4074 30.3546 28.4752 30.2857 28.5431C30.2169 28.6448 30.148 28.7466 30.0791 28.8823C30.0447 29.018 30.0103 29.1537 30.0103 29.2894C30.0103 29.459 30.0447 29.5947 30.0791 29.6965C30.1136 29.8322 30.1824 29.9339 30.2857 30.0357C30.3891 30.1375 30.4579 30.2053 30.5612 30.2392C30.6645 30.3071 30.8023 30.3071 30.9056 30.3071C31.0433 30.3071 31.1811 30.2732 31.2844 30.2053C31.3877 30.1375 31.491 30.0696 31.5599 29.9339L32.1453 30.3749C32.0075 30.5785 31.8354 30.7142 31.6287 30.8159C31.4221 30.9177 31.2155 30.9516 31.0089 30.9516C30.7679 30.9516 30.5268 30.9177 30.3202 30.8159C30.1136 30.7481 29.9414 30.6124 29.7692 30.4767C29.6315 30.341 29.4937 30.1375 29.4249 29.9339C29.356 29.7304 29.2871 29.4929 29.2871 29.2215C29.2871 28.9502 29.3215 28.7127 29.4249 28.5092C29.4937 28.3056 29.6315 28.1021 29.7692 27.9664C29.907 27.8307 30.1136 27.695 30.3202 27.6271C30.5268 27.5593 30.7679 27.4915 31.0089 27.4915C31.1122 27.4915 31.1811 27.4915 31.2844 27.5254C31.3877 27.5593 31.491 27.5593 31.5599 27.5932C31.6632 27.6271 31.732 27.695 31.8354 27.7289C31.9387 27.7968 32.0075 27.8646 32.0764 27.9664L31.5254 28.5431Z" fill="#FAFAFA"/>
<path d="M31.5254 28.5431C31.4566 28.4413 31.3877 28.4074 31.2844 28.3395C31.1811 28.3056 31.0778 28.2717 30.94 28.2717C30.8023 28.2717 30.699 28.3056 30.5612 28.3395C30.4579 28.4074 30.3546 28.4752 30.2857 28.5431C30.2169 28.6448 30.148 28.7466 30.0791 28.8823C30.0447 29.018 30.0103 29.1537 30.0103 29.2894C30.0103 29.459 30.0447 29.5947 30.0791 29.6965C30.1136 29.8322 30.1824 29.9339 30.2857 30.0357C30.3891 30.1375 30.4579 30.2053 30.5612 30.2392C30.6645 30.3071 30.8023 30.3071 30.9056 30.3071C31.0433 30.3071 31.1811 30.2732 31.2844 30.2053C31.3877 30.1375 31.491 30.0696 31.5599 29.9339L32.1453 30.3749C32.0075 30.5785 31.8354 30.7142 31.6287 30.8159C31.4221 30.9177 31.2155 30.9516 31.0089 30.9516C30.7679 30.9516 30.5268 30.9177 30.3202 30.8159C30.1136 30.7481 29.9414 30.6124 29.7692 30.4767C29.6315 30.341 29.4937 30.1375 29.4249 29.9339C29.356 29.7304 29.2871 29.4929 29.2871 29.2215C29.2871 28.9502 29.3215 28.7127 29.4249 28.5092C29.4937 28.3056 29.6315 28.1021 29.7692 27.9664C29.907 27.8307 30.1136 27.695 30.3202 27.6271C30.5268 27.5593 30.7679 27.4915 31.0089 27.4915C31.1122 27.4915 31.1811 27.4915 31.2844 27.5254C31.3877 27.5593 31.491 27.5593 31.5599 27.5932C31.6632 27.6271 31.732 27.695 31.8354 27.7289C31.9387 27.7968 32.0075 27.8646 32.0764 27.9664L31.5254 28.5431Z" fill="#674992" fill-opacity="0.01"/>
<path d="M33.5581 27.6948H34.1435L35.521 30.9515H34.7289L34.4535 30.273H33.2138L32.9383 30.9515H32.1807L33.5581 27.6948ZM33.8336 28.6447L33.4548 29.6624H34.2124L33.8336 28.6447Z" fill="#FAFAFA"/>
<path d="M33.5581 27.6948H34.1435L35.521 30.9515H34.7289L34.4535 30.273H33.2138L32.9383 30.9515H32.1807L33.5581 27.6948ZM33.8336 28.6447L33.4548 29.6624H34.2124L33.8336 28.6447Z" fill="#674992" fill-opacity="0.01"/>
<path d="M35.8301 27.6948H36.7943L38.1373 29.9677V27.6948H38.826V30.9515H37.9307L36.5533 28.6447H36.5189V30.9515H35.8301V27.6948Z" fill="#FAFAFA"/>
<path d="M35.8301 27.6948H36.7943L38.1373 29.9677V27.6948H38.826V30.9515H37.9307L36.5533 28.6447H36.5189V30.9515H35.8301V27.6948Z" fill="#674992" fill-opacity="0.01"/>
<path d="M40.1004 28.3394H39.2051V27.6948H41.6845V28.3394H40.7891V30.9515H40.1004V28.3394Z" fill="#FAFAFA"/>
<path d="M40.1004 28.3394H39.2051V27.6948H41.6845V28.3394H40.7891V30.9515H40.1004V28.3394Z" fill="#674992" fill-opacity="0.01"/>
<path d="M44.2679 29.5266H43.166V30.0694H44.2679V29.5266Z" fill="#FAFAFA"/>
<path d="M44.2679 29.5266H43.166V30.0694H44.2679V29.5266Z" fill="#674992" fill-opacity="0.01"/>
<path d="M46.7131 27.6948H46.0244V30.9515H46.7131V27.6948Z" fill="#FAFAFA"/>
<path d="M46.7131 27.6948H46.0244V30.9515H46.7131V27.6948Z" fill="#674992" fill-opacity="0.01"/>
<path d="M47.3672 27.6948H48.297L49.64 29.9677V27.6948H50.3631V30.9515H49.4333L48.0559 28.6447V30.9515H47.3672V27.6948Z" fill="#FAFAFA"/>
<path d="M47.3672 27.6948H48.297L49.64 29.9677V27.6948H50.3631V30.9515H49.4333L48.0559 28.6447V30.9515H47.3672V27.6948Z" fill="#674992" fill-opacity="0.01"/>
<path d="M52.5663 28.5087C52.4975 28.4409 52.4286 28.373 52.3253 28.3391C52.222 28.3052 52.1531 28.2713 52.0498 28.2713C52.0154 28.2713 51.9465 28.2713 51.8776 28.3052C51.8088 28.3052 51.7743 28.3391 51.7399 28.373C51.7054 28.407 51.6366 28.4409 51.6366 28.4748C51.6021 28.5087 51.6021 28.5766 51.6021 28.6444C51.6021 28.7462 51.6366 28.814 51.7054 28.8819C51.7743 28.9497 51.8776 28.9837 51.9809 29.0176C52.0842 29.0515 52.222 29.0854 52.3253 29.1194C52.463 29.1533 52.5663 29.2211 52.6696 29.289C52.7729 29.3568 52.8763 29.4586 52.9451 29.5604C53.014 29.6621 53.0484 29.8317 53.0484 30.0353C53.0484 30.2049 53.014 30.3745 52.9451 30.5102C52.8763 30.6459 52.8074 30.7477 52.6696 30.8494C52.5663 30.9512 52.4286 31.0191 52.2909 31.053C52.1531 31.0869 51.9809 31.1208 51.8087 31.1208C51.6021 31.1208 51.3955 31.0869 51.2233 31.0191C51.0512 30.9512 50.879 30.8494 50.7412 30.7137L51.2233 30.137C51.2922 30.2388 51.3955 30.3067 51.4988 30.3745C51.6021 30.4424 51.7054 30.4424 51.8432 30.4424C51.9121 30.4424 51.9465 30.4424 52.0154 30.4084C52.0842 30.4084 52.1187 30.3745 52.1875 30.3406C52.2564 30.3067 52.2564 30.2727 52.2909 30.2388C52.3253 30.2049 52.3253 30.137 52.3253 30.1031C52.3253 30.0014 52.2908 29.9335 52.222 29.8657C52.1531 29.7978 52.0498 29.7639 51.9465 29.73C51.8432 29.696 51.7054 29.6621 51.6021 29.5943C51.4644 29.5604 51.3611 29.4925 51.2578 29.4247C51.1545 29.3568 51.0512 29.2551 50.9823 29.1533C50.9134 29.0515 50.879 28.8819 50.879 28.7123C50.879 28.5427 50.9134 28.373 50.9823 28.2374C51.0512 28.1017 51.1545 27.9999 51.2578 27.8981C51.3611 27.7963 51.4988 27.7285 51.6366 27.6946C51.7743 27.6607 51.9465 27.6267 52.0842 27.6267C52.2564 27.6267 52.4286 27.6607 52.6008 27.6946C52.773 27.7624 52.9107 27.8303 53.0484 27.966L52.5663 28.5087Z" fill="#FAFAFA"/>
<path d="M52.5663 28.5087C52.4975 28.4409 52.4286 28.373 52.3253 28.3391C52.222 28.3052 52.1531 28.2713 52.0498 28.2713C52.0154 28.2713 51.9465 28.2713 51.8776 28.3052C51.8088 28.3052 51.7743 28.3391 51.7399 28.373C51.7054 28.407 51.6366 28.4409 51.6366 28.4748C51.6021 28.5087 51.6021 28.5766 51.6021 28.6444C51.6021 28.7462 51.6366 28.814 51.7054 28.8819C51.7743 28.9497 51.8776 28.9837 51.9809 29.0176C52.0842 29.0515 52.222 29.0854 52.3253 29.1194C52.463 29.1533 52.5663 29.2211 52.6696 29.289C52.7729 29.3568 52.8763 29.4586 52.9451 29.5604C53.014 29.6621 53.0484 29.8317 53.0484 30.0353C53.0484 30.2049 53.014 30.3745 52.9451 30.5102C52.8763 30.6459 52.8074 30.7477 52.6696 30.8494C52.5663 30.9512 52.4286 31.0191 52.2909 31.053C52.1531 31.0869 51.9809 31.1208 51.8087 31.1208C51.6021 31.1208 51.3955 31.0869 51.2233 31.0191C51.0512 30.9512 50.879 30.8494 50.7412 30.7137L51.2233 30.137C51.2922 30.2388 51.3955 30.3067 51.4988 30.3745C51.6021 30.4424 51.7054 30.4424 51.8432 30.4424C51.9121 30.4424 51.9465 30.4424 52.0154 30.4084C52.0842 30.4084 52.1187 30.3745 52.1875 30.3406C52.2564 30.3067 52.2564 30.2727 52.2909 30.2388C52.3253 30.2049 52.3253 30.137 52.3253 30.1031C52.3253 30.0014 52.2908 29.9335 52.222 29.8657C52.1531 29.7978 52.0498 29.7639 51.9465 29.73C51.8432 29.696 51.7054 29.6621 51.6021 29.5943C51.4644 29.5604 51.3611 29.4925 51.2578 29.4247C51.1545 29.3568 51.0512 29.2551 50.9823 29.1533C50.9134 29.0515 50.879 28.8819 50.879 28.7123C50.879 28.5427 50.9134 28.373 50.9823 28.2374C51.0512 28.1017 51.1545 27.9999 51.2578 27.8981C51.3611 27.7963 51.4988 27.7285 51.6366 27.6946C51.7743 27.6607 51.9465 27.6267 52.0842 27.6267C52.2564 27.6267 52.4286 27.6607 52.6008 27.6946C52.773 27.7624 52.9107 27.8303 53.0484 27.966L52.5663 28.5087Z" fill="#674992" fill-opacity="0.01"/>
<path d="M54.1844 28.3394H53.2891V27.6948H55.7685V28.3394H54.8731V30.9515H54.1844V28.3394Z" fill="#FAFAFA"/>
<path d="M54.1844 28.3394H53.2891V27.6948H55.7685V28.3394H54.8731V30.9515H54.1844V28.3394Z" fill="#674992" fill-opacity="0.01"/>
<path d="M56.7681 27.6948H57.3535L58.7309 30.9515H57.9389L57.6634 30.273H56.4237L56.1482 30.9515H55.3906L56.7681 27.6948ZM57.0436 28.6447L56.6648 29.6624H57.4224L57.0436 28.6447Z" fill="#FAFAFA"/>
<path d="M56.7681 27.6948H57.3535L58.7309 30.9515H57.9389L57.6634 30.273H56.4237L56.1482 30.9515H55.3906L56.7681 27.6948ZM57.0436 28.6447L56.6648 29.6624H57.4224L57.0436 28.6447Z" fill="#674992" fill-opacity="0.01"/>
<path d="M59.0752 27.6948H59.7639V30.3069H61.038V30.9515H59.0752V27.6948Z" fill="#FAFAFA"/>
<path d="M59.0752 27.6948H59.7639V30.3069H61.038V30.9515H59.0752V27.6948Z" fill="#674992" fill-opacity="0.01"/>
<path d="M61.4502 27.6948H62.1733V30.3069H63.4475V30.9515H61.4502V27.6948Z" fill="#FAFAFA"/>
<path d="M61.4502 27.6948H62.1733V30.3069H63.4475V30.9515H61.4502V27.6948Z" fill="#674992" fill-opacity="0.01"/>
<path d="M64.8941 27.6948H65.4795L66.8569 30.9515H66.0649L65.7894 30.273H64.5497L64.2742 30.9515H63.5166L64.8941 27.6948ZM65.1351 28.6447L64.7563 29.6624H65.5139L65.1351 28.6447Z" fill="#FAFAFA"/>
<path d="M64.8941 27.6948H65.4795L66.8569 30.9515H66.0649L65.7894 30.273H64.5497L64.2742 30.9515H63.5166L64.8941 27.6948ZM65.1351 28.6447L64.7563 29.6624H65.5139L65.1351 28.6447Z" fill="#674992" fill-opacity="0.01"/>
<path d="M67.3741 28.3394H66.4443V27.6948H68.9581V28.3394H68.0628V30.9515H67.3741V28.3394Z" fill="#FAFAFA"/>
<path d="M67.3741 28.3394H66.4443V27.6948H68.9581V28.3394H68.0628V30.9515H67.3741V28.3394Z" fill="#674992" fill-opacity="0.01"/>
<path d="M69.3369 27.6948H71.5064V28.3733H70.0256V28.9839H71.403V29.6284H70.0256V30.3069H71.5752V30.9515H69.3369V27.6948Z" fill="#FAFAFA"/>
<path d="M69.3369 27.6948H71.5064V28.3733H70.0256V28.9839H71.403V29.6284H70.0256V30.3069H71.5752V30.9515H69.3369V27.6948Z" fill="#674992" fill-opacity="0.01"/>
<path d="M74.8114 29.6963C74.8114 29.8998 74.777 30.0695 74.7426 30.2391C74.6737 30.4087 74.6048 30.5444 74.5015 30.6801C74.3982 30.8158 74.2605 30.8836 74.0883 30.9515C73.9161 31.0193 73.7439 31.0532 73.5029 31.0532C73.2963 31.0532 73.0896 31.0193 72.9175 30.9515C72.7453 30.8836 72.6076 30.7818 72.5042 30.6801C72.4009 30.5444 72.2976 30.4087 72.2632 30.2391C72.1943 30.0695 72.1943 29.8998 72.1943 29.6963V27.6948H72.883V29.6624C72.883 29.7641 72.883 29.8659 72.9175 29.9338C72.9519 30.0355 72.9863 30.1034 73.0552 30.1712C73.1241 30.2391 73.1929 30.273 73.2618 30.3069C73.3307 30.3408 73.434 30.3748 73.5029 30.3748C73.6062 30.3748 73.6751 30.3408 73.7439 30.3069C73.8128 30.273 73.8817 30.2391 73.9505 30.1712C74.0194 30.1034 74.0538 30.0355 74.0883 29.9338C74.1227 29.832 74.1227 29.7641 74.1227 29.6624V27.6948H74.8114V29.6963Z" fill="#FAFAFA"/>
<path d="M74.8114 29.6963C74.8114 29.8998 74.777 30.0695 74.7426 30.2391C74.6737 30.4087 74.6048 30.5444 74.5015 30.6801C74.3982 30.8158 74.2605 30.8836 74.0883 30.9515C73.9161 31.0193 73.7439 31.0532 73.5029 31.0532C73.2963 31.0532 73.0896 31.0193 72.9175 30.9515C72.7453 30.8836 72.6076 30.7818 72.5042 30.6801C72.4009 30.5444 72.2976 30.4087 72.2632 30.2391C72.1943 30.0695 72.1943 29.8998 72.1943 29.6963V27.6948H72.883V29.6624C72.883 29.7641 72.883 29.8659 72.9175 29.9338C72.9519 30.0355 72.9863 30.1034 73.0552 30.1712C73.1241 30.2391 73.1929 30.273 73.2618 30.3069C73.3307 30.3408 73.434 30.3748 73.5029 30.3748C73.6062 30.3748 73.6751 30.3408 73.7439 30.3069C73.8128 30.273 73.8817 30.2391 73.9505 30.1712C74.0194 30.1034 74.0538 30.0355 74.0883 29.9338C74.1227 29.832 74.1227 29.7641 74.1227 29.6624V27.6948H74.8114V29.6963Z" fill="#674992" fill-opacity="0.01"/>
<path d="M75.4316 27.6948H76.6713C76.8435 27.6948 76.9812 27.6948 77.119 27.7287C77.2567 27.7627 77.3945 27.8305 77.4978 27.8984C77.6011 27.9662 77.7044 28.068 77.7733 28.2037C77.8421 28.3394 77.8766 28.4751 77.8766 28.6786C77.8766 28.9161 77.8077 29.1196 77.7044 29.2553C77.6011 29.4249 77.4289 29.5267 77.1879 29.5606L77.9799 30.9515H77.1534L76.4991 29.6284H76.1548V30.9515H75.4661V27.6948H75.4316ZM76.1548 29.0518H76.568C76.6369 29.0518 76.7058 29.0518 76.7746 29.0518C76.8435 29.0518 76.9124 29.0178 76.9812 29.0178C77.0501 28.9839 77.0846 28.95 77.119 28.9161C77.1534 28.8821 77.1879 28.8143 77.1879 28.7125C77.1879 28.6447 77.1879 28.5768 77.1534 28.509C77.119 28.4751 77.0846 28.4072 77.0157 28.4072C76.9812 28.3733 76.9124 28.3733 76.8435 28.3394C76.7746 28.3054 76.7058 28.3394 76.6369 28.3394H76.1892V29.0518H76.1548Z" fill="#FAFAFA"/>
<path d="M75.4316 27.6948H76.6713C76.8435 27.6948 76.9812 27.6948 77.119 27.7287C77.2567 27.7627 77.3945 27.8305 77.4978 27.8984C77.6011 27.9662 77.7044 28.068 77.7733 28.2037C77.8421 28.3394 77.8766 28.4751 77.8766 28.6786C77.8766 28.9161 77.8077 29.1196 77.7044 29.2553C77.6011 29.4249 77.4289 29.5267 77.1879 29.5606L77.9799 30.9515H77.1534L76.4991 29.6284H76.1548V30.9515H75.4661V27.6948H75.4316ZM76.1548 29.0518H76.568C76.6369 29.0518 76.7058 29.0518 76.7746 29.0518C76.8435 29.0518 76.9124 29.0178 76.9812 29.0178C77.0501 28.9839 77.0846 28.95 77.119 28.9161C77.1534 28.8821 77.1879 28.8143 77.1879 28.7125C77.1879 28.6447 77.1879 28.5768 77.1534 28.509C77.119 28.4751 77.0846 28.4072 77.0157 28.4072C76.9812 28.3733 76.9124 28.3733 76.8435 28.3394C76.7746 28.3054 76.7058 28.3394 76.6369 28.3394H76.1892V29.0518H76.1548Z" fill="#674992" fill-opacity="0.01"/>
</g>
<defs>
<clipPath id="clip0_200_1129">
<rect width="79" height="31" fill="white" transform="translate(0 0.5)"/>
</clipPath>
</defs>
</svg>
