<svg width="423" height="80" viewBox="0 0 423 80" fill="none" xmlns="http://www.w3.org/2000/svg">
<path d="M42.667 0.888672C52.9337 0.888672 63.2004 0.888672 73.7782 0.888672C73.2157 4.82554 72.7232 8.07738 71.6289 11.7914C71.3784 12.647 71.128 13.5026 70.87 14.3841C70.6013 15.284 70.3327 16.1838 70.0559 17.1109C69.7776 18.0548 69.4992 18.9988 69.2124 19.9714C67.3162 26.366 65.332 32.7292 63.2955 39.0803C61.1251 45.8913 59.177 52.7618 57.24 59.6421C55.4765 65.8825 53.6068 72.0695 51.5559 78.222C41.2893 78.222 31.0226 78.222 20.4448 78.222C22.4172 68.3599 22.4172 68.3599 23.8893 64.3331C25.2968 60.2755 26.4025 56.2352 27.3893 52.0553C28.746 46.345 30.4849 40.8278 32.3893 35.2776C34.727 28.4638 36.7648 21.6394 38.5019 14.648C39.6786 9.93758 41.1187 5.53371 42.667 0.888672Z" fill="white"/>
<path d="M377.056 13.1665C378.003 13.1723 378.951 13.178 379.927 13.1839C382.222 13.3332 382.222 13.3332 383.111 14.2221C383.35 21.5057 383.35 21.5057 382.222 24.8888C381.232 24.9988 380.242 25.1088 379.222 25.2221C375.972 25.4635 375.972 25.4635 374.222 27.5554C373.812 29.7177 373.812 29.7177 373.667 32.111C373.557 33.541 373.447 34.971 373.333 36.4443C377.733 36.4443 382.133 36.4443 386.667 36.4443C386.612 34.6476 386.557 32.851 386.5 30.9999C386.513 24.9036 387.441 21.7464 391.444 17.111C396.288 12.9591 400.929 12.8627 407.111 13.3332C407.698 13.6265 408.284 13.9199 408.889 14.2221C409.016 21.8411 409.016 21.8411 408 24.8888C405.653 24.8888 403.307 24.8888 400.889 24.8888C400.302 28.7021 399.716 32.5154 399.111 36.4443C402.044 36.4443 404.978 36.4443 408 36.4443C408 39.9643 408 43.4843 408 47.111C405.067 47.111 402.133 47.111 399.111 47.111C399.111 57.3776 399.111 67.6443 399.111 78.2221C395.004 78.2221 390.898 78.2221 386.667 78.2221C386.667 67.9554 386.667 57.6888 386.667 47.111C382.267 47.111 377.867 47.111 373.333 47.111C373.333 57.3776 373.333 67.6443 373.333 78.2221C369.227 78.2221 365.12 78.2221 360.889 78.2221C360.889 67.9554 360.889 57.6888 360.889 47.111C358.542 47.111 356.196 47.111 353.778 47.111C353.778 43.591 353.778 40.071 353.778 36.4443C356.124 36.4443 358.471 36.4443 360.889 36.4443C360.858 35.7465 360.827 35.0487 360.795 34.3297C360.609 27.1198 360.868 22.6571 365.722 17.0554C369.548 13.7898 372.006 13.0989 377.056 13.1665Z" fill="white"/>
<path d="M236.445 15.1113C240.551 15.1113 244.658 15.1113 248.889 15.1113C249.183 23.3247 249.476 31.538 249.778 40.0002C251.245 38.8269 252.711 37.6536 254.223 36.4447C257.597 34.7575 261.222 35.0195 264.889 35.5558C270.369 37.8115 274.722 40.7814 277.334 46.2224C280.007 54.2409 280.057 61.3963 276.556 69.1634C274.197 73.7585 271.574 76.3283 266.917 78.4655C262.066 80.0106 257.586 79.7343 252.889 77.8891C250.667 76.4447 250.667 76.4447 248.889 74.6669C248.596 75.8402 248.303 77.0136 248 78.2224C244.187 78.2224 240.374 78.2224 236.445 78.2224C236.445 57.3958 236.445 36.5691 236.445 15.1113Z" fill="white"/>
<path d="M103.111 15.1113C108.391 15.1113 113.671 15.1113 119.111 15.1113C120.461 19.3125 121.806 23.5146 123.142 27.7198C123.596 29.1444 124.052 30.5683 124.51 31.9915C127.351 40.8204 129.832 49.5405 131.556 58.6669C132.142 58.6669 132.729 58.6669 133.334 58.6669C133.421 57.8304 133.508 56.994 133.597 56.1322C134.238 51.6687 135.698 47.4911 137.111 43.2224C137.675 41.4879 138.238 39.753 138.799 38.0176C139.077 37.1578 139.355 36.298 139.642 35.4121C141.199 30.5195 142.621 25.5881 144.049 20.6565C144.591 18.7979 145.166 16.9481 145.778 15.1113C150.765 15.1113 155.751 15.1113 160.889 15.1113C159.563 21.99 157.351 28.3746 154.945 34.9447C154.141 37.1656 153.338 39.3866 152.535 41.6079C152.141 42.694 151.747 43.7801 151.341 44.8991C149.809 49.1449 148.317 53.4038 146.834 57.6669C144.441 64.5309 142.01 71.3801 139.556 78.2224C134.569 78.2224 129.582 78.2224 124.445 78.2224C123.798 76.2528 123.798 76.2528 123.139 74.2433C120.123 65.0969 117.053 55.9822 113.722 46.9447C111.286 40.3292 108.95 33.6889 106.722 27.0002C106.461 26.2151 106.199 25.43 105.929 24.6211C104.883 21.4568 103.921 18.3485 103.111 15.1113Z" fill="white"/>
<path d="M339.754 37.2365C344.7 40.3236 348.031 44.3955 350.223 49.7781C350.499 52.2057 350.648 54.361 350.612 56.7781C350.604 57.4083 350.596 58.0384 350.587 58.6876C350.384 64.8291 349.224 68.4863 344.973 72.851C338.667 78.6278 333.761 79.7499 325.334 79.5038C319.619 79.0779 316.026 76.3582 312.344 72.1323C307.329 65.4929 307.773 57.7394 308.445 49.7781C309.704 44.0006 313.503 41.0568 318.115 37.6427C324.002 33.9024 333.498 34.4327 339.754 37.2365Z" fill="white"/>
<path d="M187.132 36.3472C191.873 38.9909 194.351 42.651 196.082 47.7803C196.603 50.6495 196.543 53.4324 196.531 56.3472C196.53 56.9735 196.529 57.5998 196.528 58.2451C196.523 60.2375 196.512 62.2298 196.5 64.2222C196.496 65.5763 196.492 66.9305 196.488 68.2847C196.478 71.5972 196.463 74.9097 196.445 78.2222C192.631 78.2222 188.818 78.2222 184.889 78.2222C184.889 77.0488 184.889 75.8755 184.889 74.6666C184.211 75.2349 183.532 75.8033 182.834 76.3888C178.328 79.8466 173.477 79.6751 168 79.111C164.061 77.212 161.574 75.2215 160 71.111C159.461 67.1962 159.118 63.2818 160.781 59.6076C164.07 55.2776 169.054 53.4799 174.222 52.4444C175.925 52.3849 177.63 52.3685 179.334 52.3888C180.209 52.3968 181.084 52.4049 181.986 52.4131C182.983 52.4286 182.983 52.4286 184 52.4444C183.694 50.2465 183.694 50.2465 183.111 47.9999C180.943 46.9157 179.42 46.9319 177 46.8888C176.233 46.8659 175.465 46.843 174.674 46.8194C172.032 47.1651 170.97 48.1928 168.889 49.7777C165.857 48.7669 165.228 47.9613 163.556 45.3333C163.556 44.7466 163.556 44.1599 163.556 43.5555C162.969 43.5555 162.382 43.5555 161.778 43.5555C161.778 42.6755 161.778 41.7955 161.778 40.8888C169.759 35.9775 177.871 33.0787 187.132 36.3472Z" fill="white"/>
<path d="M76.4446 23.1113C77.0312 23.1113 77.6179 23.1113 78.2223 23.1113C79.2051 26.185 80.1861 29.2592 81.1668 32.3336C81.5784 33.6209 81.5784 33.6209 81.9984 34.9342C83.5409 39.7729 85.0439 44.6204 86.4938 49.4876C87.4202 52.5907 88.372 55.6856 89.3334 58.778C89.5233 59.3914 89.7131 60.0049 89.9087 60.6369C90.8888 63.771 91.9322 66.8466 93.1668 69.8891C94.2223 72.8891 94.2223 72.8891 94.2223 78.2224C82.7823 78.2224 71.3423 78.2224 59.5557 78.2224C61.5398 67.3094 61.5398 67.3094 63.4411 62.8127C65.8247 56.8986 67.6435 50.9065 69.389 44.778C71.4879 37.4463 73.7319 30.2415 76.4446 23.1113Z" fill="white"/>
<path d="M0.88916 0.888672C12.3292 0.888672 23.7692 0.888672 35.5558 0.888672C33.5566 9.88522 33.5566 9.88522 32.5628 12.9581C32.3461 13.635 32.1295 14.3119 31.9063 15.0093C31.6806 15.7028 31.455 16.3964 31.2225 17.1109C30.7441 18.6015 30.2661 20.0923 29.7885 21.5831C29.5574 22.3016 29.3264 23.02 29.0884 23.7602C28.2381 26.4253 27.4231 29.1005 26.6114 31.7776C24.9942 37.0689 23.2422 42.309 21.4655 47.5484C20.4514 50.646 19.542 53.7496 18.6669 56.8887C16.7648 54.9865 16.4528 54.1302 15.7364 51.6109C15.529 50.897 15.3216 50.183 15.1079 49.4475C14.8891 48.6764 14.6702 47.9053 14.4447 47.1109C12.7004 41.1265 10.8889 35.1817 8.88916 29.2776C6.96503 23.5665 5.0661 17.8486 3.22249 12.1109C2.98874 11.397 2.75499 10.683 2.51416 9.94748C2.30104 9.27953 2.08791 8.61158 1.86833 7.92339C1.67883 7.3363 1.48934 6.7492 1.29411 6.14431C0.88916 4.44423 0.88916 4.44423 0.88916 0.888672Z" fill="white"/>
<path d="M231.111 35.5556C231.111 39.6623 231.111 43.769 231.111 48.0001C229.115 48.2026 227.118 48.4052 225.122 48.6077C222.968 48.8469 222.968 48.8469 220.445 49.7779C219.247 52.7461 219.375 55.9619 219.274 59.1251C219.237 60.2365 219.2 61.348 219.162 62.4931C219.127 63.6504 219.092 64.8077 219.056 66.0001C219.017 67.1711 218.979 68.3422 218.939 69.5487C218.845 72.4398 218.756 75.331 218.667 78.2223C214.267 78.2223 209.867 78.2223 205.333 78.2223C205.333 64.4356 205.333 50.649 205.333 36.4445C209.44 36.4445 213.547 36.4445 217.778 36.4445C218.071 37.9112 218.365 39.3779 218.667 40.889C219.363 40.174 220.06 39.459 220.778 38.7223C224.735 34.8599 224.764 35.5556 231.111 35.5556Z" fill="white"/>
<path d="M287.111 36.4443C291.218 36.4443 295.325 36.4443 299.556 36.4443C299.556 50.231 299.556 64.0177 299.556 78.2221C295.449 78.2221 291.342 78.2221 287.111 78.2221C287.111 64.4354 287.111 50.6488 287.111 36.4443Z" fill="white"/>
<path d="M174.222 54.2219C174.882 54.3869 175.542 54.5519 176.222 54.7219C176.736 54.8502 177.249 54.9785 177.778 55.1108C177.778 55.6974 177.778 56.2841 177.778 56.8885C178.365 56.8885 178.951 56.8885 179.556 56.8885C179.556 57.7685 179.556 58.6485 179.556 59.5552C181.316 59.5552 183.076 59.5552 184.889 59.5552C185.203 62.9272 185.141 64.4969 183.278 67.3885C181.333 69.333 181.333 69.333 178.667 70.2219C178.373 70.8085 178.08 71.3952 177.778 71.9997C178.365 72.293 178.951 72.5863 179.556 72.8885C179.556 73.1819 179.556 73.4752 179.556 73.7774C180.142 73.7774 180.729 73.7774 181.333 73.7774C181.04 75.2441 180.747 76.7108 180.445 78.2219C175.247 79.9543 169.832 79.9938 164.889 77.6108C160.996 74.0099 159.828 71.5683 159.556 66.2774C159.655 63.0582 159.864 60.8158 161.833 58.2219C165.446 55.1471 169.36 52.2101 174.222 54.2219Z" fill="white"/>
<path d="M340.833 37.9995C341.585 38.6595 342.337 39.3195 343.111 39.9995C343.808 40.6045 344.504 41.2095 345.222 41.8329C346.667 43.5551 346.667 43.5551 346.667 46.2217C345.787 46.6617 345.787 46.6617 344.889 47.1106C344.596 47.6973 344.302 48.284 344 48.8884C343.047 48.5767 342.093 48.2651 341.111 47.944C337.552 47.0509 337.552 47.0509 334.222 47.9995C334.222 47.4129 334.222 46.8262 334.222 46.2217C333.342 45.9284 332.462 45.6351 331.556 45.3329C331.262 45.6262 330.969 45.9195 330.667 46.2217C328.889 46.258 327.111 46.2596 325.333 46.2217C326.213 45.0484 327.093 43.8751 328 42.6662C326.827 42.3729 325.653 42.0795 324.444 41.7773C324.151 42.6573 323.858 43.5373 323.556 44.444C322.969 44.444 322.382 44.444 321.778 44.444C321.778 43.564 321.778 42.684 321.778 41.7773C321.191 41.484 320.604 41.1906 320 40.8884C325.894 35.8131 333.67 34.3527 340.833 37.9995Z" fill="white"/>
<path d="M293.834 14.6113C296.889 15.1113 296.889 15.1113 299.056 16.5002C300.955 19.4636 300.815 21.4289 300.445 24.8891C299.683 27.2366 299.077 28.1371 297.111 29.6113C294.359 30.4525 292.533 30.0957 289.778 29.3336C287.216 27.3015 286.324 25.6473 285.889 22.3891C286.222 19.5558 286.222 19.5558 288.056 17.0002C290.667 15.1113 290.667 15.1113 293.834 14.6113Z" fill="white"/>
<path d="M380.167 37.1114C381.103 37.1354 381.103 37.1354 382.057 37.16C383.594 37.2018 385.131 37.2656 386.667 37.3336C386.667 37.9203 386.667 38.5069 386.667 39.1114C387.253 39.1114 387.84 39.1114 388.444 39.1114C388.151 41.7514 387.858 44.3914 387.556 47.1114C386.421 47.0163 385.287 46.9212 384.118 46.8232C382.634 46.7148 381.151 46.6072 379.667 46.5003C378.918 46.4355 378.17 46.3708 377.399 46.3041C376.325 46.231 376.325 46.231 375.229 46.1565C374.568 46.1053 373.907 46.0541 373.226 46.0013C372.675 46.0743 372.124 46.1473 371.556 46.2225C370.969 47.1025 370.382 47.9825 369.778 48.8892C369.856 47.6289 369.952 46.3698 370.056 45.1114C370.107 44.4101 370.159 43.7089 370.212 42.9864C371.496 37.0635 374.69 36.8455 380.167 37.1114Z" fill="white"/>
<path d="M176.889 37.3328C177.624 39.9038 177.778 41.6772 177.778 44.4439C179.978 44.8839 179.978 44.8839 182.222 45.3328C181.929 45.9195 181.636 46.5061 181.333 47.1106C180.733 47.0796 180.133 47.0487 179.514 47.0168C178.721 46.9928 177.928 46.9687 177.111 46.9439C176.327 46.913 175.544 46.882 174.736 46.8502C172.029 47.1578 171.008 48.1521 168.889 49.7772C165.856 48.7664 165.228 47.9609 163.556 45.3328C163.556 44.7461 163.556 44.1595 163.556 43.555C162.969 43.555 162.382 43.555 161.778 43.555C161.778 42.675 161.778 41.795 161.778 40.8884C167.203 37.2592 170.445 35.8096 176.889 37.3328Z" fill="white"/>
<path d="M123.556 32C125.08 34.8822 126.243 37.8171 127.333 40.8889C127.835 42.2639 127.835 42.2639 128.347 43.6667C128.889 46.2222 128.889 46.2222 128.097 48.3333C127.772 48.81 127.446 49.2867 127.111 49.7778C125.644 49.7778 124.178 49.7778 122.667 49.7778C122.613 49.1774 122.559 48.5769 122.503 47.9583C122.429 47.1654 122.354 46.3725 122.278 45.5556C122.206 44.7718 122.133 43.9881 122.059 43.1806C121.846 40.9324 121.846 40.9324 121.222 39C120.669 36.2333 122.217 34.3564 123.556 32Z" fill="white"/>
<path d="M400 37.333C402.347 37.333 404.694 37.333 407.111 37.333C407.111 40.2663 407.111 43.1997 407.111 46.2219C404.471 46.2219 401.831 46.2219 399.111 46.2219C400.285 45.9286 401.458 45.6352 402.667 45.333C403.826 42.6698 403.826 42.6698 404.445 39.9997C403.858 39.7063 403.271 39.413 402.667 39.1108C402.374 40.5775 402.08 42.0441 401.778 43.5552C400.898 43.8486 400.018 44.1419 399.111 44.4441C399.111 42.9775 399.111 41.5108 399.111 39.9997C399.698 39.9997 400.285 39.9997 400.889 39.9997C401.182 39.413 401.476 38.8263 401.778 38.2219C401.191 37.9286 400.605 37.6352 400 37.333Z" fill="white"/>
<path d="M42.667 0.888672C45.0137 0.888672 47.3604 0.888672 49.7782 0.888672C49.7782 1.18201 49.7782 1.47534 49.7782 1.77756C47.7248 1.77756 45.6715 1.77756 43.5559 1.77756C43.5124 2.32412 43.4689 2.87069 43.424 3.43381C43.3575 4.15225 43.2911 4.87069 43.2226 5.61089C43.1607 6.32246 43.0989 7.03402 43.0351 7.76714C42.667 9.77756 42.667 9.77756 40.8893 12.4442C40.4811 15.0828 40.4811 15.0828 40.3337 17.9442C40.2673 18.9102 40.2008 19.8761 40.1323 20.8713C40.0888 21.6104 40.0452 22.3494 40.0004 23.1109C38.827 23.4042 37.6537 23.6976 36.4448 23.9998C38.0145 16.1515 40.3637 8.54587 42.667 0.888672Z" fill="white"/>
<path d="M168.889 39.111C168.889 39.6977 168.889 40.2843 168.889 40.8888C167.129 41.7688 167.129 41.7688 165.333 42.6666C166.507 42.9599 167.68 43.2532 168.889 43.5555C168.596 44.7288 168.302 45.9021 168 47.111C168.587 47.111 169.173 47.111 169.778 47.111C169.484 47.991 169.191 48.871 168.889 49.7777C165.856 48.7668 165.228 47.9613 163.556 45.3332C163.556 44.7466 163.556 44.1599 163.556 43.5555C162.969 43.5555 162.382 43.5555 161.778 43.5555C161.778 42.6755 161.778 41.7955 161.778 40.8888C165.583 38.0091 165.583 38.0091 168.889 39.111Z" fill="white"/>
<path d="M145.778 15.1113C150.764 15.1113 155.751 15.1113 160.889 15.1113C160 19.5558 160 19.5558 158.222 21.3336C158.516 19.8669 158.809 18.4002 159.111 16.8891C158.524 16.8891 157.938 16.8891 157.333 16.8891C157.333 17.4758 157.333 18.0624 157.333 18.6669C154.4 18.6669 151.467 18.6669 148.444 18.6669C148.444 18.0802 148.444 17.4936 148.444 16.8891C147.564 16.3024 146.684 15.7158 145.778 15.1113Z" fill="white"/>
<path d="M103.111 15.1113C108.391 15.1113 113.671 15.1113 119.111 15.1113C119.111 16.578 119.111 18.0447 119.111 19.5558C117.938 19.2624 116.765 18.9691 115.556 18.6669C115.849 18.3736 116.142 18.0802 116.445 17.778C112.045 17.778 107.645 17.778 103.111 17.778C103.111 16.898 103.111 16.018 103.111 15.1113Z" fill="white"/>
<path d="M328.889 41.7786C328.889 42.6586 328.889 43.5386 328.889 44.4452C328.009 44.8852 328.009 44.8852 327.111 45.3341C330.191 44.8941 330.191 44.8941 333.334 44.4452C333.627 45.6186 333.92 46.7919 334.222 48.0008C332.667 48.0249 331.111 48.0421 329.556 48.0563C328.256 48.0718 328.256 48.0718 326.931 48.0876C324.749 48.0114 322.968 47.7404 320.889 47.1119C322.418 42.5255 324.061 41.3871 328.889 41.7786Z" fill="white"/>
<path d="M296.889 15.1116C296.889 15.9916 296.889 16.8716 296.889 17.7782C294.261 19.0923 291.785 18.7207 288.889 18.6671C289.182 19.8404 289.476 21.0138 289.778 22.2227C289.191 22.2227 288.605 22.2227 288 22.2227C287.414 23.1027 286.827 23.9827 286.222 24.8893C285.811 21.355 285.947 19.9395 288.056 17.0004C291.245 14.6933 293.038 14.734 296.889 15.1116Z" fill="white"/>
<path d="M288.889 17.7773C290.649 18.364 292.409 18.9507 294.222 19.5551C294.222 20.1418 294.222 20.7285 294.222 21.3329C293.342 21.6262 292.462 21.9196 291.556 22.2218C291.262 23.6885 290.969 25.1551 290.667 26.6662C289.494 26.3729 288.32 26.0796 287.111 25.7773C287.073 24.2963 287.075 22.8139 287.111 21.3329C287.405 21.0396 287.698 20.7462 288 20.444C288.294 19.564 288.587 18.684 288.889 17.7773Z" fill="white"/>
<path d="M176.223 55.1673C176.736 55.4423 177.249 55.7173 177.778 56.0006C177.192 56.5873 176.605 57.1739 176 57.7784C176 58.365 176 58.9517 176 59.5562C172.579 59.0809 170.652 58.1946 168 56.0006C167.414 55.7073 166.827 55.4139 166.223 55.1117C170.355 53.1602 172.176 53.2561 176.223 55.1673Z" fill="white"/>
<path d="M176.341 53.1602C177.145 53.1808 177.949 53.2014 178.778 53.2227C179.992 53.2467 179.992 53.2467 181.23 53.2713C181.851 53.2919 182.472 53.3125 183.111 53.3338C182.525 54.8004 181.938 56.2671 181.334 57.7782C182.507 58.3649 183.68 58.9515 184.889 59.556C183.129 59.556 181.369 59.556 179.556 59.556C179.556 58.676 179.556 57.796 179.556 56.8893C178.969 56.8893 178.383 56.8893 177.778 56.8893C177.778 56.3027 177.778 55.716 177.778 55.1115C176.018 55.1115 174.258 55.1115 172.445 55.1115C174.223 53.3338 174.223 53.3338 176.341 53.1602Z" fill="white"/>
<path d="M66.6667 12.4443C67.2533 12.4443 67.84 12.4443 68.4444 12.4443C68.4444 14.4977 68.4444 16.551 68.4444 18.6666C67.8578 18.6666 67.2711 18.6666 66.6667 18.6666C66.6667 20.1332 66.6667 21.5999 66.6667 23.111C66.08 23.111 65.4933 23.111 64.8889 23.111C64.5956 19.8843 64.3022 16.6577 64 13.3332C64.88 13.6266 65.76 13.9199 66.6667 14.2221C66.6667 13.6354 66.6667 13.0488 66.6667 12.4443Z" fill="white"/>
<path d="M296.889 16C298.063 16.88 299.236 17.76 300.445 18.6667C300.151 19.84 299.858 21.0133 299.556 22.2222C296.916 21.7822 296.916 21.7822 294.223 21.3333C294.223 20.7467 294.223 20.16 294.223 19.5556C293.636 19.2622 293.049 18.9689 292.445 18.6667C293.911 18.3733 295.378 18.08 296.889 17.7778C296.889 17.1911 296.889 16.6044 296.889 16Z" fill="white"/>
<path d="M371.556 22.2227C373.316 22.2227 375.076 22.2227 376.889 22.2227C376.889 22.516 376.889 22.8093 376.889 23.1115C379.529 23.5515 379.529 23.5515 382.223 24.0004C382.223 24.2938 382.223 24.5871 382.223 24.8893C381.251 24.9993 380.279 25.1093 379.278 25.2227C375.935 25.5601 375.935 25.5601 373.334 27.556C373.334 26.9693 373.334 26.3827 373.334 25.7782C372.454 25.7782 371.574 25.7782 370.667 25.7782C370.96 24.6049 371.254 23.4315 371.556 22.2227Z" fill="white"/>
<path d="M377.111 13.2221C378.069 13.2381 379.027 13.2542 380.014 13.2707C381.107 13.3016 381.107 13.3016 382.222 13.3332C382.222 13.6265 382.222 13.9199 382.222 14.2221C378.262 14.6621 378.262 14.6621 374.222 15.111C374.516 15.991 374.809 16.871 375.111 17.7776C372.111 17.2912 370.593 16.84 368 15.111C371.09 13.2058 373.522 13.1441 377.111 13.2221Z" fill="white"/>
<path d="M125.333 73.7773C126.213 74.2173 126.213 74.2173 127.111 74.6662C127.111 75.5462 127.111 76.4262 127.111 77.3329C130.045 77.3329 132.978 77.3329 136 77.3329C136.293 76.4529 136.587 75.5729 136.889 74.6662C137.769 74.9596 138.649 75.2529 139.556 75.5551C139.556 76.4351 139.556 77.3151 139.556 78.2218C135.156 78.2218 130.756 78.2218 126.222 78.2218C125.929 76.7551 125.636 75.2885 125.333 73.7773Z" fill="white"/>
<path d="M27.5556 51.5557C27.8489 51.5557 28.1423 51.5557 28.4445 51.5557C28.7353 57.005 28.7944 61.0016 25.7778 65.7779C24.5507 62.4297 25.2483 60.0464 26.1667 56.6668C26.4222 55.7089 26.6778 54.7509 26.941 53.764C27.1438 53.0352 27.3466 52.3065 27.5556 51.5557Z" fill="white"/>
<path d="M268.445 40C270.241 40.535 272.019 41.1316 273.778 41.7778C274.071 42.3644 274.365 42.9511 274.667 43.5556C274.373 44.1422 274.08 44.7289 273.778 45.3333C272.311 45.3333 270.845 45.3333 269.333 45.3333C268.389 43.6667 268.389 43.6667 267.556 41.7778C267.849 41.1911 268.142 40.6044 268.445 40Z" fill="white"/>
<path d="M167.111 40.8887C169.5 41.1664 169.5 41.1664 171.556 41.7776C170.969 43.5376 170.383 45.2976 169.778 47.1109C169.191 47.1109 168.605 47.1109 168 47.1109C168.294 45.9376 168.587 44.7642 168.889 43.5553C167.423 43.5553 165.956 43.5553 164.445 43.5553C165.5 42.1664 165.5 42.1664 167.111 40.8887Z" fill="white"/>
<path d="M320.889 72.8887C322.612 73.4998 322.612 73.4998 324.445 74.6664C325.112 76.9998 325.112 76.9998 325.334 79.1109C320.223 78.4442 320.223 78.4442 318.223 76.4442C318.809 76.1509 319.396 75.8576 320 75.5553C320.294 74.6753 320.587 73.7953 320.889 72.8887Z" fill="white"/>
<path d="M322.667 66.667C324.176 66.8914 325.675 67.1794 327.167 67.5003C327.984 67.6733 328.801 67.8464 329.642 68.0246C330.589 68.2326 330.589 68.2326 331.556 68.4448C331.556 69.0314 331.556 69.6181 331.556 70.2225C329.502 69.9292 327.449 69.6359 325.333 69.3337C325.333 69.9203 325.333 70.507 325.333 71.1114C324.747 71.1114 324.16 71.1114 323.556 71.1114C322.969 69.9381 322.382 68.7648 321.778 67.5559C322.071 67.2625 322.364 66.9692 322.667 66.667Z" fill="white"/>
<path d="M273.778 43.5557C274.658 43.849 275.538 44.1423 276.444 44.4446C277.167 46.1668 277.167 46.1668 277.333 48.0001C276.747 48.5868 276.16 49.1734 275.556 49.7779C274.676 49.4846 273.796 49.1912 272.889 48.889C272.278 47.0557 272.278 47.0557 272 45.3334C272.587 45.3334 273.173 45.3334 273.778 45.3334C273.778 44.7468 273.778 44.1601 273.778 43.5557Z" fill="white"/>
<path d="M328.611 35.5C330.184 35.512 330.184 35.512 331.788 35.5243C332.592 35.5346 333.395 35.5449 334.222 35.5555C334.222 35.8489 334.222 36.1422 334.222 36.4444C332.82 36.6369 332.82 36.6369 331.389 36.8333C329.474 37.1159 327.56 37.4276 325.667 37.8333C323.438 38.2438 321.372 38.2868 319.111 38.2222C320.938 34.5683 325.026 35.4645 328.611 35.5Z" fill="white"/>
<path d="M337.778 55.1113C338.072 55.1113 338.365 55.1113 338.667 55.1113C338.866 56.5169 339.048 57.9248 339.223 59.3336C339.326 60.1173 339.429 60.9011 339.535 61.7086C339.558 64.2034 339.066 65.4525 337.778 67.5558C336.605 66.9691 335.432 66.3824 334.223 65.778C334.644 65.338 335.066 64.898 335.5 64.4447C337.442 61.3383 337.475 58.7472 337.778 55.1113Z" fill="white"/>
<path d="M139.556 35.5557C139.849 35.5557 140.142 35.5557 140.444 35.5557C140.738 37.9023 141.031 40.249 141.333 42.6668C140.16 42.9601 138.987 43.2534 137.778 43.5557C138.364 40.9157 138.951 38.2757 139.556 35.5557ZM141.333 37.3334C142.222 40.889 142.222 40.889 142.222 40.889L141.333 37.3334Z" fill="white"/>
<path d="M336.889 42.667C339.438 43.1767 340.322 43.4327 342.222 45.3337C342.516 44.747 342.809 44.1603 343.111 43.5559C343.698 43.8492 344.285 44.1425 344.889 44.4448C344.889 45.9114 344.889 47.3781 344.889 48.8892C338.932 47.1682 338.932 47.1682 336.889 44.4448C336.889 43.8581 336.889 43.2714 336.889 42.667Z" fill="white"/>
<path d="M39.1115 16.8887C39.4048 16.8887 39.6982 16.8887 40.0004 16.8887C40.0004 18.942 40.0004 20.9953 40.0004 23.1109C38.827 23.4042 37.6537 23.6976 36.4448 23.9998C36.9313 21.0001 37.3825 19.4821 39.1115 16.8887Z" fill="white"/>
<path d="M145.778 16C149.298 16 152.818 16 156.444 16C156.444 16.2933 156.444 16.5867 156.444 16.8889C153.804 16.8889 151.164 16.8889 148.444 16.8889C148.444 17.4756 148.444 18.0622 148.444 18.6667C147.564 18.6667 146.684 18.6667 145.778 18.6667C145.778 17.7867 145.778 16.9067 145.778 16Z" fill="white"/>
<path d="M56.0004 56.8887C56.2938 56.8887 56.5871 56.8887 56.8893 56.8887C56.2227 63.7776 56.2227 63.7776 54.2227 65.7776C54.2227 63.7242 54.2227 61.6709 54.2227 59.5553C54.8093 59.5553 55.396 59.5553 56.0004 59.5553C56.0004 58.6753 56.0004 57.7953 56.0004 56.8887Z" fill="white"/>
<path d="M310.223 58.667C310.809 58.667 311.396 58.667 312 58.667C312 59.8403 312 61.0137 312 62.2225C311.414 62.2225 310.827 62.2225 310.223 62.2225C309.929 63.1025 309.636 63.9825 309.334 64.8892C308.778 63.2781 308.778 63.2781 308.445 61.3337C309.031 60.4537 309.618 59.5737 310.223 58.667Z" fill="white"/>
<path d="M111.111 26.667C111.991 27.2537 112.871 27.8403 113.778 28.4448C113.485 29.9114 113.191 31.3781 112.889 32.8892C112.009 32.3025 111.129 31.7159 110.223 31.1114C109.343 31.5514 109.343 31.5514 108.445 32.0003C109.334 30.2225 110.223 28.4448 111.111 26.667Z" fill="white"/>
</svg>
