<svg width="142" height="80" viewBox="0 0 142 80" fill="none" xmlns="http://www.w3.org/2000/svg">
<path d="M136 40.3203C141.24 44.9826 143.484 51.8478 139.382 58.4375C136.55 62.9837 132.369 66.0436 127.812 68.6571C121.805 72.1034 115.291 74.2293 108.649 76.0322C103.145 77.525 97.5404 78.4451 91.8831 79.107C85.7032 79.83 79.503 80.057 73.2852 79.9891C75.9189 79.792 78.5554 79.6268 81.1858 79.3917C87.0834 78.8648 92.9246 77.9616 98.6896 76.6025C104.586 75.2115 110.406 73.5514 115.901 70.9563C121.934 68.1064 127.64 64.7642 132.108 59.6422C135.077 56.2383 137.013 52.412 137.291 47.8355C137.444 45.3103 136.958 42.8964 136 40.3203Z" fill="white"/>
<path d="M26.1863 47.6809C23.8972 47.6809 21.6061 47.7423 19.3201 47.6667C15.7719 47.5493 13.9538 45.8007 13.8578 42.3326C13.7682 39.1625 13.8238 35.9882 13.8472 32.8154C13.8554 31.7175 14.4953 31.1231 15.5636 31.0929C16.7528 31.0589 17.4347 31.56 17.4676 32.7037C17.5443 35.3501 17.5318 38.0005 17.5599 40.6492C17.5657 41.2046 17.546 41.7657 17.6186 42.3136C17.7353 43.1913 18.2425 43.7688 19.1542 43.8237C20.1648 43.8851 21.1803 43.86 22.1937 43.8773C22.916 43.8899 22.8214 43.365 22.8224 42.9172C22.8285 39.8755 22.8318 36.8334 22.8322 33.7908C22.8322 33.4637 22.8268 33.1356 22.8512 32.8099C22.9391 31.633 23.523 31.0878 24.6721 31.0932C25.8212 31.0986 26.4624 31.653 26.4909 32.8164C26.5564 35.4966 26.5781 38.1793 26.59 40.8612C26.6012 43.4461 27.107 43.9781 29.6669 43.9971C32.0726 44.0147 31.9654 44.0188 31.8782 41.5577C31.7727 38.5864 31.8487 35.6076 31.8962 32.6332C31.9108 31.7205 32.5561 31.1787 33.4952 31.0966C34.5426 31.0053 35.1814 31.4084 35.424 32.3377C35.489 32.5908 35.5217 32.8512 35.5214 33.1126C35.5214 37.2653 35.5298 41.418 35.5027 45.5703C35.4935 46.9732 34.9599 47.5625 33.5431 47.5985C31.0928 47.6613 28.6395 47.6158 26.1873 47.6158L26.1863 47.6809Z" fill="white"/>
<path d="M45.208 31.1169C46.8769 31.1169 48.5457 31.1016 50.2143 31.1216C51.5636 31.1379 52.1882 31.715 52.198 32.8893C52.2075 34.0516 51.5765 34.6844 50.2597 34.7061C47.8716 34.7447 45.4821 34.759 43.0943 34.7288C42.2577 34.7183 41.8644 34.9826 41.9788 35.8501C42.0073 36.0778 42.0083 36.3081 41.9818 36.5361C41.8987 37.271 42.2387 37.5142 42.945 37.5037C44.6132 37.4796 46.2831 37.4735 47.9507 37.521C49.0655 37.5526 49.6063 38.1517 49.664 39.255C49.7284 40.4896 49.1839 41.121 47.8574 41.1767C46.3873 41.2388 44.9114 41.1682 43.4417 41.2367C42.9481 41.2598 42.1772 40.8296 42.0168 41.7796C41.856 42.7363 42.4012 43.6079 43.306 43.8033C43.7169 43.8919 44.1501 43.8987 44.5739 43.9051C46.504 43.9299 48.4348 43.9255 50.3649 43.9618C51.7027 43.9869 52.1485 44.4323 52.2109 45.708C52.2686 46.886 51.7268 47.5859 50.4735 47.5991C47.8272 47.6266 45.1696 47.6507 42.5321 47.4607C40.1837 47.2911 38.4049 45.3786 38.3333 43.0162C38.2315 39.6496 38.2681 36.2772 38.3092 32.9083C38.3238 31.7025 38.9765 31.1478 40.1993 31.1311C41.8678 31.1081 43.5371 31.1254 45.2059 31.1254L45.208 31.1169Z" fill="white"/>
<path d="M74.99 43.27C74.99 44.4965 75.0131 45.5408 74.9842 46.5834C74.9472 47.9238 74.3345 48.5118 73.0419 48.5114C71.8079 48.5114 71.1375 47.8475 71.1318 46.5376C71.1179 43.4939 71.087 40.4493 71.1467 37.4067C71.2234 33.5146 73.1294 31.6689 77.0226 31.6333C79.1495 31.614 81.2774 31.6241 83.4046 31.6459C84.8771 31.6608 85.4213 32.1887 85.4264 33.6767C85.4413 37.9968 85.436 42.3169 85.4104 46.637C85.4033 47.9242 84.7756 48.5155 83.5407 48.5159C82.2911 48.5159 81.6581 47.9354 81.6068 46.6794C81.5702 45.7633 81.6319 44.8436 81.5583 43.9313C81.5393 43.6965 81.1797 43.3036 80.9683 43.2982C79.0457 43.2497 77.1203 43.27 74.99 43.27ZM81.5115 39.3345V35.5156C79.8002 35.5156 78.1147 35.4634 76.4349 35.5383C75.6329 35.5723 75.1457 36.1792 75.0779 36.9769C75.0127 37.7422 75.0636 38.5175 75.0636 39.3355L81.5115 39.3345Z" fill="white"/>
<path d="M92.0494 35.5559C92.0494 37.5959 92.0494 39.5817 92.0494 41.5675C92.0494 43.2363 92.0748 44.9062 92.0341 46.5741C91.9971 48.0845 90.8416 48.8771 89.4003 48.4248C88.6604 48.1924 88.2509 47.6557 88.2468 46.89C88.2258 42.3437 88.2088 37.7937 88.2315 33.2458C88.2363 32.2958 88.8324 31.6916 89.781 31.676C92.4952 31.6312 95.2175 31.5426 97.9256 31.6851C100.538 31.8208 102.29 33.5474 102.406 36.1547C102.564 39.7147 102.51 43.2852 102.489 46.8513C102.483 47.9882 101.789 48.5253 100.618 48.5137C99.3675 48.5029 98.7286 47.9288 98.711 46.6555C98.6754 44.0706 98.7001 41.485 98.6876 38.8998C98.6845 38.2789 98.6591 37.6556 98.596 37.0385C98.5139 36.2382 98.0871 35.6105 97.2647 35.5756C95.5781 35.5047 93.8865 35.5559 92.0494 35.5559Z" fill="white"/>
<path d="M62.8314 48.5078C61.6867 48.5078 60.5413 48.536 59.3976 48.5031C56.3414 48.4155 54.4065 46.7992 54.1914 43.7458C54.0062 41.1161 54.073 38.446 54.2956 35.8166C54.5019 33.3786 56.3652 31.7918 58.9043 31.6887C61.4828 31.5839 64.0707 31.6208 66.6536 31.6504C67.8231 31.6636 68.3717 32.2977 68.3839 33.4539C68.3975 34.697 67.875 35.3494 66.674 35.3773C64.582 35.4261 62.488 35.3885 60.3951 35.4024C58.4911 35.4149 57.935 35.9832 57.9452 37.8658C57.9536 39.4356 57.9421 41.0061 57.9791 42.5753C58.0161 44.158 58.5399 44.6832 60.1403 44.7025C62.2651 44.7283 64.391 44.6686 66.5152 44.7079C68.0663 44.7364 68.8022 45.8421 68.3473 47.3112C68.1016 48.1075 67.5639 48.4956 66.7527 48.5037C65.4478 48.517 64.1396 48.5071 62.8314 48.5078Z" fill="white"/>
<path d="M67.9492 0L119.403 6.28435L110.566 13.9438L70.7343 1.17829L105.852 17.8715L92.6944 28.673L67.9492 0Z" fill="white"/>
<path d="M111.157 20.0312C115.401 22.6582 118.496 25.3982 120.583 27.4953C122.84 29.7613 125.239 32.2111 127.063 36.1362C128.58 39.3969 128.784 41.7026 128.831 42.4209C129.001 44.9715 128.492 46.9671 128.242 47.9198C127.994 48.8627 127.519 50.6323 126.278 52.633C125.314 54.1858 124.321 55.1837 123.725 55.7753C122.391 57.0985 121.239 57.8547 119.601 58.9177C117.903 60.0206 116.132 61.0048 114.298 61.8633C111.75 63.0507 109.733 63.6851 108.014 64.2202C105.139 65.1138 102.944 65.5739 100.944 65.9875C99.5837 66.2687 95.8035 67.0209 90.7317 67.5586C88.5519 67.7897 85.5154 68.1042 81.5015 68.1479C78.255 68.1819 75.9204 68.0248 72.0748 67.7551C69.0827 67.5451 65.861 67.3191 61.6662 66.7732C54.515 65.8422 49.1206 64.5781 45.9548 63.8273C43.2427 63.1827 39.7363 62.3443 35.1534 60.8814C33.2416 60.2707 28.368 58.667 22.1932 55.9718C17.898 54.0973 14.9959 52.8311 11.3907 50.6683C8.32236 48.8274 4.2918 46.066 0 42.027C2.70162 43.8678 5.49384 45.5719 8.36613 47.133C18.8273 52.8196 27.7288 55.1738 35.2325 57.1097C43.3037 59.1865 51.5245 60.6311 59.8202 61.4303C69.5486 62.3464 77.609 62.0173 83.3084 61.5087C98.9069 60.1177 106.066 56.5553 108.604 55.185C114.074 52.235 117.5 49.0058 119.487 45.1086C120.155 43.798 121.518 41.0445 121.402 37.3599C121.372 36.4151 121.193 34.6502 120.19 32.0123C119.246 29.5238 116.935 24.6647 111.157 20.0312Z" fill="white"/>
<path d="M64.7707 57.3198C64.6023 57.312 64.4434 57.24 64.3265 57.1186C64.262 57.0552 64.211 56.9793 64.1767 56.8955C64.1424 56.8117 64.1255 56.7219 64.1271 56.6314C64.1262 56.5434 64.1424 56.456 64.1749 56.3742H64.1701L64.4256 55.3408V55.2546H66.1043L65.9316 55.943H67.0512L67.3003 54.9449L65.3729 53.0171H65.3902C65.3795 53.0075 65.3694 52.9973 65.36 52.9866C65.2944 52.9238 65.2424 52.8482 65.2074 52.7644C65.1724 52.6806 65.155 52.5905 65.1564 52.4997C65.1555 52.4117 65.1718 52.3244 65.2042 52.2425H65.1995L65.6745 50.3484C65.6885 50.2993 65.7073 50.2517 65.7305 50.2062C65.7504 50.1634 65.7762 50.1235 65.8071 50.0878C65.838 50.0366 65.875 49.9895 65.9174 49.9474C65.9805 49.8824 66.0563 49.831 66.14 49.7964C66.2237 49.7618 66.3137 49.7447 66.4043 49.7462H69.4167C69.5915 49.7576 69.7554 49.835 69.8751 49.9629C69.9948 50.0908 70.0614 50.2594 70.0613 50.4346C70.0621 50.523 70.0458 50.6108 70.0134 50.6931H70.0182L69.7179 51.8975H68.0826L68.2757 51.1229H67.1354L66.8609 52.2249L68.696 54.06C68.7434 54.0902 68.7874 54.1254 68.827 54.1652C68.8926 54.2281 68.9445 54.3038 68.9795 54.3876C69.0145 54.4714 69.0319 54.5616 69.0306 54.6524L68.5132 56.7176C68.5122 56.723 68.5106 56.7284 68.5084 56.7335C68.4838 56.8967 68.4014 57.0456 68.2763 57.1532C68.1511 57.2608 67.9915 57.3199 67.8265 57.3198H64.7707Z" fill="white"/>
<path d="M69.9347 57.3188C69.7664 57.311 69.6075 57.239 69.4906 57.1176C69.426 57.0542 69.375 56.9783 69.3407 56.8945C69.3064 56.8108 69.2896 56.7209 69.2911 56.6304C69.2902 56.5424 69.3065 56.4551 69.339 56.3732H69.3342L70.6662 51.0358H70.6679C70.6698 51.031 70.6714 51.0262 70.6726 51.0212C70.6969 50.8577 70.7791 50.7084 70.9043 50.6006C71.0295 50.4927 71.1893 50.4334 71.3546 50.4336H74.5824L74.2391 51.8104H72.1295L71.7861 53.1885H73.5503L72.862 54.5653H71.4407L71.0957 55.942H73.2056L72.8606 57.3188H69.9347Z" fill="white"/>
<path d="M73.6387 57.3188L75.3588 50.4336H78.9748C79.1427 50.4411 79.3014 50.5125 79.4185 50.6331C79.4834 50.6963 79.5348 50.7722 79.5693 50.8559C79.6039 50.9397 79.6211 51.0297 79.6197 51.1203C79.6205 51.2087 79.6043 51.2965 79.5719 51.3788H79.5766L79.104 53.2716H79.1023C79.088 53.321 79.0693 53.3691 79.0463 53.4151C79.0254 53.4569 78.9997 53.496 78.9697 53.5318C78.9391 53.5831 78.9022 53.6303 78.8597 53.6723C78.7968 53.7377 78.721 53.7895 78.6372 53.8245C78.5534 53.8595 78.4634 53.877 78.3725 53.8759H78.1137C78.282 53.8835 78.441 53.9555 78.5578 54.077C78.6228 54.1402 78.6742 54.216 78.7088 54.2998C78.7434 54.3836 78.7605 54.4736 78.759 54.5642C78.7597 54.6528 78.7435 54.7407 78.7111 54.8231H78.7159L78.1137 57.2319V57.3168H76.4353L77.1027 54.6494C77.0946 54.6361 77.085 54.6238 77.0741 54.6128C77.0579 54.5967 77.0387 54.5841 77.0176 54.5756C76.9964 54.5671 76.9738 54.5629 76.951 54.5632H76.0054L75.3157 57.3168L73.6387 57.3188ZM77.2099 53.1885C77.2553 53.1889 77.3004 53.1801 77.3424 53.1626C77.3844 53.1451 77.4224 53.1193 77.4541 53.0867C77.4769 53.063 77.4967 53.0367 77.5132 53.0083L77.791 51.8969C77.7831 51.8834 77.7735 51.871 77.7625 51.8599C77.7468 51.8436 77.7279 51.8307 77.707 51.8219C77.6862 51.8132 77.6637 51.8088 77.6411 51.809H76.6938L76.3491 53.1871L77.2099 53.1885Z" fill="white"/>
<path d="M80.0059 57.3179V50.4327H81.5567V53.8749L83.2768 50.4316H84.9983L81.5567 57.3168L80.0059 57.3179Z" fill="white"/>
<path d="M83.9648 57.3188L85.685 50.4336H87.4068L85.685 57.3188H83.9648Z" fill="white"/>
<path d="M87.2335 57.3188C87.0653 57.3109 86.9065 57.2389 86.7898 57.1176C86.7251 57.0543 86.674 56.9784 86.6396 56.8946C86.6053 56.8108 86.5884 56.7209 86.5899 56.6304C86.5891 56.5424 86.6053 56.455 86.6378 56.3732H86.633L87.965 51.0358C87.9669 51.031 87.9685 51.0262 87.9698 51.0212C87.9942 50.8578 88.0764 50.7086 88.2016 50.6007C88.3268 50.4929 88.4865 50.4336 88.6517 50.4336H91.7072C91.8821 50.4444 92.0463 50.5214 92.1664 50.649C92.2866 50.7765 92.3536 50.9451 92.3538 51.1203C92.3546 51.2087 92.3384 51.2965 92.306 51.3788H92.3108L92.0098 52.5866H90.3745L90.5679 51.8121H89.428L88.3949 55.9437H89.5369L89.6868 55.3415H91.3221L90.9774 56.7183H90.9757C90.9746 56.7237 90.973 56.7291 90.971 56.7342C90.9463 56.8974 90.864 57.0464 90.7388 57.1539C90.6137 57.2615 90.4541 57.3206 90.289 57.3205L87.2335 57.3188Z" fill="white"/>
<path d="M92.3979 57.3188C92.2296 57.311 92.0707 57.239 91.9538 57.1176C91.8892 57.0542 91.8382 56.9783 91.8038 56.8946C91.7694 56.8108 91.7525 56.7209 91.754 56.6304C91.7532 56.5424 91.7696 56.455 91.8022 56.3732H91.7974L93.1301 51.0358C93.1321 51.0311 93.1337 51.0262 93.1348 51.0212C93.1592 50.8578 93.2415 50.7086 93.3667 50.6007C93.4918 50.4929 93.6516 50.4336 93.8168 50.4336H97.0446L96.7013 51.8104H94.5924L94.2497 53.1885H96.0139L95.3255 54.5653H93.9057L93.5606 55.942H95.6702L95.3255 57.3188H92.3979Z" fill="white"/>
<path d="M96.8722 57.3188C96.7039 57.311 96.5449 57.239 96.4281 57.1176C96.3635 57.0542 96.3125 56.9783 96.2782 56.8945C96.2439 56.8108 96.2271 56.7209 96.2286 56.6304C96.2277 56.5424 96.244 56.4551 96.2764 56.3732H96.2717L96.5272 55.3398V55.2536H98.2059L98.0332 55.942H99.1752L99.3157 55.3734L97.4646 53.5223C97.4164 53.4925 97.372 53.4571 97.3323 53.4168C97.2673 53.3536 97.216 53.2779 97.1813 53.1942C97.1467 53.1105 97.1294 53.0206 97.1307 52.93L97.6037 51.0358C97.6056 51.031 97.6072 51.0262 97.6084 51.0212C97.6327 50.8577 97.7149 50.7084 97.8401 50.6006C97.9653 50.4927 98.1251 50.4334 98.2904 50.4336H101.344C101.519 50.4443 101.683 50.5213 101.803 50.6488C101.923 50.7764 101.991 50.945 101.991 51.1203C101.992 51.2088 101.975 51.2966 101.943 51.3788H101.948L101.646 52.5832H100.01L100.204 51.8087H99.0666L98.878 52.5673L100.713 54.4024C100.761 54.4318 100.805 54.4672 100.844 54.5076C100.91 54.5702 100.961 54.6456 100.996 54.7291C101.031 54.8127 101.049 54.9025 101.048 54.9931L100.616 56.7149C100.615 56.7204 100.614 56.7257 100.612 56.7308C100.587 56.894 100.505 57.043 100.38 57.1506C100.254 57.2581 100.095 57.3172 99.9297 57.3171L96.8722 57.3188Z" fill="white"/>
</svg>
